G04 #@! TF.FileFunction,Legend,Bot*
%FSLAX46Y46*%
G04 Gerber Fmt 4.6, Leading zero omitted, Abs format (unit mm)*
G04 Created by KiCad (PCBNEW 4.0.2+dfsg1-stable) date 2017년 07월 06일 (목) 오전 10시 53분 42초*
%MOMM*%
G01*
G04 APERTURE LIST*
%ADD10C,0.100000*%
%ADD11C,0.300000*%
%ADD12C,0.150000*%
G04 APERTURE END LIST*
D10*
D11*
X155082142Y-26713571D02*
X155082142Y-25213571D01*
X155082142Y-25785000D02*
X154939285Y-25713571D01*
X154653571Y-25713571D01*
X154510714Y-25785000D01*
X154439285Y-25856429D01*
X154367856Y-25999286D01*
X154367856Y-26427857D01*
X154439285Y-26570714D01*
X154510714Y-26642143D01*
X154653571Y-26713571D01*
X154939285Y-26713571D01*
X155082142Y-26642143D01*
X153082142Y-25713571D02*
X153082142Y-26713571D01*
X153724999Y-25713571D02*
X153724999Y-26499286D01*
X153653571Y-26642143D01*
X153510713Y-26713571D01*
X153296428Y-26713571D01*
X153153571Y-26642143D01*
X153082142Y-26570714D01*
X152439285Y-26642143D02*
X152296428Y-26713571D01*
X152010713Y-26713571D01*
X151867856Y-26642143D01*
X151796428Y-26499286D01*
X151796428Y-26427857D01*
X151867856Y-26285000D01*
X152010713Y-26213571D01*
X152224999Y-26213571D01*
X152367856Y-26142143D01*
X152439285Y-25999286D01*
X152439285Y-25927857D01*
X152367856Y-25785000D01*
X152224999Y-25713571D01*
X152010713Y-25713571D01*
X151867856Y-25785000D01*
X151296427Y-25213571D02*
X150296427Y-25213571D01*
X150939284Y-26713571D01*
X148939285Y-26713571D02*
X149796428Y-26713571D01*
X149367856Y-26713571D02*
X149367856Y-25213571D01*
X149510713Y-25427857D01*
X149653571Y-25570714D01*
X149796428Y-25642143D01*
X148010714Y-25213571D02*
X147867857Y-25213571D01*
X147725000Y-25285000D01*
X147653571Y-25356429D01*
X147582142Y-25499286D01*
X147510714Y-25785000D01*
X147510714Y-26142143D01*
X147582142Y-26427857D01*
X147653571Y-26570714D01*
X147725000Y-26642143D01*
X147867857Y-26713571D01*
X148010714Y-26713571D01*
X148153571Y-26642143D01*
X148225000Y-26570714D01*
X148296428Y-26427857D01*
X148367857Y-26142143D01*
X148367857Y-25785000D01*
X148296428Y-25499286D01*
X148225000Y-25356429D01*
X148153571Y-25285000D01*
X148010714Y-25213571D01*
X146867857Y-26570714D02*
X146796429Y-26642143D01*
X146867857Y-26713571D01*
X146939286Y-26642143D01*
X146867857Y-26570714D01*
X146867857Y-26713571D01*
X146153571Y-25713571D02*
X146153571Y-26713571D01*
X146153571Y-25856429D02*
X146082143Y-25785000D01*
X145939285Y-25713571D01*
X145725000Y-25713571D01*
X145582143Y-25785000D01*
X145510714Y-25927857D01*
X145510714Y-26713571D01*
X144225000Y-26642143D02*
X144367857Y-26713571D01*
X144653571Y-26713571D01*
X144796428Y-26642143D01*
X144867857Y-26499286D01*
X144867857Y-25927857D01*
X144796428Y-25785000D01*
X144653571Y-25713571D01*
X144367857Y-25713571D01*
X144225000Y-25785000D01*
X144153571Y-25927857D01*
X144153571Y-26070714D01*
X144867857Y-26213571D01*
X143725000Y-25713571D02*
X143153571Y-25713571D01*
X143510714Y-25213571D02*
X143510714Y-26499286D01*
X143439286Y-26642143D01*
X143296428Y-26713571D01*
X143153571Y-26713571D01*
D12*
X107315000Y-81407000D02*
X107315000Y-82931000D01*
X107188000Y-83312000D02*
X107188000Y-81026000D01*
X107061000Y-80772000D02*
X107061000Y-83566000D01*
X106934000Y-83820000D02*
X106934000Y-80518000D01*
X106807000Y-80391000D02*
X106807000Y-83947000D01*
X107696000Y-78867000D02*
X107696000Y-85471000D01*
X107696000Y-85471000D02*
X101854000Y-85471000D01*
X101854000Y-85471000D02*
X101092000Y-84709000D01*
X101092000Y-84709000D02*
X101092000Y-79629000D01*
X101092000Y-79629000D02*
X101854000Y-78867000D01*
X101854000Y-78867000D02*
X107696000Y-78867000D01*
X102235000Y-82169000D02*
X102997000Y-82169000D01*
X102616000Y-81788000D02*
X102616000Y-82550000D01*
X107442000Y-82169000D02*
G75*
G03X107442000Y-82169000I-3048000J0D01*
G01*
X145280000Y-71462000D02*
X144280000Y-71462000D01*
X144280000Y-69762000D02*
X145280000Y-69762000D01*
X138676000Y-56730000D02*
X137676000Y-56730000D01*
X137676000Y-55030000D02*
X138676000Y-55030000D01*
X138676000Y-61302000D02*
X137676000Y-61302000D01*
X137676000Y-59602000D02*
X138676000Y-59602000D01*
X142756000Y-55030000D02*
X143756000Y-55030000D01*
X143756000Y-56730000D02*
X142756000Y-56730000D01*
X142756000Y-59602000D02*
X143756000Y-59602000D01*
X143756000Y-61302000D02*
X142756000Y-61302000D01*
X138676000Y-59016000D02*
X137676000Y-59016000D01*
X137676000Y-57316000D02*
X138676000Y-57316000D01*
X138676000Y-63588000D02*
X137676000Y-63588000D01*
X137676000Y-61888000D02*
X138676000Y-61888000D01*
X142756000Y-57316000D02*
X143756000Y-57316000D01*
X143756000Y-59016000D02*
X142756000Y-59016000D01*
X142756000Y-61888000D02*
X143756000Y-61888000D01*
X143756000Y-63588000D02*
X142756000Y-63588000D01*
X96020000Y-35472000D02*
X97020000Y-35472000D01*
X97020000Y-37172000D02*
X96020000Y-37172000D01*
X96020000Y-38774000D02*
X97020000Y-38774000D01*
X97020000Y-40474000D02*
X96020000Y-40474000D01*
X94480000Y-43268000D02*
X93480000Y-43268000D01*
X93480000Y-41568000D02*
X94480000Y-41568000D01*
X86293960Y-101767640D02*
X87195660Y-101767640D01*
X84996020Y-101767640D02*
X83997800Y-101767640D01*
X88747460Y-102969060D02*
X88747460Y-101767640D01*
X88747460Y-96166940D02*
X88747460Y-97368360D01*
X81998820Y-102969060D02*
X81998820Y-101767640D01*
X81998820Y-96166940D02*
X81998820Y-97368360D01*
X89197180Y-102969060D02*
X89197180Y-101716840D01*
X89197180Y-96166940D02*
X89197180Y-97419160D01*
X86293960Y-100967540D02*
X86293960Y-102567740D01*
X85145880Y-102516940D02*
X85145880Y-100967540D01*
X86296500Y-101767640D02*
X85145880Y-102516940D01*
X86293960Y-101767640D02*
X85143340Y-100967540D01*
X89197180Y-102969060D02*
X81998820Y-102969060D01*
X89197180Y-96166940D02*
X81998820Y-96166940D01*
X104327960Y-107101640D02*
X105229660Y-107101640D01*
X103030020Y-107101640D02*
X102031800Y-107101640D01*
X106781460Y-108303060D02*
X106781460Y-107101640D01*
X106781460Y-101500940D02*
X106781460Y-102702360D01*
X100032820Y-108303060D02*
X100032820Y-107101640D01*
X100032820Y-101500940D02*
X100032820Y-102702360D01*
X107231180Y-108303060D02*
X107231180Y-107050840D01*
X107231180Y-101500940D02*
X107231180Y-102753160D01*
X104327960Y-106301540D02*
X104327960Y-107901740D01*
X103179880Y-107850940D02*
X103179880Y-106301540D01*
X104330500Y-107101640D02*
X103179880Y-107850940D01*
X104327960Y-107101640D02*
X103177340Y-106301540D01*
X107231180Y-108303060D02*
X100032820Y-108303060D01*
X107231180Y-101500940D02*
X100032820Y-101500940D01*
X120075960Y-119674640D02*
X120977660Y-119674640D01*
X118778020Y-119674640D02*
X117779800Y-119674640D01*
X122529460Y-120876060D02*
X122529460Y-119674640D01*
X122529460Y-114073940D02*
X122529460Y-115275360D01*
X115780820Y-120876060D02*
X115780820Y-119674640D01*
X115780820Y-114073940D02*
X115780820Y-115275360D01*
X122979180Y-120876060D02*
X122979180Y-119623840D01*
X122979180Y-114073940D02*
X122979180Y-115326160D01*
X120075960Y-118874540D02*
X120075960Y-120474740D01*
X118927880Y-120423940D02*
X118927880Y-118874540D01*
X120078500Y-119674640D02*
X118927880Y-120423940D01*
X120075960Y-119674640D02*
X118925340Y-118874540D01*
X122979180Y-120876060D02*
X115780820Y-120876060D01*
X122979180Y-114073940D02*
X115780820Y-114073940D01*
X105537000Y-60452000D02*
X105537000Y-61976000D01*
X105410000Y-62357000D02*
X105410000Y-60071000D01*
X105283000Y-59817000D02*
X105283000Y-62611000D01*
X105156000Y-62865000D02*
X105156000Y-59563000D01*
X105029000Y-59436000D02*
X105029000Y-62992000D01*
X105918000Y-57912000D02*
X105918000Y-64516000D01*
X105918000Y-64516000D02*
X100076000Y-64516000D01*
X100076000Y-64516000D02*
X99314000Y-63754000D01*
X99314000Y-63754000D02*
X99314000Y-58674000D01*
X99314000Y-58674000D02*
X100076000Y-57912000D01*
X100076000Y-57912000D02*
X105918000Y-57912000D01*
X100457000Y-61214000D02*
X101219000Y-61214000D01*
X100838000Y-60833000D02*
X100838000Y-61595000D01*
X105664000Y-61214000D02*
G75*
G03X105664000Y-61214000I-3048000J0D01*
G01*
X119888000Y-108077000D02*
X118364000Y-108077000D01*
X117983000Y-107950000D02*
X120269000Y-107950000D01*
X120523000Y-107823000D02*
X117729000Y-107823000D01*
X117475000Y-107696000D02*
X120777000Y-107696000D01*
X120904000Y-107569000D02*
X117348000Y-107569000D01*
X122428000Y-108458000D02*
X115824000Y-108458000D01*
X115824000Y-108458000D02*
X115824000Y-102616000D01*
X115824000Y-102616000D02*
X116586000Y-101854000D01*
X116586000Y-101854000D02*
X121666000Y-101854000D01*
X121666000Y-101854000D02*
X122428000Y-102616000D01*
X122428000Y-102616000D02*
X122428000Y-108458000D01*
X119126000Y-102997000D02*
X119126000Y-103759000D01*
X119507000Y-103378000D02*
X118745000Y-103378000D01*
X122174000Y-105156000D02*
G75*
G03X122174000Y-105156000I-3048000J0D01*
G01*
X100504476Y-79049571D02*
X100171142Y-79049571D01*
X100028285Y-79573381D02*
X100504476Y-79573381D01*
X100504476Y-78573381D01*
X100028285Y-78573381D01*
X99028285Y-79478143D02*
X99075904Y-79525762D01*
X99218761Y-79573381D01*
X99313999Y-79573381D01*
X99456857Y-79525762D01*
X99552095Y-79430524D01*
X99599714Y-79335286D01*
X99647333Y-79144810D01*
X99647333Y-79001952D01*
X99599714Y-78811476D01*
X99552095Y-78716238D01*
X99456857Y-78621000D01*
X99313999Y-78573381D01*
X99218761Y-78573381D01*
X99075904Y-78621000D01*
X99028285Y-78668619D01*
X98647333Y-78668619D02*
X98599714Y-78621000D01*
X98504476Y-78573381D01*
X98266380Y-78573381D01*
X98171142Y-78621000D01*
X98123523Y-78668619D01*
X98075904Y-78763857D01*
X98075904Y-78859095D01*
X98123523Y-79001952D01*
X98694952Y-79573381D01*
X98075904Y-79573381D01*
X149764666Y-70969143D02*
X149812285Y-71016762D01*
X149955142Y-71064381D01*
X150050380Y-71064381D01*
X150193238Y-71016762D01*
X150288476Y-70921524D01*
X150336095Y-70826286D01*
X150383714Y-70635810D01*
X150383714Y-70492952D01*
X150336095Y-70302476D01*
X150288476Y-70207238D01*
X150193238Y-70112000D01*
X150050380Y-70064381D01*
X149955142Y-70064381D01*
X149812285Y-70112000D01*
X149764666Y-70159619D01*
X148764666Y-70969143D02*
X148812285Y-71016762D01*
X148955142Y-71064381D01*
X149050380Y-71064381D01*
X149193238Y-71016762D01*
X149288476Y-70921524D01*
X149336095Y-70826286D01*
X149383714Y-70635810D01*
X149383714Y-70492952D01*
X149336095Y-70302476D01*
X149288476Y-70207238D01*
X149193238Y-70112000D01*
X149050380Y-70064381D01*
X148955142Y-70064381D01*
X148812285Y-70112000D01*
X148764666Y-70159619D01*
X148431333Y-70064381D02*
X147812285Y-70064381D01*
X148145619Y-70445333D01*
X148002761Y-70445333D01*
X147907523Y-70492952D01*
X147859904Y-70540571D01*
X147812285Y-70635810D01*
X147812285Y-70873905D01*
X147859904Y-70969143D01*
X147907523Y-71016762D01*
X148002761Y-71064381D01*
X148288476Y-71064381D01*
X148383714Y-71016762D01*
X148431333Y-70969143D01*
X134778666Y-56237143D02*
X134826285Y-56284762D01*
X134969142Y-56332381D01*
X135064380Y-56332381D01*
X135207238Y-56284762D01*
X135302476Y-56189524D01*
X135350095Y-56094286D01*
X135397714Y-55903810D01*
X135397714Y-55760952D01*
X135350095Y-55570476D01*
X135302476Y-55475238D01*
X135207238Y-55380000D01*
X135064380Y-55332381D01*
X134969142Y-55332381D01*
X134826285Y-55380000D01*
X134778666Y-55427619D01*
X133778666Y-56237143D02*
X133826285Y-56284762D01*
X133969142Y-56332381D01*
X134064380Y-56332381D01*
X134207238Y-56284762D01*
X134302476Y-56189524D01*
X134350095Y-56094286D01*
X134397714Y-55903810D01*
X134397714Y-55760952D01*
X134350095Y-55570476D01*
X134302476Y-55475238D01*
X134207238Y-55380000D01*
X134064380Y-55332381D01*
X133969142Y-55332381D01*
X133826285Y-55380000D01*
X133778666Y-55427619D01*
X132921523Y-55665714D02*
X132921523Y-56332381D01*
X133159619Y-55284762D02*
X133397714Y-55999048D01*
X132778666Y-55999048D01*
X134524666Y-60809143D02*
X134572285Y-60856762D01*
X134715142Y-60904381D01*
X134810380Y-60904381D01*
X134953238Y-60856762D01*
X135048476Y-60761524D01*
X135096095Y-60666286D01*
X135143714Y-60475810D01*
X135143714Y-60332952D01*
X135096095Y-60142476D01*
X135048476Y-60047238D01*
X134953238Y-59952000D01*
X134810380Y-59904381D01*
X134715142Y-59904381D01*
X134572285Y-59952000D01*
X134524666Y-59999619D01*
X133524666Y-60809143D02*
X133572285Y-60856762D01*
X133715142Y-60904381D01*
X133810380Y-60904381D01*
X133953238Y-60856762D01*
X134048476Y-60761524D01*
X134096095Y-60666286D01*
X134143714Y-60475810D01*
X134143714Y-60332952D01*
X134096095Y-60142476D01*
X134048476Y-60047238D01*
X133953238Y-59952000D01*
X133810380Y-59904381D01*
X133715142Y-59904381D01*
X133572285Y-59952000D01*
X133524666Y-59999619D01*
X132619904Y-59904381D02*
X133096095Y-59904381D01*
X133143714Y-60380571D01*
X133096095Y-60332952D01*
X133000857Y-60285333D01*
X132762761Y-60285333D01*
X132667523Y-60332952D01*
X132619904Y-60380571D01*
X132572285Y-60475810D01*
X132572285Y-60713905D01*
X132619904Y-60809143D01*
X132667523Y-60856762D01*
X132762761Y-60904381D01*
X133000857Y-60904381D01*
X133096095Y-60856762D01*
X133143714Y-60809143D01*
X147986666Y-56237143D02*
X148034285Y-56284762D01*
X148177142Y-56332381D01*
X148272380Y-56332381D01*
X148415238Y-56284762D01*
X148510476Y-56189524D01*
X148558095Y-56094286D01*
X148605714Y-55903810D01*
X148605714Y-55760952D01*
X148558095Y-55570476D01*
X148510476Y-55475238D01*
X148415238Y-55380000D01*
X148272380Y-55332381D01*
X148177142Y-55332381D01*
X148034285Y-55380000D01*
X147986666Y-55427619D01*
X146986666Y-56237143D02*
X147034285Y-56284762D01*
X147177142Y-56332381D01*
X147272380Y-56332381D01*
X147415238Y-56284762D01*
X147510476Y-56189524D01*
X147558095Y-56094286D01*
X147605714Y-55903810D01*
X147605714Y-55760952D01*
X147558095Y-55570476D01*
X147510476Y-55475238D01*
X147415238Y-55380000D01*
X147272380Y-55332381D01*
X147177142Y-55332381D01*
X147034285Y-55380000D01*
X146986666Y-55427619D01*
X146129523Y-55332381D02*
X146320000Y-55332381D01*
X146415238Y-55380000D01*
X146462857Y-55427619D01*
X146558095Y-55570476D01*
X146605714Y-55760952D01*
X146605714Y-56141905D01*
X146558095Y-56237143D01*
X146510476Y-56284762D01*
X146415238Y-56332381D01*
X146224761Y-56332381D01*
X146129523Y-56284762D01*
X146081904Y-56237143D01*
X146034285Y-56141905D01*
X146034285Y-55903810D01*
X146081904Y-55808571D01*
X146129523Y-55760952D01*
X146224761Y-55713333D01*
X146415238Y-55713333D01*
X146510476Y-55760952D01*
X146558095Y-55808571D01*
X146605714Y-55903810D01*
X148240666Y-60809143D02*
X148288285Y-60856762D01*
X148431142Y-60904381D01*
X148526380Y-60904381D01*
X148669238Y-60856762D01*
X148764476Y-60761524D01*
X148812095Y-60666286D01*
X148859714Y-60475810D01*
X148859714Y-60332952D01*
X148812095Y-60142476D01*
X148764476Y-60047238D01*
X148669238Y-59952000D01*
X148526380Y-59904381D01*
X148431142Y-59904381D01*
X148288285Y-59952000D01*
X148240666Y-59999619D01*
X147240666Y-60809143D02*
X147288285Y-60856762D01*
X147431142Y-60904381D01*
X147526380Y-60904381D01*
X147669238Y-60856762D01*
X147764476Y-60761524D01*
X147812095Y-60666286D01*
X147859714Y-60475810D01*
X147859714Y-60332952D01*
X147812095Y-60142476D01*
X147764476Y-60047238D01*
X147669238Y-59952000D01*
X147526380Y-59904381D01*
X147431142Y-59904381D01*
X147288285Y-59952000D01*
X147240666Y-59999619D01*
X146907333Y-59904381D02*
X146240666Y-59904381D01*
X146669238Y-60904381D01*
X134778666Y-58523143D02*
X134826285Y-58570762D01*
X134969142Y-58618381D01*
X135064380Y-58618381D01*
X135207238Y-58570762D01*
X135302476Y-58475524D01*
X135350095Y-58380286D01*
X135397714Y-58189810D01*
X135397714Y-58046952D01*
X135350095Y-57856476D01*
X135302476Y-57761238D01*
X135207238Y-57666000D01*
X135064380Y-57618381D01*
X134969142Y-57618381D01*
X134826285Y-57666000D01*
X134778666Y-57713619D01*
X133778666Y-58523143D02*
X133826285Y-58570762D01*
X133969142Y-58618381D01*
X134064380Y-58618381D01*
X134207238Y-58570762D01*
X134302476Y-58475524D01*
X134350095Y-58380286D01*
X134397714Y-58189810D01*
X134397714Y-58046952D01*
X134350095Y-57856476D01*
X134302476Y-57761238D01*
X134207238Y-57666000D01*
X134064380Y-57618381D01*
X133969142Y-57618381D01*
X133826285Y-57666000D01*
X133778666Y-57713619D01*
X133207238Y-58046952D02*
X133302476Y-57999333D01*
X133350095Y-57951714D01*
X133397714Y-57856476D01*
X133397714Y-57808857D01*
X133350095Y-57713619D01*
X133302476Y-57666000D01*
X133207238Y-57618381D01*
X133016761Y-57618381D01*
X132921523Y-57666000D01*
X132873904Y-57713619D01*
X132826285Y-57808857D01*
X132826285Y-57856476D01*
X132873904Y-57951714D01*
X132921523Y-57999333D01*
X133016761Y-58046952D01*
X133207238Y-58046952D01*
X133302476Y-58094571D01*
X133350095Y-58142190D01*
X133397714Y-58237429D01*
X133397714Y-58427905D01*
X133350095Y-58523143D01*
X133302476Y-58570762D01*
X133207238Y-58618381D01*
X133016761Y-58618381D01*
X132921523Y-58570762D01*
X132873904Y-58523143D01*
X132826285Y-58427905D01*
X132826285Y-58237429D01*
X132873904Y-58142190D01*
X132921523Y-58094571D01*
X133016761Y-58046952D01*
X134651666Y-63095143D02*
X134699285Y-63142762D01*
X134842142Y-63190381D01*
X134937380Y-63190381D01*
X135080238Y-63142762D01*
X135175476Y-63047524D01*
X135223095Y-62952286D01*
X135270714Y-62761810D01*
X135270714Y-62618952D01*
X135223095Y-62428476D01*
X135175476Y-62333238D01*
X135080238Y-62238000D01*
X134937380Y-62190381D01*
X134842142Y-62190381D01*
X134699285Y-62238000D01*
X134651666Y-62285619D01*
X133651666Y-63095143D02*
X133699285Y-63142762D01*
X133842142Y-63190381D01*
X133937380Y-63190381D01*
X134080238Y-63142762D01*
X134175476Y-63047524D01*
X134223095Y-62952286D01*
X134270714Y-62761810D01*
X134270714Y-62618952D01*
X134223095Y-62428476D01*
X134175476Y-62333238D01*
X134080238Y-62238000D01*
X133937380Y-62190381D01*
X133842142Y-62190381D01*
X133699285Y-62238000D01*
X133651666Y-62285619D01*
X133175476Y-63190381D02*
X132985000Y-63190381D01*
X132889761Y-63142762D01*
X132842142Y-63095143D01*
X132746904Y-62952286D01*
X132699285Y-62761810D01*
X132699285Y-62380857D01*
X132746904Y-62285619D01*
X132794523Y-62238000D01*
X132889761Y-62190381D01*
X133080238Y-62190381D01*
X133175476Y-62238000D01*
X133223095Y-62285619D01*
X133270714Y-62380857D01*
X133270714Y-62618952D01*
X133223095Y-62714190D01*
X133175476Y-62761810D01*
X133080238Y-62809429D01*
X132889761Y-62809429D01*
X132794523Y-62761810D01*
X132746904Y-62714190D01*
X132699285Y-62618952D01*
X148716857Y-58523143D02*
X148764476Y-58570762D01*
X148907333Y-58618381D01*
X149002571Y-58618381D01*
X149145429Y-58570762D01*
X149240667Y-58475524D01*
X149288286Y-58380286D01*
X149335905Y-58189810D01*
X149335905Y-58046952D01*
X149288286Y-57856476D01*
X149240667Y-57761238D01*
X149145429Y-57666000D01*
X149002571Y-57618381D01*
X148907333Y-57618381D01*
X148764476Y-57666000D01*
X148716857Y-57713619D01*
X147716857Y-58523143D02*
X147764476Y-58570762D01*
X147907333Y-58618381D01*
X148002571Y-58618381D01*
X148145429Y-58570762D01*
X148240667Y-58475524D01*
X148288286Y-58380286D01*
X148335905Y-58189810D01*
X148335905Y-58046952D01*
X148288286Y-57856476D01*
X148240667Y-57761238D01*
X148145429Y-57666000D01*
X148002571Y-57618381D01*
X147907333Y-57618381D01*
X147764476Y-57666000D01*
X147716857Y-57713619D01*
X146764476Y-58618381D02*
X147335905Y-58618381D01*
X147050191Y-58618381D02*
X147050191Y-57618381D01*
X147145429Y-57761238D01*
X147240667Y-57856476D01*
X147335905Y-57904095D01*
X146145429Y-57618381D02*
X146050190Y-57618381D01*
X145954952Y-57666000D01*
X145907333Y-57713619D01*
X145859714Y-57808857D01*
X145812095Y-57999333D01*
X145812095Y-58237429D01*
X145859714Y-58427905D01*
X145907333Y-58523143D01*
X145954952Y-58570762D01*
X146050190Y-58618381D01*
X146145429Y-58618381D01*
X146240667Y-58570762D01*
X146288286Y-58523143D01*
X146335905Y-58427905D01*
X146383524Y-58237429D01*
X146383524Y-57999333D01*
X146335905Y-57808857D01*
X146288286Y-57713619D01*
X146240667Y-57666000D01*
X146145429Y-57618381D01*
X148716857Y-63095143D02*
X148764476Y-63142762D01*
X148907333Y-63190381D01*
X149002571Y-63190381D01*
X149145429Y-63142762D01*
X149240667Y-63047524D01*
X149288286Y-62952286D01*
X149335905Y-62761810D01*
X149335905Y-62618952D01*
X149288286Y-62428476D01*
X149240667Y-62333238D01*
X149145429Y-62238000D01*
X149002571Y-62190381D01*
X148907333Y-62190381D01*
X148764476Y-62238000D01*
X148716857Y-62285619D01*
X147716857Y-63095143D02*
X147764476Y-63142762D01*
X147907333Y-63190381D01*
X148002571Y-63190381D01*
X148145429Y-63142762D01*
X148240667Y-63047524D01*
X148288286Y-62952286D01*
X148335905Y-62761810D01*
X148335905Y-62618952D01*
X148288286Y-62428476D01*
X148240667Y-62333238D01*
X148145429Y-62238000D01*
X148002571Y-62190381D01*
X147907333Y-62190381D01*
X147764476Y-62238000D01*
X147716857Y-62285619D01*
X146764476Y-63190381D02*
X147335905Y-63190381D01*
X147050191Y-63190381D02*
X147050191Y-62190381D01*
X147145429Y-62333238D01*
X147240667Y-62428476D01*
X147335905Y-62476095D01*
X145812095Y-63190381D02*
X146383524Y-63190381D01*
X146097810Y-63190381D02*
X146097810Y-62190381D01*
X146193048Y-62333238D01*
X146288286Y-62428476D01*
X146383524Y-62476095D01*
X102234857Y-36679143D02*
X102282476Y-36726762D01*
X102425333Y-36774381D01*
X102520571Y-36774381D01*
X102663429Y-36726762D01*
X102758667Y-36631524D01*
X102806286Y-36536286D01*
X102853905Y-36345810D01*
X102853905Y-36202952D01*
X102806286Y-36012476D01*
X102758667Y-35917238D01*
X102663429Y-35822000D01*
X102520571Y-35774381D01*
X102425333Y-35774381D01*
X102282476Y-35822000D01*
X102234857Y-35869619D01*
X101234857Y-36679143D02*
X101282476Y-36726762D01*
X101425333Y-36774381D01*
X101520571Y-36774381D01*
X101663429Y-36726762D01*
X101758667Y-36631524D01*
X101806286Y-36536286D01*
X101853905Y-36345810D01*
X101853905Y-36202952D01*
X101806286Y-36012476D01*
X101758667Y-35917238D01*
X101663429Y-35822000D01*
X101520571Y-35774381D01*
X101425333Y-35774381D01*
X101282476Y-35822000D01*
X101234857Y-35869619D01*
X100282476Y-36774381D02*
X100853905Y-36774381D01*
X100568191Y-36774381D02*
X100568191Y-35774381D01*
X100663429Y-35917238D01*
X100758667Y-36012476D01*
X100853905Y-36060095D01*
X99711048Y-36202952D02*
X99806286Y-36155333D01*
X99853905Y-36107714D01*
X99901524Y-36012476D01*
X99901524Y-35964857D01*
X99853905Y-35869619D01*
X99806286Y-35822000D01*
X99711048Y-35774381D01*
X99520571Y-35774381D01*
X99425333Y-35822000D01*
X99377714Y-35869619D01*
X99330095Y-35964857D01*
X99330095Y-36012476D01*
X99377714Y-36107714D01*
X99425333Y-36155333D01*
X99520571Y-36202952D01*
X99711048Y-36202952D01*
X99806286Y-36250571D01*
X99853905Y-36298190D01*
X99901524Y-36393429D01*
X99901524Y-36583905D01*
X99853905Y-36679143D01*
X99806286Y-36726762D01*
X99711048Y-36774381D01*
X99520571Y-36774381D01*
X99425333Y-36726762D01*
X99377714Y-36679143D01*
X99330095Y-36583905D01*
X99330095Y-36393429D01*
X99377714Y-36298190D01*
X99425333Y-36250571D01*
X99520571Y-36202952D01*
X102234857Y-39981143D02*
X102282476Y-40028762D01*
X102425333Y-40076381D01*
X102520571Y-40076381D01*
X102663429Y-40028762D01*
X102758667Y-39933524D01*
X102806286Y-39838286D01*
X102853905Y-39647810D01*
X102853905Y-39504952D01*
X102806286Y-39314476D01*
X102758667Y-39219238D01*
X102663429Y-39124000D01*
X102520571Y-39076381D01*
X102425333Y-39076381D01*
X102282476Y-39124000D01*
X102234857Y-39171619D01*
X101234857Y-39981143D02*
X101282476Y-40028762D01*
X101425333Y-40076381D01*
X101520571Y-40076381D01*
X101663429Y-40028762D01*
X101758667Y-39933524D01*
X101806286Y-39838286D01*
X101853905Y-39647810D01*
X101853905Y-39504952D01*
X101806286Y-39314476D01*
X101758667Y-39219238D01*
X101663429Y-39124000D01*
X101520571Y-39076381D01*
X101425333Y-39076381D01*
X101282476Y-39124000D01*
X101234857Y-39171619D01*
X100282476Y-40076381D02*
X100853905Y-40076381D01*
X100568191Y-40076381D02*
X100568191Y-39076381D01*
X100663429Y-39219238D01*
X100758667Y-39314476D01*
X100853905Y-39362095D01*
X99806286Y-40076381D02*
X99615810Y-40076381D01*
X99520571Y-40028762D01*
X99472952Y-39981143D01*
X99377714Y-39838286D01*
X99330095Y-39647810D01*
X99330095Y-39266857D01*
X99377714Y-39171619D01*
X99425333Y-39124000D01*
X99520571Y-39076381D01*
X99711048Y-39076381D01*
X99806286Y-39124000D01*
X99853905Y-39171619D01*
X99901524Y-39266857D01*
X99901524Y-39504952D01*
X99853905Y-39600190D01*
X99806286Y-39647810D01*
X99711048Y-39695429D01*
X99520571Y-39695429D01*
X99425333Y-39647810D01*
X99377714Y-39600190D01*
X99330095Y-39504952D01*
X99440857Y-42775143D02*
X99488476Y-42822762D01*
X99631333Y-42870381D01*
X99726571Y-42870381D01*
X99869429Y-42822762D01*
X99964667Y-42727524D01*
X100012286Y-42632286D01*
X100059905Y-42441810D01*
X100059905Y-42298952D01*
X100012286Y-42108476D01*
X99964667Y-42013238D01*
X99869429Y-41918000D01*
X99726571Y-41870381D01*
X99631333Y-41870381D01*
X99488476Y-41918000D01*
X99440857Y-41965619D01*
X98440857Y-42775143D02*
X98488476Y-42822762D01*
X98631333Y-42870381D01*
X98726571Y-42870381D01*
X98869429Y-42822762D01*
X98964667Y-42727524D01*
X99012286Y-42632286D01*
X99059905Y-42441810D01*
X99059905Y-42298952D01*
X99012286Y-42108476D01*
X98964667Y-42013238D01*
X98869429Y-41918000D01*
X98726571Y-41870381D01*
X98631333Y-41870381D01*
X98488476Y-41918000D01*
X98440857Y-41965619D01*
X98059905Y-41965619D02*
X98012286Y-41918000D01*
X97917048Y-41870381D01*
X97678952Y-41870381D01*
X97583714Y-41918000D01*
X97536095Y-41965619D01*
X97488476Y-42060857D01*
X97488476Y-42156095D01*
X97536095Y-42298952D01*
X98107524Y-42870381D01*
X97488476Y-42870381D01*
X96536095Y-42870381D02*
X97107524Y-42870381D01*
X96821810Y-42870381D02*
X96821810Y-41870381D01*
X96917048Y-42013238D01*
X97012286Y-42108476D01*
X97107524Y-42156095D01*
X92178095Y-96718381D02*
X92178095Y-95718381D01*
X91940000Y-95718381D01*
X91797142Y-95766000D01*
X91701904Y-95861238D01*
X91654285Y-95956476D01*
X91606666Y-96146952D01*
X91606666Y-96289810D01*
X91654285Y-96480286D01*
X91701904Y-96575524D01*
X91797142Y-96670762D01*
X91940000Y-96718381D01*
X92178095Y-96718381D01*
X90654285Y-96718381D02*
X91225714Y-96718381D01*
X90940000Y-96718381D02*
X90940000Y-95718381D01*
X91035238Y-95861238D01*
X91130476Y-95956476D01*
X91225714Y-96004095D01*
X110466095Y-102052381D02*
X110466095Y-101052381D01*
X110228000Y-101052381D01*
X110085142Y-101100000D01*
X109989904Y-101195238D01*
X109942285Y-101290476D01*
X109894666Y-101480952D01*
X109894666Y-101623810D01*
X109942285Y-101814286D01*
X109989904Y-101909524D01*
X110085142Y-102004762D01*
X110228000Y-102052381D01*
X110466095Y-102052381D01*
X109513714Y-101147619D02*
X109466095Y-101100000D01*
X109370857Y-101052381D01*
X109132761Y-101052381D01*
X109037523Y-101100000D01*
X108989904Y-101147619D01*
X108942285Y-101242857D01*
X108942285Y-101338095D01*
X108989904Y-101480952D01*
X109561333Y-102052381D01*
X108942285Y-102052381D01*
X126214095Y-113355381D02*
X126214095Y-112355381D01*
X125976000Y-112355381D01*
X125833142Y-112403000D01*
X125737904Y-112498238D01*
X125690285Y-112593476D01*
X125642666Y-112783952D01*
X125642666Y-112926810D01*
X125690285Y-113117286D01*
X125737904Y-113212524D01*
X125833142Y-113307762D01*
X125976000Y-113355381D01*
X126214095Y-113355381D01*
X125309333Y-112355381D02*
X124690285Y-112355381D01*
X125023619Y-112736333D01*
X124880761Y-112736333D01*
X124785523Y-112783952D01*
X124737904Y-112831571D01*
X124690285Y-112926810D01*
X124690285Y-113164905D01*
X124737904Y-113260143D01*
X124785523Y-113307762D01*
X124880761Y-113355381D01*
X125166476Y-113355381D01*
X125261714Y-113307762D01*
X125309333Y-113260143D01*
X98980476Y-58094571D02*
X98647142Y-58094571D01*
X98504285Y-58618381D02*
X98980476Y-58618381D01*
X98980476Y-57618381D01*
X98504285Y-57618381D01*
X97504285Y-58523143D02*
X97551904Y-58570762D01*
X97694761Y-58618381D01*
X97789999Y-58618381D01*
X97932857Y-58570762D01*
X98028095Y-58475524D01*
X98075714Y-58380286D01*
X98123333Y-58189810D01*
X98123333Y-58046952D01*
X98075714Y-57856476D01*
X98028095Y-57761238D01*
X97932857Y-57666000D01*
X97789999Y-57618381D01*
X97694761Y-57618381D01*
X97551904Y-57666000D01*
X97504285Y-57713619D01*
X97170952Y-57618381D02*
X96551904Y-57618381D01*
X96885238Y-57999333D01*
X96742380Y-57999333D01*
X96647142Y-58046952D01*
X96599523Y-58094571D01*
X96551904Y-58189810D01*
X96551904Y-58427905D01*
X96599523Y-58523143D01*
X96647142Y-58570762D01*
X96742380Y-58618381D01*
X97028095Y-58618381D01*
X97123333Y-58570762D01*
X97170952Y-58523143D01*
X122348476Y-99242571D02*
X122015142Y-99242571D01*
X121872285Y-99766381D02*
X122348476Y-99766381D01*
X122348476Y-98766381D01*
X121872285Y-98766381D01*
X120872285Y-99671143D02*
X120919904Y-99718762D01*
X121062761Y-99766381D01*
X121157999Y-99766381D01*
X121300857Y-99718762D01*
X121396095Y-99623524D01*
X121443714Y-99528286D01*
X121491333Y-99337810D01*
X121491333Y-99194952D01*
X121443714Y-99004476D01*
X121396095Y-98909238D01*
X121300857Y-98814000D01*
X121157999Y-98766381D01*
X121062761Y-98766381D01*
X120919904Y-98814000D01*
X120872285Y-98861619D01*
X120015142Y-99099714D02*
X120015142Y-99766381D01*
X120253238Y-98718762D02*
X120491333Y-99433048D01*
X119872285Y-99433048D01*
M02*
