G04 #@! TF.FileFunction,Legend,Top*
%FSLAX46Y46*%
G04 Gerber Fmt 4.6, Leading zero omitted, Abs format (unit mm)*
G04 Created by KiCad (PCBNEW 4.0.2+dfsg1-stable) date 2017년 07월 06일 (목) 오전 10시 53분 42초*
%MOMM*%
G01*
G04 APERTURE LIST*
%ADD10C,0.100000*%
%ADD11C,0.300000*%
%ADD12C,0.150000*%
G04 APERTURE END LIST*
D10*
D11*
X87733572Y-32198571D02*
X88590715Y-32198571D01*
X88162144Y-33698571D02*
X88162144Y-32198571D01*
X91090715Y-33698571D02*
X90590715Y-32984286D01*
X90233572Y-33698571D02*
X90233572Y-32198571D01*
X90805000Y-32198571D01*
X90947858Y-32270000D01*
X91019286Y-32341429D01*
X91090715Y-32484286D01*
X91090715Y-32698571D01*
X91019286Y-32841429D01*
X90947858Y-32912857D01*
X90805000Y-32984286D01*
X90233572Y-32984286D01*
X93662143Y-32270000D02*
X93519286Y-32198571D01*
X93305000Y-32198571D01*
X93090715Y-32270000D01*
X92947857Y-32412857D01*
X92876429Y-32555714D01*
X92805000Y-32841429D01*
X92805000Y-33055714D01*
X92876429Y-33341429D01*
X92947857Y-33484286D01*
X93090715Y-33627143D01*
X93305000Y-33698571D01*
X93447857Y-33698571D01*
X93662143Y-33627143D01*
X93733572Y-33555714D01*
X93733572Y-33055714D01*
X93447857Y-33055714D01*
X118455715Y-41160000D02*
X118312858Y-41088571D01*
X118098572Y-41088571D01*
X117884287Y-41160000D01*
X117741429Y-41302857D01*
X117670001Y-41445714D01*
X117598572Y-41731429D01*
X117598572Y-41945714D01*
X117670001Y-42231429D01*
X117741429Y-42374286D01*
X117884287Y-42517143D01*
X118098572Y-42588571D01*
X118241429Y-42588571D01*
X118455715Y-42517143D01*
X118527144Y-42445714D01*
X118527144Y-41945714D01*
X118241429Y-41945714D01*
X121170001Y-42445714D02*
X121098572Y-42517143D01*
X120884286Y-42588571D01*
X120741429Y-42588571D01*
X120527144Y-42517143D01*
X120384286Y-42374286D01*
X120312858Y-42231429D01*
X120241429Y-41945714D01*
X120241429Y-41731429D01*
X120312858Y-41445714D01*
X120384286Y-41302857D01*
X120527144Y-41160000D01*
X120741429Y-41088571D01*
X120884286Y-41088571D01*
X121098572Y-41160000D01*
X121170001Y-41231429D01*
X122955715Y-42588571D02*
X122955715Y-41088571D01*
X123312858Y-41088571D01*
X123527143Y-41160000D01*
X123670001Y-41302857D01*
X123741429Y-41445714D01*
X123812858Y-41731429D01*
X123812858Y-41945714D01*
X123741429Y-42231429D01*
X123670001Y-42374286D01*
X123527143Y-42517143D01*
X123312858Y-42588571D01*
X122955715Y-42588571D01*
X125384286Y-41088571D02*
X125884286Y-42588571D01*
X126384286Y-41088571D01*
X133080715Y-42588571D02*
X132580715Y-41874286D01*
X132223572Y-42588571D02*
X132223572Y-41088571D01*
X132795000Y-41088571D01*
X132937858Y-41160000D01*
X133009286Y-41231429D01*
X133080715Y-41374286D01*
X133080715Y-41588571D01*
X133009286Y-41731429D01*
X132937858Y-41802857D01*
X132795000Y-41874286D01*
X132223572Y-41874286D01*
X135723572Y-42445714D02*
X135652143Y-42517143D01*
X135437857Y-42588571D01*
X135295000Y-42588571D01*
X135080715Y-42517143D01*
X134937857Y-42374286D01*
X134866429Y-42231429D01*
X134795000Y-41945714D01*
X134795000Y-41731429D01*
X134866429Y-41445714D01*
X134937857Y-41302857D01*
X135080715Y-41160000D01*
X135295000Y-41088571D01*
X135437857Y-41088571D01*
X135652143Y-41160000D01*
X135723572Y-41231429D01*
X138295000Y-41160000D02*
X138152143Y-41088571D01*
X137937857Y-41088571D01*
X137723572Y-41160000D01*
X137580714Y-41302857D01*
X137509286Y-41445714D01*
X137437857Y-41731429D01*
X137437857Y-41945714D01*
X137509286Y-42231429D01*
X137580714Y-42374286D01*
X137723572Y-42517143D01*
X137937857Y-42588571D01*
X138080714Y-42588571D01*
X138295000Y-42517143D01*
X138366429Y-42445714D01*
X138366429Y-41945714D01*
X138080714Y-41945714D01*
X140152143Y-42588571D02*
X140152143Y-41088571D01*
X140509286Y-41088571D01*
X140723571Y-41160000D01*
X140866429Y-41302857D01*
X140937857Y-41445714D01*
X141009286Y-41731429D01*
X141009286Y-41945714D01*
X140937857Y-42231429D01*
X140866429Y-42374286D01*
X140723571Y-42517143D01*
X140509286Y-42588571D01*
X140152143Y-42588571D01*
X142580714Y-41088571D02*
X143080714Y-42588571D01*
X143580714Y-41088571D01*
X149272857Y-86880000D02*
X149130000Y-86808571D01*
X148915714Y-86808571D01*
X148701429Y-86880000D01*
X148558571Y-87022857D01*
X148487143Y-87165714D01*
X148415714Y-87451429D01*
X148415714Y-87665714D01*
X148487143Y-87951429D01*
X148558571Y-88094286D01*
X148701429Y-88237143D01*
X148915714Y-88308571D01*
X149058571Y-88308571D01*
X149272857Y-88237143D01*
X149344286Y-88165714D01*
X149344286Y-87665714D01*
X149058571Y-87665714D01*
X150844286Y-88308571D02*
X150344286Y-87594286D01*
X149987143Y-88308571D02*
X149987143Y-86808571D01*
X150558571Y-86808571D01*
X150701429Y-86880000D01*
X150772857Y-86951429D01*
X150844286Y-87094286D01*
X150844286Y-87308571D01*
X150772857Y-87451429D01*
X150701429Y-87522857D01*
X150558571Y-87594286D01*
X149987143Y-87594286D01*
X152272857Y-86880000D02*
X152130000Y-86808571D01*
X151915714Y-86808571D01*
X151701429Y-86880000D01*
X151558571Y-87022857D01*
X151487143Y-87165714D01*
X151415714Y-87451429D01*
X151415714Y-87665714D01*
X151487143Y-87951429D01*
X151558571Y-88094286D01*
X151701429Y-88237143D01*
X151915714Y-88308571D01*
X152058571Y-88308571D01*
X152272857Y-88237143D01*
X152344286Y-88165714D01*
X152344286Y-87665714D01*
X152058571Y-87665714D01*
X153844286Y-88308571D02*
X153344286Y-87594286D01*
X152987143Y-88308571D02*
X152987143Y-86808571D01*
X153558571Y-86808571D01*
X153701429Y-86880000D01*
X153772857Y-86951429D01*
X153844286Y-87094286D01*
X153844286Y-87308571D01*
X153772857Y-87451429D01*
X153701429Y-87522857D01*
X153558571Y-87594286D01*
X152987143Y-87594286D01*
X148415714Y-85768571D02*
X148415714Y-84268571D01*
X149272857Y-85768571D01*
X149272857Y-84268571D01*
X150844286Y-85625714D02*
X150772857Y-85697143D01*
X150558571Y-85768571D01*
X150415714Y-85768571D01*
X150201429Y-85697143D01*
X150058571Y-85554286D01*
X149987143Y-85411429D01*
X149915714Y-85125714D01*
X149915714Y-84911429D01*
X149987143Y-84625714D01*
X150058571Y-84482857D01*
X150201429Y-84340000D01*
X150415714Y-84268571D01*
X150558571Y-84268571D01*
X150772857Y-84340000D01*
X150844286Y-84411429D01*
X151487143Y-85768571D02*
X151487143Y-84268571D01*
X152344286Y-85768571D01*
X152344286Y-84268571D01*
X153915715Y-85625714D02*
X153844286Y-85697143D01*
X153630000Y-85768571D01*
X153487143Y-85768571D01*
X153272858Y-85697143D01*
X153130000Y-85554286D01*
X153058572Y-85411429D01*
X152987143Y-85125714D01*
X152987143Y-84911429D01*
X153058572Y-84625714D01*
X153130000Y-84482857D01*
X153272858Y-84340000D01*
X153487143Y-84268571D01*
X153630000Y-84268571D01*
X153844286Y-84340000D01*
X153915715Y-84411429D01*
X148415714Y-83228571D02*
X148415714Y-81728571D01*
X149272857Y-83228571D01*
X149272857Y-81728571D01*
X150844286Y-83085714D02*
X150772857Y-83157143D01*
X150558571Y-83228571D01*
X150415714Y-83228571D01*
X150201429Y-83157143D01*
X150058571Y-83014286D01*
X149987143Y-82871429D01*
X149915714Y-82585714D01*
X149915714Y-82371429D01*
X149987143Y-82085714D01*
X150058571Y-81942857D01*
X150201429Y-81800000D01*
X150415714Y-81728571D01*
X150558571Y-81728571D01*
X150772857Y-81800000D01*
X150844286Y-81871429D01*
X151487143Y-83228571D02*
X151487143Y-81728571D01*
X152344286Y-83228571D01*
X152344286Y-81728571D01*
X153915715Y-83085714D02*
X153844286Y-83157143D01*
X153630000Y-83228571D01*
X153487143Y-83228571D01*
X153272858Y-83157143D01*
X153130000Y-83014286D01*
X153058572Y-82871429D01*
X152987143Y-82585714D01*
X152987143Y-82371429D01*
X153058572Y-82085714D01*
X153130000Y-81942857D01*
X153272858Y-81800000D01*
X153487143Y-81728571D01*
X153630000Y-81728571D01*
X153844286Y-81800000D01*
X153915715Y-81871429D01*
X148594286Y-80260000D02*
X149308572Y-80260000D01*
X148451429Y-80688571D02*
X148951429Y-79188571D01*
X149451429Y-80688571D01*
X150237143Y-79188571D02*
X150380000Y-79188571D01*
X150522857Y-79260000D01*
X150594286Y-79331429D01*
X150665715Y-79474286D01*
X150737143Y-79760000D01*
X150737143Y-80117143D01*
X150665715Y-80402857D01*
X150594286Y-80545714D01*
X150522857Y-80617143D01*
X150380000Y-80688571D01*
X150237143Y-80688571D01*
X150094286Y-80617143D01*
X150022857Y-80545714D01*
X149951429Y-80402857D01*
X149880000Y-80117143D01*
X149880000Y-79760000D01*
X149951429Y-79474286D01*
X150022857Y-79331429D01*
X150094286Y-79260000D01*
X150237143Y-79188571D01*
X152237143Y-80545714D02*
X152165714Y-80617143D01*
X151951428Y-80688571D01*
X151808571Y-80688571D01*
X151594286Y-80617143D01*
X151451428Y-80474286D01*
X151380000Y-80331429D01*
X151308571Y-80045714D01*
X151308571Y-79831429D01*
X151380000Y-79545714D01*
X151451428Y-79402857D01*
X151594286Y-79260000D01*
X151808571Y-79188571D01*
X151951428Y-79188571D01*
X152165714Y-79260000D01*
X152237143Y-79331429D01*
X152737143Y-79188571D02*
X153665714Y-79188571D01*
X153165714Y-79760000D01*
X153380000Y-79760000D01*
X153522857Y-79831429D01*
X153594286Y-79902857D01*
X153665714Y-80045714D01*
X153665714Y-80402857D01*
X153594286Y-80545714D01*
X153522857Y-80617143D01*
X153380000Y-80688571D01*
X152951428Y-80688571D01*
X152808571Y-80617143D01*
X152737143Y-80545714D01*
X148701429Y-77720000D02*
X149415715Y-77720000D01*
X148558572Y-78148571D02*
X149058572Y-76648571D01*
X149558572Y-78148571D01*
X150772858Y-76648571D02*
X150058572Y-76648571D01*
X149987143Y-77362857D01*
X150058572Y-77291429D01*
X150201429Y-77220000D01*
X150558572Y-77220000D01*
X150701429Y-77291429D01*
X150772858Y-77362857D01*
X150844286Y-77505714D01*
X150844286Y-77862857D01*
X150772858Y-78005714D01*
X150701429Y-78077143D01*
X150558572Y-78148571D01*
X150201429Y-78148571D01*
X150058572Y-78077143D01*
X149987143Y-78005714D01*
X151415714Y-77720000D02*
X152130000Y-77720000D01*
X151272857Y-78148571D02*
X151772857Y-76648571D01*
X152272857Y-78148571D01*
X153415714Y-77148571D02*
X153415714Y-78148571D01*
X153058571Y-76577143D02*
X152701428Y-77648571D01*
X153630000Y-77648571D01*
X148701429Y-75180000D02*
X149415715Y-75180000D01*
X148558572Y-75608571D02*
X149058572Y-74108571D01*
X149558572Y-75608571D01*
X149915715Y-74108571D02*
X150915715Y-74108571D01*
X150272858Y-75608571D01*
X151415714Y-75180000D02*
X152130000Y-75180000D01*
X151272857Y-75608571D02*
X151772857Y-74108571D01*
X152272857Y-75608571D01*
X153415714Y-74108571D02*
X153130000Y-74108571D01*
X152987143Y-74180000D01*
X152915714Y-74251429D01*
X152772857Y-74465714D01*
X152701428Y-74751429D01*
X152701428Y-75322857D01*
X152772857Y-75465714D01*
X152844285Y-75537143D01*
X152987143Y-75608571D01*
X153272857Y-75608571D01*
X153415714Y-75537143D01*
X153487143Y-75465714D01*
X153558571Y-75322857D01*
X153558571Y-74965714D01*
X153487143Y-74822857D01*
X153415714Y-74751429D01*
X153272857Y-74680000D01*
X152987143Y-74680000D01*
X152844285Y-74751429D01*
X152772857Y-74822857D01*
X152701428Y-74965714D01*
X149415715Y-72925714D02*
X149344286Y-72997143D01*
X149130000Y-73068571D01*
X148987143Y-73068571D01*
X148772858Y-72997143D01*
X148630000Y-72854286D01*
X148558572Y-72711429D01*
X148487143Y-72425714D01*
X148487143Y-72211429D01*
X148558572Y-71925714D01*
X148630000Y-71782857D01*
X148772858Y-71640000D01*
X148987143Y-71568571D01*
X149130000Y-71568571D01*
X149344286Y-71640000D01*
X149415715Y-71711429D01*
X150772858Y-71568571D02*
X150058572Y-71568571D01*
X149987143Y-72282857D01*
X150058572Y-72211429D01*
X150201429Y-72140000D01*
X150558572Y-72140000D01*
X150701429Y-72211429D01*
X150772858Y-72282857D01*
X150844286Y-72425714D01*
X150844286Y-72782857D01*
X150772858Y-72925714D01*
X150701429Y-72997143D01*
X150558572Y-73068571D01*
X150201429Y-73068571D01*
X150058572Y-72997143D01*
X149987143Y-72925714D01*
X152344286Y-72925714D02*
X152272857Y-72997143D01*
X152058571Y-73068571D01*
X151915714Y-73068571D01*
X151701429Y-72997143D01*
X151558571Y-72854286D01*
X151487143Y-72711429D01*
X151415714Y-72425714D01*
X151415714Y-72211429D01*
X151487143Y-71925714D01*
X151558571Y-71782857D01*
X151701429Y-71640000D01*
X151915714Y-71568571D01*
X152058571Y-71568571D01*
X152272857Y-71640000D01*
X152344286Y-71711429D01*
X153630000Y-72068571D02*
X153630000Y-73068571D01*
X153272857Y-71497143D02*
X152915714Y-72568571D01*
X153844286Y-72568571D01*
X149058572Y-69742857D02*
X149272858Y-69814286D01*
X149344286Y-69885714D01*
X149415715Y-70028571D01*
X149415715Y-70242857D01*
X149344286Y-70385714D01*
X149272858Y-70457143D01*
X149130000Y-70528571D01*
X148558572Y-70528571D01*
X148558572Y-69028571D01*
X149058572Y-69028571D01*
X149201429Y-69100000D01*
X149272858Y-69171429D01*
X149344286Y-69314286D01*
X149344286Y-69457143D01*
X149272858Y-69600000D01*
X149201429Y-69671429D01*
X149058572Y-69742857D01*
X148558572Y-69742857D01*
X150844286Y-70528571D02*
X149987143Y-70528571D01*
X150415715Y-70528571D02*
X150415715Y-69028571D01*
X150272858Y-69242857D01*
X150130000Y-69385714D01*
X149987143Y-69457143D01*
X151987143Y-69742857D02*
X152201429Y-69814286D01*
X152272857Y-69885714D01*
X152344286Y-70028571D01*
X152344286Y-70242857D01*
X152272857Y-70385714D01*
X152201429Y-70457143D01*
X152058571Y-70528571D01*
X151487143Y-70528571D01*
X151487143Y-69028571D01*
X151987143Y-69028571D01*
X152130000Y-69100000D01*
X152201429Y-69171429D01*
X152272857Y-69314286D01*
X152272857Y-69457143D01*
X152201429Y-69600000D01*
X152130000Y-69671429D01*
X151987143Y-69742857D01*
X151487143Y-69742857D01*
X153272857Y-69028571D02*
X153415714Y-69028571D01*
X153558571Y-69100000D01*
X153630000Y-69171429D01*
X153701429Y-69314286D01*
X153772857Y-69600000D01*
X153772857Y-69957143D01*
X153701429Y-70242857D01*
X153630000Y-70385714D01*
X153558571Y-70457143D01*
X153415714Y-70528571D01*
X153272857Y-70528571D01*
X153130000Y-70457143D01*
X153058571Y-70385714D01*
X152987143Y-70242857D01*
X152915714Y-69957143D01*
X152915714Y-69600000D01*
X152987143Y-69314286D01*
X153058571Y-69171429D01*
X153130000Y-69100000D01*
X153272857Y-69028571D01*
X149165715Y-67202857D02*
X149380001Y-67274286D01*
X149451429Y-67345714D01*
X149522858Y-67488571D01*
X149522858Y-67702857D01*
X149451429Y-67845714D01*
X149380001Y-67917143D01*
X149237143Y-67988571D01*
X148665715Y-67988571D01*
X148665715Y-66488571D01*
X149165715Y-66488571D01*
X149308572Y-66560000D01*
X149380001Y-66631429D01*
X149451429Y-66774286D01*
X149451429Y-66917143D01*
X149380001Y-67060000D01*
X149308572Y-67131429D01*
X149165715Y-67202857D01*
X148665715Y-67202857D01*
X150165715Y-67202857D02*
X150665715Y-67202857D01*
X150880001Y-67988571D02*
X150165715Y-67988571D01*
X150165715Y-66488571D01*
X150880001Y-66488571D01*
X152022858Y-67202857D02*
X152237144Y-67274286D01*
X152308572Y-67345714D01*
X152380001Y-67488571D01*
X152380001Y-67702857D01*
X152308572Y-67845714D01*
X152237144Y-67917143D01*
X152094286Y-67988571D01*
X151522858Y-67988571D01*
X151522858Y-66488571D01*
X152022858Y-66488571D01*
X152165715Y-66560000D01*
X152237144Y-66631429D01*
X152308572Y-66774286D01*
X152308572Y-66917143D01*
X152237144Y-67060000D01*
X152165715Y-67131429D01*
X152022858Y-67202857D01*
X151522858Y-67202857D01*
X152951429Y-67560000D02*
X153665715Y-67560000D01*
X152808572Y-67988571D02*
X153308572Y-66488571D01*
X153808572Y-67988571D01*
X149487144Y-65305714D02*
X149415715Y-65377143D01*
X149201429Y-65448571D01*
X149058572Y-65448571D01*
X148844287Y-65377143D01*
X148701429Y-65234286D01*
X148630001Y-65091429D01*
X148558572Y-64805714D01*
X148558572Y-64591429D01*
X148630001Y-64305714D01*
X148701429Y-64162857D01*
X148844287Y-64020000D01*
X149058572Y-63948571D01*
X149201429Y-63948571D01*
X149415715Y-64020000D01*
X149487144Y-64091429D01*
X150772858Y-63948571D02*
X150487144Y-63948571D01*
X150344287Y-64020000D01*
X150272858Y-64091429D01*
X150130001Y-64305714D01*
X150058572Y-64591429D01*
X150058572Y-65162857D01*
X150130001Y-65305714D01*
X150201429Y-65377143D01*
X150344287Y-65448571D01*
X150630001Y-65448571D01*
X150772858Y-65377143D01*
X150844287Y-65305714D01*
X150915715Y-65162857D01*
X150915715Y-64805714D01*
X150844287Y-64662857D01*
X150772858Y-64591429D01*
X150630001Y-64520000D01*
X150344287Y-64520000D01*
X150201429Y-64591429D01*
X150130001Y-64662857D01*
X150058572Y-64805714D01*
X152058572Y-64662857D02*
X152272858Y-64734286D01*
X152344286Y-64805714D01*
X152415715Y-64948571D01*
X152415715Y-65162857D01*
X152344286Y-65305714D01*
X152272858Y-65377143D01*
X152130000Y-65448571D01*
X151558572Y-65448571D01*
X151558572Y-63948571D01*
X152058572Y-63948571D01*
X152201429Y-64020000D01*
X152272858Y-64091429D01*
X152344286Y-64234286D01*
X152344286Y-64377143D01*
X152272858Y-64520000D01*
X152201429Y-64591429D01*
X152058572Y-64662857D01*
X151558572Y-64662857D01*
X153558572Y-64662857D02*
X153058572Y-64662857D01*
X153058572Y-65448571D02*
X153058572Y-63948571D01*
X153772858Y-63948571D01*
X149415715Y-62765714D02*
X149344286Y-62837143D01*
X149130000Y-62908571D01*
X148987143Y-62908571D01*
X148772858Y-62837143D01*
X148630000Y-62694286D01*
X148558572Y-62551429D01*
X148487143Y-62265714D01*
X148487143Y-62051429D01*
X148558572Y-61765714D01*
X148630000Y-61622857D01*
X148772858Y-61480000D01*
X148987143Y-61408571D01*
X149130000Y-61408571D01*
X149344286Y-61480000D01*
X149415715Y-61551429D01*
X150272858Y-62051429D02*
X150130000Y-61980000D01*
X150058572Y-61908571D01*
X149987143Y-61765714D01*
X149987143Y-61694286D01*
X150058572Y-61551429D01*
X150130000Y-61480000D01*
X150272858Y-61408571D01*
X150558572Y-61408571D01*
X150701429Y-61480000D01*
X150772858Y-61551429D01*
X150844286Y-61694286D01*
X150844286Y-61765714D01*
X150772858Y-61908571D01*
X150701429Y-61980000D01*
X150558572Y-62051429D01*
X150272858Y-62051429D01*
X150130000Y-62122857D01*
X150058572Y-62194286D01*
X149987143Y-62337143D01*
X149987143Y-62622857D01*
X150058572Y-62765714D01*
X150130000Y-62837143D01*
X150272858Y-62908571D01*
X150558572Y-62908571D01*
X150701429Y-62837143D01*
X150772858Y-62765714D01*
X150844286Y-62622857D01*
X150844286Y-62337143D01*
X150772858Y-62194286D01*
X150701429Y-62122857D01*
X150558572Y-62051429D01*
X152344286Y-62765714D02*
X152272857Y-62837143D01*
X152058571Y-62908571D01*
X151915714Y-62908571D01*
X151701429Y-62837143D01*
X151558571Y-62694286D01*
X151487143Y-62551429D01*
X151415714Y-62265714D01*
X151415714Y-62051429D01*
X151487143Y-61765714D01*
X151558571Y-61622857D01*
X151701429Y-61480000D01*
X151915714Y-61408571D01*
X152058571Y-61408571D01*
X152272857Y-61480000D01*
X152344286Y-61551429D01*
X152844286Y-61408571D02*
X153844286Y-61408571D01*
X153201429Y-62908571D01*
X148594286Y-59940000D02*
X149308572Y-59940000D01*
X148451429Y-60368571D02*
X148951429Y-58868571D01*
X149451429Y-60368571D01*
X150165715Y-59511429D02*
X150022857Y-59440000D01*
X149951429Y-59368571D01*
X149880000Y-59225714D01*
X149880000Y-59154286D01*
X149951429Y-59011429D01*
X150022857Y-58940000D01*
X150165715Y-58868571D01*
X150451429Y-58868571D01*
X150594286Y-58940000D01*
X150665715Y-59011429D01*
X150737143Y-59154286D01*
X150737143Y-59225714D01*
X150665715Y-59368571D01*
X150594286Y-59440000D01*
X150451429Y-59511429D01*
X150165715Y-59511429D01*
X150022857Y-59582857D01*
X149951429Y-59654286D01*
X149880000Y-59797143D01*
X149880000Y-60082857D01*
X149951429Y-60225714D01*
X150022857Y-60297143D01*
X150165715Y-60368571D01*
X150451429Y-60368571D01*
X150594286Y-60297143D01*
X150665715Y-60225714D01*
X150737143Y-60082857D01*
X150737143Y-59797143D01*
X150665715Y-59654286D01*
X150594286Y-59582857D01*
X150451429Y-59511429D01*
X152237143Y-60225714D02*
X152165714Y-60297143D01*
X151951428Y-60368571D01*
X151808571Y-60368571D01*
X151594286Y-60297143D01*
X151451428Y-60154286D01*
X151380000Y-60011429D01*
X151308571Y-59725714D01*
X151308571Y-59511429D01*
X151380000Y-59225714D01*
X151451428Y-59082857D01*
X151594286Y-58940000D01*
X151808571Y-58868571D01*
X151951428Y-58868571D01*
X152165714Y-58940000D01*
X152237143Y-59011429D01*
X152951428Y-60368571D02*
X153237143Y-60368571D01*
X153380000Y-60297143D01*
X153451428Y-60225714D01*
X153594286Y-60011429D01*
X153665714Y-59725714D01*
X153665714Y-59154286D01*
X153594286Y-59011429D01*
X153522857Y-58940000D01*
X153380000Y-58868571D01*
X153094286Y-58868571D01*
X152951428Y-58940000D01*
X152880000Y-59011429D01*
X152808571Y-59154286D01*
X152808571Y-59511429D01*
X152880000Y-59654286D01*
X152951428Y-59725714D01*
X153094286Y-59797143D01*
X153380000Y-59797143D01*
X153522857Y-59725714D01*
X153594286Y-59654286D01*
X153665714Y-59511429D01*
X148630000Y-57400000D02*
X149344286Y-57400000D01*
X148487143Y-57828571D02*
X148987143Y-56328571D01*
X149487143Y-57828571D01*
X150844286Y-57685714D02*
X150772857Y-57757143D01*
X150558571Y-57828571D01*
X150415714Y-57828571D01*
X150201429Y-57757143D01*
X150058571Y-57614286D01*
X149987143Y-57471429D01*
X149915714Y-57185714D01*
X149915714Y-56971429D01*
X149987143Y-56685714D01*
X150058571Y-56542857D01*
X150201429Y-56400000D01*
X150415714Y-56328571D01*
X150558571Y-56328571D01*
X150772857Y-56400000D01*
X150844286Y-56471429D01*
X151415714Y-57400000D02*
X152130000Y-57400000D01*
X151272857Y-57828571D02*
X151772857Y-56328571D01*
X152272857Y-57828571D01*
X153272857Y-57042857D02*
X153487143Y-57114286D01*
X153558571Y-57185714D01*
X153630000Y-57328571D01*
X153630000Y-57542857D01*
X153558571Y-57685714D01*
X153487143Y-57757143D01*
X153344285Y-57828571D01*
X152772857Y-57828571D01*
X152772857Y-56328571D01*
X153272857Y-56328571D01*
X153415714Y-56400000D01*
X153487143Y-56471429D01*
X153558571Y-56614286D01*
X153558571Y-56757143D01*
X153487143Y-56900000D01*
X153415714Y-56971429D01*
X153272857Y-57042857D01*
X152772857Y-57042857D01*
X149665715Y-55145714D02*
X149594286Y-55217143D01*
X149380000Y-55288571D01*
X149237143Y-55288571D01*
X149022858Y-55217143D01*
X148880000Y-55074286D01*
X148808572Y-54931429D01*
X148737143Y-54645714D01*
X148737143Y-54431429D01*
X148808572Y-54145714D01*
X148880000Y-54002857D01*
X149022858Y-53860000D01*
X149237143Y-53788571D01*
X149380000Y-53788571D01*
X149594286Y-53860000D01*
X149665715Y-53931429D01*
X150237143Y-54860000D02*
X150951429Y-54860000D01*
X150094286Y-55288571D02*
X150594286Y-53788571D01*
X151094286Y-55288571D01*
X151522857Y-54860000D02*
X152237143Y-54860000D01*
X151380000Y-55288571D02*
X151880000Y-53788571D01*
X152380000Y-55288571D01*
X153380000Y-54502857D02*
X152880000Y-54502857D01*
X152880000Y-55288571D02*
X152880000Y-53788571D01*
X153594286Y-53788571D01*
X149344286Y-52605714D02*
X149272857Y-52677143D01*
X149058571Y-52748571D01*
X148915714Y-52748571D01*
X148701429Y-52677143D01*
X148558571Y-52534286D01*
X148487143Y-52391429D01*
X148415714Y-52105714D01*
X148415714Y-51891429D01*
X148487143Y-51605714D01*
X148558571Y-51462857D01*
X148701429Y-51320000D01*
X148915714Y-51248571D01*
X149058571Y-51248571D01*
X149272857Y-51320000D01*
X149344286Y-51391429D01*
X150844286Y-52605714D02*
X150772857Y-52677143D01*
X150558571Y-52748571D01*
X150415714Y-52748571D01*
X150201429Y-52677143D01*
X150058571Y-52534286D01*
X149987143Y-52391429D01*
X149915714Y-52105714D01*
X149915714Y-51891429D01*
X149987143Y-51605714D01*
X150058571Y-51462857D01*
X150201429Y-51320000D01*
X150415714Y-51248571D01*
X150558571Y-51248571D01*
X150772857Y-51320000D01*
X150844286Y-51391429D01*
X152344286Y-52605714D02*
X152272857Y-52677143D01*
X152058571Y-52748571D01*
X151915714Y-52748571D01*
X151701429Y-52677143D01*
X151558571Y-52534286D01*
X151487143Y-52391429D01*
X151415714Y-52105714D01*
X151415714Y-51891429D01*
X151487143Y-51605714D01*
X151558571Y-51462857D01*
X151701429Y-51320000D01*
X151915714Y-51248571D01*
X152058571Y-51248571D01*
X152272857Y-51320000D01*
X152344286Y-51391429D01*
X153487143Y-51962857D02*
X153701429Y-52034286D01*
X153772857Y-52105714D01*
X153844286Y-52248571D01*
X153844286Y-52462857D01*
X153772857Y-52605714D01*
X153701429Y-52677143D01*
X153558571Y-52748571D01*
X152987143Y-52748571D01*
X152987143Y-51248571D01*
X153487143Y-51248571D01*
X153630000Y-51320000D01*
X153701429Y-51391429D01*
X153772857Y-51534286D01*
X153772857Y-51677143D01*
X153701429Y-51820000D01*
X153630000Y-51891429D01*
X153487143Y-51962857D01*
X152987143Y-51962857D01*
X149058572Y-49422857D02*
X149272858Y-49494286D01*
X149344286Y-49565714D01*
X149415715Y-49708571D01*
X149415715Y-49922857D01*
X149344286Y-50065714D01*
X149272858Y-50137143D01*
X149130000Y-50208571D01*
X148558572Y-50208571D01*
X148558572Y-48708571D01*
X149058572Y-48708571D01*
X149201429Y-48780000D01*
X149272858Y-48851429D01*
X149344286Y-48994286D01*
X149344286Y-49137143D01*
X149272858Y-49280000D01*
X149201429Y-49351429D01*
X149058572Y-49422857D01*
X148558572Y-49422857D01*
X149915715Y-48708571D02*
X150844286Y-48708571D01*
X150344286Y-49280000D01*
X150558572Y-49280000D01*
X150701429Y-49351429D01*
X150772858Y-49422857D01*
X150844286Y-49565714D01*
X150844286Y-49922857D01*
X150772858Y-50065714D01*
X150701429Y-50137143D01*
X150558572Y-50208571D01*
X150130000Y-50208571D01*
X149987143Y-50137143D01*
X149915715Y-50065714D01*
X151487143Y-50208571D02*
X151487143Y-48708571D01*
X151844286Y-48708571D01*
X152058571Y-48780000D01*
X152201429Y-48922857D01*
X152272857Y-49065714D01*
X152344286Y-49351429D01*
X152344286Y-49565714D01*
X152272857Y-49851429D01*
X152201429Y-49994286D01*
X152058571Y-50137143D01*
X151844286Y-50208571D01*
X151487143Y-50208571D01*
X152915714Y-48851429D02*
X152987143Y-48780000D01*
X153130000Y-48708571D01*
X153487143Y-48708571D01*
X153630000Y-48780000D01*
X153701429Y-48851429D01*
X153772857Y-48994286D01*
X153772857Y-49137143D01*
X153701429Y-49351429D01*
X152844286Y-50208571D01*
X153772857Y-50208571D01*
X149058572Y-46882857D02*
X149272858Y-46954286D01*
X149344286Y-47025714D01*
X149415715Y-47168571D01*
X149415715Y-47382857D01*
X149344286Y-47525714D01*
X149272858Y-47597143D01*
X149130000Y-47668571D01*
X148558572Y-47668571D01*
X148558572Y-46168571D01*
X149058572Y-46168571D01*
X149201429Y-46240000D01*
X149272858Y-46311429D01*
X149344286Y-46454286D01*
X149344286Y-46597143D01*
X149272858Y-46740000D01*
X149201429Y-46811429D01*
X149058572Y-46882857D01*
X148558572Y-46882857D01*
X150772858Y-46168571D02*
X150058572Y-46168571D01*
X149987143Y-46882857D01*
X150058572Y-46811429D01*
X150201429Y-46740000D01*
X150558572Y-46740000D01*
X150701429Y-46811429D01*
X150772858Y-46882857D01*
X150844286Y-47025714D01*
X150844286Y-47382857D01*
X150772858Y-47525714D01*
X150701429Y-47597143D01*
X150558572Y-47668571D01*
X150201429Y-47668571D01*
X150058572Y-47597143D01*
X149987143Y-47525714D01*
X151987143Y-46882857D02*
X152201429Y-46954286D01*
X152272857Y-47025714D01*
X152344286Y-47168571D01*
X152344286Y-47382857D01*
X152272857Y-47525714D01*
X152201429Y-47597143D01*
X152058571Y-47668571D01*
X151487143Y-47668571D01*
X151487143Y-46168571D01*
X151987143Y-46168571D01*
X152130000Y-46240000D01*
X152201429Y-46311429D01*
X152272857Y-46454286D01*
X152272857Y-46597143D01*
X152201429Y-46740000D01*
X152130000Y-46811429D01*
X151987143Y-46882857D01*
X151487143Y-46882857D01*
X153630000Y-46668571D02*
X153630000Y-47668571D01*
X153272857Y-46097143D02*
X152915714Y-47168571D01*
X153844286Y-47168571D01*
X149058572Y-44342857D02*
X149272858Y-44414286D01*
X149344286Y-44485714D01*
X149415715Y-44628571D01*
X149415715Y-44842857D01*
X149344286Y-44985714D01*
X149272858Y-45057143D01*
X149130000Y-45128571D01*
X148558572Y-45128571D01*
X148558572Y-43628571D01*
X149058572Y-43628571D01*
X149201429Y-43700000D01*
X149272858Y-43771429D01*
X149344286Y-43914286D01*
X149344286Y-44057143D01*
X149272858Y-44200000D01*
X149201429Y-44271429D01*
X149058572Y-44342857D01*
X148558572Y-44342857D01*
X150130000Y-45128571D02*
X150415715Y-45128571D01*
X150558572Y-45057143D01*
X150630000Y-44985714D01*
X150772858Y-44771429D01*
X150844286Y-44485714D01*
X150844286Y-43914286D01*
X150772858Y-43771429D01*
X150701429Y-43700000D01*
X150558572Y-43628571D01*
X150272858Y-43628571D01*
X150130000Y-43700000D01*
X150058572Y-43771429D01*
X149987143Y-43914286D01*
X149987143Y-44271429D01*
X150058572Y-44414286D01*
X150130000Y-44485714D01*
X150272858Y-44557143D01*
X150558572Y-44557143D01*
X150701429Y-44485714D01*
X150772858Y-44414286D01*
X150844286Y-44271429D01*
X151987143Y-44342857D02*
X152201429Y-44414286D01*
X152272857Y-44485714D01*
X152344286Y-44628571D01*
X152344286Y-44842857D01*
X152272857Y-44985714D01*
X152201429Y-45057143D01*
X152058571Y-45128571D01*
X151487143Y-45128571D01*
X151487143Y-43628571D01*
X151987143Y-43628571D01*
X152130000Y-43700000D01*
X152201429Y-43771429D01*
X152272857Y-43914286D01*
X152272857Y-44057143D01*
X152201429Y-44200000D01*
X152130000Y-44271429D01*
X151987143Y-44342857D01*
X151487143Y-44342857D01*
X153201429Y-44271429D02*
X153058571Y-44200000D01*
X152987143Y-44128571D01*
X152915714Y-43985714D01*
X152915714Y-43914286D01*
X152987143Y-43771429D01*
X153058571Y-43700000D01*
X153201429Y-43628571D01*
X153487143Y-43628571D01*
X153630000Y-43700000D01*
X153701429Y-43771429D01*
X153772857Y-43914286D01*
X153772857Y-43985714D01*
X153701429Y-44128571D01*
X153630000Y-44200000D01*
X153487143Y-44271429D01*
X153201429Y-44271429D01*
X153058571Y-44342857D01*
X152987143Y-44414286D01*
X152915714Y-44557143D01*
X152915714Y-44842857D01*
X152987143Y-44985714D01*
X153058571Y-45057143D01*
X153201429Y-45128571D01*
X153487143Y-45128571D01*
X153630000Y-45057143D01*
X153701429Y-44985714D01*
X153772857Y-44842857D01*
X153772857Y-44557143D01*
X153701429Y-44414286D01*
X153630000Y-44342857D01*
X153487143Y-44271429D01*
X148630001Y-41088571D02*
X149558572Y-41088571D01*
X149058572Y-41660000D01*
X149272858Y-41660000D01*
X149415715Y-41731429D01*
X149487144Y-41802857D01*
X149558572Y-41945714D01*
X149558572Y-42302857D01*
X149487144Y-42445714D01*
X149415715Y-42517143D01*
X149272858Y-42588571D01*
X148844286Y-42588571D01*
X148701429Y-42517143D01*
X148630001Y-42445714D01*
X149987143Y-41088571D02*
X150487143Y-42588571D01*
X150987143Y-41088571D01*
X152201429Y-41088571D02*
X151487143Y-41088571D01*
X151415714Y-41802857D01*
X151487143Y-41731429D01*
X151630000Y-41660000D01*
X151987143Y-41660000D01*
X152130000Y-41731429D01*
X152201429Y-41802857D01*
X152272857Y-41945714D01*
X152272857Y-42302857D01*
X152201429Y-42445714D01*
X152130000Y-42517143D01*
X151987143Y-42588571D01*
X151630000Y-42588571D01*
X151487143Y-42517143D01*
X151415714Y-42445714D01*
X152701428Y-41088571D02*
X153201428Y-42588571D01*
X153701428Y-41088571D01*
X148630001Y-38548571D02*
X149558572Y-38548571D01*
X149058572Y-39120000D01*
X149272858Y-39120000D01*
X149415715Y-39191429D01*
X149487144Y-39262857D01*
X149558572Y-39405714D01*
X149558572Y-39762857D01*
X149487144Y-39905714D01*
X149415715Y-39977143D01*
X149272858Y-40048571D01*
X148844286Y-40048571D01*
X148701429Y-39977143D01*
X148630001Y-39905714D01*
X149987143Y-38548571D02*
X150487143Y-40048571D01*
X150987143Y-38548571D01*
X152201429Y-38548571D02*
X151487143Y-38548571D01*
X151415714Y-39262857D01*
X151487143Y-39191429D01*
X151630000Y-39120000D01*
X151987143Y-39120000D01*
X152130000Y-39191429D01*
X152201429Y-39262857D01*
X152272857Y-39405714D01*
X152272857Y-39762857D01*
X152201429Y-39905714D01*
X152130000Y-39977143D01*
X151987143Y-40048571D01*
X151630000Y-40048571D01*
X151487143Y-39977143D01*
X151415714Y-39905714D01*
X152701428Y-38548571D02*
X153201428Y-40048571D01*
X153701428Y-38548571D01*
X100413715Y-110176571D02*
X100913715Y-111676571D01*
X101413715Y-110176571D01*
X106128000Y-110248000D02*
X105985143Y-110176571D01*
X105770857Y-110176571D01*
X105556572Y-110248000D01*
X105413714Y-110390857D01*
X105342286Y-110533714D01*
X105270857Y-110819429D01*
X105270857Y-111033714D01*
X105342286Y-111319429D01*
X105413714Y-111462286D01*
X105556572Y-111605143D01*
X105770857Y-111676571D01*
X105913714Y-111676571D01*
X106128000Y-111605143D01*
X106199429Y-111533714D01*
X106199429Y-111033714D01*
X105913714Y-111033714D01*
X149236857Y-99098000D02*
X149094000Y-99026571D01*
X148879714Y-99026571D01*
X148665429Y-99098000D01*
X148522571Y-99240857D01*
X148451143Y-99383714D01*
X148379714Y-99669429D01*
X148379714Y-99883714D01*
X148451143Y-100169429D01*
X148522571Y-100312286D01*
X148665429Y-100455143D01*
X148879714Y-100526571D01*
X149022571Y-100526571D01*
X149236857Y-100455143D01*
X149308286Y-100383714D01*
X149308286Y-99883714D01*
X149022571Y-99883714D01*
X149308286Y-105326571D02*
X148594000Y-105326571D01*
X148594000Y-103826571D01*
X148415429Y-110126571D02*
X148415429Y-108626571D01*
X148415429Y-109340857D02*
X149272572Y-109340857D01*
X149272572Y-110126571D02*
X149272572Y-108626571D01*
D12*
X99966780Y-97177860D02*
X100327460Y-98648520D01*
X100327460Y-98648520D02*
X100606860Y-97586800D01*
X100606860Y-97586800D02*
X100916740Y-98658680D01*
X100916740Y-98658680D02*
X101257100Y-97208340D01*
X98546920Y-97868740D02*
X99336860Y-97858580D01*
X99336860Y-97858580D02*
X99347020Y-97868740D01*
X99347020Y-97868740D02*
X99347020Y-97858580D01*
X99387660Y-97147380D02*
X99387660Y-98689160D01*
X98498660Y-97137220D02*
X98498660Y-98706940D01*
X98498660Y-98706940D02*
X98508820Y-98696780D01*
X97947480Y-97238820D02*
X97596960Y-97157540D01*
X97596960Y-97157540D02*
X97276920Y-97147380D01*
X97276920Y-97147380D02*
X97038160Y-97348040D01*
X97038160Y-97348040D02*
X97007680Y-97617280D01*
X97007680Y-97617280D02*
X97248980Y-97858580D01*
X97248980Y-97858580D02*
X97637600Y-97988120D01*
X97637600Y-97988120D02*
X97817940Y-98148140D01*
X97817940Y-98148140D02*
X97858580Y-98447860D01*
X97858580Y-98447860D02*
X97627440Y-98668840D01*
X97627440Y-98668840D02*
X97307400Y-98696780D01*
X97307400Y-98696780D02*
X96956880Y-98587560D01*
X95918020Y-97137220D02*
X95669100Y-97157540D01*
X95669100Y-97157540D02*
X95427800Y-97398840D01*
X95427800Y-97398840D02*
X95338900Y-97889060D01*
X95338900Y-97889060D02*
X95366840Y-98237040D01*
X95366840Y-98237040D02*
X95567500Y-98557080D01*
X95567500Y-98557080D02*
X95818960Y-98679000D01*
X95818960Y-98679000D02*
X96128840Y-98607880D01*
X96128840Y-98607880D02*
X96347280Y-98427540D01*
X96347280Y-98427540D02*
X96418400Y-97967800D01*
X96418400Y-97967800D02*
X96367600Y-97558860D01*
X96367600Y-97558860D02*
X96258380Y-97276920D01*
X96258380Y-97276920D02*
X95897700Y-97147380D01*
X96517460Y-95417640D02*
X96258380Y-95978980D01*
X96258380Y-95978980D02*
X96796860Y-96497140D01*
X96796860Y-96497140D02*
X97317560Y-96227900D01*
X97317560Y-96227900D02*
X97596960Y-96387920D01*
X99037140Y-96367600D02*
X99367340Y-96177100D01*
X99367340Y-96177100D02*
X99806760Y-96507300D01*
X99806760Y-96507300D02*
X100279200Y-96017080D01*
X100279200Y-96017080D02*
X99997260Y-95537020D01*
X99997260Y-95537020D02*
X100187760Y-95067120D01*
X100187760Y-95067120D02*
X100797360Y-94879160D01*
X100797360Y-94879160D02*
X100797360Y-94198440D01*
X100797360Y-94198440D02*
X100238560Y-94058740D01*
X100238560Y-94058740D02*
X100037900Y-93487240D01*
X100037900Y-93487240D02*
X100307140Y-93017340D01*
X100307140Y-93017340D02*
X99837240Y-92506800D01*
X99837240Y-92506800D02*
X99319080Y-92768420D01*
X99319080Y-92768420D02*
X98849180Y-92567760D01*
X98849180Y-92567760D02*
X98679000Y-92026740D01*
X98679000Y-92026740D02*
X97988120Y-92008960D01*
X97988120Y-92008960D02*
X97777300Y-92557600D01*
X97777300Y-92557600D02*
X97358200Y-92727780D01*
X97358200Y-92727780D02*
X96807020Y-92458540D01*
X96807020Y-92458540D02*
X96288860Y-92986860D01*
X96288860Y-92986860D02*
X96537780Y-93527880D01*
X96537780Y-93527880D02*
X96367600Y-94007940D01*
X96367600Y-94007940D02*
X95818960Y-94107000D01*
X95818960Y-94107000D02*
X95808800Y-94808040D01*
X95808800Y-94808040D02*
X96367600Y-95008700D01*
X96367600Y-95008700D02*
X96507300Y-95407480D01*
X98648520Y-95387160D02*
X98948240Y-95237300D01*
X98948240Y-95237300D02*
X99148900Y-95039180D01*
X99148900Y-95039180D02*
X99298760Y-94637860D01*
X99298760Y-94637860D02*
X99298760Y-94239080D01*
X99298760Y-94239080D02*
X99148900Y-93888560D01*
X99148900Y-93888560D02*
X98696780Y-93538040D01*
X98696780Y-93538040D02*
X98247200Y-93487240D01*
X98247200Y-93487240D02*
X97848420Y-93588840D01*
X97848420Y-93588840D02*
X97447100Y-93936820D01*
X97447100Y-93936820D02*
X97297240Y-94388940D01*
X97297240Y-94388940D02*
X97348040Y-94886780D01*
X97348040Y-94886780D02*
X97596960Y-95189040D01*
X97596960Y-95189040D02*
X97947480Y-95387160D01*
X97947480Y-95387160D02*
X97596960Y-96387920D01*
X98648520Y-95387160D02*
X99047300Y-96387920D01*
X118880000Y-55714000D02*
X119880000Y-55714000D01*
X119880000Y-54014000D02*
X118880000Y-54014000D01*
X118880000Y-59016000D02*
X119880000Y-59016000D01*
X119880000Y-57316000D02*
X118880000Y-57316000D01*
X144772000Y-83732000D02*
X143772000Y-83732000D01*
X143772000Y-85432000D02*
X144772000Y-85432000D01*
X126580000Y-106164000D02*
X126580000Y-105164000D01*
X124880000Y-105164000D02*
X124880000Y-106164000D01*
X117086000Y-84240000D02*
X116086000Y-84240000D01*
X116086000Y-85940000D02*
X117086000Y-85940000D01*
X117086000Y-68238000D02*
X116086000Y-68238000D01*
X116086000Y-69938000D02*
X117086000Y-69938000D01*
X135644000Y-93814000D02*
X136644000Y-93814000D01*
X136644000Y-92114000D02*
X135644000Y-92114000D01*
X135644000Y-96608000D02*
X136644000Y-96608000D01*
X136644000Y-94908000D02*
X135644000Y-94908000D01*
X135644000Y-102450000D02*
X136644000Y-102450000D01*
X136644000Y-100750000D02*
X135644000Y-100750000D01*
X135644000Y-105752000D02*
X136644000Y-105752000D01*
X136644000Y-104052000D02*
X135644000Y-104052000D01*
X141081760Y-102078840D02*
X141081760Y-102127100D01*
X141782800Y-104877820D02*
X141081760Y-104877820D01*
X141081760Y-104877820D02*
X141081760Y-104628900D01*
X141081760Y-102078840D02*
X141081760Y-101878180D01*
X141081760Y-101878180D02*
X141782800Y-101878180D01*
X146079160Y-110601760D02*
X146030900Y-110601760D01*
X143280180Y-111302800D02*
X143280180Y-110601760D01*
X143280180Y-110601760D02*
X143529100Y-110601760D01*
X146079160Y-110601760D02*
X146279820Y-110601760D01*
X146279820Y-110601760D02*
X146279820Y-111302800D01*
X118364000Y-108077000D02*
X119888000Y-108077000D01*
X120269000Y-107950000D02*
X117983000Y-107950000D01*
X117729000Y-107823000D02*
X120523000Y-107823000D01*
X120777000Y-107696000D02*
X117475000Y-107696000D01*
X117348000Y-107569000D02*
X120904000Y-107569000D01*
X115824000Y-108458000D02*
X122428000Y-108458000D01*
X122428000Y-108458000D02*
X122428000Y-102616000D01*
X122428000Y-102616000D02*
X121666000Y-101854000D01*
X121666000Y-101854000D02*
X116586000Y-101854000D01*
X116586000Y-101854000D02*
X115824000Y-102616000D01*
X115824000Y-102616000D02*
X115824000Y-108458000D01*
X119126000Y-102997000D02*
X119126000Y-103759000D01*
X118745000Y-103378000D02*
X119507000Y-103378000D01*
X122174000Y-105156000D02*
G75*
G03X122174000Y-105156000I-3048000J0D01*
G01*
X113792000Y-93345000D02*
X120142000Y-93345000D01*
X113792000Y-89535000D02*
X120142000Y-89535000D01*
X120142000Y-89535000D02*
X120142000Y-93345000D01*
X113792000Y-89535000D02*
X113792000Y-93345000D01*
X113792000Y-76581000D02*
X120142000Y-76581000D01*
X113792000Y-72771000D02*
X120142000Y-72771000D01*
X120142000Y-72771000D02*
X120142000Y-76581000D01*
X113792000Y-72771000D02*
X113792000Y-76581000D01*
X124460000Y-37592000D02*
X116840000Y-37592000D01*
X124460000Y-40132000D02*
X116840000Y-40132000D01*
X127280000Y-40412000D02*
X125730000Y-40412000D01*
X116840000Y-37592000D02*
X116840000Y-40132000D01*
X124460000Y-40132000D02*
X124460000Y-37592000D01*
X125730000Y-37312000D02*
X127280000Y-37312000D01*
X127280000Y-37312000D02*
X127280000Y-40412000D01*
X143002000Y-37312000D02*
X144552000Y-37312000D01*
X144552000Y-37312000D02*
X144552000Y-40412000D01*
X144552000Y-40412000D02*
X143002000Y-40412000D01*
X141732000Y-40132000D02*
X131572000Y-40132000D01*
X131572000Y-40132000D02*
X131572000Y-37592000D01*
X131572000Y-37592000D02*
X141732000Y-37592000D01*
X141732000Y-40132000D02*
X141732000Y-37592000D01*
X160020000Y-88900000D02*
X160020000Y-38100000D01*
X154940000Y-40640000D02*
X154940000Y-88900000D01*
X160020000Y-88900000D02*
X154940000Y-88900000D01*
X160020000Y-38100000D02*
X157480000Y-38100000D01*
X156210000Y-37820000D02*
X154660000Y-37820000D01*
X157480000Y-38100000D02*
X157480000Y-40640000D01*
X157480000Y-40640000D02*
X154940000Y-40640000D01*
X154660000Y-37820000D02*
X154660000Y-39370000D01*
X79819500Y-105354120D02*
X79819500Y-114355880D01*
X76319380Y-105354120D02*
X76319380Y-114355880D01*
X76319380Y-114355880D02*
X90820240Y-114355880D01*
X90820240Y-114355880D02*
X90820240Y-105354120D01*
X90820240Y-105354120D02*
X76319380Y-105354120D01*
X94514000Y-118338000D02*
X94514000Y-119888000D01*
X91414000Y-119888000D02*
X91414000Y-118338000D01*
X91414000Y-118338000D02*
X94514000Y-118338000D01*
X91694000Y-121158000D02*
X94234000Y-121158000D01*
X103465000Y-122210000D02*
X103465000Y-122710000D01*
X107965000Y-118210000D02*
G75*
G03X107965000Y-118210000I-2000000J0D01*
G01*
X102965000Y-118210000D02*
G75*
G03X102965000Y-118210000I-2000000J0D01*
G01*
X98465000Y-120710000D02*
X108465000Y-120710000D01*
X98465000Y-115810000D02*
X108465000Y-115810000D01*
X98465000Y-122210000D02*
X108465000Y-122210000D01*
X98465000Y-122710000D02*
X108465000Y-122710000D01*
X108465000Y-122710000D02*
X108465000Y-112910000D01*
X108465000Y-112910000D02*
X98465000Y-112910000D01*
X98465000Y-112910000D02*
X98465000Y-122710000D01*
X81052000Y-77190000D02*
X81052000Y-78740000D01*
X77952000Y-78740000D02*
X77952000Y-77190000D01*
X77952000Y-77190000D02*
X81052000Y-77190000D01*
X78232000Y-80010000D02*
X80772000Y-80010000D01*
X81052000Y-56362000D02*
X81052000Y-57912000D01*
X77952000Y-57912000D02*
X77952000Y-56362000D01*
X77952000Y-56362000D02*
X81052000Y-56362000D01*
X78232000Y-59182000D02*
X80772000Y-59182000D01*
X103600000Y-32540000D02*
X154400000Y-32540000D01*
X151860000Y-27460000D02*
X103600000Y-27460000D01*
X103600000Y-32540000D02*
X103600000Y-27460000D01*
X154400000Y-32540000D02*
X154400000Y-30000000D01*
X154680000Y-28730000D02*
X154680000Y-27180000D01*
X154400000Y-30000000D02*
X151860000Y-30000000D01*
X151860000Y-30000000D02*
X151860000Y-27460000D01*
X154680000Y-27180000D02*
X153130000Y-27180000D01*
X84852000Y-31472000D02*
X84352000Y-30972000D01*
X84352000Y-31472000D02*
X94852000Y-31472000D01*
X94852000Y-31472000D02*
X94852000Y-28472000D01*
X94852000Y-28472000D02*
X84352000Y-28472000D01*
X84352000Y-28472000D02*
X84352000Y-31472000D01*
X77680820Y-38059360D02*
X77680820Y-45760640D01*
X76680060Y-38059360D02*
X76680060Y-45760640D01*
X76680060Y-45760640D02*
X85879940Y-45760640D01*
X85879940Y-45760640D02*
X85879940Y-38059360D01*
X85879940Y-38059360D02*
X76680060Y-38059360D01*
X157548000Y-98966000D02*
G75*
G03X157548000Y-98966000I-2000000J0D01*
G01*
X159548000Y-101466000D02*
X160048000Y-101466000D01*
X159548000Y-106466000D02*
X160048000Y-106466000D01*
X157548000Y-103966000D02*
G75*
G03X157548000Y-103966000I-2000000J0D01*
G01*
X157548000Y-108966000D02*
G75*
G03X157548000Y-108966000I-2000000J0D01*
G01*
X158048000Y-111466000D02*
X158048000Y-96466000D01*
X153148000Y-111466000D02*
X153148000Y-96466000D01*
X159548000Y-111466000D02*
X159548000Y-96466000D01*
X160048000Y-111466000D02*
X160048000Y-96466000D01*
X160048000Y-96466000D02*
X150248000Y-96466000D01*
X150248000Y-96466000D02*
X150248000Y-111466000D01*
X150248000Y-111466000D02*
X160048000Y-111466000D01*
X141494000Y-121388000D02*
X140994000Y-120888000D01*
X140994000Y-121388000D02*
X151494000Y-121388000D01*
X151494000Y-121388000D02*
X151494000Y-118388000D01*
X151494000Y-118388000D02*
X140994000Y-118388000D01*
X140994000Y-118388000D02*
X140994000Y-121388000D01*
X127626000Y-81754000D02*
X124026000Y-81754000D01*
X127626000Y-83854000D02*
X124026000Y-83854000D01*
X125576000Y-83104000D02*
X125576000Y-82504000D01*
X125576000Y-82504000D02*
X125876000Y-82804000D01*
X125876000Y-82804000D02*
X125676000Y-83004000D01*
X125676000Y-83004000D02*
X125676000Y-82754000D01*
X125676000Y-82754000D02*
X125726000Y-82804000D01*
X125976000Y-83304000D02*
X125976000Y-82304000D01*
X125476000Y-82804000D02*
X124976000Y-82804000D01*
X125976000Y-82804000D02*
X125476000Y-83304000D01*
X125476000Y-83304000D02*
X125476000Y-82304000D01*
X125476000Y-82304000D02*
X125976000Y-82804000D01*
X127626000Y-72102000D02*
X124026000Y-72102000D01*
X127626000Y-74202000D02*
X124026000Y-74202000D01*
X125576000Y-73452000D02*
X125576000Y-72852000D01*
X125576000Y-72852000D02*
X125876000Y-73152000D01*
X125876000Y-73152000D02*
X125676000Y-73352000D01*
X125676000Y-73352000D02*
X125676000Y-73102000D01*
X125676000Y-73102000D02*
X125726000Y-73152000D01*
X125976000Y-73652000D02*
X125976000Y-72652000D01*
X125476000Y-73152000D02*
X124976000Y-73152000D01*
X125976000Y-73152000D02*
X125476000Y-73652000D01*
X125476000Y-73652000D02*
X125476000Y-72652000D01*
X125476000Y-72652000D02*
X125976000Y-73152000D01*
X113910000Y-51528000D02*
X110310000Y-51528000D01*
X113910000Y-53628000D02*
X110310000Y-53628000D01*
X111860000Y-52878000D02*
X111860000Y-52278000D01*
X111860000Y-52278000D02*
X112160000Y-52578000D01*
X112160000Y-52578000D02*
X111960000Y-52778000D01*
X111960000Y-52778000D02*
X111960000Y-52528000D01*
X111960000Y-52528000D02*
X112010000Y-52578000D01*
X112260000Y-53078000D02*
X112260000Y-52078000D01*
X111760000Y-52578000D02*
X111260000Y-52578000D01*
X112260000Y-52578000D02*
X111760000Y-53078000D01*
X111760000Y-53078000D02*
X111760000Y-52078000D01*
X111760000Y-52078000D02*
X112260000Y-52578000D01*
X112360000Y-47611000D02*
X111160000Y-47611000D01*
X111160000Y-45861000D02*
X112360000Y-45861000D01*
X112360000Y-44817000D02*
X111160000Y-44817000D01*
X111160000Y-43067000D02*
X112360000Y-43067000D01*
X136236000Y-45579000D02*
X135036000Y-45579000D01*
X135036000Y-43829000D02*
X136236000Y-43829000D01*
X136306000Y-83707000D02*
X137506000Y-83707000D01*
X137506000Y-85457000D02*
X136306000Y-85457000D01*
X111160000Y-48655000D02*
X112360000Y-48655000D01*
X112360000Y-50405000D02*
X111160000Y-50405000D01*
X115986000Y-80913000D02*
X117186000Y-80913000D01*
X117186000Y-82663000D02*
X115986000Y-82663000D01*
X115986000Y-65165000D02*
X117186000Y-65165000D01*
X117186000Y-66915000D02*
X115986000Y-66915000D01*
X98206000Y-48147000D02*
X99406000Y-48147000D01*
X99406000Y-49897000D02*
X98206000Y-49897000D01*
X93310000Y-49897000D02*
X92110000Y-49897000D01*
X92110000Y-48147000D02*
X93310000Y-48147000D01*
X136490000Y-116953000D02*
X135290000Y-116953000D01*
X135290000Y-115203000D02*
X136490000Y-115203000D01*
X135290000Y-118251000D02*
X136490000Y-118251000D01*
X136490000Y-120001000D02*
X135290000Y-120001000D01*
X144872000Y-89521000D02*
X143672000Y-89521000D01*
X143672000Y-87771000D02*
X144872000Y-87771000D01*
X146650000Y-116445000D02*
X145450000Y-116445000D01*
X145450000Y-114695000D02*
X146650000Y-114695000D01*
X146671000Y-102270000D02*
X146671000Y-103470000D01*
X144921000Y-103470000D02*
X144921000Y-102270000D01*
X139476110Y-80475780D02*
X141976110Y-80475780D01*
X141976110Y-80475780D02*
X141976110Y-81575780D01*
X141976110Y-81575780D02*
X139476110Y-81575780D01*
X139476110Y-81575780D02*
X139476110Y-80475780D01*
X139226110Y-81825780D02*
X142226110Y-81825780D01*
X139226110Y-80225780D02*
X142226110Y-80225780D01*
X142226110Y-80225780D02*
X142226110Y-81825780D01*
X139226110Y-80225780D02*
X139226110Y-81825780D01*
X137726110Y-82775780D02*
X143726110Y-82775780D01*
X137726110Y-79275780D02*
X143726110Y-79275780D01*
X137726110Y-79275780D02*
X137726110Y-82775780D01*
X143726110Y-79275780D02*
X143726110Y-82775780D01*
X105603040Y-84002880D02*
X110804960Y-84002880D01*
X110804960Y-81605120D02*
X105603040Y-81605120D01*
X103604060Y-80505300D02*
X103604060Y-81605120D01*
X103004620Y-81005680D02*
X104203500Y-81005680D01*
X104208580Y-81605120D02*
X104208580Y-84002880D01*
X105603040Y-63936880D02*
X110804960Y-63936880D01*
X110804960Y-61539120D02*
X105603040Y-61539120D01*
X103604060Y-60439300D02*
X103604060Y-61539120D01*
X103004620Y-60939680D02*
X104203500Y-60939680D01*
X104208580Y-61539120D02*
X104208580Y-63936880D01*
X105603040Y-87685880D02*
X110804960Y-87685880D01*
X110804960Y-85288120D02*
X105603040Y-85288120D01*
X103604060Y-84188300D02*
X103604060Y-85288120D01*
X103004620Y-84688680D02*
X104203500Y-84688680D01*
X104208580Y-85288120D02*
X104208580Y-87685880D01*
X105603040Y-67746880D02*
X110804960Y-67746880D01*
X110804960Y-65349120D02*
X105603040Y-65349120D01*
X103604060Y-64249300D02*
X103604060Y-65349120D01*
X103004620Y-64749680D02*
X104203500Y-64749680D01*
X104208580Y-65349120D02*
X104208580Y-67746880D01*
X135287000Y-54515000D02*
X135287000Y-55590000D01*
X145637000Y-54515000D02*
X145637000Y-55590000D01*
X145637000Y-64865000D02*
X145637000Y-63790000D01*
X135287000Y-64865000D02*
X135287000Y-63790000D01*
X135287000Y-54515000D02*
X136362000Y-54515000D01*
X135287000Y-64865000D02*
X136362000Y-64865000D01*
X145637000Y-64865000D02*
X144562000Y-64865000D01*
X145637000Y-54515000D02*
X144562000Y-54515000D01*
X135287000Y-55590000D02*
X134262000Y-55590000D01*
X95544000Y-80344000D02*
X95544000Y-81594000D01*
X95544000Y-80344000D02*
X94044000Y-80344000D01*
X95544000Y-90344000D02*
X94044000Y-90344000D01*
X95544000Y-90344000D02*
X95544000Y-89094000D01*
X95544000Y-59516000D02*
X95544000Y-60766000D01*
X95544000Y-59516000D02*
X94044000Y-59516000D01*
X95544000Y-69516000D02*
X94044000Y-69516000D01*
X95544000Y-69516000D02*
X95544000Y-68266000D01*
X101083000Y-38273000D02*
X100433000Y-38273000D01*
X101083000Y-44023000D02*
X100433000Y-44023000D01*
X90433000Y-44023000D02*
X91083000Y-44023000D01*
X90433000Y-38273000D02*
X91083000Y-38273000D01*
X101083000Y-38273000D02*
X101083000Y-44023000D01*
X90433000Y-38273000D02*
X90433000Y-44023000D01*
X100433000Y-38273000D02*
X100433000Y-36673000D01*
X142197000Y-91278000D02*
X142197000Y-91423000D01*
X146347000Y-91278000D02*
X146347000Y-91423000D01*
X146347000Y-96428000D02*
X146347000Y-96283000D01*
X142197000Y-96428000D02*
X142197000Y-96283000D01*
X142197000Y-91278000D02*
X146347000Y-91278000D01*
X142197000Y-96428000D02*
X146347000Y-96428000D01*
X142197000Y-91423000D02*
X140797000Y-91423000D01*
X133815000Y-108423000D02*
X133815000Y-108568000D01*
X137965000Y-108423000D02*
X137965000Y-108568000D01*
X137965000Y-113573000D02*
X137965000Y-113428000D01*
X133815000Y-113573000D02*
X133815000Y-113428000D01*
X133815000Y-108423000D02*
X137965000Y-108423000D01*
X133815000Y-113573000D02*
X137965000Y-113573000D01*
X133815000Y-108568000D02*
X132415000Y-108568000D01*
X125750320Y-48559720D02*
X126050040Y-48658780D01*
X125750320Y-47960280D02*
X126050040Y-47861220D01*
X125750320Y-47360840D02*
X120700800Y-47360840D01*
X120700800Y-47360840D02*
X120700800Y-49159160D01*
X120700800Y-49159160D02*
X125750320Y-49159160D01*
X125750320Y-47360840D02*
X125750320Y-49159160D01*
X123230640Y-53332380D02*
X123230640Y-65031620D01*
X128229360Y-65031620D02*
X128229360Y-53332380D01*
X123230640Y-65031620D02*
X124079000Y-65031620D01*
X128229360Y-65031620D02*
X127381000Y-65031620D01*
X123230640Y-53332380D02*
X124079000Y-53332380D01*
X128229360Y-53332380D02*
X127381000Y-53332380D01*
X85848000Y-99568000D02*
X85298000Y-100018000D01*
X85298000Y-100018000D02*
X85298000Y-99118000D01*
X85298000Y-99118000D02*
X85848000Y-99568000D01*
X85848000Y-100118000D02*
X85848000Y-99018000D01*
X87397140Y-97817940D02*
X87397140Y-98168460D01*
X87397140Y-101318060D02*
X87397140Y-100967540D01*
X83347560Y-97817940D02*
X83347560Y-98168460D01*
X87848440Y-97817940D02*
X87848440Y-98168460D01*
X87848440Y-101318060D02*
X87848440Y-100967540D01*
X83347560Y-101318060D02*
X83347560Y-100967540D01*
X87848440Y-97817940D02*
X83347560Y-97817940D01*
X87848440Y-101318060D02*
X83347560Y-101318060D01*
X103882000Y-104902000D02*
X103332000Y-105352000D01*
X103332000Y-105352000D02*
X103332000Y-104452000D01*
X103332000Y-104452000D02*
X103882000Y-104902000D01*
X103882000Y-105452000D02*
X103882000Y-104352000D01*
X105431140Y-103151940D02*
X105431140Y-103502460D01*
X105431140Y-106652060D02*
X105431140Y-106301540D01*
X101381560Y-103151940D02*
X101381560Y-103502460D01*
X105882440Y-103151940D02*
X105882440Y-103502460D01*
X105882440Y-106652060D02*
X105882440Y-106301540D01*
X101381560Y-106652060D02*
X101381560Y-106301540D01*
X105882440Y-103151940D02*
X101381560Y-103151940D01*
X105882440Y-106652060D02*
X101381560Y-106652060D01*
X119630000Y-117221000D02*
X119080000Y-117671000D01*
X119080000Y-117671000D02*
X119080000Y-116771000D01*
X119080000Y-116771000D02*
X119630000Y-117221000D01*
X119630000Y-117771000D02*
X119630000Y-116671000D01*
X121179140Y-115470940D02*
X121179140Y-115821460D01*
X121179140Y-118971060D02*
X121179140Y-118620540D01*
X117129560Y-115470940D02*
X117129560Y-115821460D01*
X121630440Y-115470940D02*
X121630440Y-115821460D01*
X121630440Y-118971060D02*
X121630440Y-118620540D01*
X117129560Y-118971060D02*
X117129560Y-118620540D01*
X121630440Y-115470940D02*
X117129560Y-115470940D01*
X121630440Y-118971060D02*
X117129560Y-118971060D01*
X114395334Y-55221143D02*
X114347715Y-55268762D01*
X114204858Y-55316381D01*
X114109620Y-55316381D01*
X113966762Y-55268762D01*
X113871524Y-55173524D01*
X113823905Y-55078286D01*
X113776286Y-54887810D01*
X113776286Y-54744952D01*
X113823905Y-54554476D01*
X113871524Y-54459238D01*
X113966762Y-54364000D01*
X114109620Y-54316381D01*
X114204858Y-54316381D01*
X114347715Y-54364000D01*
X114395334Y-54411619D01*
X115395334Y-55221143D02*
X115347715Y-55268762D01*
X115204858Y-55316381D01*
X115109620Y-55316381D01*
X114966762Y-55268762D01*
X114871524Y-55173524D01*
X114823905Y-55078286D01*
X114776286Y-54887810D01*
X114776286Y-54744952D01*
X114823905Y-54554476D01*
X114871524Y-54459238D01*
X114966762Y-54364000D01*
X115109620Y-54316381D01*
X115204858Y-54316381D01*
X115347715Y-54364000D01*
X115395334Y-54411619D01*
X116347715Y-55316381D02*
X115776286Y-55316381D01*
X116062000Y-55316381D02*
X116062000Y-54316381D01*
X115966762Y-54459238D01*
X115871524Y-54554476D01*
X115776286Y-54602095D01*
X114395334Y-58523143D02*
X114347715Y-58570762D01*
X114204858Y-58618381D01*
X114109620Y-58618381D01*
X113966762Y-58570762D01*
X113871524Y-58475524D01*
X113823905Y-58380286D01*
X113776286Y-58189810D01*
X113776286Y-58046952D01*
X113823905Y-57856476D01*
X113871524Y-57761238D01*
X113966762Y-57666000D01*
X114109620Y-57618381D01*
X114204858Y-57618381D01*
X114347715Y-57666000D01*
X114395334Y-57713619D01*
X115395334Y-58523143D02*
X115347715Y-58570762D01*
X115204858Y-58618381D01*
X115109620Y-58618381D01*
X114966762Y-58570762D01*
X114871524Y-58475524D01*
X114823905Y-58380286D01*
X114776286Y-58189810D01*
X114776286Y-58046952D01*
X114823905Y-57856476D01*
X114871524Y-57761238D01*
X114966762Y-57666000D01*
X115109620Y-57618381D01*
X115204858Y-57618381D01*
X115347715Y-57666000D01*
X115395334Y-57713619D01*
X115776286Y-57713619D02*
X115823905Y-57666000D01*
X115919143Y-57618381D01*
X116157239Y-57618381D01*
X116252477Y-57666000D01*
X116300096Y-57713619D01*
X116347715Y-57808857D01*
X116347715Y-57904095D01*
X116300096Y-58046952D01*
X115728667Y-58618381D01*
X116347715Y-58618381D01*
X143002143Y-86717143D02*
X142954524Y-86764762D01*
X142811667Y-86812381D01*
X142716429Y-86812381D01*
X142573571Y-86764762D01*
X142478333Y-86669524D01*
X142430714Y-86574286D01*
X142383095Y-86383810D01*
X142383095Y-86240952D01*
X142430714Y-86050476D01*
X142478333Y-85955238D01*
X142573571Y-85860000D01*
X142716429Y-85812381D01*
X142811667Y-85812381D01*
X142954524Y-85860000D01*
X143002143Y-85907619D01*
X144002143Y-86717143D02*
X143954524Y-86764762D01*
X143811667Y-86812381D01*
X143716429Y-86812381D01*
X143573571Y-86764762D01*
X143478333Y-86669524D01*
X143430714Y-86574286D01*
X143383095Y-86383810D01*
X143383095Y-86240952D01*
X143430714Y-86050476D01*
X143478333Y-85955238D01*
X143573571Y-85860000D01*
X143716429Y-85812381D01*
X143811667Y-85812381D01*
X143954524Y-85860000D01*
X144002143Y-85907619D01*
X144954524Y-86812381D02*
X144383095Y-86812381D01*
X144668809Y-86812381D02*
X144668809Y-85812381D01*
X144573571Y-85955238D01*
X144478333Y-86050476D01*
X144383095Y-86098095D01*
X145335476Y-85907619D02*
X145383095Y-85860000D01*
X145478333Y-85812381D01*
X145716429Y-85812381D01*
X145811667Y-85860000D01*
X145859286Y-85907619D01*
X145906905Y-86002857D01*
X145906905Y-86098095D01*
X145859286Y-86240952D01*
X145287857Y-86812381D01*
X145906905Y-86812381D01*
X124587143Y-102465143D02*
X124539524Y-102512762D01*
X124396667Y-102560381D01*
X124301429Y-102560381D01*
X124158571Y-102512762D01*
X124063333Y-102417524D01*
X124015714Y-102322286D01*
X123968095Y-102131810D01*
X123968095Y-101988952D01*
X124015714Y-101798476D01*
X124063333Y-101703238D01*
X124158571Y-101608000D01*
X124301429Y-101560381D01*
X124396667Y-101560381D01*
X124539524Y-101608000D01*
X124587143Y-101655619D01*
X125587143Y-102465143D02*
X125539524Y-102512762D01*
X125396667Y-102560381D01*
X125301429Y-102560381D01*
X125158571Y-102512762D01*
X125063333Y-102417524D01*
X125015714Y-102322286D01*
X124968095Y-102131810D01*
X124968095Y-101988952D01*
X125015714Y-101798476D01*
X125063333Y-101703238D01*
X125158571Y-101608000D01*
X125301429Y-101560381D01*
X125396667Y-101560381D01*
X125539524Y-101608000D01*
X125587143Y-101655619D01*
X126539524Y-102560381D02*
X125968095Y-102560381D01*
X126253809Y-102560381D02*
X126253809Y-101560381D01*
X126158571Y-101703238D01*
X126063333Y-101798476D01*
X125968095Y-101846095D01*
X126872857Y-101560381D02*
X127491905Y-101560381D01*
X127158571Y-101941333D01*
X127301429Y-101941333D01*
X127396667Y-101988952D01*
X127444286Y-102036571D01*
X127491905Y-102131810D01*
X127491905Y-102369905D01*
X127444286Y-102465143D01*
X127396667Y-102512762D01*
X127301429Y-102560381D01*
X127015714Y-102560381D01*
X126920476Y-102512762D01*
X126872857Y-102465143D01*
X115443143Y-87479143D02*
X115395524Y-87526762D01*
X115252667Y-87574381D01*
X115157429Y-87574381D01*
X115014571Y-87526762D01*
X114919333Y-87431524D01*
X114871714Y-87336286D01*
X114824095Y-87145810D01*
X114824095Y-87002952D01*
X114871714Y-86812476D01*
X114919333Y-86717238D01*
X115014571Y-86622000D01*
X115157429Y-86574381D01*
X115252667Y-86574381D01*
X115395524Y-86622000D01*
X115443143Y-86669619D01*
X116443143Y-87479143D02*
X116395524Y-87526762D01*
X116252667Y-87574381D01*
X116157429Y-87574381D01*
X116014571Y-87526762D01*
X115919333Y-87431524D01*
X115871714Y-87336286D01*
X115824095Y-87145810D01*
X115824095Y-87002952D01*
X115871714Y-86812476D01*
X115919333Y-86717238D01*
X116014571Y-86622000D01*
X116157429Y-86574381D01*
X116252667Y-86574381D01*
X116395524Y-86622000D01*
X116443143Y-86669619D01*
X117395524Y-87574381D02*
X116824095Y-87574381D01*
X117109809Y-87574381D02*
X117109809Y-86574381D01*
X117014571Y-86717238D01*
X116919333Y-86812476D01*
X116824095Y-86860095D01*
X118252667Y-86907714D02*
X118252667Y-87574381D01*
X118014571Y-86526762D02*
X117776476Y-87241048D01*
X118395524Y-87241048D01*
X115443143Y-71223143D02*
X115395524Y-71270762D01*
X115252667Y-71318381D01*
X115157429Y-71318381D01*
X115014571Y-71270762D01*
X114919333Y-71175524D01*
X114871714Y-71080286D01*
X114824095Y-70889810D01*
X114824095Y-70746952D01*
X114871714Y-70556476D01*
X114919333Y-70461238D01*
X115014571Y-70366000D01*
X115157429Y-70318381D01*
X115252667Y-70318381D01*
X115395524Y-70366000D01*
X115443143Y-70413619D01*
X116443143Y-71223143D02*
X116395524Y-71270762D01*
X116252667Y-71318381D01*
X116157429Y-71318381D01*
X116014571Y-71270762D01*
X115919333Y-71175524D01*
X115871714Y-71080286D01*
X115824095Y-70889810D01*
X115824095Y-70746952D01*
X115871714Y-70556476D01*
X115919333Y-70461238D01*
X116014571Y-70366000D01*
X116157429Y-70318381D01*
X116252667Y-70318381D01*
X116395524Y-70366000D01*
X116443143Y-70413619D01*
X117395524Y-71318381D02*
X116824095Y-71318381D01*
X117109809Y-71318381D02*
X117109809Y-70318381D01*
X117014571Y-70461238D01*
X116919333Y-70556476D01*
X116824095Y-70604095D01*
X118300286Y-70318381D02*
X117824095Y-70318381D01*
X117776476Y-70794571D01*
X117824095Y-70746952D01*
X117919333Y-70699333D01*
X118157429Y-70699333D01*
X118252667Y-70746952D01*
X118300286Y-70794571D01*
X118347905Y-70889810D01*
X118347905Y-71127905D01*
X118300286Y-71223143D01*
X118252667Y-71270762D01*
X118157429Y-71318381D01*
X117919333Y-71318381D01*
X117824095Y-71270762D01*
X117776476Y-71223143D01*
X129921143Y-93321143D02*
X129873524Y-93368762D01*
X129730667Y-93416381D01*
X129635429Y-93416381D01*
X129492571Y-93368762D01*
X129397333Y-93273524D01*
X129349714Y-93178286D01*
X129302095Y-92987810D01*
X129302095Y-92844952D01*
X129349714Y-92654476D01*
X129397333Y-92559238D01*
X129492571Y-92464000D01*
X129635429Y-92416381D01*
X129730667Y-92416381D01*
X129873524Y-92464000D01*
X129921143Y-92511619D01*
X130921143Y-93321143D02*
X130873524Y-93368762D01*
X130730667Y-93416381D01*
X130635429Y-93416381D01*
X130492571Y-93368762D01*
X130397333Y-93273524D01*
X130349714Y-93178286D01*
X130302095Y-92987810D01*
X130302095Y-92844952D01*
X130349714Y-92654476D01*
X130397333Y-92559238D01*
X130492571Y-92464000D01*
X130635429Y-92416381D01*
X130730667Y-92416381D01*
X130873524Y-92464000D01*
X130921143Y-92511619D01*
X131873524Y-93416381D02*
X131302095Y-93416381D01*
X131587809Y-93416381D02*
X131587809Y-92416381D01*
X131492571Y-92559238D01*
X131397333Y-92654476D01*
X131302095Y-92702095D01*
X132730667Y-92416381D02*
X132540190Y-92416381D01*
X132444952Y-92464000D01*
X132397333Y-92511619D01*
X132302095Y-92654476D01*
X132254476Y-92844952D01*
X132254476Y-93225905D01*
X132302095Y-93321143D01*
X132349714Y-93368762D01*
X132444952Y-93416381D01*
X132635429Y-93416381D01*
X132730667Y-93368762D01*
X132778286Y-93321143D01*
X132825905Y-93225905D01*
X132825905Y-92987810D01*
X132778286Y-92892571D01*
X132730667Y-92844952D01*
X132635429Y-92797333D01*
X132444952Y-92797333D01*
X132349714Y-92844952D01*
X132302095Y-92892571D01*
X132254476Y-92987810D01*
X129921143Y-96115143D02*
X129873524Y-96162762D01*
X129730667Y-96210381D01*
X129635429Y-96210381D01*
X129492571Y-96162762D01*
X129397333Y-96067524D01*
X129349714Y-95972286D01*
X129302095Y-95781810D01*
X129302095Y-95638952D01*
X129349714Y-95448476D01*
X129397333Y-95353238D01*
X129492571Y-95258000D01*
X129635429Y-95210381D01*
X129730667Y-95210381D01*
X129873524Y-95258000D01*
X129921143Y-95305619D01*
X130921143Y-96115143D02*
X130873524Y-96162762D01*
X130730667Y-96210381D01*
X130635429Y-96210381D01*
X130492571Y-96162762D01*
X130397333Y-96067524D01*
X130349714Y-95972286D01*
X130302095Y-95781810D01*
X130302095Y-95638952D01*
X130349714Y-95448476D01*
X130397333Y-95353238D01*
X130492571Y-95258000D01*
X130635429Y-95210381D01*
X130730667Y-95210381D01*
X130873524Y-95258000D01*
X130921143Y-95305619D01*
X131873524Y-96210381D02*
X131302095Y-96210381D01*
X131587809Y-96210381D02*
X131587809Y-95210381D01*
X131492571Y-95353238D01*
X131397333Y-95448476D01*
X131302095Y-95496095D01*
X132206857Y-95210381D02*
X132873524Y-95210381D01*
X132444952Y-96210381D01*
X130429143Y-101957143D02*
X130381524Y-102004762D01*
X130238667Y-102052381D01*
X130143429Y-102052381D01*
X130000571Y-102004762D01*
X129905333Y-101909524D01*
X129857714Y-101814286D01*
X129810095Y-101623810D01*
X129810095Y-101480952D01*
X129857714Y-101290476D01*
X129905333Y-101195238D01*
X130000571Y-101100000D01*
X130143429Y-101052381D01*
X130238667Y-101052381D01*
X130381524Y-101100000D01*
X130429143Y-101147619D01*
X131429143Y-101957143D02*
X131381524Y-102004762D01*
X131238667Y-102052381D01*
X131143429Y-102052381D01*
X131000571Y-102004762D01*
X130905333Y-101909524D01*
X130857714Y-101814286D01*
X130810095Y-101623810D01*
X130810095Y-101480952D01*
X130857714Y-101290476D01*
X130905333Y-101195238D01*
X131000571Y-101100000D01*
X131143429Y-101052381D01*
X131238667Y-101052381D01*
X131381524Y-101100000D01*
X131429143Y-101147619D01*
X131810095Y-101147619D02*
X131857714Y-101100000D01*
X131952952Y-101052381D01*
X132191048Y-101052381D01*
X132286286Y-101100000D01*
X132333905Y-101147619D01*
X132381524Y-101242857D01*
X132381524Y-101338095D01*
X132333905Y-101480952D01*
X131762476Y-102052381D01*
X132381524Y-102052381D01*
X133000571Y-101052381D02*
X133095810Y-101052381D01*
X133191048Y-101100000D01*
X133238667Y-101147619D01*
X133286286Y-101242857D01*
X133333905Y-101433333D01*
X133333905Y-101671429D01*
X133286286Y-101861905D01*
X133238667Y-101957143D01*
X133191048Y-102004762D01*
X133095810Y-102052381D01*
X133000571Y-102052381D01*
X132905333Y-102004762D01*
X132857714Y-101957143D01*
X132810095Y-101861905D01*
X132762476Y-101671429D01*
X132762476Y-101433333D01*
X132810095Y-101242857D01*
X132857714Y-101147619D01*
X132905333Y-101100000D01*
X133000571Y-101052381D01*
X130429143Y-105259143D02*
X130381524Y-105306762D01*
X130238667Y-105354381D01*
X130143429Y-105354381D01*
X130000571Y-105306762D01*
X129905333Y-105211524D01*
X129857714Y-105116286D01*
X129810095Y-104925810D01*
X129810095Y-104782952D01*
X129857714Y-104592476D01*
X129905333Y-104497238D01*
X130000571Y-104402000D01*
X130143429Y-104354381D01*
X130238667Y-104354381D01*
X130381524Y-104402000D01*
X130429143Y-104449619D01*
X131429143Y-105259143D02*
X131381524Y-105306762D01*
X131238667Y-105354381D01*
X131143429Y-105354381D01*
X131000571Y-105306762D01*
X130905333Y-105211524D01*
X130857714Y-105116286D01*
X130810095Y-104925810D01*
X130810095Y-104782952D01*
X130857714Y-104592476D01*
X130905333Y-104497238D01*
X131000571Y-104402000D01*
X131143429Y-104354381D01*
X131238667Y-104354381D01*
X131381524Y-104402000D01*
X131429143Y-104449619D01*
X131810095Y-104449619D02*
X131857714Y-104402000D01*
X131952952Y-104354381D01*
X132191048Y-104354381D01*
X132286286Y-104402000D01*
X132333905Y-104449619D01*
X132381524Y-104544857D01*
X132381524Y-104640095D01*
X132333905Y-104782952D01*
X131762476Y-105354381D01*
X132381524Y-105354381D01*
X132762476Y-104449619D02*
X132810095Y-104402000D01*
X132905333Y-104354381D01*
X133143429Y-104354381D01*
X133238667Y-104402000D01*
X133286286Y-104449619D01*
X133333905Y-104544857D01*
X133333905Y-104640095D01*
X133286286Y-104782952D01*
X132714857Y-105354381D01*
X133333905Y-105354381D01*
X140485905Y-101036381D02*
X140485905Y-100036381D01*
X140724000Y-100036381D01*
X140866858Y-100084000D01*
X140962096Y-100179238D01*
X141009715Y-100274476D01*
X141057334Y-100464952D01*
X141057334Y-100607810D01*
X141009715Y-100798286D01*
X140962096Y-100893524D01*
X140866858Y-100988762D01*
X140724000Y-101036381D01*
X140485905Y-101036381D01*
X141962096Y-100036381D02*
X141485905Y-100036381D01*
X141438286Y-100512571D01*
X141485905Y-100464952D01*
X141581143Y-100417333D01*
X141819239Y-100417333D01*
X141914477Y-100464952D01*
X141962096Y-100512571D01*
X142009715Y-100607810D01*
X142009715Y-100845905D01*
X141962096Y-100941143D01*
X141914477Y-100988762D01*
X141819239Y-101036381D01*
X141581143Y-101036381D01*
X141485905Y-100988762D01*
X141438286Y-100941143D01*
X140739905Y-110688381D02*
X140739905Y-109688381D01*
X140978000Y-109688381D01*
X141120858Y-109736000D01*
X141216096Y-109831238D01*
X141263715Y-109926476D01*
X141311334Y-110116952D01*
X141311334Y-110259810D01*
X141263715Y-110450286D01*
X141216096Y-110545524D01*
X141120858Y-110640762D01*
X140978000Y-110688381D01*
X140739905Y-110688381D01*
X142168477Y-109688381D02*
X141978000Y-109688381D01*
X141882762Y-109736000D01*
X141835143Y-109783619D01*
X141739905Y-109926476D01*
X141692286Y-110116952D01*
X141692286Y-110497905D01*
X141739905Y-110593143D01*
X141787524Y-110640762D01*
X141882762Y-110688381D01*
X142073239Y-110688381D01*
X142168477Y-110640762D01*
X142216096Y-110593143D01*
X142263715Y-110497905D01*
X142263715Y-110259810D01*
X142216096Y-110164571D01*
X142168477Y-110116952D01*
X142073239Y-110069333D01*
X141882762Y-110069333D01*
X141787524Y-110116952D01*
X141739905Y-110164571D01*
X141692286Y-110259810D01*
X115903524Y-99242571D02*
X116236858Y-99242571D01*
X116379715Y-99766381D02*
X115903524Y-99766381D01*
X115903524Y-98766381D01*
X116379715Y-98766381D01*
X117379715Y-99671143D02*
X117332096Y-99718762D01*
X117189239Y-99766381D01*
X117094001Y-99766381D01*
X116951143Y-99718762D01*
X116855905Y-99623524D01*
X116808286Y-99528286D01*
X116760667Y-99337810D01*
X116760667Y-99194952D01*
X116808286Y-99004476D01*
X116855905Y-98909238D01*
X116951143Y-98814000D01*
X117094001Y-98766381D01*
X117189239Y-98766381D01*
X117332096Y-98814000D01*
X117379715Y-98861619D01*
X118332096Y-99766381D02*
X117760667Y-99766381D01*
X118046381Y-99766381D02*
X118046381Y-98766381D01*
X117951143Y-98909238D01*
X117855905Y-99004476D01*
X117760667Y-99052095D01*
X112442667Y-90098571D02*
X112109333Y-90098571D01*
X112109333Y-90622381D02*
X112109333Y-89622381D01*
X112585524Y-89622381D01*
X113490286Y-90622381D02*
X112918857Y-90622381D01*
X113204571Y-90622381D02*
X113204571Y-89622381D01*
X113109333Y-89765238D01*
X113014095Y-89860476D01*
X112918857Y-89908095D01*
X112188667Y-73588571D02*
X111855333Y-73588571D01*
X111855333Y-74112381D02*
X111855333Y-73112381D01*
X112331524Y-73112381D01*
X112664857Y-73207619D02*
X112712476Y-73160000D01*
X112807714Y-73112381D01*
X113045810Y-73112381D01*
X113141048Y-73160000D01*
X113188667Y-73207619D01*
X113236286Y-73302857D01*
X113236286Y-73398095D01*
X113188667Y-73540952D01*
X112617238Y-74112381D01*
X113236286Y-74112381D01*
X117776667Y-35520381D02*
X117776667Y-36234667D01*
X117729047Y-36377524D01*
X117633809Y-36472762D01*
X117490952Y-36520381D01*
X117395714Y-36520381D01*
X118776667Y-36520381D02*
X118205238Y-36520381D01*
X118490952Y-36520381D02*
X118490952Y-35520381D01*
X118395714Y-35663238D01*
X118300476Y-35758476D01*
X118205238Y-35806095D01*
X119904191Y-36520381D02*
X119904191Y-35520381D01*
X120332762Y-35615619D02*
X120380381Y-35568000D01*
X120475619Y-35520381D01*
X120713715Y-35520381D01*
X120808953Y-35568000D01*
X120856572Y-35615619D01*
X120904191Y-35710857D01*
X120904191Y-35806095D01*
X120856572Y-35948952D01*
X120285143Y-36520381D01*
X120904191Y-36520381D01*
X121904191Y-36425143D02*
X121856572Y-36472762D01*
X121713715Y-36520381D01*
X121618477Y-36520381D01*
X121475619Y-36472762D01*
X121380381Y-36377524D01*
X121332762Y-36282286D01*
X121285143Y-36091810D01*
X121285143Y-35948952D01*
X121332762Y-35758476D01*
X121380381Y-35663238D01*
X121475619Y-35568000D01*
X121618477Y-35520381D01*
X121713715Y-35520381D01*
X121856572Y-35568000D01*
X121904191Y-35615619D01*
X122904191Y-36425143D02*
X122856572Y-36472762D01*
X122713715Y-36520381D01*
X122618477Y-36520381D01*
X122475619Y-36472762D01*
X122380381Y-36377524D01*
X122332762Y-36282286D01*
X122285143Y-36091810D01*
X122285143Y-35948952D01*
X122332762Y-35758476D01*
X122380381Y-35663238D01*
X122475619Y-35568000D01*
X122618477Y-35520381D01*
X122713715Y-35520381D01*
X122856572Y-35568000D01*
X122904191Y-35615619D01*
X123523238Y-35520381D02*
X123713715Y-35520381D01*
X123808953Y-35568000D01*
X123904191Y-35663238D01*
X123951810Y-35853714D01*
X123951810Y-36187048D01*
X123904191Y-36377524D01*
X123808953Y-36472762D01*
X123713715Y-36520381D01*
X123523238Y-36520381D01*
X123428000Y-36472762D01*
X123332762Y-36377524D01*
X123285143Y-36187048D01*
X123285143Y-35853714D01*
X123332762Y-35663238D01*
X123428000Y-35568000D01*
X123523238Y-35520381D01*
X124380381Y-36520381D02*
X124380381Y-35520381D01*
X124951810Y-36520381D01*
X124951810Y-35520381D01*
X132254667Y-35520381D02*
X132254667Y-36234667D01*
X132207047Y-36377524D01*
X132111809Y-36472762D01*
X131968952Y-36520381D01*
X131873714Y-36520381D01*
X132683238Y-35615619D02*
X132730857Y-35568000D01*
X132826095Y-35520381D01*
X133064191Y-35520381D01*
X133159429Y-35568000D01*
X133207048Y-35615619D01*
X133254667Y-35710857D01*
X133254667Y-35806095D01*
X133207048Y-35948952D01*
X132635619Y-36520381D01*
X133254667Y-36520381D01*
X134255238Y-36472762D02*
X134398095Y-36520381D01*
X134636191Y-36520381D01*
X134731429Y-36472762D01*
X134779048Y-36425143D01*
X134826667Y-36329905D01*
X134826667Y-36234667D01*
X134779048Y-36139429D01*
X134731429Y-36091810D01*
X134636191Y-36044190D01*
X134445714Y-35996571D01*
X134350476Y-35948952D01*
X134302857Y-35901333D01*
X134255238Y-35806095D01*
X134255238Y-35710857D01*
X134302857Y-35615619D01*
X134350476Y-35568000D01*
X134445714Y-35520381D01*
X134683810Y-35520381D01*
X134826667Y-35568000D01*
X135160000Y-35520381D02*
X135398095Y-36520381D01*
X135588572Y-35806095D01*
X135779048Y-36520381D01*
X136017143Y-35520381D01*
X136398095Y-36520381D02*
X136398095Y-35520381D01*
X136636190Y-35520381D01*
X136779048Y-35568000D01*
X136874286Y-35663238D01*
X136921905Y-35758476D01*
X136969524Y-35948952D01*
X136969524Y-36091810D01*
X136921905Y-36282286D01*
X136874286Y-36377524D01*
X136779048Y-36472762D01*
X136636190Y-36520381D01*
X136398095Y-36520381D01*
X137969524Y-36425143D02*
X137921905Y-36472762D01*
X137779048Y-36520381D01*
X137683810Y-36520381D01*
X137540952Y-36472762D01*
X137445714Y-36377524D01*
X137398095Y-36282286D01*
X137350476Y-36091810D01*
X137350476Y-35948952D01*
X137398095Y-35758476D01*
X137445714Y-35663238D01*
X137540952Y-35568000D01*
X137683810Y-35520381D01*
X137779048Y-35520381D01*
X137921905Y-35568000D01*
X137969524Y-35615619D01*
X138588571Y-35520381D02*
X138779048Y-35520381D01*
X138874286Y-35568000D01*
X138969524Y-35663238D01*
X139017143Y-35853714D01*
X139017143Y-36187048D01*
X138969524Y-36377524D01*
X138874286Y-36472762D01*
X138779048Y-36520381D01*
X138588571Y-36520381D01*
X138493333Y-36472762D01*
X138398095Y-36377524D01*
X138350476Y-36187048D01*
X138350476Y-35853714D01*
X138398095Y-35663238D01*
X138493333Y-35568000D01*
X138588571Y-35520381D01*
X139445714Y-36520381D02*
X139445714Y-35520381D01*
X140017143Y-36520381D01*
X140017143Y-35520381D01*
X155876667Y-35520381D02*
X155876667Y-36234667D01*
X155829047Y-36377524D01*
X155733809Y-36472762D01*
X155590952Y-36520381D01*
X155495714Y-36520381D01*
X156257619Y-35520381D02*
X156876667Y-35520381D01*
X156543333Y-35901333D01*
X156686191Y-35901333D01*
X156781429Y-35948952D01*
X156829048Y-35996571D01*
X156876667Y-36091810D01*
X156876667Y-36329905D01*
X156829048Y-36425143D01*
X156781429Y-36472762D01*
X156686191Y-36520381D01*
X156400476Y-36520381D01*
X156305238Y-36472762D01*
X156257619Y-36425143D01*
X82470667Y-115530381D02*
X82470667Y-116244667D01*
X82423047Y-116387524D01*
X82327809Y-116482762D01*
X82184952Y-116530381D01*
X82089714Y-116530381D01*
X83375429Y-115863714D02*
X83375429Y-116530381D01*
X83137333Y-115482762D02*
X82899238Y-116197048D01*
X83518286Y-116197048D01*
X88820667Y-118832381D02*
X88820667Y-119546667D01*
X88773047Y-119689524D01*
X88677809Y-119784762D01*
X88534952Y-119832381D01*
X88439714Y-119832381D01*
X89773048Y-118832381D02*
X89296857Y-118832381D01*
X89249238Y-119308571D01*
X89296857Y-119260952D01*
X89392095Y-119213333D01*
X89630191Y-119213333D01*
X89725429Y-119260952D01*
X89773048Y-119308571D01*
X89820667Y-119403810D01*
X89820667Y-119641905D01*
X89773048Y-119737143D01*
X89725429Y-119784762D01*
X89630191Y-119832381D01*
X89392095Y-119832381D01*
X89296857Y-119784762D01*
X89249238Y-119737143D01*
X88646096Y-120658000D02*
X88550858Y-120610381D01*
X88408001Y-120610381D01*
X88265143Y-120658000D01*
X88169905Y-120753238D01*
X88122286Y-120848476D01*
X88074667Y-121038952D01*
X88074667Y-121181810D01*
X88122286Y-121372286D01*
X88169905Y-121467524D01*
X88265143Y-121562762D01*
X88408001Y-121610381D01*
X88503239Y-121610381D01*
X88646096Y-121562762D01*
X88693715Y-121515143D01*
X88693715Y-121181810D01*
X88503239Y-121181810D01*
X89122286Y-121610381D02*
X89122286Y-120610381D01*
X89693715Y-121610381D01*
X89693715Y-120610381D01*
X90169905Y-121610381D02*
X90169905Y-120610381D01*
X90408000Y-120610381D01*
X90550858Y-120658000D01*
X90646096Y-120753238D01*
X90693715Y-120848476D01*
X90741334Y-121038952D01*
X90741334Y-121181810D01*
X90693715Y-121372286D01*
X90646096Y-121467524D01*
X90550858Y-121562762D01*
X90408000Y-121610381D01*
X90169905Y-121610381D01*
X96186667Y-113244381D02*
X96186667Y-113958667D01*
X96139047Y-114101524D01*
X96043809Y-114196762D01*
X95900952Y-114244381D01*
X95805714Y-114244381D01*
X97091429Y-113244381D02*
X96900952Y-113244381D01*
X96805714Y-113292000D01*
X96758095Y-113339619D01*
X96662857Y-113482476D01*
X96615238Y-113672952D01*
X96615238Y-114053905D01*
X96662857Y-114149143D01*
X96710476Y-114196762D01*
X96805714Y-114244381D01*
X96996191Y-114244381D01*
X97091429Y-114196762D01*
X97139048Y-114149143D01*
X97186667Y-114053905D01*
X97186667Y-113815810D01*
X97139048Y-113720571D01*
X97091429Y-113672952D01*
X96996191Y-113625333D01*
X96805714Y-113625333D01*
X96710476Y-113672952D01*
X96662857Y-113720571D01*
X96615238Y-113815810D01*
X78152667Y-75144381D02*
X78152667Y-75858667D01*
X78105047Y-76001524D01*
X78009809Y-76096762D01*
X77866952Y-76144381D01*
X77771714Y-76144381D01*
X78533619Y-75144381D02*
X79200286Y-75144381D01*
X78771714Y-76144381D01*
X80835524Y-75144381D02*
X80359333Y-75144381D01*
X80311714Y-75620571D01*
X80359333Y-75572952D01*
X80454571Y-75525333D01*
X80692667Y-75525333D01*
X80787905Y-75572952D01*
X80835524Y-75620571D01*
X80883143Y-75715810D01*
X80883143Y-75953905D01*
X80835524Y-76049143D01*
X80787905Y-76096762D01*
X80692667Y-76144381D01*
X80454571Y-76144381D01*
X80359333Y-76096762D01*
X80311714Y-76049143D01*
X81168857Y-75144381D02*
X81502190Y-76144381D01*
X81835524Y-75144381D01*
X77898667Y-54570381D02*
X77898667Y-55284667D01*
X77851047Y-55427524D01*
X77755809Y-55522762D01*
X77612952Y-55570381D01*
X77517714Y-55570381D01*
X78517714Y-54998952D02*
X78422476Y-54951333D01*
X78374857Y-54903714D01*
X78327238Y-54808476D01*
X78327238Y-54760857D01*
X78374857Y-54665619D01*
X78422476Y-54618000D01*
X78517714Y-54570381D01*
X78708191Y-54570381D01*
X78803429Y-54618000D01*
X78851048Y-54665619D01*
X78898667Y-54760857D01*
X78898667Y-54808476D01*
X78851048Y-54903714D01*
X78803429Y-54951333D01*
X78708191Y-54998952D01*
X78517714Y-54998952D01*
X78422476Y-55046571D01*
X78374857Y-55094190D01*
X78327238Y-55189429D01*
X78327238Y-55379905D01*
X78374857Y-55475143D01*
X78422476Y-55522762D01*
X78517714Y-55570381D01*
X78708191Y-55570381D01*
X78803429Y-55522762D01*
X78851048Y-55475143D01*
X78898667Y-55379905D01*
X78898667Y-55189429D01*
X78851048Y-55094190D01*
X78803429Y-55046571D01*
X78708191Y-54998952D01*
X79787905Y-54570381D02*
X80406953Y-54570381D01*
X80073619Y-54951333D01*
X80216477Y-54951333D01*
X80311715Y-54998952D01*
X80359334Y-55046571D01*
X80406953Y-55141810D01*
X80406953Y-55379905D01*
X80359334Y-55475143D01*
X80311715Y-55522762D01*
X80216477Y-55570381D01*
X79930762Y-55570381D01*
X79835524Y-55522762D01*
X79787905Y-55475143D01*
X80692667Y-54570381D02*
X81026000Y-55570381D01*
X81359334Y-54570381D01*
X81597429Y-54570381D02*
X82216477Y-54570381D01*
X81883143Y-54951333D01*
X82026001Y-54951333D01*
X82121239Y-54998952D01*
X82168858Y-55046571D01*
X82216477Y-55141810D01*
X82216477Y-55379905D01*
X82168858Y-55475143D01*
X82121239Y-55522762D01*
X82026001Y-55570381D01*
X81740286Y-55570381D01*
X81645048Y-55522762D01*
X81597429Y-55475143D01*
X152828667Y-25106381D02*
X152828667Y-25820667D01*
X152781047Y-25963524D01*
X152685809Y-26058762D01*
X152542952Y-26106381D01*
X152447714Y-26106381D01*
X153352476Y-26106381D02*
X153542952Y-26106381D01*
X153638191Y-26058762D01*
X153685810Y-26011143D01*
X153781048Y-25868286D01*
X153828667Y-25677810D01*
X153828667Y-25296857D01*
X153781048Y-25201619D01*
X153733429Y-25154000D01*
X153638191Y-25106381D01*
X153447714Y-25106381D01*
X153352476Y-25154000D01*
X153304857Y-25201619D01*
X153257238Y-25296857D01*
X153257238Y-25534952D01*
X153304857Y-25630190D01*
X153352476Y-25677810D01*
X153447714Y-25725429D01*
X153638191Y-25725429D01*
X153733429Y-25677810D01*
X153781048Y-25630190D01*
X153828667Y-25534952D01*
X84788477Y-26376381D02*
X84788477Y-27090667D01*
X84740857Y-27233524D01*
X84645619Y-27328762D01*
X84502762Y-27376381D01*
X84407524Y-27376381D01*
X85788477Y-27376381D02*
X85217048Y-27376381D01*
X85502762Y-27376381D02*
X85502762Y-26376381D01*
X85407524Y-26519238D01*
X85312286Y-26614476D01*
X85217048Y-26662095D01*
X86407524Y-26376381D02*
X86502763Y-26376381D01*
X86598001Y-26424000D01*
X86645620Y-26471619D01*
X86693239Y-26566857D01*
X86740858Y-26757333D01*
X86740858Y-26995429D01*
X86693239Y-27185905D01*
X86645620Y-27281143D01*
X86598001Y-27328762D01*
X86502763Y-27376381D01*
X86407524Y-27376381D01*
X86312286Y-27328762D01*
X86264667Y-27281143D01*
X86217048Y-27185905D01*
X86169429Y-26995429D01*
X86169429Y-26757333D01*
X86217048Y-26566857D01*
X86264667Y-26471619D01*
X86312286Y-26424000D01*
X86407524Y-26376381D01*
X77422477Y-48474381D02*
X77422477Y-49188667D01*
X77374857Y-49331524D01*
X77279619Y-49426762D01*
X77136762Y-49474381D01*
X77041524Y-49474381D01*
X78422477Y-49474381D02*
X77851048Y-49474381D01*
X78136762Y-49474381D02*
X78136762Y-48474381D01*
X78041524Y-48617238D01*
X77946286Y-48712476D01*
X77851048Y-48760095D01*
X79374858Y-49474381D02*
X78803429Y-49474381D01*
X79089143Y-49474381D02*
X79089143Y-48474381D01*
X78993905Y-48617238D01*
X78898667Y-48712476D01*
X78803429Y-48760095D01*
X151082477Y-94194381D02*
X151082477Y-94908667D01*
X151034857Y-95051524D01*
X150939619Y-95146762D01*
X150796762Y-95194381D01*
X150701524Y-95194381D01*
X152082477Y-95194381D02*
X151511048Y-95194381D01*
X151796762Y-95194381D02*
X151796762Y-94194381D01*
X151701524Y-94337238D01*
X151606286Y-94432476D01*
X151511048Y-94480095D01*
X152463429Y-94289619D02*
X152511048Y-94242000D01*
X152606286Y-94194381D01*
X152844382Y-94194381D01*
X152939620Y-94242000D01*
X152987239Y-94289619D01*
X153034858Y-94384857D01*
X153034858Y-94480095D01*
X152987239Y-94622952D01*
X152415810Y-95194381D01*
X153034858Y-95194381D01*
X152606477Y-119340381D02*
X152606477Y-120054667D01*
X152558857Y-120197524D01*
X152463619Y-120292762D01*
X152320762Y-120340381D01*
X152225524Y-120340381D01*
X153606477Y-120340381D02*
X153035048Y-120340381D01*
X153320762Y-120340381D02*
X153320762Y-119340381D01*
X153225524Y-119483238D01*
X153130286Y-119578476D01*
X153035048Y-119626095D01*
X153939810Y-119340381D02*
X154558858Y-119340381D01*
X154225524Y-119721333D01*
X154368382Y-119721333D01*
X154463620Y-119768952D01*
X154511239Y-119816571D01*
X154558858Y-119911810D01*
X154558858Y-120149905D01*
X154511239Y-120245143D01*
X154463620Y-120292762D01*
X154368382Y-120340381D01*
X154082667Y-120340381D01*
X153987429Y-120292762D01*
X153939810Y-120245143D01*
X124356953Y-80970381D02*
X123880762Y-80970381D01*
X123880762Y-79970381D01*
X124690286Y-80446571D02*
X125023620Y-80446571D01*
X125166477Y-80970381D02*
X124690286Y-80970381D01*
X124690286Y-79970381D01*
X125166477Y-79970381D01*
X125595048Y-80970381D02*
X125595048Y-79970381D01*
X125833143Y-79970381D01*
X125976001Y-80018000D01*
X126071239Y-80113238D01*
X126118858Y-80208476D01*
X126166477Y-80398952D01*
X126166477Y-80541810D01*
X126118858Y-80732286D01*
X126071239Y-80827524D01*
X125976001Y-80922762D01*
X125833143Y-80970381D01*
X125595048Y-80970381D01*
X127118858Y-80970381D02*
X126547429Y-80970381D01*
X126833143Y-80970381D02*
X126833143Y-79970381D01*
X126737905Y-80113238D01*
X126642667Y-80208476D01*
X126547429Y-80256095D01*
X124356953Y-71572381D02*
X123880762Y-71572381D01*
X123880762Y-70572381D01*
X124690286Y-71048571D02*
X125023620Y-71048571D01*
X125166477Y-71572381D02*
X124690286Y-71572381D01*
X124690286Y-70572381D01*
X125166477Y-70572381D01*
X125595048Y-71572381D02*
X125595048Y-70572381D01*
X125833143Y-70572381D01*
X125976001Y-70620000D01*
X126071239Y-70715238D01*
X126118858Y-70810476D01*
X126166477Y-71000952D01*
X126166477Y-71143810D01*
X126118858Y-71334286D01*
X126071239Y-71429524D01*
X125976001Y-71524762D01*
X125833143Y-71572381D01*
X125595048Y-71572381D01*
X126547429Y-70667619D02*
X126595048Y-70620000D01*
X126690286Y-70572381D01*
X126928382Y-70572381D01*
X127023620Y-70620000D01*
X127071239Y-70667619D01*
X127118858Y-70762857D01*
X127118858Y-70858095D01*
X127071239Y-71000952D01*
X126499810Y-71572381D01*
X127118858Y-71572381D01*
X106068953Y-53284381D02*
X105592762Y-53284381D01*
X105592762Y-52284381D01*
X106402286Y-52760571D02*
X106735620Y-52760571D01*
X106878477Y-53284381D02*
X106402286Y-53284381D01*
X106402286Y-52284381D01*
X106878477Y-52284381D01*
X107307048Y-53284381D02*
X107307048Y-52284381D01*
X107545143Y-52284381D01*
X107688001Y-52332000D01*
X107783239Y-52427238D01*
X107830858Y-52522476D01*
X107878477Y-52712952D01*
X107878477Y-52855810D01*
X107830858Y-53046286D01*
X107783239Y-53141524D01*
X107688001Y-53236762D01*
X107545143Y-53284381D01*
X107307048Y-53284381D01*
X108211810Y-52284381D02*
X108830858Y-52284381D01*
X108497524Y-52665333D01*
X108640382Y-52665333D01*
X108735620Y-52712952D01*
X108783239Y-52760571D01*
X108830858Y-52855810D01*
X108830858Y-53093905D01*
X108783239Y-53189143D01*
X108735620Y-53236762D01*
X108640382Y-53284381D01*
X108354667Y-53284381D01*
X108259429Y-53236762D01*
X108211810Y-53189143D01*
X107783334Y-47188381D02*
X107450000Y-46712190D01*
X107211905Y-47188381D02*
X107211905Y-46188381D01*
X107592858Y-46188381D01*
X107688096Y-46236000D01*
X107735715Y-46283619D01*
X107783334Y-46378857D01*
X107783334Y-46521714D01*
X107735715Y-46616952D01*
X107688096Y-46664571D01*
X107592858Y-46712190D01*
X107211905Y-46712190D01*
X108735715Y-47188381D02*
X108164286Y-47188381D01*
X108450000Y-47188381D02*
X108450000Y-46188381D01*
X108354762Y-46331238D01*
X108259524Y-46426476D01*
X108164286Y-46474095D01*
X107783334Y-44394381D02*
X107450000Y-43918190D01*
X107211905Y-44394381D02*
X107211905Y-43394381D01*
X107592858Y-43394381D01*
X107688096Y-43442000D01*
X107735715Y-43489619D01*
X107783334Y-43584857D01*
X107783334Y-43727714D01*
X107735715Y-43822952D01*
X107688096Y-43870571D01*
X107592858Y-43918190D01*
X107211905Y-43918190D01*
X108164286Y-43489619D02*
X108211905Y-43442000D01*
X108307143Y-43394381D01*
X108545239Y-43394381D01*
X108640477Y-43442000D01*
X108688096Y-43489619D01*
X108735715Y-43584857D01*
X108735715Y-43680095D01*
X108688096Y-43822952D01*
X108116667Y-44394381D01*
X108735715Y-44394381D01*
X139279334Y-45156381D02*
X138946000Y-44680190D01*
X138707905Y-45156381D02*
X138707905Y-44156381D01*
X139088858Y-44156381D01*
X139184096Y-44204000D01*
X139231715Y-44251619D01*
X139279334Y-44346857D01*
X139279334Y-44489714D01*
X139231715Y-44584952D01*
X139184096Y-44632571D01*
X139088858Y-44680190D01*
X138707905Y-44680190D01*
X139612667Y-44156381D02*
X140231715Y-44156381D01*
X139898381Y-44537333D01*
X140041239Y-44537333D01*
X140136477Y-44584952D01*
X140184096Y-44632571D01*
X140231715Y-44727810D01*
X140231715Y-44965905D01*
X140184096Y-45061143D01*
X140136477Y-45108762D01*
X140041239Y-45156381D01*
X139755524Y-45156381D01*
X139660286Y-45108762D01*
X139612667Y-45061143D01*
X132421334Y-85034381D02*
X132088000Y-84558190D01*
X131849905Y-85034381D02*
X131849905Y-84034381D01*
X132230858Y-84034381D01*
X132326096Y-84082000D01*
X132373715Y-84129619D01*
X132421334Y-84224857D01*
X132421334Y-84367714D01*
X132373715Y-84462952D01*
X132326096Y-84510571D01*
X132230858Y-84558190D01*
X131849905Y-84558190D01*
X133278477Y-84367714D02*
X133278477Y-85034381D01*
X133040381Y-83986762D02*
X132802286Y-84701048D01*
X133421334Y-84701048D01*
X107529334Y-49982381D02*
X107196000Y-49506190D01*
X106957905Y-49982381D02*
X106957905Y-48982381D01*
X107338858Y-48982381D01*
X107434096Y-49030000D01*
X107481715Y-49077619D01*
X107529334Y-49172857D01*
X107529334Y-49315714D01*
X107481715Y-49410952D01*
X107434096Y-49458571D01*
X107338858Y-49506190D01*
X106957905Y-49506190D01*
X108434096Y-48982381D02*
X107957905Y-48982381D01*
X107910286Y-49458571D01*
X107957905Y-49410952D01*
X108053143Y-49363333D01*
X108291239Y-49363333D01*
X108386477Y-49410952D01*
X108434096Y-49458571D01*
X108481715Y-49553810D01*
X108481715Y-49791905D01*
X108434096Y-49887143D01*
X108386477Y-49934762D01*
X108291239Y-49982381D01*
X108053143Y-49982381D01*
X107957905Y-49934762D01*
X107910286Y-49887143D01*
X116419334Y-80208381D02*
X116086000Y-79732190D01*
X115847905Y-80208381D02*
X115847905Y-79208381D01*
X116228858Y-79208381D01*
X116324096Y-79256000D01*
X116371715Y-79303619D01*
X116419334Y-79398857D01*
X116419334Y-79541714D01*
X116371715Y-79636952D01*
X116324096Y-79684571D01*
X116228858Y-79732190D01*
X115847905Y-79732190D01*
X117276477Y-79208381D02*
X117086000Y-79208381D01*
X116990762Y-79256000D01*
X116943143Y-79303619D01*
X116847905Y-79446476D01*
X116800286Y-79636952D01*
X116800286Y-80017905D01*
X116847905Y-80113143D01*
X116895524Y-80160762D01*
X116990762Y-80208381D01*
X117181239Y-80208381D01*
X117276477Y-80160762D01*
X117324096Y-80113143D01*
X117371715Y-80017905D01*
X117371715Y-79779810D01*
X117324096Y-79684571D01*
X117276477Y-79636952D01*
X117181239Y-79589333D01*
X116990762Y-79589333D01*
X116895524Y-79636952D01*
X116847905Y-79684571D01*
X116800286Y-79779810D01*
X116419334Y-64460381D02*
X116086000Y-63984190D01*
X115847905Y-64460381D02*
X115847905Y-63460381D01*
X116228858Y-63460381D01*
X116324096Y-63508000D01*
X116371715Y-63555619D01*
X116419334Y-63650857D01*
X116419334Y-63793714D01*
X116371715Y-63888952D01*
X116324096Y-63936571D01*
X116228858Y-63984190D01*
X115847905Y-63984190D01*
X116752667Y-63460381D02*
X117419334Y-63460381D01*
X116990762Y-64460381D01*
X98639334Y-51760381D02*
X98306000Y-51284190D01*
X98067905Y-51760381D02*
X98067905Y-50760381D01*
X98448858Y-50760381D01*
X98544096Y-50808000D01*
X98591715Y-50855619D01*
X98639334Y-50950857D01*
X98639334Y-51093714D01*
X98591715Y-51188952D01*
X98544096Y-51236571D01*
X98448858Y-51284190D01*
X98067905Y-51284190D01*
X99210762Y-51188952D02*
X99115524Y-51141333D01*
X99067905Y-51093714D01*
X99020286Y-50998476D01*
X99020286Y-50950857D01*
X99067905Y-50855619D01*
X99115524Y-50808000D01*
X99210762Y-50760381D01*
X99401239Y-50760381D01*
X99496477Y-50808000D01*
X99544096Y-50855619D01*
X99591715Y-50950857D01*
X99591715Y-50998476D01*
X99544096Y-51093714D01*
X99496477Y-51141333D01*
X99401239Y-51188952D01*
X99210762Y-51188952D01*
X99115524Y-51236571D01*
X99067905Y-51284190D01*
X99020286Y-51379429D01*
X99020286Y-51569905D01*
X99067905Y-51665143D01*
X99115524Y-51712762D01*
X99210762Y-51760381D01*
X99401239Y-51760381D01*
X99496477Y-51712762D01*
X99544096Y-51665143D01*
X99591715Y-51569905D01*
X99591715Y-51379429D01*
X99544096Y-51284190D01*
X99496477Y-51236571D01*
X99401239Y-51188952D01*
X92543334Y-51760381D02*
X92210000Y-51284190D01*
X91971905Y-51760381D02*
X91971905Y-50760381D01*
X92352858Y-50760381D01*
X92448096Y-50808000D01*
X92495715Y-50855619D01*
X92543334Y-50950857D01*
X92543334Y-51093714D01*
X92495715Y-51188952D01*
X92448096Y-51236571D01*
X92352858Y-51284190D01*
X91971905Y-51284190D01*
X93019524Y-51760381D02*
X93210000Y-51760381D01*
X93305239Y-51712762D01*
X93352858Y-51665143D01*
X93448096Y-51522286D01*
X93495715Y-51331810D01*
X93495715Y-50950857D01*
X93448096Y-50855619D01*
X93400477Y-50808000D01*
X93305239Y-50760381D01*
X93114762Y-50760381D01*
X93019524Y-50808000D01*
X92971905Y-50855619D01*
X92924286Y-50950857D01*
X92924286Y-51188952D01*
X92971905Y-51284190D01*
X93019524Y-51331810D01*
X93114762Y-51379429D01*
X93305239Y-51379429D01*
X93400477Y-51331810D01*
X93448096Y-51284190D01*
X93495715Y-51188952D01*
X130929143Y-116530381D02*
X130595809Y-116054190D01*
X130357714Y-116530381D02*
X130357714Y-115530381D01*
X130738667Y-115530381D01*
X130833905Y-115578000D01*
X130881524Y-115625619D01*
X130929143Y-115720857D01*
X130929143Y-115863714D01*
X130881524Y-115958952D01*
X130833905Y-116006571D01*
X130738667Y-116054190D01*
X130357714Y-116054190D01*
X131881524Y-116530381D02*
X131310095Y-116530381D01*
X131595809Y-116530381D02*
X131595809Y-115530381D01*
X131500571Y-115673238D01*
X131405333Y-115768476D01*
X131310095Y-115816095D01*
X132500571Y-115530381D02*
X132595810Y-115530381D01*
X132691048Y-115578000D01*
X132738667Y-115625619D01*
X132786286Y-115720857D01*
X132833905Y-115911333D01*
X132833905Y-116149429D01*
X132786286Y-116339905D01*
X132738667Y-116435143D01*
X132691048Y-116482762D01*
X132595810Y-116530381D01*
X132500571Y-116530381D01*
X132405333Y-116482762D01*
X132357714Y-116435143D01*
X132310095Y-116339905D01*
X132262476Y-116149429D01*
X132262476Y-115911333D01*
X132310095Y-115720857D01*
X132357714Y-115625619D01*
X132405333Y-115578000D01*
X132500571Y-115530381D01*
X130929143Y-119578381D02*
X130595809Y-119102190D01*
X130357714Y-119578381D02*
X130357714Y-118578381D01*
X130738667Y-118578381D01*
X130833905Y-118626000D01*
X130881524Y-118673619D01*
X130929143Y-118768857D01*
X130929143Y-118911714D01*
X130881524Y-119006952D01*
X130833905Y-119054571D01*
X130738667Y-119102190D01*
X130357714Y-119102190D01*
X131881524Y-119578381D02*
X131310095Y-119578381D01*
X131595809Y-119578381D02*
X131595809Y-118578381D01*
X131500571Y-118721238D01*
X131405333Y-118816476D01*
X131310095Y-118864095D01*
X132833905Y-119578381D02*
X132262476Y-119578381D01*
X132548190Y-119578381D02*
X132548190Y-118578381D01*
X132452952Y-118721238D01*
X132357714Y-118816476D01*
X132262476Y-118864095D01*
X143502143Y-90622381D02*
X143168809Y-90146190D01*
X142930714Y-90622381D02*
X142930714Y-89622381D01*
X143311667Y-89622381D01*
X143406905Y-89670000D01*
X143454524Y-89717619D01*
X143502143Y-89812857D01*
X143502143Y-89955714D01*
X143454524Y-90050952D01*
X143406905Y-90098571D01*
X143311667Y-90146190D01*
X142930714Y-90146190D01*
X144454524Y-90622381D02*
X143883095Y-90622381D01*
X144168809Y-90622381D02*
X144168809Y-89622381D01*
X144073571Y-89765238D01*
X143978333Y-89860476D01*
X143883095Y-89908095D01*
X144835476Y-89717619D02*
X144883095Y-89670000D01*
X144978333Y-89622381D01*
X145216429Y-89622381D01*
X145311667Y-89670000D01*
X145359286Y-89717619D01*
X145406905Y-89812857D01*
X145406905Y-89908095D01*
X145359286Y-90050952D01*
X144787857Y-90622381D01*
X145406905Y-90622381D01*
X141089143Y-116022381D02*
X140755809Y-115546190D01*
X140517714Y-116022381D02*
X140517714Y-115022381D01*
X140898667Y-115022381D01*
X140993905Y-115070000D01*
X141041524Y-115117619D01*
X141089143Y-115212857D01*
X141089143Y-115355714D01*
X141041524Y-115450952D01*
X140993905Y-115498571D01*
X140898667Y-115546190D01*
X140517714Y-115546190D01*
X142041524Y-116022381D02*
X141470095Y-116022381D01*
X141755809Y-116022381D02*
X141755809Y-115022381D01*
X141660571Y-115165238D01*
X141565333Y-115260476D01*
X141470095Y-115308095D01*
X142374857Y-115022381D02*
X142993905Y-115022381D01*
X142660571Y-115403333D01*
X142803429Y-115403333D01*
X142898667Y-115450952D01*
X142946286Y-115498571D01*
X142993905Y-115593810D01*
X142993905Y-115831905D01*
X142946286Y-115927143D01*
X142898667Y-115974762D01*
X142803429Y-116022381D01*
X142517714Y-116022381D01*
X142422476Y-115974762D01*
X142374857Y-115927143D01*
X145153143Y-99893381D02*
X144819809Y-99417190D01*
X144581714Y-99893381D02*
X144581714Y-98893381D01*
X144962667Y-98893381D01*
X145057905Y-98941000D01*
X145105524Y-98988619D01*
X145153143Y-99083857D01*
X145153143Y-99226714D01*
X145105524Y-99321952D01*
X145057905Y-99369571D01*
X144962667Y-99417190D01*
X144581714Y-99417190D01*
X146105524Y-99893381D02*
X145534095Y-99893381D01*
X145819809Y-99893381D02*
X145819809Y-98893381D01*
X145724571Y-99036238D01*
X145629333Y-99131476D01*
X145534095Y-99179095D01*
X146962667Y-99226714D02*
X146962667Y-99893381D01*
X146724571Y-98845762D02*
X146486476Y-99560048D01*
X147105524Y-99560048D01*
X131000667Y-81684762D02*
X131143524Y-81732381D01*
X131381620Y-81732381D01*
X131476858Y-81684762D01*
X131524477Y-81637143D01*
X131572096Y-81541905D01*
X131572096Y-81446667D01*
X131524477Y-81351429D01*
X131476858Y-81303810D01*
X131381620Y-81256190D01*
X131191143Y-81208571D01*
X131095905Y-81160952D01*
X131048286Y-81113333D01*
X131000667Y-81018095D01*
X131000667Y-80922857D01*
X131048286Y-80827619D01*
X131095905Y-80780000D01*
X131191143Y-80732381D01*
X131429239Y-80732381D01*
X131572096Y-80780000D01*
X131905429Y-80732381D02*
X132143524Y-81732381D01*
X132334001Y-81018095D01*
X132524477Y-81732381D01*
X132762572Y-80732381D01*
X133667334Y-81732381D02*
X133095905Y-81732381D01*
X133381619Y-81732381D02*
X133381619Y-80732381D01*
X133286381Y-80875238D01*
X133191143Y-80970476D01*
X133095905Y-81018095D01*
X105164095Y-79716381D02*
X105735524Y-79716381D01*
X105449809Y-80716381D02*
X105449809Y-79716381D01*
X106640286Y-80621143D02*
X106592667Y-80668762D01*
X106449810Y-80716381D01*
X106354572Y-80716381D01*
X106211714Y-80668762D01*
X106116476Y-80573524D01*
X106068857Y-80478286D01*
X106021238Y-80287810D01*
X106021238Y-80144952D01*
X106068857Y-79954476D01*
X106116476Y-79859238D01*
X106211714Y-79764000D01*
X106354572Y-79716381D01*
X106449810Y-79716381D01*
X106592667Y-79764000D01*
X106640286Y-79811619D01*
X107592667Y-80716381D02*
X107021238Y-80716381D01*
X107306952Y-80716381D02*
X107306952Y-79716381D01*
X107211714Y-79859238D01*
X107116476Y-79954476D01*
X107021238Y-80002095D01*
X103223108Y-81074569D02*
X103985013Y-81074569D01*
X103604061Y-81455521D02*
X103604061Y-80693616D01*
X105418095Y-59650381D02*
X105989524Y-59650381D01*
X105703809Y-60650381D02*
X105703809Y-59650381D01*
X106894286Y-60555143D02*
X106846667Y-60602762D01*
X106703810Y-60650381D01*
X106608572Y-60650381D01*
X106465714Y-60602762D01*
X106370476Y-60507524D01*
X106322857Y-60412286D01*
X106275238Y-60221810D01*
X106275238Y-60078952D01*
X106322857Y-59888476D01*
X106370476Y-59793238D01*
X106465714Y-59698000D01*
X106608572Y-59650381D01*
X106703810Y-59650381D01*
X106846667Y-59698000D01*
X106894286Y-59745619D01*
X107275238Y-59745619D02*
X107322857Y-59698000D01*
X107418095Y-59650381D01*
X107656191Y-59650381D01*
X107751429Y-59698000D01*
X107799048Y-59745619D01*
X107846667Y-59840857D01*
X107846667Y-59936095D01*
X107799048Y-60078952D01*
X107227619Y-60650381D01*
X107846667Y-60650381D01*
X103223108Y-61008569D02*
X103985013Y-61008569D01*
X103604061Y-61389521D02*
X103604061Y-60627616D01*
X104910095Y-88479381D02*
X105481524Y-88479381D01*
X105195809Y-89479381D02*
X105195809Y-88479381D01*
X106386286Y-89384143D02*
X106338667Y-89431762D01*
X106195810Y-89479381D01*
X106100572Y-89479381D01*
X105957714Y-89431762D01*
X105862476Y-89336524D01*
X105814857Y-89241286D01*
X105767238Y-89050810D01*
X105767238Y-88907952D01*
X105814857Y-88717476D01*
X105862476Y-88622238D01*
X105957714Y-88527000D01*
X106100572Y-88479381D01*
X106195810Y-88479381D01*
X106338667Y-88527000D01*
X106386286Y-88574619D01*
X106719619Y-88479381D02*
X107338667Y-88479381D01*
X107005333Y-88860333D01*
X107148191Y-88860333D01*
X107243429Y-88907952D01*
X107291048Y-88955571D01*
X107338667Y-89050810D01*
X107338667Y-89288905D01*
X107291048Y-89384143D01*
X107243429Y-89431762D01*
X107148191Y-89479381D01*
X106862476Y-89479381D01*
X106767238Y-89431762D01*
X106719619Y-89384143D01*
X103223108Y-84757569D02*
X103985013Y-84757569D01*
X103604061Y-85138521D02*
X103604061Y-84376616D01*
X104656095Y-68286381D02*
X105227524Y-68286381D01*
X104941809Y-69286381D02*
X104941809Y-68286381D01*
X106132286Y-69191143D02*
X106084667Y-69238762D01*
X105941810Y-69286381D01*
X105846572Y-69286381D01*
X105703714Y-69238762D01*
X105608476Y-69143524D01*
X105560857Y-69048286D01*
X105513238Y-68857810D01*
X105513238Y-68714952D01*
X105560857Y-68524476D01*
X105608476Y-68429238D01*
X105703714Y-68334000D01*
X105846572Y-68286381D01*
X105941810Y-68286381D01*
X106084667Y-68334000D01*
X106132286Y-68381619D01*
X106989429Y-68619714D02*
X106989429Y-69286381D01*
X106751333Y-68238762D02*
X106513238Y-68953048D01*
X107132286Y-68953048D01*
X103223108Y-64818569D02*
X103985013Y-64818569D01*
X103604061Y-65199521D02*
X103604061Y-64437616D01*
X131572095Y-54062381D02*
X131572095Y-54871905D01*
X131619714Y-54967143D01*
X131667333Y-55014762D01*
X131762571Y-55062381D01*
X131953048Y-55062381D01*
X132048286Y-55014762D01*
X132095905Y-54967143D01*
X132143524Y-54871905D01*
X132143524Y-54062381D01*
X133143524Y-55062381D02*
X132572095Y-55062381D01*
X132857809Y-55062381D02*
X132857809Y-54062381D01*
X132762571Y-54205238D01*
X132667333Y-54300476D01*
X132572095Y-54348095D01*
X93996381Y-86105905D02*
X94805905Y-86105905D01*
X94901143Y-86058286D01*
X94948762Y-86010667D01*
X94996381Y-85915429D01*
X94996381Y-85724952D01*
X94948762Y-85629714D01*
X94901143Y-85582095D01*
X94805905Y-85534476D01*
X93996381Y-85534476D01*
X94091619Y-85105905D02*
X94044000Y-85058286D01*
X93996381Y-84963048D01*
X93996381Y-84724952D01*
X94044000Y-84629714D01*
X94091619Y-84582095D01*
X94186857Y-84534476D01*
X94282095Y-84534476D01*
X94424952Y-84582095D01*
X94996381Y-85153524D01*
X94996381Y-84534476D01*
X93996381Y-65277905D02*
X94805905Y-65277905D01*
X94901143Y-65230286D01*
X94948762Y-65182667D01*
X94996381Y-65087429D01*
X94996381Y-64896952D01*
X94948762Y-64801714D01*
X94901143Y-64754095D01*
X94805905Y-64706476D01*
X93996381Y-64706476D01*
X93996381Y-64325524D02*
X93996381Y-63706476D01*
X94377333Y-64039810D01*
X94377333Y-63896952D01*
X94424952Y-63801714D01*
X94472571Y-63754095D01*
X94567810Y-63706476D01*
X94805905Y-63706476D01*
X94901143Y-63754095D01*
X94948762Y-63801714D01*
X94996381Y-63896952D01*
X94996381Y-64182667D01*
X94948762Y-64277905D01*
X94901143Y-64325524D01*
X100076095Y-34758381D02*
X100076095Y-35567905D01*
X100123714Y-35663143D01*
X100171333Y-35710762D01*
X100266571Y-35758381D01*
X100457048Y-35758381D01*
X100552286Y-35710762D01*
X100599905Y-35663143D01*
X100647524Y-35567905D01*
X100647524Y-34758381D01*
X101552286Y-35091714D02*
X101552286Y-35758381D01*
X101314190Y-34710762D02*
X101076095Y-35425048D01*
X101695143Y-35425048D01*
X138430095Y-90384381D02*
X138430095Y-91193905D01*
X138477714Y-91289143D01*
X138525333Y-91336762D01*
X138620571Y-91384381D01*
X138811048Y-91384381D01*
X138906286Y-91336762D01*
X138953905Y-91289143D01*
X139001524Y-91193905D01*
X139001524Y-90384381D01*
X139953905Y-90384381D02*
X139477714Y-90384381D01*
X139430095Y-90860571D01*
X139477714Y-90812952D01*
X139572952Y-90765333D01*
X139811048Y-90765333D01*
X139906286Y-90812952D01*
X139953905Y-90860571D01*
X140001524Y-90955810D01*
X140001524Y-91193905D01*
X139953905Y-91289143D01*
X139906286Y-91336762D01*
X139811048Y-91384381D01*
X139572952Y-91384381D01*
X139477714Y-91336762D01*
X139430095Y-91289143D01*
X129921095Y-108418381D02*
X129921095Y-109227905D01*
X129968714Y-109323143D01*
X130016333Y-109370762D01*
X130111571Y-109418381D01*
X130302048Y-109418381D01*
X130397286Y-109370762D01*
X130444905Y-109323143D01*
X130492524Y-109227905D01*
X130492524Y-108418381D01*
X131397286Y-108418381D02*
X131206809Y-108418381D01*
X131111571Y-108466000D01*
X131063952Y-108513619D01*
X130968714Y-108656476D01*
X130921095Y-108846952D01*
X130921095Y-109227905D01*
X130968714Y-109323143D01*
X131016333Y-109370762D01*
X131111571Y-109418381D01*
X131302048Y-109418381D01*
X131397286Y-109370762D01*
X131444905Y-109323143D01*
X131492524Y-109227905D01*
X131492524Y-108989810D01*
X131444905Y-108894571D01*
X131397286Y-108846952D01*
X131302048Y-108799333D01*
X131111571Y-108799333D01*
X131016333Y-108846952D01*
X130968714Y-108894571D01*
X130921095Y-108989810D01*
X121189809Y-50268190D02*
X121189809Y-50744381D01*
X120856476Y-49744381D02*
X121189809Y-50268190D01*
X121523143Y-49744381D01*
X122380286Y-50744381D02*
X121808857Y-50744381D01*
X122094571Y-50744381D02*
X122094571Y-49744381D01*
X121999333Y-49887238D01*
X121904095Y-49982476D01*
X121808857Y-50030095D01*
X128047809Y-52300190D02*
X128047809Y-52776381D01*
X127714476Y-51776381D02*
X128047809Y-52300190D01*
X128381143Y-51776381D01*
X128666857Y-51871619D02*
X128714476Y-51824000D01*
X128809714Y-51776381D01*
X129047810Y-51776381D01*
X129143048Y-51824000D01*
X129190667Y-51871619D01*
X129238286Y-51966857D01*
X129238286Y-52062095D01*
X129190667Y-52204952D01*
X128619238Y-52776381D01*
X129238286Y-52776381D01*
X84288476Y-94829381D02*
X84955143Y-94829381D01*
X84288476Y-95829381D01*
X84955143Y-95829381D01*
X85336095Y-95829381D02*
X85336095Y-94829381D01*
X85574190Y-94829381D01*
X85717048Y-94877000D01*
X85812286Y-94972238D01*
X85859905Y-95067476D01*
X85907524Y-95257952D01*
X85907524Y-95400810D01*
X85859905Y-95591286D01*
X85812286Y-95686524D01*
X85717048Y-95781762D01*
X85574190Y-95829381D01*
X85336095Y-95829381D01*
X86859905Y-95829381D02*
X86288476Y-95829381D01*
X86574190Y-95829381D02*
X86574190Y-94829381D01*
X86478952Y-94972238D01*
X86383714Y-95067476D01*
X86288476Y-95115095D01*
X88586095Y-97120381D02*
X88586095Y-96120381D01*
X89157524Y-97120381D02*
X88728952Y-96548952D01*
X89157524Y-96120381D02*
X88586095Y-96691810D01*
X82309905Y-96884667D02*
X82786096Y-96884667D01*
X82214667Y-97170381D02*
X82548000Y-96170381D01*
X82881334Y-97170381D01*
X102576476Y-100036381D02*
X103243143Y-100036381D01*
X102576476Y-101036381D01*
X103243143Y-101036381D01*
X103624095Y-101036381D02*
X103624095Y-100036381D01*
X103862190Y-100036381D01*
X104005048Y-100084000D01*
X104100286Y-100179238D01*
X104147905Y-100274476D01*
X104195524Y-100464952D01*
X104195524Y-100607810D01*
X104147905Y-100798286D01*
X104100286Y-100893524D01*
X104005048Y-100988762D01*
X103862190Y-101036381D01*
X103624095Y-101036381D01*
X104576476Y-100131619D02*
X104624095Y-100084000D01*
X104719333Y-100036381D01*
X104957429Y-100036381D01*
X105052667Y-100084000D01*
X105100286Y-100131619D01*
X105147905Y-100226857D01*
X105147905Y-100322095D01*
X105100286Y-100464952D01*
X104528857Y-101036381D01*
X105147905Y-101036381D01*
X106620095Y-102454381D02*
X106620095Y-101454381D01*
X107191524Y-102454381D02*
X106762952Y-101882952D01*
X107191524Y-101454381D02*
X106620095Y-102025810D01*
X100343905Y-102218667D02*
X100820096Y-102218667D01*
X100248667Y-102504381D02*
X100582000Y-101504381D01*
X100915334Y-102504381D01*
X118070476Y-112355381D02*
X118737143Y-112355381D01*
X118070476Y-113355381D01*
X118737143Y-113355381D01*
X119118095Y-113355381D02*
X119118095Y-112355381D01*
X119356190Y-112355381D01*
X119499048Y-112403000D01*
X119594286Y-112498238D01*
X119641905Y-112593476D01*
X119689524Y-112783952D01*
X119689524Y-112926810D01*
X119641905Y-113117286D01*
X119594286Y-113212524D01*
X119499048Y-113307762D01*
X119356190Y-113355381D01*
X119118095Y-113355381D01*
X120022857Y-112355381D02*
X120641905Y-112355381D01*
X120308571Y-112736333D01*
X120451429Y-112736333D01*
X120546667Y-112783952D01*
X120594286Y-112831571D01*
X120641905Y-112926810D01*
X120641905Y-113164905D01*
X120594286Y-113260143D01*
X120546667Y-113307762D01*
X120451429Y-113355381D01*
X120165714Y-113355381D01*
X120070476Y-113307762D01*
X120022857Y-113260143D01*
X122368095Y-114773381D02*
X122368095Y-113773381D01*
X122939524Y-114773381D02*
X122510952Y-114201952D01*
X122939524Y-113773381D02*
X122368095Y-114344810D01*
X116091905Y-114537667D02*
X116568096Y-114537667D01*
X115996667Y-114823381D02*
X116330000Y-113823381D01*
X116663334Y-114823381D01*
M02*
