G04 #@! TF.FileFunction,Soldermask,Top*
%FSLAX46Y46*%
G04 Gerber Fmt 4.6, Leading zero omitted, Abs format (unit mm)*
G04 Created by KiCad (PCBNEW 4.0.2+dfsg1-stable) date 2017년 07월 06일 (목) 오전 10시 53분 42초*
%MOMM*%
G01*
G04 APERTURE LIST*
%ADD10C,0.100000*%
%ADD11R,1.500000X1.250000*%
%ADD12R,1.250000X1.500000*%
%ADD13R,0.800100X0.800100*%
%ADD14R,1.600200X3.599180*%
%ADD15R,1.200000X3.400000*%
%ADD16R,1.727200X2.032000*%
%ADD17O,1.727200X2.032000*%
%ADD18R,1.727200X1.727200*%
%ADD19O,1.727200X1.727200*%
%ADD20R,3.500120X3.500120*%
%ADD21R,2.235200X2.235200*%
%ADD22R,2.500000X2.500000*%
%ADD23C,2.500000*%
%ADD24C,1.524000*%
%ADD25R,2.301240X0.500380*%
%ADD26R,2.499360X1.998980*%
%ADD27C,0.899160*%
%ADD28R,1.597660X1.800860*%
%ADD29R,1.500000X1.300000*%
%ADD30R,1.300000X1.500000*%
%ADD31R,2.180000X1.600000*%
%ADD32R,2.999740X1.501140*%
%ADD33R,1.000000X0.250000*%
%ADD34R,0.250000X1.000000*%
%ADD35R,4.600000X1.390000*%
%ADD36R,9.400000X10.800000*%
%ADD37R,0.450000X1.750000*%
%ADD38R,1.550000X0.600000*%
%ADD39C,1.000760*%
%ADD40R,2.100580X5.600700*%
%ADD41R,3.500120X1.800860*%
G04 APERTURE END LIST*
D10*
D11*
X120630000Y-54864000D03*
X118130000Y-54864000D03*
X120630000Y-58166000D03*
X118130000Y-58166000D03*
X143022000Y-84582000D03*
X145522000Y-84582000D03*
D12*
X125730000Y-104414000D03*
X125730000Y-106914000D03*
D11*
X115336000Y-85090000D03*
X117836000Y-85090000D03*
X115336000Y-69088000D03*
X117836000Y-69088000D03*
X137394000Y-92964000D03*
X134894000Y-92964000D03*
X137394000Y-95758000D03*
X134894000Y-95758000D03*
X137394000Y-101600000D03*
X134894000Y-101600000D03*
X137394000Y-104902000D03*
X134894000Y-104902000D03*
D13*
X142732760Y-104328000D03*
X142732760Y-102428000D03*
X140733780Y-103378000D03*
X143830000Y-112252760D03*
X145730000Y-112252760D03*
X144780000Y-110253780D03*
D14*
X119126000Y-102405180D03*
X119126000Y-107906820D03*
D15*
X114681000Y-91440000D03*
X119253000Y-91440000D03*
X114681000Y-74676000D03*
X119253000Y-74676000D03*
D16*
X125730000Y-38862000D03*
D17*
X123190000Y-38862000D03*
X120650000Y-38862000D03*
X118110000Y-38862000D03*
D16*
X143002000Y-38862000D03*
D17*
X140462000Y-38862000D03*
X137922000Y-38862000D03*
X135382000Y-38862000D03*
X132842000Y-38862000D03*
D18*
X156210000Y-39370000D03*
D19*
X158750000Y-39370000D03*
X156210000Y-41910000D03*
X158750000Y-41910000D03*
X156210000Y-44450000D03*
X158750000Y-44450000D03*
X156210000Y-46990000D03*
X158750000Y-46990000D03*
X156210000Y-49530000D03*
X158750000Y-49530000D03*
X156210000Y-52070000D03*
X158750000Y-52070000D03*
X156210000Y-54610000D03*
X158750000Y-54610000D03*
X156210000Y-57150000D03*
X158750000Y-57150000D03*
X156210000Y-59690000D03*
X158750000Y-59690000D03*
X156210000Y-62230000D03*
X158750000Y-62230000D03*
X156210000Y-64770000D03*
X158750000Y-64770000D03*
X156210000Y-67310000D03*
X158750000Y-67310000D03*
X156210000Y-69850000D03*
X158750000Y-69850000D03*
X156210000Y-72390000D03*
X158750000Y-72390000D03*
X156210000Y-74930000D03*
X158750000Y-74930000D03*
X156210000Y-77470000D03*
X158750000Y-77470000D03*
X156210000Y-80010000D03*
X158750000Y-80010000D03*
X156210000Y-82550000D03*
X158750000Y-82550000D03*
X156210000Y-85090000D03*
X158750000Y-85090000D03*
X156210000Y-87630000D03*
X158750000Y-87630000D03*
D20*
X90020140Y-109855000D03*
X84020660Y-109855000D03*
X87020400Y-114554000D03*
D21*
X92964000Y-119888000D03*
D22*
X100965000Y-118110000D03*
D23*
X105965000Y-118110000D03*
D21*
X79502000Y-78740000D03*
X79502000Y-57912000D03*
D18*
X153130000Y-28730000D03*
D19*
X153130000Y-31270000D03*
X150590000Y-28730000D03*
X150590000Y-31270000D03*
X148050000Y-28730000D03*
X148050000Y-31270000D03*
X145510000Y-28730000D03*
X145510000Y-31270000D03*
X142970000Y-28730000D03*
X142970000Y-31270000D03*
X140430000Y-28730000D03*
X140430000Y-31270000D03*
X137890000Y-28730000D03*
X137890000Y-31270000D03*
X135350000Y-28730000D03*
X135350000Y-31270000D03*
X132810000Y-28730000D03*
X132810000Y-31270000D03*
X130270000Y-28730000D03*
X130270000Y-31270000D03*
X127730000Y-28730000D03*
X127730000Y-31270000D03*
X125190000Y-28730000D03*
X125190000Y-31270000D03*
X122650000Y-28730000D03*
X122650000Y-31270000D03*
X120110000Y-28730000D03*
X120110000Y-31270000D03*
X117570000Y-28730000D03*
X117570000Y-31270000D03*
X115030000Y-28730000D03*
X115030000Y-31270000D03*
X112490000Y-28730000D03*
X112490000Y-31270000D03*
X109950000Y-28730000D03*
X109950000Y-31270000D03*
X107410000Y-28730000D03*
X107410000Y-31270000D03*
X104870000Y-28730000D03*
X104870000Y-31270000D03*
D24*
X85852000Y-29972000D03*
X88352000Y-29972000D03*
X90852000Y-29972000D03*
X93352000Y-29972000D03*
D25*
X84729320Y-40309800D03*
X84729320Y-41109900D03*
X84729320Y-41910000D03*
X84729320Y-42710100D03*
X84729320Y-43510200D03*
D26*
X84630260Y-37459920D03*
X79131160Y-37459920D03*
X84630260Y-46360080D03*
X79131160Y-46360080D03*
D27*
X82130900Y-39710360D03*
X82130900Y-44109640D03*
D23*
X155448000Y-98966000D03*
D22*
X155448000Y-108966000D03*
D23*
X155448000Y-103966000D03*
D24*
X142494000Y-119888000D03*
X144994000Y-119888000D03*
X147494000Y-119888000D03*
X149994000Y-119888000D03*
D28*
X124056140Y-82804000D03*
X126895860Y-82804000D03*
X124056140Y-73152000D03*
X126895860Y-73152000D03*
X110340140Y-52578000D03*
X113179860Y-52578000D03*
D29*
X110410000Y-46736000D03*
X113110000Y-46736000D03*
X110410000Y-43942000D03*
X113110000Y-43942000D03*
X134286000Y-44704000D03*
X136986000Y-44704000D03*
X138256000Y-84582000D03*
X135556000Y-84582000D03*
X113110000Y-49530000D03*
X110410000Y-49530000D03*
X117936000Y-81788000D03*
X115236000Y-81788000D03*
X117936000Y-66040000D03*
X115236000Y-66040000D03*
X100156000Y-49022000D03*
X97456000Y-49022000D03*
X91360000Y-49022000D03*
X94060000Y-49022000D03*
X134540000Y-116078000D03*
X137240000Y-116078000D03*
X137240000Y-119126000D03*
X134540000Y-119126000D03*
X142922000Y-88646000D03*
X145622000Y-88646000D03*
X144700000Y-115570000D03*
X147400000Y-115570000D03*
D30*
X145796000Y-104220000D03*
X145796000Y-101520000D03*
D31*
X136113570Y-81023680D03*
X145318430Y-81028320D03*
D32*
X110202980Y-82804000D03*
X106205020Y-82804000D03*
X110202980Y-62738000D03*
X106205020Y-62738000D03*
X110202980Y-86487000D03*
X106205020Y-86487000D03*
X110202980Y-66548000D03*
X106205020Y-66548000D03*
D33*
X134762000Y-55940000D03*
X134762000Y-56440000D03*
X134762000Y-56940000D03*
X134762000Y-57440000D03*
X134762000Y-57940000D03*
X134762000Y-58440000D03*
X134762000Y-58940000D03*
X134762000Y-59440000D03*
X134762000Y-59940000D03*
X134762000Y-60440000D03*
X134762000Y-60940000D03*
X134762000Y-61440000D03*
X134762000Y-61940000D03*
X134762000Y-62440000D03*
X134762000Y-62940000D03*
X134762000Y-63440000D03*
D34*
X136712000Y-65390000D03*
X137212000Y-65390000D03*
X137712000Y-65390000D03*
X138212000Y-65390000D03*
X138712000Y-65390000D03*
X139212000Y-65390000D03*
X139712000Y-65390000D03*
X140212000Y-65390000D03*
X140712000Y-65390000D03*
X141212000Y-65390000D03*
X141712000Y-65390000D03*
X142212000Y-65390000D03*
X142712000Y-65390000D03*
X143212000Y-65390000D03*
X143712000Y-65390000D03*
X144212000Y-65390000D03*
D33*
X146162000Y-63440000D03*
X146162000Y-62940000D03*
X146162000Y-62440000D03*
X146162000Y-61940000D03*
X146162000Y-61440000D03*
X146162000Y-60940000D03*
X146162000Y-60440000D03*
X146162000Y-59940000D03*
X146162000Y-59440000D03*
X146162000Y-58940000D03*
X146162000Y-58440000D03*
X146162000Y-57940000D03*
X146162000Y-57440000D03*
X146162000Y-56940000D03*
X146162000Y-56440000D03*
X146162000Y-55940000D03*
D34*
X144212000Y-53990000D03*
X143712000Y-53990000D03*
X143212000Y-53990000D03*
X142712000Y-53990000D03*
X142212000Y-53990000D03*
X141712000Y-53990000D03*
X141212000Y-53990000D03*
X140712000Y-53990000D03*
X140212000Y-53990000D03*
X139712000Y-53990000D03*
X139212000Y-53990000D03*
X138712000Y-53990000D03*
X138212000Y-53990000D03*
X137712000Y-53990000D03*
X137212000Y-53990000D03*
X136712000Y-53990000D03*
D35*
X98044000Y-85344000D03*
D36*
X88894000Y-85344000D03*
D35*
X98044000Y-82804000D03*
X98044000Y-87884000D03*
X98044000Y-64516000D03*
D36*
X88894000Y-64516000D03*
D35*
X98044000Y-61976000D03*
X98044000Y-67056000D03*
D37*
X99983000Y-37548000D03*
X99333000Y-37548000D03*
X98683000Y-37548000D03*
X98033000Y-37548000D03*
X97383000Y-37548000D03*
X96733000Y-37548000D03*
X96083000Y-37548000D03*
X95433000Y-37548000D03*
X94783000Y-37548000D03*
X94133000Y-37548000D03*
X93483000Y-37548000D03*
X92833000Y-37548000D03*
X92183000Y-37548000D03*
X91533000Y-37548000D03*
X91533000Y-44748000D03*
X92183000Y-44748000D03*
X92833000Y-44748000D03*
X93483000Y-44748000D03*
X94133000Y-44748000D03*
X94783000Y-44748000D03*
X95433000Y-44748000D03*
X96083000Y-44748000D03*
X96733000Y-44748000D03*
X97383000Y-44748000D03*
X98033000Y-44748000D03*
X98683000Y-44748000D03*
X99333000Y-44748000D03*
X99983000Y-44748000D03*
D38*
X141572000Y-91948000D03*
X141572000Y-93218000D03*
X141572000Y-94488000D03*
X141572000Y-95758000D03*
X146972000Y-95758000D03*
X146972000Y-94488000D03*
X146972000Y-93218000D03*
X146972000Y-91948000D03*
X133190000Y-109093000D03*
X133190000Y-110363000D03*
X133190000Y-111633000D03*
X133190000Y-112903000D03*
X138590000Y-112903000D03*
X138590000Y-111633000D03*
X138590000Y-110363000D03*
X138590000Y-109093000D03*
D39*
X127000000Y-49009300D03*
X127000000Y-47510700D03*
D40*
X125730000Y-54333140D03*
X125730000Y-64030860D03*
D41*
X88097360Y-99568000D03*
X83098640Y-99568000D03*
X106131360Y-104902000D03*
X101132640Y-104902000D03*
X121879360Y-117221000D03*
X116880640Y-117221000D03*
M02*
