M48
INCH,TZ
T1C0.016
T2C0.024
T3C0.030
T4C0.039
T5C0.040
T6C0.051
T7C0.098
%
G90
G05
T1
X3.45Y-1.55
X3.45Y-1.86
X3.52Y-1.58
X3.74Y-3.92
X3.76Y-1.85
X3.93Y-2.28
X4.Y-3.09
X4.05Y-1.69
X4.05Y-2.65
X4.11Y-1.6
X4.13Y-3.54
X4.15Y-2.2
X4.18Y-1.73
X4.18Y-3.88
X4.19Y-2.87
X4.37Y-3.11
X4.37Y-3.68
X4.51Y-3.11
X4.54Y-1.82
X4.55Y-1.71
X4.6Y-2.45
X4.74Y-2.7
X4.76Y-2.5
X4.79Y-4.35
X4.84Y-3.6
X4.87Y-3.02
X4.92Y-3.98
X4.99Y-4.49
X5.09Y-2.4
X5.1Y-2.36
X5.11Y-2.62
X5.11Y-2.98
X5.12Y-2.33
X5.14Y-4.34
X5.15Y-4.44
X5.17Y-2.56
X5.17Y-4.23
X5.2Y-2.45
X5.23Y-2.58
X5.25Y-2.76
X5.26Y-2.6
X5.28Y-2.63
X5.3Y-2.87
X5.3056Y-2.13
X5.35Y-4.21
X5.36Y-2.
X5.37Y-2.63
X5.38Y-1.85
X5.39Y-1.89
X5.39Y-2.66
X5.4Y-2.73
X5.4Y-3.48
X5.41Y-3.58
X5.47Y-1.97
X5.51Y-3.84
X5.52Y-1.92
X5.54Y-3.55
X5.55Y-4.25
X5.56Y-3.06
X5.56Y-4.47
X5.57Y-3.9
X5.59Y-4.19
X5.63Y-4.33
X5.71Y-2.09
X5.78Y-2.67
X5.8Y-1.84
X5.81Y-2.17
X5.84Y-2.63
X5.86Y-2.2
X5.87Y-2.59
X5.88Y-1.35
X5.92Y-2.67
X5.93Y-2.21
X5.96Y-2.66
X6.02Y-2.31
X6.05Y-2.34
T2
X5.Y-1.8705
X5.Y-1.9295
T3
X3.38Y-1.18
X3.4784Y-1.18
X3.5769Y-1.18
X3.6753Y-1.18
X5.61Y-4.72
X5.7084Y-4.72
X5.8069Y-4.72
X5.9053Y-4.72
T5
X3.13Y-2.28
X3.13Y-3.1
X3.66Y-4.72
X4.1287Y-1.1311
X4.1287Y-1.2311
X4.2287Y-1.1311
X4.2287Y-1.2311
X4.3287Y-1.1311
X4.3287Y-1.2311
X4.4287Y-1.1311
X4.4287Y-1.2311
X4.5287Y-1.1311
X4.5287Y-1.2311
X4.6287Y-1.1311
X4.6287Y-1.2311
X4.65Y-1.53
X4.7287Y-1.1311
X4.7287Y-1.2311
X4.75Y-1.53
X4.8287Y-1.1311
X4.8287Y-1.2311
X4.85Y-1.53
X4.9287Y-1.1311
X4.9287Y-1.2311
X4.95Y-1.53
X5.0287Y-1.1311
X5.0287Y-1.2311
X5.1287Y-1.1311
X5.1287Y-1.2311
X5.2287Y-1.1311
X5.2287Y-1.2311
X5.23Y-1.53
X5.3287Y-1.1311
X5.3287Y-1.2311
X5.33Y-1.53
X5.4287Y-1.1311
X5.4287Y-1.2311
X5.43Y-1.53
X5.5287Y-1.1311
X5.5287Y-1.2311
X5.53Y-1.53
X5.6287Y-1.1311
X5.6287Y-1.2311
X5.63Y-1.53
X5.7287Y-1.1311
X5.7287Y-1.2311
X5.8287Y-1.1311
X5.8287Y-1.2311
X5.9287Y-1.1311
X5.9287Y-1.2311
X6.0287Y-1.1311
X6.0287Y-1.2311
X6.15Y-1.55
X6.15Y-1.65
X6.15Y-1.75
X6.15Y-1.85
X6.15Y-1.95
X6.15Y-2.05
X6.15Y-2.15
X6.15Y-2.25
X6.15Y-2.35
X6.15Y-2.45
X6.15Y-2.55
X6.15Y-2.65
X6.15Y-2.75
X6.15Y-2.85
X6.15Y-2.95
X6.15Y-3.05
X6.15Y-3.15
X6.15Y-3.25
X6.15Y-3.35
X6.15Y-3.45
X6.25Y-1.55
X6.25Y-1.65
X6.25Y-1.75
X6.25Y-1.85
X6.25Y-1.95
X6.25Y-2.05
X6.25Y-2.15
X6.25Y-2.25
X6.25Y-2.35
X6.25Y-2.45
X6.25Y-2.55
X6.25Y-2.65
X6.25Y-2.75
X6.25Y-2.85
X6.25Y-2.95
X6.25Y-3.05
X6.25Y-3.15
X6.25Y-3.25
X6.25Y-3.35
X6.25Y-3.45
T6
X3.975Y-4.65
X4.1719Y-4.65
X6.12Y-3.8963
X6.12Y-4.0931
X6.12Y-4.29
T7
X3.1102Y-1.1811
X3.1102Y-4.7244
X3.14Y-2.54
X3.14Y-3.36
X3.937Y-1.1811
X6.2205Y-1.1811
X6.2205Y-4.7244
T4
X3.3079Y-4.2856G85X3.3079Y-4.3643
G05
X3.3866Y-4.51G85X3.4653Y-4.51
G05
X3.5441Y-4.2856G85X3.5441Y-4.3643
G05
T0
M30
