G04 #@! TF.FileFunction,Copper,L2,Bot,Signal*
%FSLAX46Y46*%
G04 Gerber Fmt 4.6, Leading zero omitted, Abs format (unit mm)*
G04 Created by KiCad (PCBNEW 4.0.2+dfsg1-stable) date 2017년 07월 06일 (목) 오전 10시 53분 42초*
%MOMM*%
G01*
G04 APERTURE LIST*
%ADD10C,0.100000*%
%ADD11R,3.599180X1.600200*%
%ADD12R,1.500000X1.250000*%
%ADD13R,4.500880X3.299460*%
%ADD14R,4.498340X3.299460*%
%ADD15R,1.600200X3.599180*%
%ADD16R,1.727200X2.032000*%
%ADD17O,1.727200X2.032000*%
%ADD18R,1.727200X1.727200*%
%ADD19O,1.727200X1.727200*%
%ADD20R,3.500120X3.500120*%
%ADD21R,2.235200X2.235200*%
%ADD22R,2.500000X2.500000*%
%ADD23C,2.500000*%
%ADD24C,1.524000*%
%ADD25C,1.000760*%
%ADD26C,0.600000*%
%ADD27C,0.250000*%
%ADD28C,1.000000*%
%ADD29C,0.254000*%
G04 APERTURE END LIST*
D10*
D11*
X101643180Y-82169000D03*
X107144820Y-82169000D03*
D12*
X143530000Y-70612000D03*
X146030000Y-70612000D03*
X136926000Y-55880000D03*
X139426000Y-55880000D03*
X136926000Y-60452000D03*
X139426000Y-60452000D03*
X144506000Y-55880000D03*
X142006000Y-55880000D03*
X144506000Y-60452000D03*
X142006000Y-60452000D03*
X136926000Y-58166000D03*
X139426000Y-58166000D03*
X136926000Y-62738000D03*
X139426000Y-62738000D03*
X144506000Y-58166000D03*
X142006000Y-58166000D03*
X144506000Y-62738000D03*
X142006000Y-62738000D03*
X97770000Y-36322000D03*
X95270000Y-36322000D03*
X97770000Y-39624000D03*
X95270000Y-39624000D03*
X92730000Y-42418000D03*
X95230000Y-42418000D03*
D13*
X89997280Y-99568000D03*
D14*
X81198720Y-99568000D03*
D13*
X108031280Y-104902000D03*
D14*
X99232720Y-104902000D03*
D13*
X123779280Y-117475000D03*
D14*
X114980720Y-117475000D03*
D11*
X99865180Y-61214000D03*
X105366820Y-61214000D03*
D15*
X119126000Y-102405180D03*
X119126000Y-107906820D03*
D16*
X125730000Y-38862000D03*
D17*
X123190000Y-38862000D03*
X120650000Y-38862000D03*
X118110000Y-38862000D03*
D16*
X143002000Y-38862000D03*
D17*
X140462000Y-38862000D03*
X137922000Y-38862000D03*
X135382000Y-38862000D03*
X132842000Y-38862000D03*
D18*
X156210000Y-39370000D03*
D19*
X158750000Y-39370000D03*
X156210000Y-41910000D03*
X158750000Y-41910000D03*
X156210000Y-44450000D03*
X158750000Y-44450000D03*
X156210000Y-46990000D03*
X158750000Y-46990000D03*
X156210000Y-49530000D03*
X158750000Y-49530000D03*
X156210000Y-52070000D03*
X158750000Y-52070000D03*
X156210000Y-54610000D03*
X158750000Y-54610000D03*
X156210000Y-57150000D03*
X158750000Y-57150000D03*
X156210000Y-59690000D03*
X158750000Y-59690000D03*
X156210000Y-62230000D03*
X158750000Y-62230000D03*
X156210000Y-64770000D03*
X158750000Y-64770000D03*
X156210000Y-67310000D03*
X158750000Y-67310000D03*
X156210000Y-69850000D03*
X158750000Y-69850000D03*
X156210000Y-72390000D03*
X158750000Y-72390000D03*
X156210000Y-74930000D03*
X158750000Y-74930000D03*
X156210000Y-77470000D03*
X158750000Y-77470000D03*
X156210000Y-80010000D03*
X158750000Y-80010000D03*
X156210000Y-82550000D03*
X158750000Y-82550000D03*
X156210000Y-85090000D03*
X158750000Y-85090000D03*
X156210000Y-87630000D03*
X158750000Y-87630000D03*
D20*
X90020140Y-109855000D03*
X84020660Y-109855000D03*
X87020400Y-114554000D03*
D21*
X92964000Y-119888000D03*
D22*
X100965000Y-118110000D03*
D23*
X105965000Y-118110000D03*
D21*
X79502000Y-78740000D03*
X79502000Y-57912000D03*
D18*
X153130000Y-28730000D03*
D19*
X153130000Y-31270000D03*
X150590000Y-28730000D03*
X150590000Y-31270000D03*
X148050000Y-28730000D03*
X148050000Y-31270000D03*
X145510000Y-28730000D03*
X145510000Y-31270000D03*
X142970000Y-28730000D03*
X142970000Y-31270000D03*
X140430000Y-28730000D03*
X140430000Y-31270000D03*
X137890000Y-28730000D03*
X137890000Y-31270000D03*
X135350000Y-28730000D03*
X135350000Y-31270000D03*
X132810000Y-28730000D03*
X132810000Y-31270000D03*
X130270000Y-28730000D03*
X130270000Y-31270000D03*
X127730000Y-28730000D03*
X127730000Y-31270000D03*
X125190000Y-28730000D03*
X125190000Y-31270000D03*
X122650000Y-28730000D03*
X122650000Y-31270000D03*
X120110000Y-28730000D03*
X120110000Y-31270000D03*
X117570000Y-28730000D03*
X117570000Y-31270000D03*
X115030000Y-28730000D03*
X115030000Y-31270000D03*
X112490000Y-28730000D03*
X112490000Y-31270000D03*
X109950000Y-28730000D03*
X109950000Y-31270000D03*
X107410000Y-28730000D03*
X107410000Y-31270000D03*
X104870000Y-28730000D03*
X104870000Y-31270000D03*
D24*
X85852000Y-29972000D03*
X88352000Y-29972000D03*
X90852000Y-29972000D03*
X93352000Y-29972000D03*
D23*
X155448000Y-98966000D03*
D22*
X155448000Y-108966000D03*
D23*
X155448000Y-103966000D03*
D24*
X142494000Y-119888000D03*
X144994000Y-119888000D03*
X147494000Y-119888000D03*
X149994000Y-119888000D03*
D25*
X127000000Y-49009300D03*
X127000000Y-47510700D03*
D26*
X141224000Y-77724000D03*
X102870000Y-42926000D03*
X120904000Y-63500000D03*
X105410000Y-55880000D03*
X110998000Y-78994000D03*
X121666000Y-110490000D03*
X136144000Y-50800000D03*
X135890000Y-106934000D03*
X140970000Y-107950000D03*
X143002000Y-109982000D03*
X141224000Y-113538000D03*
X148844000Y-55880000D03*
X129794000Y-66548000D03*
X133350000Y-70104000D03*
X134112000Y-66802000D03*
X131318000Y-65024000D03*
X120396000Y-68580000D03*
X136906000Y-67564000D03*
X149098000Y-65786000D03*
X130048000Y-59182000D03*
X137414000Y-90932000D03*
X137160000Y-88392000D03*
X104394000Y-40640000D03*
X106172000Y-43942000D03*
X116840000Y-62230000D03*
X123698000Y-76708000D03*
X129794000Y-75692000D03*
X134620000Y-72898000D03*
X147320000Y-46736000D03*
X147574000Y-55118000D03*
X134762000Y-54102000D03*
X132080000Y-62230000D03*
X137160000Y-69342000D03*
X148336000Y-66802000D03*
X126746000Y-114046000D03*
X124968000Y-101092000D03*
X95504000Y-46990000D03*
X114554000Y-78994000D03*
X122936000Y-91440000D03*
X150622000Y-56134000D03*
X145034000Y-53086000D03*
X152908000Y-58674000D03*
X149352000Y-34290000D03*
X153670000Y-59436000D03*
X87630000Y-39370000D03*
X87630000Y-47244000D03*
X131318000Y-107442000D03*
X136398000Y-66802000D03*
X133604000Y-66040000D03*
X130810000Y-112776000D03*
X130556000Y-110236000D03*
X132842000Y-65532000D03*
X151384000Y-67564000D03*
X140716000Y-90170000D03*
X150368000Y-67818000D03*
X139954000Y-97536000D03*
X115316000Y-46228000D03*
X136652000Y-46990000D03*
X140208000Y-48768000D03*
X115570000Y-43434000D03*
X136906000Y-48006000D03*
X138938000Y-50038000D03*
X146812000Y-67818000D03*
X89408000Y-40132000D03*
X106172000Y-98552000D03*
X99822000Y-57912000D03*
X141986000Y-106426000D03*
X141478000Y-99060000D03*
X104902000Y-89916000D03*
X110998000Y-93472000D03*
X102870000Y-67310000D03*
X106426000Y-72898000D03*
X129540000Y-59944000D03*
X129286000Y-60960000D03*
X94996000Y-99568000D03*
X101600000Y-78486000D03*
D27*
X142494000Y-76454000D02*
X142494000Y-73660000D01*
X141224000Y-77724000D02*
X142494000Y-76454000D01*
X111252000Y-33274000D02*
X111252000Y-33020000D01*
X111252000Y-29972000D02*
X111252000Y-33020000D01*
X111252000Y-29972000D02*
X112490000Y-28734000D01*
X112490000Y-28730000D02*
X112490000Y-28734000D01*
X104870000Y-33274000D02*
X111252000Y-33274000D01*
X111252000Y-33274000D02*
X112522000Y-33274000D01*
X112522000Y-33274000D02*
X118110000Y-38862000D01*
X95230000Y-42418000D02*
X102362000Y-42418000D01*
X102362000Y-42418000D02*
X102870000Y-42926000D01*
X120396000Y-64008000D02*
X120396000Y-68580000D01*
X120904000Y-63500000D02*
X120396000Y-64008000D01*
D28*
X104870000Y-31270000D02*
X104870000Y-33274000D01*
X104870000Y-33274000D02*
X104870000Y-33306000D01*
X93720000Y-34036000D02*
X93352000Y-34404000D01*
X104140000Y-34036000D02*
X93720000Y-34036000D01*
X104870000Y-33306000D02*
X104140000Y-34036000D01*
X93352000Y-29972000D02*
X93352000Y-34404000D01*
X93352000Y-34404000D02*
X95270000Y-36322000D01*
X95270000Y-39624000D02*
X95270000Y-42378000D01*
X95270000Y-42378000D02*
X95230000Y-42418000D01*
X95270000Y-36322000D02*
X95270000Y-39624000D01*
X105366820Y-61214000D02*
X105366820Y-55923180D01*
X105366820Y-55923180D02*
X105410000Y-55880000D01*
X110998000Y-78994000D02*
X107823000Y-82169000D01*
X107823000Y-82169000D02*
X107144820Y-82169000D01*
X84020660Y-109855000D02*
X84020660Y-111554260D01*
X84020660Y-111554260D02*
X87020400Y-114554000D01*
X92964000Y-119888000D02*
X92354400Y-119888000D01*
X92354400Y-119888000D02*
X87020400Y-114554000D01*
X119126000Y-107906820D02*
X119126000Y-107950000D01*
X119126000Y-107950000D02*
X121666000Y-110490000D01*
D27*
X139426000Y-55880000D02*
X139426000Y-54082000D01*
X139426000Y-54082000D02*
X136144000Y-50800000D01*
X140970000Y-107950000D02*
X139954000Y-106934000D01*
X139954000Y-106934000D02*
X135890000Y-106934000D01*
X141986000Y-110998000D02*
X140970000Y-109982000D01*
X140970000Y-109982000D02*
X140970000Y-107950000D01*
X141986000Y-110998000D02*
X143002000Y-109982000D01*
X141986000Y-112776000D02*
X141986000Y-110998000D01*
X141224000Y-113538000D02*
X141986000Y-112776000D01*
X149098000Y-65786000D02*
X149098000Y-56134000D01*
X149098000Y-56134000D02*
X148844000Y-55880000D01*
X133350000Y-67564000D02*
X133350000Y-70104000D01*
X134112000Y-66802000D02*
X133350000Y-67564000D01*
X131318000Y-65024000D02*
X129794000Y-66548000D01*
X129794000Y-66548000D02*
X127762000Y-68580000D01*
X127762000Y-68580000D02*
X120396000Y-68580000D01*
X139426000Y-63520000D02*
X139426000Y-62738000D01*
X138684000Y-64262000D02*
X139426000Y-63520000D01*
X136398000Y-64262000D02*
X138684000Y-64262000D01*
X135636000Y-65024000D02*
X136398000Y-64262000D01*
X135636000Y-67056000D02*
X135636000Y-65024000D01*
X136144000Y-67564000D02*
X135636000Y-67056000D01*
X136906000Y-67564000D02*
X136144000Y-67564000D01*
X142006000Y-62738000D02*
X142006000Y-67544000D01*
X146030000Y-72156000D02*
X146030000Y-70612000D01*
X144526000Y-73660000D02*
X146030000Y-72156000D01*
X142494000Y-73660000D02*
X144526000Y-73660000D01*
X140970000Y-72136000D02*
X142494000Y-73660000D01*
X140970000Y-68580000D02*
X140970000Y-72136000D01*
X142006000Y-67544000D02*
X140970000Y-68580000D01*
X149098000Y-65786000D02*
X149606000Y-66294000D01*
X149606000Y-66294000D02*
X149606000Y-68072000D01*
X149606000Y-68072000D02*
X147066000Y-70612000D01*
X147066000Y-70612000D02*
X146030000Y-70612000D01*
X139426000Y-55880000D02*
X142006000Y-55880000D01*
X139426000Y-60452000D02*
X139426000Y-62738000D01*
X139426000Y-58166000D02*
X139426000Y-60452000D01*
X139426000Y-55880000D02*
X139426000Y-58166000D01*
X142006000Y-62738000D02*
X142006000Y-60452000D01*
X142006000Y-58166000D02*
X142006000Y-60452000D01*
X142006000Y-55880000D02*
X142006000Y-58166000D01*
X130810000Y-38862000D02*
X132842000Y-38862000D01*
X130048000Y-39624000D02*
X130810000Y-38862000D01*
X130048000Y-53086000D02*
X130048000Y-39624000D01*
X130048000Y-59182000D02*
X130048000Y-53086000D01*
X137414000Y-90932000D02*
X137160000Y-90678000D01*
X137160000Y-90678000D02*
X137160000Y-88392000D01*
D28*
X125730000Y-38862000D02*
X125730000Y-41656000D01*
X125730000Y-41656000D02*
X113538000Y-53848000D01*
X113538000Y-53848000D02*
X113538000Y-54102000D01*
X113538000Y-54102000D02*
X113538000Y-53848000D01*
X116840000Y-57150000D02*
X113538000Y-53848000D01*
X116840000Y-62230000D02*
X116840000Y-57150000D01*
X113538000Y-53848000D02*
X106172000Y-46482000D01*
X106172000Y-46482000D02*
X106172000Y-43942000D01*
X103378000Y-39624000D02*
X97770000Y-39624000D01*
X106172000Y-43942000D02*
X106172000Y-42418000D01*
X106172000Y-42418000D02*
X104394000Y-40640000D01*
X104394000Y-40640000D02*
X103378000Y-39624000D01*
X97770000Y-36322000D02*
X97770000Y-39624000D01*
X123698000Y-76708000D02*
X128524000Y-76708000D01*
X128524000Y-76708000D02*
X129540000Y-75692000D01*
X129540000Y-75692000D02*
X129794000Y-75692000D01*
D27*
X137160000Y-69342000D02*
X134874000Y-71628000D01*
X134874000Y-72644000D02*
X134620000Y-72898000D01*
X134874000Y-71628000D02*
X134874000Y-72644000D01*
X147320000Y-46736000D02*
X147574000Y-46990000D01*
X147574000Y-46990000D02*
X147574000Y-55118000D01*
X145522000Y-54864000D02*
X144506000Y-55880000D01*
X147574000Y-55118000D02*
X147320000Y-54864000D01*
X147320000Y-54864000D02*
X145522000Y-54864000D01*
X134762000Y-54102000D02*
X136540000Y-55880000D01*
X136540000Y-55880000D02*
X136926000Y-55880000D01*
X132588000Y-62738000D02*
X136926000Y-62738000D01*
X132080000Y-62230000D02*
X132588000Y-62738000D01*
X135128000Y-64536000D02*
X136926000Y-62738000D01*
X135128000Y-67310000D02*
X135128000Y-64536000D01*
X137160000Y-69342000D02*
X135128000Y-67310000D01*
X148336000Y-66802000D02*
X144506000Y-62972000D01*
X144506000Y-62972000D02*
X144506000Y-62738000D01*
X136926000Y-55880000D02*
X136926000Y-58166000D01*
X136926000Y-58166000D02*
X136926000Y-60452000D01*
X136926000Y-62738000D02*
X136926000Y-60452000D01*
X144506000Y-60452000D02*
X144506000Y-62738000D01*
X144506000Y-58166000D02*
X144506000Y-60452000D01*
X144506000Y-55880000D02*
X144506000Y-58166000D01*
D28*
X126746000Y-114046000D02*
X126746000Y-102870000D01*
X126746000Y-102870000D02*
X124968000Y-101092000D01*
X123779280Y-117475000D02*
X123779280Y-117012720D01*
X123779280Y-117012720D02*
X126746000Y-114046000D01*
X119126000Y-102405180D02*
X123654820Y-102405180D01*
X123654820Y-102405180D02*
X124968000Y-101092000D01*
D27*
X95758000Y-47244000D02*
X95758000Y-52832000D01*
X95504000Y-46990000D02*
X95758000Y-47244000D01*
D28*
X114554000Y-78994000D02*
X114554000Y-61468000D01*
X150590000Y-26384000D02*
X150114000Y-25908000D01*
X150114000Y-25908000D02*
X85090000Y-25908000D01*
X150590000Y-26384000D02*
X150590000Y-28730000D01*
X84328000Y-25908000D02*
X85090000Y-25908000D01*
X83058000Y-27178000D02*
X84328000Y-25908000D01*
X83058000Y-33020000D02*
X83058000Y-27178000D01*
X78486000Y-37592000D02*
X83058000Y-33020000D01*
X78486000Y-47498000D02*
X78486000Y-37592000D01*
X83820000Y-52832000D02*
X78486000Y-47498000D01*
X105918000Y-52832000D02*
X95758000Y-52832000D01*
X95758000Y-52832000D02*
X83820000Y-52832000D01*
X114554000Y-61468000D02*
X105918000Y-52832000D01*
X114554000Y-83058000D02*
X114554000Y-78994000D01*
X122936000Y-91440000D02*
X114554000Y-83058000D01*
X153130000Y-28730000D02*
X150590000Y-28730000D01*
X90020140Y-109855000D02*
X90020140Y-107546140D01*
X81198720Y-101772720D02*
X81198720Y-99568000D01*
X83820000Y-104394000D02*
X81198720Y-101772720D01*
X86868000Y-104394000D02*
X83820000Y-104394000D01*
X90020140Y-107546140D02*
X86868000Y-104394000D01*
X114980720Y-117475000D02*
X114935000Y-117475000D01*
X114935000Y-117475000D02*
X110236000Y-112776000D01*
X110236000Y-112776000D02*
X103124000Y-112776000D01*
X103124000Y-112776000D02*
X100965000Y-114935000D01*
X100965000Y-114935000D02*
X100965000Y-118110000D01*
X94615000Y-109855000D02*
X94615000Y-111760000D01*
X94615000Y-111760000D02*
X100965000Y-118110000D01*
X99232720Y-104902000D02*
X99232720Y-105237280D01*
X99232720Y-105237280D02*
X94615000Y-109855000D01*
X94615000Y-109855000D02*
X90020140Y-109855000D01*
D27*
X140462000Y-40640000D02*
X140462000Y-38862000D01*
X142494000Y-42672000D02*
X140462000Y-40640000D01*
X146304000Y-42672000D02*
X142494000Y-42672000D01*
X150622000Y-46990000D02*
X146304000Y-42672000D01*
X150622000Y-56134000D02*
X150622000Y-46990000D01*
X145034000Y-53086000D02*
X143510000Y-51562000D01*
X143510000Y-51562000D02*
X143510000Y-45720000D01*
X143510000Y-45720000D02*
X139446000Y-41656000D01*
X139446000Y-41656000D02*
X136906000Y-41656000D01*
X136906000Y-41656000D02*
X135382000Y-40132000D01*
X135382000Y-40132000D02*
X135382000Y-38862000D01*
X146812000Y-30032000D02*
X145510000Y-28730000D01*
X146812000Y-33782000D02*
X146812000Y-30032000D01*
X148590000Y-35560000D02*
X146812000Y-33782000D01*
X148590000Y-43688000D02*
X148590000Y-35560000D01*
X152908000Y-48006000D02*
X148590000Y-43688000D01*
X152908000Y-56896000D02*
X152908000Y-48006000D01*
X152908000Y-58674000D02*
X152908000Y-56896000D01*
X153670000Y-59436000D02*
X153670000Y-55626000D01*
X153670000Y-55626000D02*
X153670000Y-47752000D01*
X153670000Y-47752000D02*
X149352000Y-43434000D01*
X149352000Y-43434000D02*
X149352000Y-34290000D01*
X87630000Y-43180000D02*
X87630000Y-39370000D01*
X87630000Y-47244000D02*
X87630000Y-43180000D01*
X130302000Y-106426000D02*
X131318000Y-107442000D01*
X130302000Y-79756000D02*
X130302000Y-106426000D01*
X138430000Y-71628000D02*
X130302000Y-79756000D01*
X138430000Y-67564000D02*
X138430000Y-71628000D01*
X137668000Y-66802000D02*
X138430000Y-67564000D01*
X136398000Y-66802000D02*
X137668000Y-66802000D01*
X133604000Y-66040000D02*
X132588000Y-67056000D01*
X132588000Y-67056000D02*
X132588000Y-76708000D01*
X132588000Y-76708000D02*
X129736002Y-79559998D01*
X129736002Y-79559998D02*
X129736002Y-108146002D01*
X129736002Y-108146002D02*
X131318000Y-109728000D01*
X131318000Y-109728000D02*
X131318000Y-112268000D01*
X131318000Y-112268000D02*
X130810000Y-112776000D01*
X129286000Y-108966000D02*
X130556000Y-110236000D01*
X129286000Y-79248000D02*
X129286000Y-108966000D01*
X131826000Y-76708000D02*
X129286000Y-79248000D01*
X131826000Y-66548000D02*
X131826000Y-76708000D01*
X132842000Y-65532000D02*
X131826000Y-66548000D01*
X140462000Y-89916000D02*
X140716000Y-90170000D01*
X140462000Y-85852000D02*
X140462000Y-89916000D01*
X151384000Y-74930000D02*
X140462000Y-85852000D01*
X151384000Y-69596000D02*
X151384000Y-74930000D01*
X151384000Y-67564000D02*
X151384000Y-69596000D01*
X139446000Y-97028000D02*
X139954000Y-97536000D01*
X139446000Y-84328000D02*
X139446000Y-97028000D01*
X150368000Y-73406000D02*
X139446000Y-84328000D01*
X150368000Y-67818000D02*
X150368000Y-73406000D01*
X123190000Y-38862000D02*
X123190000Y-40132000D01*
X115824000Y-45720000D02*
X115316000Y-46228000D01*
X117602000Y-45720000D02*
X115824000Y-45720000D01*
X123190000Y-40132000D02*
X117602000Y-45720000D01*
X138430000Y-46990000D02*
X136652000Y-46990000D01*
X140208000Y-48768000D02*
X138430000Y-46990000D01*
X120650000Y-38862000D02*
X120650000Y-40132000D01*
X117348000Y-43434000D02*
X115570000Y-43434000D01*
X120650000Y-40132000D02*
X117348000Y-43434000D01*
X138938000Y-50038000D02*
X136906000Y-48006000D01*
X143530000Y-70612000D02*
X143530000Y-70084000D01*
X143530000Y-70084000D02*
X145796000Y-67818000D01*
X145796000Y-67818000D02*
X146812000Y-67818000D01*
X92730000Y-42418000D02*
X91694000Y-42418000D01*
X91694000Y-42418000D02*
X89408000Y-40132000D01*
D28*
X99865180Y-61214000D02*
X99865180Y-61257180D01*
X99865180Y-61257180D02*
X103632000Y-65024000D01*
X112776000Y-99314000D02*
X108031280Y-104058720D01*
X112776000Y-70358000D02*
X112776000Y-99314000D01*
X107442000Y-65024000D02*
X112776000Y-70358000D01*
X103632000Y-65024000D02*
X107442000Y-65024000D01*
X108031280Y-104058720D02*
X108031280Y-104902000D01*
X108031280Y-100411280D02*
X108031280Y-104902000D01*
X106172000Y-98552000D02*
X108031280Y-100411280D01*
X99865180Y-57955180D02*
X99865180Y-61214000D01*
X99822000Y-57912000D02*
X99865180Y-57955180D01*
D27*
X140970000Y-105410000D02*
X141986000Y-106426000D01*
X140970000Y-99568000D02*
X140970000Y-105410000D01*
X141478000Y-99060000D02*
X140970000Y-99568000D01*
D28*
X107442000Y-89916000D02*
X104902000Y-89916000D01*
X110998000Y-93472000D02*
X107442000Y-89916000D01*
X102870000Y-69342000D02*
X102870000Y-67310000D01*
X106426000Y-72898000D02*
X102870000Y-69342000D01*
D27*
X129540000Y-59944000D02*
X129286000Y-59690000D01*
X129286000Y-59690000D02*
X129286000Y-35814000D01*
X129286000Y-35814000D02*
X129032000Y-35560000D01*
X129032000Y-35560000D02*
X129032000Y-30032000D01*
X127730000Y-28730000D02*
X129032000Y-30032000D01*
X128778000Y-60198000D02*
X128778000Y-59182000D01*
X126492000Y-29972000D02*
X125250000Y-28730000D01*
X126492000Y-29972000D02*
X126492000Y-30226000D01*
X126492000Y-34798000D02*
X126492000Y-30226000D01*
X128778000Y-37084000D02*
X126492000Y-34798000D01*
X128778000Y-59182000D02*
X128778000Y-58674000D01*
X128778000Y-58674000D02*
X128778000Y-37084000D01*
X128778000Y-60452000D02*
X128778000Y-60198000D01*
X129286000Y-60960000D02*
X128778000Y-60452000D01*
X125190000Y-28730000D02*
X125250000Y-28730000D01*
D28*
X89997280Y-99568000D02*
X94996000Y-99568000D01*
X94996000Y-99568000D02*
X97282000Y-99568000D01*
X101643180Y-95206820D02*
X97363280Y-99486720D01*
X101643180Y-95206820D02*
X101643180Y-82169000D01*
X97282000Y-99568000D02*
X97363280Y-99486720D01*
X89997280Y-99232720D02*
X89997280Y-99568000D01*
X101643180Y-82169000D02*
X101643180Y-78529180D01*
X101643180Y-78529180D02*
X101600000Y-78486000D01*
D29*
G36*
X149455000Y-27753710D02*
X149320000Y-27955752D01*
X149109670Y-27640971D01*
X148623489Y-27316115D01*
X148050000Y-27202041D01*
X147476511Y-27316115D01*
X146990330Y-27640971D01*
X146780000Y-27955752D01*
X146569670Y-27640971D01*
X146083489Y-27316115D01*
X145510000Y-27202041D01*
X144936511Y-27316115D01*
X144450330Y-27640971D01*
X144240000Y-27955752D01*
X144029670Y-27640971D01*
X143543489Y-27316115D01*
X142970000Y-27202041D01*
X142396511Y-27316115D01*
X141910330Y-27640971D01*
X141700000Y-27955752D01*
X141489670Y-27640971D01*
X141003489Y-27316115D01*
X140430000Y-27202041D01*
X139856511Y-27316115D01*
X139370330Y-27640971D01*
X139160000Y-27955752D01*
X138949670Y-27640971D01*
X138463489Y-27316115D01*
X137890000Y-27202041D01*
X137316511Y-27316115D01*
X136830330Y-27640971D01*
X136620000Y-27955752D01*
X136409670Y-27640971D01*
X135923489Y-27316115D01*
X135350000Y-27202041D01*
X134776511Y-27316115D01*
X134290330Y-27640971D01*
X134080000Y-27955752D01*
X133869670Y-27640971D01*
X133383489Y-27316115D01*
X132810000Y-27202041D01*
X132236511Y-27316115D01*
X131750330Y-27640971D01*
X131540000Y-27955752D01*
X131329670Y-27640971D01*
X130843489Y-27316115D01*
X130270000Y-27202041D01*
X129696511Y-27316115D01*
X129210330Y-27640971D01*
X129000000Y-27955752D01*
X128789670Y-27640971D01*
X128303489Y-27316115D01*
X127730000Y-27202041D01*
X127156511Y-27316115D01*
X126670330Y-27640971D01*
X126460000Y-27955752D01*
X126249670Y-27640971D01*
X125763489Y-27316115D01*
X125190000Y-27202041D01*
X124616511Y-27316115D01*
X124130330Y-27640971D01*
X123920000Y-27955752D01*
X123709670Y-27640971D01*
X123223489Y-27316115D01*
X122650000Y-27202041D01*
X122076511Y-27316115D01*
X121590330Y-27640971D01*
X121380000Y-27955752D01*
X121169670Y-27640971D01*
X120683489Y-27316115D01*
X120110000Y-27202041D01*
X119536511Y-27316115D01*
X119050330Y-27640971D01*
X118840000Y-27955752D01*
X118629670Y-27640971D01*
X118143489Y-27316115D01*
X117570000Y-27202041D01*
X116996511Y-27316115D01*
X116510330Y-27640971D01*
X116300000Y-27955752D01*
X116089670Y-27640971D01*
X115603489Y-27316115D01*
X115030000Y-27202041D01*
X114456511Y-27316115D01*
X113970330Y-27640971D01*
X113754336Y-27964228D01*
X113696821Y-27841510D01*
X113264947Y-27447312D01*
X112849026Y-27275042D01*
X112617000Y-27396183D01*
X112617000Y-28603000D01*
X112637000Y-28603000D01*
X112637000Y-28857000D01*
X112617000Y-28857000D01*
X112617000Y-28877000D01*
X112363000Y-28877000D01*
X112363000Y-28857000D01*
X112343000Y-28857000D01*
X112343000Y-28603000D01*
X112363000Y-28603000D01*
X112363000Y-27396183D01*
X112130974Y-27275042D01*
X111715053Y-27447312D01*
X111283179Y-27841510D01*
X111225664Y-27964228D01*
X111009670Y-27640971D01*
X110523489Y-27316115D01*
X109950000Y-27202041D01*
X109376511Y-27316115D01*
X108890330Y-27640971D01*
X108680000Y-27955752D01*
X108469670Y-27640971D01*
X107983489Y-27316115D01*
X107410000Y-27202041D01*
X106836511Y-27316115D01*
X106350330Y-27640971D01*
X106140000Y-27955752D01*
X105929670Y-27640971D01*
X105443489Y-27316115D01*
X104870000Y-27202041D01*
X104296511Y-27316115D01*
X103810330Y-27640971D01*
X103485474Y-28127152D01*
X103371400Y-28700641D01*
X103371400Y-28759359D01*
X103485474Y-29332848D01*
X103810330Y-29819029D01*
X104081161Y-29999992D01*
X103663179Y-30381510D01*
X103415032Y-30910973D01*
X103535531Y-31143000D01*
X104743000Y-31143000D01*
X104743000Y-31123000D01*
X104997000Y-31123000D01*
X104997000Y-31143000D01*
X105017000Y-31143000D01*
X105017000Y-31397000D01*
X104997000Y-31397000D01*
X104997000Y-32603817D01*
X105229026Y-32724958D01*
X105644947Y-32552688D01*
X106076821Y-32158490D01*
X106134336Y-32035772D01*
X106350330Y-32359029D01*
X106836511Y-32683885D01*
X107410000Y-32797959D01*
X107983489Y-32683885D01*
X108469670Y-32359029D01*
X108680000Y-32044248D01*
X108890330Y-32359029D01*
X109376511Y-32683885D01*
X109950000Y-32797959D01*
X110523489Y-32683885D01*
X111009670Y-32359029D01*
X111220000Y-32044248D01*
X111430330Y-32359029D01*
X111916511Y-32683885D01*
X112490000Y-32797959D01*
X113063489Y-32683885D01*
X113549670Y-32359029D01*
X113760000Y-32044248D01*
X113970330Y-32359029D01*
X114456511Y-32683885D01*
X115030000Y-32797959D01*
X115603489Y-32683885D01*
X116089670Y-32359029D01*
X116300000Y-32044248D01*
X116510330Y-32359029D01*
X116996511Y-32683885D01*
X117570000Y-32797959D01*
X118143489Y-32683885D01*
X118629670Y-32359029D01*
X118840000Y-32044248D01*
X119050330Y-32359029D01*
X119536511Y-32683885D01*
X120110000Y-32797959D01*
X120683489Y-32683885D01*
X121169670Y-32359029D01*
X121380000Y-32044248D01*
X121590330Y-32359029D01*
X122076511Y-32683885D01*
X122650000Y-32797959D01*
X123223489Y-32683885D01*
X123709670Y-32359029D01*
X123920000Y-32044248D01*
X124130330Y-32359029D01*
X124616511Y-32683885D01*
X125190000Y-32797959D01*
X125732000Y-32690149D01*
X125732000Y-34798000D01*
X125789852Y-35088839D01*
X125954599Y-35335401D01*
X128018000Y-37398802D01*
X128018000Y-47001294D01*
X127963089Y-46868399D01*
X127643981Y-46548733D01*
X127226832Y-46375518D01*
X126775150Y-46375124D01*
X126357699Y-46547611D01*
X126038033Y-46866719D01*
X125864818Y-47283868D01*
X125864424Y-47735550D01*
X126036911Y-48153001D01*
X126143630Y-48259906D01*
X126038033Y-48365319D01*
X125864818Y-48782468D01*
X125864424Y-49234150D01*
X126036911Y-49651601D01*
X126356019Y-49971267D01*
X126773168Y-50144482D01*
X127224850Y-50144876D01*
X127642301Y-49972389D01*
X127961967Y-49653281D01*
X128018000Y-49518338D01*
X128018000Y-60452000D01*
X128075852Y-60742839D01*
X128240599Y-60989401D01*
X128350878Y-61099680D01*
X128350838Y-61145167D01*
X128492883Y-61488943D01*
X128755673Y-61752192D01*
X129099201Y-61894838D01*
X129471167Y-61895162D01*
X129814943Y-61753117D01*
X130078192Y-61490327D01*
X130220838Y-61146799D01*
X130221162Y-60774833D01*
X130165678Y-60640551D01*
X130332192Y-60474327D01*
X130474838Y-60130799D01*
X130474937Y-60017265D01*
X130576943Y-59975117D01*
X130840192Y-59712327D01*
X130982838Y-59368799D01*
X130983162Y-58996833D01*
X130841117Y-58653057D01*
X130808000Y-58619882D01*
X130808000Y-47175167D01*
X135716838Y-47175167D01*
X135858883Y-47518943D01*
X136026230Y-47686583D01*
X135971162Y-47819201D01*
X135970838Y-48191167D01*
X136112883Y-48534943D01*
X136375673Y-48798192D01*
X136719201Y-48940838D01*
X136766077Y-48940879D01*
X138002878Y-50177680D01*
X138002838Y-50223167D01*
X138144883Y-50566943D01*
X138407673Y-50830192D01*
X138751201Y-50972838D01*
X139123167Y-50973162D01*
X139466943Y-50831117D01*
X139730192Y-50568327D01*
X139872838Y-50224799D01*
X139873162Y-49852833D01*
X139767690Y-49597570D01*
X140021201Y-49702838D01*
X140393167Y-49703162D01*
X140736943Y-49561117D01*
X141000192Y-49298327D01*
X141142838Y-48954799D01*
X141143162Y-48582833D01*
X141001117Y-48239057D01*
X140738327Y-47975808D01*
X140394799Y-47833162D01*
X140347923Y-47833121D01*
X138967401Y-46452599D01*
X138720839Y-46287852D01*
X138430000Y-46230000D01*
X137214463Y-46230000D01*
X137182327Y-46197808D01*
X136838799Y-46055162D01*
X136466833Y-46054838D01*
X136123057Y-46196883D01*
X135859808Y-46459673D01*
X135717162Y-46803201D01*
X135716838Y-47175167D01*
X130808000Y-47175167D01*
X130808000Y-39938802D01*
X131124802Y-39622000D01*
X131458654Y-39622000D01*
X131782330Y-40106415D01*
X132268511Y-40431271D01*
X132842000Y-40545345D01*
X133415489Y-40431271D01*
X133901670Y-40106415D01*
X134112000Y-39791634D01*
X134322330Y-40106415D01*
X134662065Y-40333419D01*
X134679852Y-40422839D01*
X134844599Y-40669401D01*
X136368599Y-42193401D01*
X136615160Y-42358148D01*
X136663414Y-42367746D01*
X136906000Y-42416000D01*
X139131198Y-42416000D01*
X142750000Y-46034802D01*
X142750000Y-51562000D01*
X142807852Y-51852839D01*
X142972599Y-52099401D01*
X144098878Y-53225680D01*
X144098838Y-53271167D01*
X144240883Y-53614943D01*
X144503673Y-53878192D01*
X144847201Y-54020838D01*
X145219167Y-54021162D01*
X145562943Y-53879117D01*
X145826192Y-53616327D01*
X145968838Y-53272799D01*
X145969162Y-52900833D01*
X145827117Y-52557057D01*
X145564327Y-52293808D01*
X145220799Y-52151162D01*
X145173923Y-52151121D01*
X144270000Y-51247198D01*
X144270000Y-45720000D01*
X144212148Y-45429161D01*
X144047401Y-45182599D01*
X142247837Y-43383035D01*
X142494000Y-43432000D01*
X145989198Y-43432000D01*
X149862000Y-47304802D01*
X149862000Y-55571537D01*
X149829808Y-55603673D01*
X149687162Y-55947201D01*
X149686838Y-56319167D01*
X149828883Y-56662943D01*
X150091673Y-56926192D01*
X150435201Y-57068838D01*
X150807167Y-57069162D01*
X151150943Y-56927117D01*
X151414192Y-56664327D01*
X151556838Y-56320799D01*
X151557162Y-55948833D01*
X151415117Y-55605057D01*
X151382000Y-55571882D01*
X151382000Y-47554802D01*
X152148000Y-48320802D01*
X152148000Y-58111537D01*
X152115808Y-58143673D01*
X151973162Y-58487201D01*
X151972838Y-58859167D01*
X152114883Y-59202943D01*
X152377673Y-59466192D01*
X152721201Y-59608838D01*
X152734849Y-59608850D01*
X152734838Y-59621167D01*
X152876883Y-59964943D01*
X153139673Y-60228192D01*
X153483201Y-60370838D01*
X153855167Y-60371162D01*
X154198943Y-60229117D01*
X154462192Y-59966327D01*
X154604838Y-59622799D01*
X154605162Y-59250833D01*
X154463117Y-58907057D01*
X154430000Y-58873882D01*
X154430000Y-47752000D01*
X154372148Y-47461161D01*
X154207401Y-47214599D01*
X150112000Y-43119198D01*
X150112000Y-34852463D01*
X150144192Y-34820327D01*
X150286838Y-34476799D01*
X150287162Y-34104833D01*
X150145117Y-33761057D01*
X149882327Y-33497808D01*
X149538799Y-33355162D01*
X149166833Y-33354838D01*
X148823057Y-33496883D01*
X148559808Y-33759673D01*
X148417162Y-34103201D01*
X148416980Y-34312178D01*
X147572000Y-33467198D01*
X147572000Y-32702879D01*
X148050000Y-32797959D01*
X148623489Y-32683885D01*
X149109670Y-32359029D01*
X149320000Y-32044248D01*
X149530330Y-32359029D01*
X150016511Y-32683885D01*
X150590000Y-32797959D01*
X151163489Y-32683885D01*
X151649670Y-32359029D01*
X151860000Y-32044248D01*
X152070330Y-32359029D01*
X152556511Y-32683885D01*
X153130000Y-32797959D01*
X153703489Y-32683885D01*
X154189670Y-32359029D01*
X154514526Y-31872848D01*
X154575700Y-31565306D01*
X159893000Y-36882606D01*
X159893000Y-38391103D01*
X159839029Y-38310330D01*
X159352848Y-37985474D01*
X158779359Y-37871400D01*
X158720641Y-37871400D01*
X158147152Y-37985474D01*
X157681558Y-38296574D01*
X157676762Y-38271083D01*
X157537690Y-38054959D01*
X157325490Y-37909969D01*
X157073600Y-37858960D01*
X155346400Y-37858960D01*
X155111083Y-37903238D01*
X154894959Y-38042310D01*
X154749969Y-38254510D01*
X154698960Y-38506400D01*
X154698960Y-40233600D01*
X154743238Y-40468917D01*
X154882310Y-40685041D01*
X155094510Y-40830031D01*
X155138131Y-40838864D01*
X155120971Y-40850330D01*
X154796115Y-41336511D01*
X154682041Y-41910000D01*
X154796115Y-42483489D01*
X155120971Y-42969670D01*
X155435752Y-43180000D01*
X155120971Y-43390330D01*
X154796115Y-43876511D01*
X154682041Y-44450000D01*
X154796115Y-45023489D01*
X155120971Y-45509670D01*
X155435752Y-45720000D01*
X155120971Y-45930330D01*
X154796115Y-46416511D01*
X154682041Y-46990000D01*
X154796115Y-47563489D01*
X155120971Y-48049670D01*
X155435752Y-48260000D01*
X155120971Y-48470330D01*
X154796115Y-48956511D01*
X154682041Y-49530000D01*
X154796115Y-50103489D01*
X155120971Y-50589670D01*
X155435752Y-50800000D01*
X155120971Y-51010330D01*
X154796115Y-51496511D01*
X154682041Y-52070000D01*
X154796115Y-52643489D01*
X155120971Y-53129670D01*
X155435752Y-53340000D01*
X155120971Y-53550330D01*
X154796115Y-54036511D01*
X154682041Y-54610000D01*
X154796115Y-55183489D01*
X155120971Y-55669670D01*
X155435752Y-55880000D01*
X155120971Y-56090330D01*
X154796115Y-56576511D01*
X154682041Y-57150000D01*
X154796115Y-57723489D01*
X155120971Y-58209670D01*
X155435752Y-58420000D01*
X155120971Y-58630330D01*
X154796115Y-59116511D01*
X154682041Y-59690000D01*
X154796115Y-60263489D01*
X155120971Y-60749670D01*
X155435752Y-60960000D01*
X155120971Y-61170330D01*
X154796115Y-61656511D01*
X154682041Y-62230000D01*
X154796115Y-62803489D01*
X155120971Y-63289670D01*
X155435752Y-63500000D01*
X155120971Y-63710330D01*
X154796115Y-64196511D01*
X154682041Y-64770000D01*
X154796115Y-65343489D01*
X155120971Y-65829670D01*
X155435752Y-66040000D01*
X155120971Y-66250330D01*
X154796115Y-66736511D01*
X154682041Y-67310000D01*
X154796115Y-67883489D01*
X155120971Y-68369670D01*
X155435752Y-68580000D01*
X155120971Y-68790330D01*
X154796115Y-69276511D01*
X154682041Y-69850000D01*
X154796115Y-70423489D01*
X155120971Y-70909670D01*
X155435752Y-71120000D01*
X155120971Y-71330330D01*
X154796115Y-71816511D01*
X154682041Y-72390000D01*
X154796115Y-72963489D01*
X155120971Y-73449670D01*
X155435752Y-73660000D01*
X155120971Y-73870330D01*
X154796115Y-74356511D01*
X154682041Y-74930000D01*
X154796115Y-75503489D01*
X155120971Y-75989670D01*
X155435752Y-76200000D01*
X155120971Y-76410330D01*
X154796115Y-76896511D01*
X154682041Y-77470000D01*
X154796115Y-78043489D01*
X155120971Y-78529670D01*
X155435752Y-78740000D01*
X155120971Y-78950330D01*
X154796115Y-79436511D01*
X154682041Y-80010000D01*
X154796115Y-80583489D01*
X155120971Y-81069670D01*
X155435752Y-81280000D01*
X155120971Y-81490330D01*
X154796115Y-81976511D01*
X154682041Y-82550000D01*
X154796115Y-83123489D01*
X155120971Y-83609670D01*
X155435752Y-83820000D01*
X155120971Y-84030330D01*
X154796115Y-84516511D01*
X154682041Y-85090000D01*
X154796115Y-85663489D01*
X155120971Y-86149670D01*
X155444228Y-86365664D01*
X155321510Y-86423179D01*
X154927312Y-86855053D01*
X154755042Y-87270974D01*
X154876183Y-87503000D01*
X156083000Y-87503000D01*
X156083000Y-87483000D01*
X156337000Y-87483000D01*
X156337000Y-87503000D01*
X158623000Y-87503000D01*
X158623000Y-87483000D01*
X158877000Y-87483000D01*
X158877000Y-87503000D01*
X158897000Y-87503000D01*
X158897000Y-87757000D01*
X158877000Y-87757000D01*
X158877000Y-88964469D01*
X159109027Y-89084968D01*
X159638490Y-88836821D01*
X159893000Y-88557986D01*
X159893000Y-110437394D01*
X152982394Y-117348000D01*
X142240000Y-117348000D01*
X142190590Y-117358006D01*
X142150197Y-117385197D01*
X139012394Y-120523000D01*
X133397718Y-120523000D01*
X128397000Y-116147372D01*
X128397000Y-97790000D01*
X128386994Y-97740590D01*
X128359803Y-97700197D01*
X127089803Y-96430197D01*
X127047789Y-96402334D01*
X127000000Y-96393000D01*
X114352606Y-96393000D01*
X113911000Y-95951394D01*
X113911000Y-84020132D01*
X122133434Y-92242566D01*
X122501655Y-92488603D01*
X122936000Y-92575000D01*
X123370345Y-92488603D01*
X123738566Y-92242566D01*
X123984603Y-91874345D01*
X124071000Y-91440000D01*
X123984603Y-91005655D01*
X123738566Y-90637434D01*
X115689000Y-82587868D01*
X115689000Y-79248000D01*
X128526000Y-79248000D01*
X128526000Y-108966000D01*
X128583852Y-109256839D01*
X128748599Y-109503401D01*
X129620878Y-110375680D01*
X129620838Y-110421167D01*
X129762883Y-110764943D01*
X130025673Y-111028192D01*
X130369201Y-111170838D01*
X130558000Y-111171002D01*
X130558000Y-111868453D01*
X130281057Y-111982883D01*
X130017808Y-112245673D01*
X129875162Y-112589201D01*
X129874838Y-112961167D01*
X130016883Y-113304943D01*
X130279673Y-113568192D01*
X130623201Y-113710838D01*
X130995167Y-113711162D01*
X131338943Y-113569117D01*
X131602192Y-113306327D01*
X131744838Y-112962799D01*
X131744879Y-112915923D01*
X131855401Y-112805401D01*
X131875046Y-112776000D01*
X132020148Y-112558839D01*
X132078000Y-112268000D01*
X132078000Y-109728000D01*
X132020148Y-109437161D01*
X131855401Y-109190599D01*
X130978043Y-108313241D01*
X131131201Y-108376838D01*
X131503167Y-108377162D01*
X131846943Y-108235117D01*
X132110192Y-107972327D01*
X132216628Y-107716000D01*
X153550560Y-107716000D01*
X153550560Y-110216000D01*
X153594838Y-110451317D01*
X153733910Y-110667441D01*
X153946110Y-110812431D01*
X154198000Y-110863440D01*
X156698000Y-110863440D01*
X156933317Y-110819162D01*
X157149441Y-110680090D01*
X157294431Y-110467890D01*
X157345440Y-110216000D01*
X157345440Y-107716000D01*
X157301162Y-107480683D01*
X157162090Y-107264559D01*
X156949890Y-107119569D01*
X156698000Y-107068560D01*
X154198000Y-107068560D01*
X153962683Y-107112838D01*
X153746559Y-107251910D01*
X153601569Y-107464110D01*
X153550560Y-107716000D01*
X132216628Y-107716000D01*
X132252838Y-107628799D01*
X132253162Y-107256833D01*
X132111117Y-106913057D01*
X131848327Y-106649808D01*
X131504799Y-106507162D01*
X131457923Y-106507121D01*
X131062000Y-106111198D01*
X131062000Y-99568000D01*
X140210000Y-99568000D01*
X140210000Y-105410000D01*
X140267852Y-105700839D01*
X140432599Y-105947401D01*
X141050878Y-106565680D01*
X141050838Y-106611167D01*
X141192883Y-106954943D01*
X141455673Y-107218192D01*
X141799201Y-107360838D01*
X142171167Y-107361162D01*
X142514943Y-107219117D01*
X142778192Y-106956327D01*
X142920838Y-106612799D01*
X142921162Y-106240833D01*
X142779117Y-105897057D01*
X142516327Y-105633808D01*
X142172799Y-105491162D01*
X142125923Y-105491121D01*
X141730000Y-105095198D01*
X141730000Y-104339305D01*
X153562674Y-104339305D01*
X153849043Y-105032372D01*
X154378839Y-105563093D01*
X155071405Y-105850672D01*
X155821305Y-105851326D01*
X156514372Y-105564957D01*
X157045093Y-105035161D01*
X157332672Y-104342595D01*
X157333326Y-103592695D01*
X157046957Y-102899628D01*
X156517161Y-102368907D01*
X155824595Y-102081328D01*
X155074695Y-102080674D01*
X154381628Y-102367043D01*
X153850907Y-102896839D01*
X153563328Y-103589405D01*
X153562674Y-104339305D01*
X141730000Y-104339305D01*
X141730000Y-100299320D01*
X154294285Y-100299320D01*
X154423533Y-100592123D01*
X155123806Y-100860388D01*
X155873435Y-100840250D01*
X156472467Y-100592123D01*
X156601715Y-100299320D01*
X155448000Y-99145605D01*
X154294285Y-100299320D01*
X141730000Y-100299320D01*
X141730000Y-99967547D01*
X142006943Y-99853117D01*
X142270192Y-99590327D01*
X142412838Y-99246799D01*
X142413162Y-98874833D01*
X142316878Y-98641806D01*
X153553612Y-98641806D01*
X153573750Y-99391435D01*
X153821877Y-99990467D01*
X154114680Y-100119715D01*
X155268395Y-98966000D01*
X155627605Y-98966000D01*
X156781320Y-100119715D01*
X157074123Y-99990467D01*
X157342388Y-99290194D01*
X157322250Y-98540565D01*
X157074123Y-97941533D01*
X156781320Y-97812285D01*
X155627605Y-98966000D01*
X155268395Y-98966000D01*
X154114680Y-97812285D01*
X153821877Y-97941533D01*
X153553612Y-98641806D01*
X142316878Y-98641806D01*
X142271117Y-98531057D01*
X142008327Y-98267808D01*
X141664799Y-98125162D01*
X141292833Y-98124838D01*
X140949057Y-98266883D01*
X140685808Y-98529673D01*
X140543162Y-98873201D01*
X140543121Y-98920077D01*
X140432599Y-99030599D01*
X140267852Y-99277161D01*
X140210000Y-99568000D01*
X131062000Y-99568000D01*
X131062000Y-88577167D01*
X136224838Y-88577167D01*
X136366883Y-88920943D01*
X136400000Y-88954118D01*
X136400000Y-90678000D01*
X136457852Y-90968839D01*
X136478940Y-91000399D01*
X136478838Y-91117167D01*
X136620883Y-91460943D01*
X136883673Y-91724192D01*
X137227201Y-91866838D01*
X137599167Y-91867162D01*
X137942943Y-91725117D01*
X138206192Y-91462327D01*
X138348838Y-91118799D01*
X138349162Y-90746833D01*
X138207117Y-90403057D01*
X137944327Y-90139808D01*
X137920000Y-90129706D01*
X137920000Y-88954463D01*
X137952192Y-88922327D01*
X138094838Y-88578799D01*
X138095162Y-88206833D01*
X137953117Y-87863057D01*
X137690327Y-87599808D01*
X137346799Y-87457162D01*
X136974833Y-87456838D01*
X136631057Y-87598883D01*
X136367808Y-87861673D01*
X136225162Y-88205201D01*
X136224838Y-88577167D01*
X131062000Y-88577167D01*
X131062000Y-84328000D01*
X138686000Y-84328000D01*
X138686000Y-97028000D01*
X138743852Y-97318839D01*
X138908599Y-97565401D01*
X139018878Y-97675680D01*
X139018838Y-97721167D01*
X139160883Y-98064943D01*
X139423673Y-98328192D01*
X139767201Y-98470838D01*
X140139167Y-98471162D01*
X140482943Y-98329117D01*
X140746192Y-98066327D01*
X140888838Y-97722799D01*
X140888916Y-97632680D01*
X154294285Y-97632680D01*
X155448000Y-98786395D01*
X156601715Y-97632680D01*
X156472467Y-97339877D01*
X155772194Y-97071612D01*
X155022565Y-97091750D01*
X154423533Y-97339877D01*
X154294285Y-97632680D01*
X140888916Y-97632680D01*
X140889162Y-97350833D01*
X140747117Y-97007057D01*
X140484327Y-96743808D01*
X140206000Y-96628236D01*
X140206000Y-90970633D01*
X140529201Y-91104838D01*
X140901167Y-91105162D01*
X141244943Y-90963117D01*
X141508192Y-90700327D01*
X141650838Y-90356799D01*
X141651162Y-89984833D01*
X141509117Y-89641057D01*
X141246327Y-89377808D01*
X141222000Y-89367706D01*
X141222000Y-87989026D01*
X154755042Y-87989026D01*
X154927312Y-88404947D01*
X155321510Y-88836821D01*
X155850973Y-89084968D01*
X156083000Y-88964469D01*
X156083000Y-87757000D01*
X156337000Y-87757000D01*
X156337000Y-88964469D01*
X156569027Y-89084968D01*
X157098490Y-88836821D01*
X157480000Y-88418848D01*
X157861510Y-88836821D01*
X158390973Y-89084968D01*
X158623000Y-88964469D01*
X158623000Y-87757000D01*
X156337000Y-87757000D01*
X156083000Y-87757000D01*
X154876183Y-87757000D01*
X154755042Y-87989026D01*
X141222000Y-87989026D01*
X141222000Y-86166802D01*
X151921401Y-75467401D01*
X152086148Y-75220839D01*
X152144000Y-74930000D01*
X152144000Y-68126463D01*
X152176192Y-68094327D01*
X152318838Y-67750799D01*
X152319162Y-67378833D01*
X152177117Y-67035057D01*
X151914327Y-66771808D01*
X151570799Y-66629162D01*
X151198833Y-66628838D01*
X150855057Y-66770883D01*
X150687417Y-66938230D01*
X150554799Y-66883162D01*
X150182833Y-66882838D01*
X149839057Y-67024883D01*
X149575808Y-67287673D01*
X149433162Y-67631201D01*
X149432838Y-68003167D01*
X149574883Y-68346943D01*
X149608000Y-68380118D01*
X149608000Y-73091198D01*
X138908599Y-83790599D01*
X138743852Y-84037161D01*
X138686000Y-84328000D01*
X131062000Y-84328000D01*
X131062000Y-80070802D01*
X138967401Y-72165401D01*
X139132148Y-71918839D01*
X139190000Y-71628000D01*
X139190000Y-69987000D01*
X142132560Y-69987000D01*
X142132560Y-71237000D01*
X142176838Y-71472317D01*
X142315910Y-71688441D01*
X142528110Y-71833431D01*
X142780000Y-71884440D01*
X144280000Y-71884440D01*
X144515317Y-71840162D01*
X144731441Y-71701090D01*
X144777969Y-71632994D01*
X144920302Y-71775327D01*
X145153691Y-71872000D01*
X145744250Y-71872000D01*
X145903000Y-71713250D01*
X145903000Y-70739000D01*
X146157000Y-70739000D01*
X146157000Y-71713250D01*
X146315750Y-71872000D01*
X146906309Y-71872000D01*
X147139698Y-71775327D01*
X147318327Y-71596699D01*
X147415000Y-71363310D01*
X147415000Y-70897750D01*
X147256250Y-70739000D01*
X146157000Y-70739000D01*
X145903000Y-70739000D01*
X145883000Y-70739000D01*
X145883000Y-70485000D01*
X145903000Y-70485000D01*
X145903000Y-69510750D01*
X146157000Y-69510750D01*
X146157000Y-70485000D01*
X147256250Y-70485000D01*
X147415000Y-70326250D01*
X147415000Y-69860690D01*
X147318327Y-69627301D01*
X147139698Y-69448673D01*
X146906309Y-69352000D01*
X146315750Y-69352000D01*
X146157000Y-69510750D01*
X145903000Y-69510750D01*
X145744250Y-69352000D01*
X145336802Y-69352000D01*
X146110802Y-68578000D01*
X146249537Y-68578000D01*
X146281673Y-68610192D01*
X146625201Y-68752838D01*
X146997167Y-68753162D01*
X147340943Y-68611117D01*
X147604192Y-68348327D01*
X147746838Y-68004799D01*
X147747162Y-67632833D01*
X147678598Y-67466895D01*
X147805673Y-67594192D01*
X148149201Y-67736838D01*
X148521167Y-67737162D01*
X148864943Y-67595117D01*
X149128192Y-67332327D01*
X149270838Y-66988799D01*
X149271162Y-66616833D01*
X149129117Y-66273057D01*
X148866327Y-66009808D01*
X148522799Y-65867162D01*
X148475923Y-65867121D01*
X145903440Y-63294638D01*
X145903440Y-62113000D01*
X145859162Y-61877683D01*
X145720090Y-61661559D01*
X145623155Y-61595326D01*
X145707441Y-61541090D01*
X145852431Y-61328890D01*
X145903440Y-61077000D01*
X145903440Y-59827000D01*
X145859162Y-59591683D01*
X145720090Y-59375559D01*
X145623155Y-59309326D01*
X145707441Y-59255090D01*
X145852431Y-59042890D01*
X145903440Y-58791000D01*
X145903440Y-57541000D01*
X145859162Y-57305683D01*
X145720090Y-57089559D01*
X145623155Y-57023326D01*
X145707441Y-56969090D01*
X145852431Y-56756890D01*
X145903440Y-56505000D01*
X145903440Y-55624000D01*
X146771403Y-55624000D01*
X146780883Y-55646943D01*
X147043673Y-55910192D01*
X147387201Y-56052838D01*
X147759167Y-56053162D01*
X148102943Y-55911117D01*
X148366192Y-55648327D01*
X148508838Y-55304799D01*
X148509162Y-54932833D01*
X148367117Y-54589057D01*
X148334000Y-54555882D01*
X148334000Y-46990000D01*
X148276148Y-46699161D01*
X148276148Y-46699160D01*
X148255060Y-46667600D01*
X148255162Y-46550833D01*
X148113117Y-46207057D01*
X147850327Y-45943808D01*
X147506799Y-45801162D01*
X147134833Y-45800838D01*
X146791057Y-45942883D01*
X146527808Y-46205673D01*
X146385162Y-46549201D01*
X146384838Y-46921167D01*
X146526883Y-47264943D01*
X146789673Y-47528192D01*
X146814000Y-47538294D01*
X146814000Y-54104000D01*
X145522000Y-54104000D01*
X145231161Y-54161852D01*
X144984599Y-54326599D01*
X144703638Y-54607560D01*
X143756000Y-54607560D01*
X143520683Y-54651838D01*
X143304559Y-54790910D01*
X143258031Y-54859006D01*
X143115698Y-54716673D01*
X142882309Y-54620000D01*
X142291750Y-54620000D01*
X142133000Y-54778750D01*
X142133000Y-55753000D01*
X142153000Y-55753000D01*
X142153000Y-56007000D01*
X142133000Y-56007000D01*
X142133000Y-56981250D01*
X142174750Y-57023000D01*
X142133000Y-57064750D01*
X142133000Y-58039000D01*
X142153000Y-58039000D01*
X142153000Y-58293000D01*
X142133000Y-58293000D01*
X142133000Y-59267250D01*
X142174750Y-59309000D01*
X142133000Y-59350750D01*
X142133000Y-60325000D01*
X142153000Y-60325000D01*
X142153000Y-60579000D01*
X142133000Y-60579000D01*
X142133000Y-61553250D01*
X142174750Y-61595000D01*
X142133000Y-61636750D01*
X142133000Y-62611000D01*
X142153000Y-62611000D01*
X142153000Y-62865000D01*
X142133000Y-62865000D01*
X142133000Y-63839250D01*
X142291750Y-63998000D01*
X142882309Y-63998000D01*
X143115698Y-63901327D01*
X143256936Y-63760090D01*
X143291910Y-63814441D01*
X143504110Y-63959431D01*
X143756000Y-64010440D01*
X144469638Y-64010440D01*
X147400878Y-66941680D01*
X147400838Y-66987167D01*
X147469402Y-67153105D01*
X147342327Y-67025808D01*
X146998799Y-66883162D01*
X146626833Y-66882838D01*
X146283057Y-67024883D01*
X146249882Y-67058000D01*
X145796000Y-67058000D01*
X145505161Y-67115852D01*
X145258599Y-67280599D01*
X143199638Y-69339560D01*
X142780000Y-69339560D01*
X142544683Y-69383838D01*
X142328559Y-69522910D01*
X142183569Y-69735110D01*
X142132560Y-69987000D01*
X139190000Y-69987000D01*
X139190000Y-67564000D01*
X139132148Y-67273161D01*
X138967401Y-67026599D01*
X138205401Y-66264599D01*
X137958839Y-66099852D01*
X137668000Y-66042000D01*
X136960463Y-66042000D01*
X136928327Y-66009808D01*
X136584799Y-65867162D01*
X136212833Y-65866838D01*
X135888000Y-66001056D01*
X135888000Y-64850802D01*
X136728362Y-64010440D01*
X137676000Y-64010440D01*
X137911317Y-63966162D01*
X138127441Y-63827090D01*
X138173969Y-63758994D01*
X138316302Y-63901327D01*
X138549691Y-63998000D01*
X139140250Y-63998000D01*
X139299000Y-63839250D01*
X139299000Y-62865000D01*
X139553000Y-62865000D01*
X139553000Y-63839250D01*
X139711750Y-63998000D01*
X140302309Y-63998000D01*
X140535698Y-63901327D01*
X140714327Y-63722699D01*
X140716000Y-63718660D01*
X140717673Y-63722699D01*
X140896302Y-63901327D01*
X141129691Y-63998000D01*
X141720250Y-63998000D01*
X141879000Y-63839250D01*
X141879000Y-62865000D01*
X140779750Y-62865000D01*
X140716000Y-62928750D01*
X140652250Y-62865000D01*
X139553000Y-62865000D01*
X139299000Y-62865000D01*
X139279000Y-62865000D01*
X139279000Y-62611000D01*
X139299000Y-62611000D01*
X139299000Y-61636750D01*
X139257250Y-61595000D01*
X139299000Y-61553250D01*
X139299000Y-60579000D01*
X139553000Y-60579000D01*
X139553000Y-61553250D01*
X139594750Y-61595000D01*
X139553000Y-61636750D01*
X139553000Y-62611000D01*
X140652250Y-62611000D01*
X140716000Y-62547250D01*
X140779750Y-62611000D01*
X141879000Y-62611000D01*
X141879000Y-61636750D01*
X141837250Y-61595000D01*
X141879000Y-61553250D01*
X141879000Y-60579000D01*
X140779750Y-60579000D01*
X140716000Y-60642750D01*
X140652250Y-60579000D01*
X139553000Y-60579000D01*
X139299000Y-60579000D01*
X139279000Y-60579000D01*
X139279000Y-60325000D01*
X139299000Y-60325000D01*
X139299000Y-59350750D01*
X139257250Y-59309000D01*
X139299000Y-59267250D01*
X139299000Y-58293000D01*
X139553000Y-58293000D01*
X139553000Y-59267250D01*
X139594750Y-59309000D01*
X139553000Y-59350750D01*
X139553000Y-60325000D01*
X140652250Y-60325000D01*
X140716000Y-60261250D01*
X140779750Y-60325000D01*
X141879000Y-60325000D01*
X141879000Y-59350750D01*
X141837250Y-59309000D01*
X141879000Y-59267250D01*
X141879000Y-58293000D01*
X140779750Y-58293000D01*
X140716000Y-58356750D01*
X140652250Y-58293000D01*
X139553000Y-58293000D01*
X139299000Y-58293000D01*
X139279000Y-58293000D01*
X139279000Y-58039000D01*
X139299000Y-58039000D01*
X139299000Y-57064750D01*
X139257250Y-57023000D01*
X139299000Y-56981250D01*
X139299000Y-56007000D01*
X139553000Y-56007000D01*
X139553000Y-56981250D01*
X139594750Y-57023000D01*
X139553000Y-57064750D01*
X139553000Y-58039000D01*
X140652250Y-58039000D01*
X140716000Y-57975250D01*
X140779750Y-58039000D01*
X141879000Y-58039000D01*
X141879000Y-57064750D01*
X141837250Y-57023000D01*
X141879000Y-56981250D01*
X141879000Y-56007000D01*
X140779750Y-56007000D01*
X140716000Y-56070750D01*
X140652250Y-56007000D01*
X139553000Y-56007000D01*
X139299000Y-56007000D01*
X139279000Y-56007000D01*
X139279000Y-55753000D01*
X139299000Y-55753000D01*
X139299000Y-54778750D01*
X139553000Y-54778750D01*
X139553000Y-55753000D01*
X140652250Y-55753000D01*
X140716000Y-55689250D01*
X140779750Y-55753000D01*
X141879000Y-55753000D01*
X141879000Y-54778750D01*
X141720250Y-54620000D01*
X141129691Y-54620000D01*
X140896302Y-54716673D01*
X140717673Y-54895301D01*
X140716000Y-54899340D01*
X140714327Y-54895301D01*
X140535698Y-54716673D01*
X140302309Y-54620000D01*
X139711750Y-54620000D01*
X139553000Y-54778750D01*
X139299000Y-54778750D01*
X139140250Y-54620000D01*
X138549691Y-54620000D01*
X138316302Y-54716673D01*
X138175064Y-54857910D01*
X138140090Y-54803559D01*
X137927890Y-54658569D01*
X137676000Y-54607560D01*
X136342362Y-54607560D01*
X135697122Y-53962320D01*
X135697162Y-53916833D01*
X135555117Y-53573057D01*
X135292327Y-53309808D01*
X134948799Y-53167162D01*
X134576833Y-53166838D01*
X134233057Y-53308883D01*
X133969808Y-53571673D01*
X133827162Y-53915201D01*
X133826838Y-54287167D01*
X133968883Y-54630943D01*
X134231673Y-54894192D01*
X134575201Y-55036838D01*
X134622077Y-55036879D01*
X135528560Y-55943362D01*
X135528560Y-56505000D01*
X135572838Y-56740317D01*
X135711910Y-56956441D01*
X135808845Y-57022674D01*
X135724559Y-57076910D01*
X135579569Y-57289110D01*
X135528560Y-57541000D01*
X135528560Y-58791000D01*
X135572838Y-59026317D01*
X135711910Y-59242441D01*
X135808845Y-59308674D01*
X135724559Y-59362910D01*
X135579569Y-59575110D01*
X135528560Y-59827000D01*
X135528560Y-61077000D01*
X135572838Y-61312317D01*
X135711910Y-61528441D01*
X135808845Y-61594674D01*
X135724559Y-61648910D01*
X135579569Y-61861110D01*
X135555898Y-61978000D01*
X132987547Y-61978000D01*
X132873117Y-61701057D01*
X132610327Y-61437808D01*
X132266799Y-61295162D01*
X131894833Y-61294838D01*
X131551057Y-61436883D01*
X131287808Y-61699673D01*
X131145162Y-62043201D01*
X131144838Y-62415167D01*
X131286883Y-62758943D01*
X131549673Y-63022192D01*
X131893201Y-63164838D01*
X131940077Y-63164879D01*
X132050599Y-63275401D01*
X132297161Y-63440148D01*
X132588000Y-63498000D01*
X135091198Y-63498000D01*
X134590599Y-63998599D01*
X134425852Y-64245161D01*
X134368000Y-64536000D01*
X134368000Y-65481889D01*
X134134327Y-65247808D01*
X133790799Y-65105162D01*
X133677265Y-65105063D01*
X133635117Y-65003057D01*
X133372327Y-64739808D01*
X133028799Y-64597162D01*
X132656833Y-64596838D01*
X132313057Y-64738883D01*
X132049808Y-65001673D01*
X131907162Y-65345201D01*
X131907121Y-65392077D01*
X131288599Y-66010599D01*
X131123852Y-66257161D01*
X131066000Y-66548000D01*
X131066000Y-76393198D01*
X128748599Y-78710599D01*
X128583852Y-78957161D01*
X128526000Y-79248000D01*
X115689000Y-79248000D01*
X115689000Y-76708000D01*
X122563000Y-76708000D01*
X122649397Y-77142346D01*
X122895434Y-77510566D01*
X123263654Y-77756603D01*
X123698000Y-77843000D01*
X128524000Y-77843000D01*
X128958346Y-77756603D01*
X129326566Y-77510566D01*
X130063798Y-76773334D01*
X130228346Y-76740603D01*
X130596566Y-76494566D01*
X130842603Y-76126346D01*
X130929000Y-75692000D01*
X130842603Y-75257654D01*
X130596566Y-74889434D01*
X130228346Y-74643397D01*
X129794000Y-74557000D01*
X129540000Y-74557000D01*
X129105654Y-74643397D01*
X128935878Y-74756838D01*
X128737434Y-74889434D01*
X128053868Y-75573000D01*
X123698000Y-75573000D01*
X123263654Y-75659397D01*
X122895434Y-75905434D01*
X122649397Y-76273654D01*
X122563000Y-76708000D01*
X115689000Y-76708000D01*
X115689000Y-61468000D01*
X115602603Y-61033654D01*
X115356566Y-60665434D01*
X113157000Y-58465868D01*
X113157000Y-58420000D01*
X113146994Y-58370590D01*
X113115817Y-58326381D01*
X111936169Y-57245037D01*
X106720566Y-52029434D01*
X106352346Y-51783397D01*
X105918000Y-51697000D01*
X105883765Y-51697000D01*
X105495817Y-51341381D01*
X105452633Y-51315370D01*
X105410000Y-51308000D01*
X96518000Y-51308000D01*
X96518000Y-47244000D01*
X96474804Y-47026839D01*
X96460148Y-46953160D01*
X96439060Y-46921600D01*
X96439162Y-46804833D01*
X96297117Y-46461057D01*
X96034327Y-46197808D01*
X95690799Y-46055162D01*
X95318833Y-46054838D01*
X94975057Y-46196883D01*
X94711808Y-46459673D01*
X94569162Y-46803201D01*
X94568838Y-47175167D01*
X94710883Y-47518943D01*
X94973673Y-47782192D01*
X94998000Y-47792294D01*
X94998000Y-51308000D01*
X83901132Y-51308000D01*
X79621000Y-47027868D01*
X79621000Y-44324430D01*
X81046132Y-44324430D01*
X81210902Y-44723203D01*
X81515733Y-45028566D01*
X81914217Y-45194031D01*
X82345690Y-45194408D01*
X82744463Y-45029638D01*
X83049826Y-44724807D01*
X83215291Y-44326323D01*
X83215668Y-43894850D01*
X83050898Y-43496077D01*
X82746067Y-43190714D01*
X82347583Y-43025249D01*
X81916110Y-43024872D01*
X81517337Y-43189642D01*
X81211974Y-43494473D01*
X81046509Y-43892957D01*
X81046132Y-44324430D01*
X79621000Y-44324430D01*
X79621000Y-39925150D01*
X81046132Y-39925150D01*
X81210902Y-40323923D01*
X81515733Y-40629286D01*
X81914217Y-40794751D01*
X82345690Y-40795128D01*
X82744463Y-40630358D01*
X83049826Y-40325527D01*
X83215291Y-39927043D01*
X83215615Y-39555167D01*
X86694838Y-39555167D01*
X86836883Y-39898943D01*
X86870000Y-39932118D01*
X86870000Y-46681537D01*
X86837808Y-46713673D01*
X86695162Y-47057201D01*
X86694838Y-47429167D01*
X86836883Y-47772943D01*
X87099673Y-48036192D01*
X87443201Y-48178838D01*
X87815167Y-48179162D01*
X88158943Y-48037117D01*
X88422192Y-47774327D01*
X88564838Y-47430799D01*
X88565162Y-47058833D01*
X88423117Y-46715057D01*
X88390000Y-46681882D01*
X88390000Y-40317167D01*
X88472838Y-40317167D01*
X88614883Y-40660943D01*
X88877673Y-40924192D01*
X89221201Y-41066838D01*
X89268077Y-41066879D01*
X91156599Y-42955401D01*
X91339011Y-43077285D01*
X91376838Y-43278317D01*
X91515910Y-43494441D01*
X91728110Y-43639431D01*
X91980000Y-43690440D01*
X93480000Y-43690440D01*
X93715317Y-43646162D01*
X93931441Y-43507090D01*
X93977969Y-43438994D01*
X94120302Y-43581327D01*
X94353691Y-43678000D01*
X94944250Y-43678000D01*
X95103000Y-43519250D01*
X95103000Y-42545000D01*
X95357000Y-42545000D01*
X95357000Y-43519250D01*
X95515750Y-43678000D01*
X96106309Y-43678000D01*
X96339698Y-43581327D01*
X96518327Y-43402699D01*
X96615000Y-43169310D01*
X96615000Y-42703750D01*
X96456250Y-42545000D01*
X95357000Y-42545000D01*
X95103000Y-42545000D01*
X95083000Y-42545000D01*
X95083000Y-42291000D01*
X95103000Y-42291000D01*
X95103000Y-41316750D01*
X95357000Y-41316750D01*
X95357000Y-42291000D01*
X96456250Y-42291000D01*
X96615000Y-42132250D01*
X96615000Y-41666690D01*
X96518327Y-41433301D01*
X96339698Y-41254673D01*
X96106309Y-41158000D01*
X95515750Y-41158000D01*
X95357000Y-41316750D01*
X95103000Y-41316750D01*
X94944250Y-41158000D01*
X94353691Y-41158000D01*
X94120302Y-41254673D01*
X93979064Y-41395910D01*
X93944090Y-41341559D01*
X93731890Y-41196569D01*
X93480000Y-41145560D01*
X91980000Y-41145560D01*
X91744683Y-41189838D01*
X91620530Y-41269728D01*
X90343122Y-39992320D01*
X90343162Y-39946833D01*
X90327840Y-39909750D01*
X93885000Y-39909750D01*
X93885000Y-40375310D01*
X93981673Y-40608699D01*
X94160302Y-40787327D01*
X94393691Y-40884000D01*
X94984250Y-40884000D01*
X95143000Y-40725250D01*
X95143000Y-39751000D01*
X94043750Y-39751000D01*
X93885000Y-39909750D01*
X90327840Y-39909750D01*
X90201117Y-39603057D01*
X89938327Y-39339808D01*
X89594799Y-39197162D01*
X89222833Y-39196838D01*
X88879057Y-39338883D01*
X88615808Y-39601673D01*
X88473162Y-39945201D01*
X88472838Y-40317167D01*
X88390000Y-40317167D01*
X88390000Y-39932463D01*
X88422192Y-39900327D01*
X88564838Y-39556799D01*
X88565162Y-39184833D01*
X88436188Y-38872690D01*
X93885000Y-38872690D01*
X93885000Y-39338250D01*
X94043750Y-39497000D01*
X95143000Y-39497000D01*
X95143000Y-38522750D01*
X94984250Y-38364000D01*
X94393691Y-38364000D01*
X94160302Y-38460673D01*
X93981673Y-38639301D01*
X93885000Y-38872690D01*
X88436188Y-38872690D01*
X88423117Y-38841057D01*
X88160327Y-38577808D01*
X87816799Y-38435162D01*
X87444833Y-38434838D01*
X87101057Y-38576883D01*
X86837808Y-38839673D01*
X86695162Y-39183201D01*
X86694838Y-39555167D01*
X83215615Y-39555167D01*
X83215668Y-39495570D01*
X83050898Y-39096797D01*
X82746067Y-38791434D01*
X82347583Y-38625969D01*
X81916110Y-38625592D01*
X81517337Y-38790362D01*
X81211974Y-39095193D01*
X81046509Y-39493677D01*
X81046132Y-39925150D01*
X79621000Y-39925150D01*
X79621000Y-38062132D01*
X81075382Y-36607750D01*
X93885000Y-36607750D01*
X93885000Y-37073310D01*
X93981673Y-37306699D01*
X94160302Y-37485327D01*
X94393691Y-37582000D01*
X94984250Y-37582000D01*
X95143000Y-37423250D01*
X95143000Y-36449000D01*
X94043750Y-36449000D01*
X93885000Y-36607750D01*
X81075382Y-36607750D01*
X82112442Y-35570690D01*
X93885000Y-35570690D01*
X93885000Y-36036250D01*
X94043750Y-36195000D01*
X95143000Y-36195000D01*
X95143000Y-35220750D01*
X95397000Y-35220750D01*
X95397000Y-36195000D01*
X95417000Y-36195000D01*
X95417000Y-36449000D01*
X95397000Y-36449000D01*
X95397000Y-37423250D01*
X95555750Y-37582000D01*
X96146309Y-37582000D01*
X96379698Y-37485327D01*
X96520936Y-37344090D01*
X96555910Y-37398441D01*
X96635000Y-37452481D01*
X96635000Y-38492156D01*
X96568559Y-38534910D01*
X96522031Y-38603006D01*
X96379698Y-38460673D01*
X96146309Y-38364000D01*
X95555750Y-38364000D01*
X95397000Y-38522750D01*
X95397000Y-39497000D01*
X95417000Y-39497000D01*
X95417000Y-39751000D01*
X95397000Y-39751000D01*
X95397000Y-40725250D01*
X95555750Y-40884000D01*
X96146309Y-40884000D01*
X96379698Y-40787327D01*
X96520936Y-40646090D01*
X96555910Y-40700441D01*
X96768110Y-40845431D01*
X97020000Y-40896440D01*
X98520000Y-40896440D01*
X98755317Y-40852162D01*
X98900095Y-40759000D01*
X102907868Y-40759000D01*
X105037000Y-42888132D01*
X105037000Y-46482000D01*
X105123397Y-46916346D01*
X105342329Y-47244000D01*
X105369434Y-47284566D01*
X112456666Y-54371798D01*
X112489397Y-54536346D01*
X112735434Y-54904566D01*
X113103654Y-55150603D01*
X113268202Y-55183334D01*
X115705000Y-57620132D01*
X115705000Y-62230000D01*
X115791397Y-62664346D01*
X116037434Y-63032566D01*
X116405654Y-63278603D01*
X116840000Y-63365000D01*
X117274346Y-63278603D01*
X117642566Y-63032566D01*
X117888603Y-62664346D01*
X117975000Y-62230000D01*
X117975000Y-57150000D01*
X117888603Y-56715654D01*
X117642566Y-56347434D01*
X115143132Y-53848000D01*
X126532566Y-42458566D01*
X126644530Y-42291000D01*
X126778603Y-42090346D01*
X126865000Y-41656000D01*
X126865000Y-40457943D01*
X127045041Y-40342090D01*
X127190031Y-40129890D01*
X127241040Y-39878000D01*
X127241040Y-37846000D01*
X127196762Y-37610683D01*
X127057690Y-37394559D01*
X126845490Y-37249569D01*
X126593600Y-37198560D01*
X124866400Y-37198560D01*
X124631083Y-37242838D01*
X124414959Y-37381910D01*
X124269969Y-37594110D01*
X124261600Y-37635439D01*
X124249670Y-37617585D01*
X123763489Y-37292729D01*
X123190000Y-37178655D01*
X122616511Y-37292729D01*
X122130330Y-37617585D01*
X121920000Y-37932366D01*
X121709670Y-37617585D01*
X121223489Y-37292729D01*
X120650000Y-37178655D01*
X120076511Y-37292729D01*
X119590330Y-37617585D01*
X119383539Y-37927069D01*
X119012036Y-37511268D01*
X118484791Y-37257291D01*
X118469026Y-37254642D01*
X118237000Y-37375783D01*
X118237000Y-38735000D01*
X118257000Y-38735000D01*
X118257000Y-38989000D01*
X118237000Y-38989000D01*
X118237000Y-40348217D01*
X118469026Y-40469358D01*
X118484791Y-40466709D01*
X119012036Y-40212732D01*
X119383539Y-39796931D01*
X119590330Y-40106415D01*
X119596596Y-40110602D01*
X117033198Y-42674000D01*
X116132463Y-42674000D01*
X116100327Y-42641808D01*
X115756799Y-42499162D01*
X115384833Y-42498838D01*
X115041057Y-42640883D01*
X114777808Y-42903673D01*
X114635162Y-43247201D01*
X114634838Y-43619167D01*
X114776883Y-43962943D01*
X115039673Y-44226192D01*
X115383201Y-44368838D01*
X115755167Y-44369162D01*
X116098943Y-44227117D01*
X116132118Y-44194000D01*
X117348000Y-44194000D01*
X117638839Y-44136148D01*
X117885401Y-43971401D01*
X121187401Y-40669401D01*
X121352148Y-40422840D01*
X121369935Y-40333419D01*
X121709670Y-40106415D01*
X121920000Y-39791634D01*
X122130330Y-40106415D01*
X122136596Y-40110602D01*
X117287198Y-44960000D01*
X115824000Y-44960000D01*
X115533161Y-45017852D01*
X115515522Y-45029638D01*
X115286599Y-45182599D01*
X115176320Y-45292878D01*
X115130833Y-45292838D01*
X114787057Y-45434883D01*
X114523808Y-45697673D01*
X114381162Y-46041201D01*
X114380838Y-46413167D01*
X114522883Y-46756943D01*
X114785673Y-47020192D01*
X115129201Y-47162838D01*
X115501167Y-47163162D01*
X115844943Y-47021117D01*
X116108192Y-46758327D01*
X116223764Y-46480000D01*
X117602000Y-46480000D01*
X117892839Y-46422148D01*
X118139401Y-46257401D01*
X123727401Y-40669401D01*
X123892148Y-40422840D01*
X123909935Y-40333419D01*
X124249670Y-40106415D01*
X124259243Y-40092087D01*
X124263238Y-40113317D01*
X124402310Y-40329441D01*
X124595000Y-40461100D01*
X124595000Y-41185868D01*
X113538000Y-52242868D01*
X107307000Y-46011868D01*
X107307000Y-42418000D01*
X107220603Y-41983654D01*
X106974566Y-41615434D01*
X104583045Y-39223913D01*
X116624816Y-39223913D01*
X116818046Y-39776320D01*
X117207964Y-40212732D01*
X117735209Y-40466709D01*
X117750974Y-40469358D01*
X117983000Y-40348217D01*
X117983000Y-38989000D01*
X116769076Y-38989000D01*
X116624816Y-39223913D01*
X104583045Y-39223913D01*
X104180566Y-38821434D01*
X104135668Y-38791434D01*
X103812346Y-38575397D01*
X103433738Y-38500087D01*
X116624816Y-38500087D01*
X116769076Y-38735000D01*
X117983000Y-38735000D01*
X117983000Y-37375783D01*
X117750974Y-37254642D01*
X117735209Y-37257291D01*
X117207964Y-37511268D01*
X116818046Y-37947680D01*
X116624816Y-38500087D01*
X103433738Y-38500087D01*
X103378000Y-38489000D01*
X98905000Y-38489000D01*
X98905000Y-37453844D01*
X98971441Y-37411090D01*
X99116431Y-37198890D01*
X99167440Y-36947000D01*
X99167440Y-35697000D01*
X99123162Y-35461683D01*
X98984090Y-35245559D01*
X98771890Y-35100569D01*
X98520000Y-35049560D01*
X97020000Y-35049560D01*
X96784683Y-35093838D01*
X96568559Y-35232910D01*
X96522031Y-35301006D01*
X96379698Y-35158673D01*
X96146309Y-35062000D01*
X95555750Y-35062000D01*
X95397000Y-35220750D01*
X95143000Y-35220750D01*
X94984250Y-35062000D01*
X94393691Y-35062000D01*
X94160302Y-35158673D01*
X93981673Y-35337301D01*
X93885000Y-35570690D01*
X82112442Y-35570690D01*
X83860566Y-33822566D01*
X84106603Y-33454346D01*
X84148324Y-33244599D01*
X84193000Y-33020000D01*
X84193000Y-32191606D01*
X84544803Y-31839803D01*
X84572666Y-31797789D01*
X84582000Y-31750000D01*
X84582000Y-30556611D01*
X84666990Y-30762303D01*
X85059630Y-31155629D01*
X85572900Y-31368757D01*
X86128661Y-31369242D01*
X86642303Y-31157010D01*
X87035629Y-30764370D01*
X87101900Y-30604772D01*
X87166990Y-30762303D01*
X87559630Y-31155629D01*
X88072900Y-31368757D01*
X88628661Y-31369242D01*
X89142303Y-31157010D01*
X89535629Y-30764370D01*
X89601900Y-30604772D01*
X89666990Y-30762303D01*
X90059630Y-31155629D01*
X90572900Y-31368757D01*
X91128661Y-31369242D01*
X91642303Y-31157010D01*
X91847457Y-30952213D01*
X92551392Y-30952213D01*
X92620857Y-31194397D01*
X93144302Y-31381144D01*
X93699368Y-31353362D01*
X94083143Y-31194397D01*
X94152608Y-30952213D01*
X93352000Y-30151605D01*
X92551392Y-30952213D01*
X91847457Y-30952213D01*
X92035629Y-30764370D01*
X92095370Y-30620497D01*
X92129603Y-30703143D01*
X92371787Y-30772608D01*
X93172395Y-29972000D01*
X93531605Y-29972000D01*
X94332213Y-30772608D01*
X94574397Y-30703143D01*
X94692071Y-30373305D01*
X98114674Y-30373305D01*
X98401043Y-31066372D01*
X98930839Y-31597093D01*
X99623405Y-31884672D01*
X100373305Y-31885326D01*
X100993596Y-31629027D01*
X103415032Y-31629027D01*
X103663179Y-32158490D01*
X104095053Y-32552688D01*
X104510974Y-32724958D01*
X104743000Y-32603817D01*
X104743000Y-31397000D01*
X103535531Y-31397000D01*
X103415032Y-31629027D01*
X100993596Y-31629027D01*
X101066372Y-31598957D01*
X101597093Y-31069161D01*
X101884672Y-30376595D01*
X101885326Y-29626695D01*
X101598957Y-28933628D01*
X101069161Y-28402907D01*
X100376595Y-28115328D01*
X99626695Y-28114674D01*
X98933628Y-28401043D01*
X98402907Y-28930839D01*
X98115328Y-29623405D01*
X98114674Y-30373305D01*
X94692071Y-30373305D01*
X94761144Y-30179698D01*
X94733362Y-29624632D01*
X94574397Y-29240857D01*
X94332213Y-29171392D01*
X93531605Y-29972000D01*
X93172395Y-29972000D01*
X92371787Y-29171392D01*
X92129603Y-29240857D01*
X92098026Y-29329367D01*
X92037010Y-29181697D01*
X91847432Y-28991787D01*
X92551392Y-28991787D01*
X93352000Y-29792395D01*
X94152608Y-28991787D01*
X94083143Y-28749603D01*
X93559698Y-28562856D01*
X93004632Y-28590638D01*
X92620857Y-28749603D01*
X92551392Y-28991787D01*
X91847432Y-28991787D01*
X91644370Y-28788371D01*
X91131100Y-28575243D01*
X90575339Y-28574758D01*
X90061697Y-28786990D01*
X89668371Y-29179630D01*
X89602100Y-29339228D01*
X89537010Y-29181697D01*
X89144370Y-28788371D01*
X88631100Y-28575243D01*
X88075339Y-28574758D01*
X87561697Y-28786990D01*
X87168371Y-29179630D01*
X87102100Y-29339228D01*
X87037010Y-29181697D01*
X86644370Y-28788371D01*
X86131100Y-28575243D01*
X85575339Y-28574758D01*
X85061697Y-28786990D01*
X84668371Y-29179630D01*
X84582000Y-29387635D01*
X84582000Y-28627606D01*
X86166606Y-27043000D01*
X149455000Y-27043000D01*
X149455000Y-27753710D01*
X149455000Y-27753710D01*
G37*
X149455000Y-27753710D02*
X149320000Y-27955752D01*
X149109670Y-27640971D01*
X148623489Y-27316115D01*
X148050000Y-27202041D01*
X147476511Y-27316115D01*
X146990330Y-27640971D01*
X146780000Y-27955752D01*
X146569670Y-27640971D01*
X146083489Y-27316115D01*
X145510000Y-27202041D01*
X144936511Y-27316115D01*
X144450330Y-27640971D01*
X144240000Y-27955752D01*
X144029670Y-27640971D01*
X143543489Y-27316115D01*
X142970000Y-27202041D01*
X142396511Y-27316115D01*
X141910330Y-27640971D01*
X141700000Y-27955752D01*
X141489670Y-27640971D01*
X141003489Y-27316115D01*
X140430000Y-27202041D01*
X139856511Y-27316115D01*
X139370330Y-27640971D01*
X139160000Y-27955752D01*
X138949670Y-27640971D01*
X138463489Y-27316115D01*
X137890000Y-27202041D01*
X137316511Y-27316115D01*
X136830330Y-27640971D01*
X136620000Y-27955752D01*
X136409670Y-27640971D01*
X135923489Y-27316115D01*
X135350000Y-27202041D01*
X134776511Y-27316115D01*
X134290330Y-27640971D01*
X134080000Y-27955752D01*
X133869670Y-27640971D01*
X133383489Y-27316115D01*
X132810000Y-27202041D01*
X132236511Y-27316115D01*
X131750330Y-27640971D01*
X131540000Y-27955752D01*
X131329670Y-27640971D01*
X130843489Y-27316115D01*
X130270000Y-27202041D01*
X129696511Y-27316115D01*
X129210330Y-27640971D01*
X129000000Y-27955752D01*
X128789670Y-27640971D01*
X128303489Y-27316115D01*
X127730000Y-27202041D01*
X127156511Y-27316115D01*
X126670330Y-27640971D01*
X126460000Y-27955752D01*
X126249670Y-27640971D01*
X125763489Y-27316115D01*
X125190000Y-27202041D01*
X124616511Y-27316115D01*
X124130330Y-27640971D01*
X123920000Y-27955752D01*
X123709670Y-27640971D01*
X123223489Y-27316115D01*
X122650000Y-27202041D01*
X122076511Y-27316115D01*
X121590330Y-27640971D01*
X121380000Y-27955752D01*
X121169670Y-27640971D01*
X120683489Y-27316115D01*
X120110000Y-27202041D01*
X119536511Y-27316115D01*
X119050330Y-27640971D01*
X118840000Y-27955752D01*
X118629670Y-27640971D01*
X118143489Y-27316115D01*
X117570000Y-27202041D01*
X116996511Y-27316115D01*
X116510330Y-27640971D01*
X116300000Y-27955752D01*
X116089670Y-27640971D01*
X115603489Y-27316115D01*
X115030000Y-27202041D01*
X114456511Y-27316115D01*
X113970330Y-27640971D01*
X113754336Y-27964228D01*
X113696821Y-27841510D01*
X113264947Y-27447312D01*
X112849026Y-27275042D01*
X112617000Y-27396183D01*
X112617000Y-28603000D01*
X112637000Y-28603000D01*
X112637000Y-28857000D01*
X112617000Y-28857000D01*
X112617000Y-28877000D01*
X112363000Y-28877000D01*
X112363000Y-28857000D01*
X112343000Y-28857000D01*
X112343000Y-28603000D01*
X112363000Y-28603000D01*
X112363000Y-27396183D01*
X112130974Y-27275042D01*
X111715053Y-27447312D01*
X111283179Y-27841510D01*
X111225664Y-27964228D01*
X111009670Y-27640971D01*
X110523489Y-27316115D01*
X109950000Y-27202041D01*
X109376511Y-27316115D01*
X108890330Y-27640971D01*
X108680000Y-27955752D01*
X108469670Y-27640971D01*
X107983489Y-27316115D01*
X107410000Y-27202041D01*
X106836511Y-27316115D01*
X106350330Y-27640971D01*
X106140000Y-27955752D01*
X105929670Y-27640971D01*
X105443489Y-27316115D01*
X104870000Y-27202041D01*
X104296511Y-27316115D01*
X103810330Y-27640971D01*
X103485474Y-28127152D01*
X103371400Y-28700641D01*
X103371400Y-28759359D01*
X103485474Y-29332848D01*
X103810330Y-29819029D01*
X104081161Y-29999992D01*
X103663179Y-30381510D01*
X103415032Y-30910973D01*
X103535531Y-31143000D01*
X104743000Y-31143000D01*
X104743000Y-31123000D01*
X104997000Y-31123000D01*
X104997000Y-31143000D01*
X105017000Y-31143000D01*
X105017000Y-31397000D01*
X104997000Y-31397000D01*
X104997000Y-32603817D01*
X105229026Y-32724958D01*
X105644947Y-32552688D01*
X106076821Y-32158490D01*
X106134336Y-32035772D01*
X106350330Y-32359029D01*
X106836511Y-32683885D01*
X107410000Y-32797959D01*
X107983489Y-32683885D01*
X108469670Y-32359029D01*
X108680000Y-32044248D01*
X108890330Y-32359029D01*
X109376511Y-32683885D01*
X109950000Y-32797959D01*
X110523489Y-32683885D01*
X111009670Y-32359029D01*
X111220000Y-32044248D01*
X111430330Y-32359029D01*
X111916511Y-32683885D01*
X112490000Y-32797959D01*
X113063489Y-32683885D01*
X113549670Y-32359029D01*
X113760000Y-32044248D01*
X113970330Y-32359029D01*
X114456511Y-32683885D01*
X115030000Y-32797959D01*
X115603489Y-32683885D01*
X116089670Y-32359029D01*
X116300000Y-32044248D01*
X116510330Y-32359029D01*
X116996511Y-32683885D01*
X117570000Y-32797959D01*
X118143489Y-32683885D01*
X118629670Y-32359029D01*
X118840000Y-32044248D01*
X119050330Y-32359029D01*
X119536511Y-32683885D01*
X120110000Y-32797959D01*
X120683489Y-32683885D01*
X121169670Y-32359029D01*
X121380000Y-32044248D01*
X121590330Y-32359029D01*
X122076511Y-32683885D01*
X122650000Y-32797959D01*
X123223489Y-32683885D01*
X123709670Y-32359029D01*
X123920000Y-32044248D01*
X124130330Y-32359029D01*
X124616511Y-32683885D01*
X125190000Y-32797959D01*
X125732000Y-32690149D01*
X125732000Y-34798000D01*
X125789852Y-35088839D01*
X125954599Y-35335401D01*
X128018000Y-37398802D01*
X128018000Y-47001294D01*
X127963089Y-46868399D01*
X127643981Y-46548733D01*
X127226832Y-46375518D01*
X126775150Y-46375124D01*
X126357699Y-46547611D01*
X126038033Y-46866719D01*
X125864818Y-47283868D01*
X125864424Y-47735550D01*
X126036911Y-48153001D01*
X126143630Y-48259906D01*
X126038033Y-48365319D01*
X125864818Y-48782468D01*
X125864424Y-49234150D01*
X126036911Y-49651601D01*
X126356019Y-49971267D01*
X126773168Y-50144482D01*
X127224850Y-50144876D01*
X127642301Y-49972389D01*
X127961967Y-49653281D01*
X128018000Y-49518338D01*
X128018000Y-60452000D01*
X128075852Y-60742839D01*
X128240599Y-60989401D01*
X128350878Y-61099680D01*
X128350838Y-61145167D01*
X128492883Y-61488943D01*
X128755673Y-61752192D01*
X129099201Y-61894838D01*
X129471167Y-61895162D01*
X129814943Y-61753117D01*
X130078192Y-61490327D01*
X130220838Y-61146799D01*
X130221162Y-60774833D01*
X130165678Y-60640551D01*
X130332192Y-60474327D01*
X130474838Y-60130799D01*
X130474937Y-60017265D01*
X130576943Y-59975117D01*
X130840192Y-59712327D01*
X130982838Y-59368799D01*
X130983162Y-58996833D01*
X130841117Y-58653057D01*
X130808000Y-58619882D01*
X130808000Y-47175167D01*
X135716838Y-47175167D01*
X135858883Y-47518943D01*
X136026230Y-47686583D01*
X135971162Y-47819201D01*
X135970838Y-48191167D01*
X136112883Y-48534943D01*
X136375673Y-48798192D01*
X136719201Y-48940838D01*
X136766077Y-48940879D01*
X138002878Y-50177680D01*
X138002838Y-50223167D01*
X138144883Y-50566943D01*
X138407673Y-50830192D01*
X138751201Y-50972838D01*
X139123167Y-50973162D01*
X139466943Y-50831117D01*
X139730192Y-50568327D01*
X139872838Y-50224799D01*
X139873162Y-49852833D01*
X139767690Y-49597570D01*
X140021201Y-49702838D01*
X140393167Y-49703162D01*
X140736943Y-49561117D01*
X141000192Y-49298327D01*
X141142838Y-48954799D01*
X141143162Y-48582833D01*
X141001117Y-48239057D01*
X140738327Y-47975808D01*
X140394799Y-47833162D01*
X140347923Y-47833121D01*
X138967401Y-46452599D01*
X138720839Y-46287852D01*
X138430000Y-46230000D01*
X137214463Y-46230000D01*
X137182327Y-46197808D01*
X136838799Y-46055162D01*
X136466833Y-46054838D01*
X136123057Y-46196883D01*
X135859808Y-46459673D01*
X135717162Y-46803201D01*
X135716838Y-47175167D01*
X130808000Y-47175167D01*
X130808000Y-39938802D01*
X131124802Y-39622000D01*
X131458654Y-39622000D01*
X131782330Y-40106415D01*
X132268511Y-40431271D01*
X132842000Y-40545345D01*
X133415489Y-40431271D01*
X133901670Y-40106415D01*
X134112000Y-39791634D01*
X134322330Y-40106415D01*
X134662065Y-40333419D01*
X134679852Y-40422839D01*
X134844599Y-40669401D01*
X136368599Y-42193401D01*
X136615160Y-42358148D01*
X136663414Y-42367746D01*
X136906000Y-42416000D01*
X139131198Y-42416000D01*
X142750000Y-46034802D01*
X142750000Y-51562000D01*
X142807852Y-51852839D01*
X142972599Y-52099401D01*
X144098878Y-53225680D01*
X144098838Y-53271167D01*
X144240883Y-53614943D01*
X144503673Y-53878192D01*
X144847201Y-54020838D01*
X145219167Y-54021162D01*
X145562943Y-53879117D01*
X145826192Y-53616327D01*
X145968838Y-53272799D01*
X145969162Y-52900833D01*
X145827117Y-52557057D01*
X145564327Y-52293808D01*
X145220799Y-52151162D01*
X145173923Y-52151121D01*
X144270000Y-51247198D01*
X144270000Y-45720000D01*
X144212148Y-45429161D01*
X144047401Y-45182599D01*
X142247837Y-43383035D01*
X142494000Y-43432000D01*
X145989198Y-43432000D01*
X149862000Y-47304802D01*
X149862000Y-55571537D01*
X149829808Y-55603673D01*
X149687162Y-55947201D01*
X149686838Y-56319167D01*
X149828883Y-56662943D01*
X150091673Y-56926192D01*
X150435201Y-57068838D01*
X150807167Y-57069162D01*
X151150943Y-56927117D01*
X151414192Y-56664327D01*
X151556838Y-56320799D01*
X151557162Y-55948833D01*
X151415117Y-55605057D01*
X151382000Y-55571882D01*
X151382000Y-47554802D01*
X152148000Y-48320802D01*
X152148000Y-58111537D01*
X152115808Y-58143673D01*
X151973162Y-58487201D01*
X151972838Y-58859167D01*
X152114883Y-59202943D01*
X152377673Y-59466192D01*
X152721201Y-59608838D01*
X152734849Y-59608850D01*
X152734838Y-59621167D01*
X152876883Y-59964943D01*
X153139673Y-60228192D01*
X153483201Y-60370838D01*
X153855167Y-60371162D01*
X154198943Y-60229117D01*
X154462192Y-59966327D01*
X154604838Y-59622799D01*
X154605162Y-59250833D01*
X154463117Y-58907057D01*
X154430000Y-58873882D01*
X154430000Y-47752000D01*
X154372148Y-47461161D01*
X154207401Y-47214599D01*
X150112000Y-43119198D01*
X150112000Y-34852463D01*
X150144192Y-34820327D01*
X150286838Y-34476799D01*
X150287162Y-34104833D01*
X150145117Y-33761057D01*
X149882327Y-33497808D01*
X149538799Y-33355162D01*
X149166833Y-33354838D01*
X148823057Y-33496883D01*
X148559808Y-33759673D01*
X148417162Y-34103201D01*
X148416980Y-34312178D01*
X147572000Y-33467198D01*
X147572000Y-32702879D01*
X148050000Y-32797959D01*
X148623489Y-32683885D01*
X149109670Y-32359029D01*
X149320000Y-32044248D01*
X149530330Y-32359029D01*
X150016511Y-32683885D01*
X150590000Y-32797959D01*
X151163489Y-32683885D01*
X151649670Y-32359029D01*
X151860000Y-32044248D01*
X152070330Y-32359029D01*
X152556511Y-32683885D01*
X153130000Y-32797959D01*
X153703489Y-32683885D01*
X154189670Y-32359029D01*
X154514526Y-31872848D01*
X154575700Y-31565306D01*
X159893000Y-36882606D01*
X159893000Y-38391103D01*
X159839029Y-38310330D01*
X159352848Y-37985474D01*
X158779359Y-37871400D01*
X158720641Y-37871400D01*
X158147152Y-37985474D01*
X157681558Y-38296574D01*
X157676762Y-38271083D01*
X157537690Y-38054959D01*
X157325490Y-37909969D01*
X157073600Y-37858960D01*
X155346400Y-37858960D01*
X155111083Y-37903238D01*
X154894959Y-38042310D01*
X154749969Y-38254510D01*
X154698960Y-38506400D01*
X154698960Y-40233600D01*
X154743238Y-40468917D01*
X154882310Y-40685041D01*
X155094510Y-40830031D01*
X155138131Y-40838864D01*
X155120971Y-40850330D01*
X154796115Y-41336511D01*
X154682041Y-41910000D01*
X154796115Y-42483489D01*
X155120971Y-42969670D01*
X155435752Y-43180000D01*
X155120971Y-43390330D01*
X154796115Y-43876511D01*
X154682041Y-44450000D01*
X154796115Y-45023489D01*
X155120971Y-45509670D01*
X155435752Y-45720000D01*
X155120971Y-45930330D01*
X154796115Y-46416511D01*
X154682041Y-46990000D01*
X154796115Y-47563489D01*
X155120971Y-48049670D01*
X155435752Y-48260000D01*
X155120971Y-48470330D01*
X154796115Y-48956511D01*
X154682041Y-49530000D01*
X154796115Y-50103489D01*
X155120971Y-50589670D01*
X155435752Y-50800000D01*
X155120971Y-51010330D01*
X154796115Y-51496511D01*
X154682041Y-52070000D01*
X154796115Y-52643489D01*
X155120971Y-53129670D01*
X155435752Y-53340000D01*
X155120971Y-53550330D01*
X154796115Y-54036511D01*
X154682041Y-54610000D01*
X154796115Y-55183489D01*
X155120971Y-55669670D01*
X155435752Y-55880000D01*
X155120971Y-56090330D01*
X154796115Y-56576511D01*
X154682041Y-57150000D01*
X154796115Y-57723489D01*
X155120971Y-58209670D01*
X155435752Y-58420000D01*
X155120971Y-58630330D01*
X154796115Y-59116511D01*
X154682041Y-59690000D01*
X154796115Y-60263489D01*
X155120971Y-60749670D01*
X155435752Y-60960000D01*
X155120971Y-61170330D01*
X154796115Y-61656511D01*
X154682041Y-62230000D01*
X154796115Y-62803489D01*
X155120971Y-63289670D01*
X155435752Y-63500000D01*
X155120971Y-63710330D01*
X154796115Y-64196511D01*
X154682041Y-64770000D01*
X154796115Y-65343489D01*
X155120971Y-65829670D01*
X155435752Y-66040000D01*
X155120971Y-66250330D01*
X154796115Y-66736511D01*
X154682041Y-67310000D01*
X154796115Y-67883489D01*
X155120971Y-68369670D01*
X155435752Y-68580000D01*
X155120971Y-68790330D01*
X154796115Y-69276511D01*
X154682041Y-69850000D01*
X154796115Y-70423489D01*
X155120971Y-70909670D01*
X155435752Y-71120000D01*
X155120971Y-71330330D01*
X154796115Y-71816511D01*
X154682041Y-72390000D01*
X154796115Y-72963489D01*
X155120971Y-73449670D01*
X155435752Y-73660000D01*
X155120971Y-73870330D01*
X154796115Y-74356511D01*
X154682041Y-74930000D01*
X154796115Y-75503489D01*
X155120971Y-75989670D01*
X155435752Y-76200000D01*
X155120971Y-76410330D01*
X154796115Y-76896511D01*
X154682041Y-77470000D01*
X154796115Y-78043489D01*
X155120971Y-78529670D01*
X155435752Y-78740000D01*
X155120971Y-78950330D01*
X154796115Y-79436511D01*
X154682041Y-80010000D01*
X154796115Y-80583489D01*
X155120971Y-81069670D01*
X155435752Y-81280000D01*
X155120971Y-81490330D01*
X154796115Y-81976511D01*
X154682041Y-82550000D01*
X154796115Y-83123489D01*
X155120971Y-83609670D01*
X155435752Y-83820000D01*
X155120971Y-84030330D01*
X154796115Y-84516511D01*
X154682041Y-85090000D01*
X154796115Y-85663489D01*
X155120971Y-86149670D01*
X155444228Y-86365664D01*
X155321510Y-86423179D01*
X154927312Y-86855053D01*
X154755042Y-87270974D01*
X154876183Y-87503000D01*
X156083000Y-87503000D01*
X156083000Y-87483000D01*
X156337000Y-87483000D01*
X156337000Y-87503000D01*
X158623000Y-87503000D01*
X158623000Y-87483000D01*
X158877000Y-87483000D01*
X158877000Y-87503000D01*
X158897000Y-87503000D01*
X158897000Y-87757000D01*
X158877000Y-87757000D01*
X158877000Y-88964469D01*
X159109027Y-89084968D01*
X159638490Y-88836821D01*
X159893000Y-88557986D01*
X159893000Y-110437394D01*
X152982394Y-117348000D01*
X142240000Y-117348000D01*
X142190590Y-117358006D01*
X142150197Y-117385197D01*
X139012394Y-120523000D01*
X133397718Y-120523000D01*
X128397000Y-116147372D01*
X128397000Y-97790000D01*
X128386994Y-97740590D01*
X128359803Y-97700197D01*
X127089803Y-96430197D01*
X127047789Y-96402334D01*
X127000000Y-96393000D01*
X114352606Y-96393000D01*
X113911000Y-95951394D01*
X113911000Y-84020132D01*
X122133434Y-92242566D01*
X122501655Y-92488603D01*
X122936000Y-92575000D01*
X123370345Y-92488603D01*
X123738566Y-92242566D01*
X123984603Y-91874345D01*
X124071000Y-91440000D01*
X123984603Y-91005655D01*
X123738566Y-90637434D01*
X115689000Y-82587868D01*
X115689000Y-79248000D01*
X128526000Y-79248000D01*
X128526000Y-108966000D01*
X128583852Y-109256839D01*
X128748599Y-109503401D01*
X129620878Y-110375680D01*
X129620838Y-110421167D01*
X129762883Y-110764943D01*
X130025673Y-111028192D01*
X130369201Y-111170838D01*
X130558000Y-111171002D01*
X130558000Y-111868453D01*
X130281057Y-111982883D01*
X130017808Y-112245673D01*
X129875162Y-112589201D01*
X129874838Y-112961167D01*
X130016883Y-113304943D01*
X130279673Y-113568192D01*
X130623201Y-113710838D01*
X130995167Y-113711162D01*
X131338943Y-113569117D01*
X131602192Y-113306327D01*
X131744838Y-112962799D01*
X131744879Y-112915923D01*
X131855401Y-112805401D01*
X131875046Y-112776000D01*
X132020148Y-112558839D01*
X132078000Y-112268000D01*
X132078000Y-109728000D01*
X132020148Y-109437161D01*
X131855401Y-109190599D01*
X130978043Y-108313241D01*
X131131201Y-108376838D01*
X131503167Y-108377162D01*
X131846943Y-108235117D01*
X132110192Y-107972327D01*
X132216628Y-107716000D01*
X153550560Y-107716000D01*
X153550560Y-110216000D01*
X153594838Y-110451317D01*
X153733910Y-110667441D01*
X153946110Y-110812431D01*
X154198000Y-110863440D01*
X156698000Y-110863440D01*
X156933317Y-110819162D01*
X157149441Y-110680090D01*
X157294431Y-110467890D01*
X157345440Y-110216000D01*
X157345440Y-107716000D01*
X157301162Y-107480683D01*
X157162090Y-107264559D01*
X156949890Y-107119569D01*
X156698000Y-107068560D01*
X154198000Y-107068560D01*
X153962683Y-107112838D01*
X153746559Y-107251910D01*
X153601569Y-107464110D01*
X153550560Y-107716000D01*
X132216628Y-107716000D01*
X132252838Y-107628799D01*
X132253162Y-107256833D01*
X132111117Y-106913057D01*
X131848327Y-106649808D01*
X131504799Y-106507162D01*
X131457923Y-106507121D01*
X131062000Y-106111198D01*
X131062000Y-99568000D01*
X140210000Y-99568000D01*
X140210000Y-105410000D01*
X140267852Y-105700839D01*
X140432599Y-105947401D01*
X141050878Y-106565680D01*
X141050838Y-106611167D01*
X141192883Y-106954943D01*
X141455673Y-107218192D01*
X141799201Y-107360838D01*
X142171167Y-107361162D01*
X142514943Y-107219117D01*
X142778192Y-106956327D01*
X142920838Y-106612799D01*
X142921162Y-106240833D01*
X142779117Y-105897057D01*
X142516327Y-105633808D01*
X142172799Y-105491162D01*
X142125923Y-105491121D01*
X141730000Y-105095198D01*
X141730000Y-104339305D01*
X153562674Y-104339305D01*
X153849043Y-105032372D01*
X154378839Y-105563093D01*
X155071405Y-105850672D01*
X155821305Y-105851326D01*
X156514372Y-105564957D01*
X157045093Y-105035161D01*
X157332672Y-104342595D01*
X157333326Y-103592695D01*
X157046957Y-102899628D01*
X156517161Y-102368907D01*
X155824595Y-102081328D01*
X155074695Y-102080674D01*
X154381628Y-102367043D01*
X153850907Y-102896839D01*
X153563328Y-103589405D01*
X153562674Y-104339305D01*
X141730000Y-104339305D01*
X141730000Y-100299320D01*
X154294285Y-100299320D01*
X154423533Y-100592123D01*
X155123806Y-100860388D01*
X155873435Y-100840250D01*
X156472467Y-100592123D01*
X156601715Y-100299320D01*
X155448000Y-99145605D01*
X154294285Y-100299320D01*
X141730000Y-100299320D01*
X141730000Y-99967547D01*
X142006943Y-99853117D01*
X142270192Y-99590327D01*
X142412838Y-99246799D01*
X142413162Y-98874833D01*
X142316878Y-98641806D01*
X153553612Y-98641806D01*
X153573750Y-99391435D01*
X153821877Y-99990467D01*
X154114680Y-100119715D01*
X155268395Y-98966000D01*
X155627605Y-98966000D01*
X156781320Y-100119715D01*
X157074123Y-99990467D01*
X157342388Y-99290194D01*
X157322250Y-98540565D01*
X157074123Y-97941533D01*
X156781320Y-97812285D01*
X155627605Y-98966000D01*
X155268395Y-98966000D01*
X154114680Y-97812285D01*
X153821877Y-97941533D01*
X153553612Y-98641806D01*
X142316878Y-98641806D01*
X142271117Y-98531057D01*
X142008327Y-98267808D01*
X141664799Y-98125162D01*
X141292833Y-98124838D01*
X140949057Y-98266883D01*
X140685808Y-98529673D01*
X140543162Y-98873201D01*
X140543121Y-98920077D01*
X140432599Y-99030599D01*
X140267852Y-99277161D01*
X140210000Y-99568000D01*
X131062000Y-99568000D01*
X131062000Y-88577167D01*
X136224838Y-88577167D01*
X136366883Y-88920943D01*
X136400000Y-88954118D01*
X136400000Y-90678000D01*
X136457852Y-90968839D01*
X136478940Y-91000399D01*
X136478838Y-91117167D01*
X136620883Y-91460943D01*
X136883673Y-91724192D01*
X137227201Y-91866838D01*
X137599167Y-91867162D01*
X137942943Y-91725117D01*
X138206192Y-91462327D01*
X138348838Y-91118799D01*
X138349162Y-90746833D01*
X138207117Y-90403057D01*
X137944327Y-90139808D01*
X137920000Y-90129706D01*
X137920000Y-88954463D01*
X137952192Y-88922327D01*
X138094838Y-88578799D01*
X138095162Y-88206833D01*
X137953117Y-87863057D01*
X137690327Y-87599808D01*
X137346799Y-87457162D01*
X136974833Y-87456838D01*
X136631057Y-87598883D01*
X136367808Y-87861673D01*
X136225162Y-88205201D01*
X136224838Y-88577167D01*
X131062000Y-88577167D01*
X131062000Y-84328000D01*
X138686000Y-84328000D01*
X138686000Y-97028000D01*
X138743852Y-97318839D01*
X138908599Y-97565401D01*
X139018878Y-97675680D01*
X139018838Y-97721167D01*
X139160883Y-98064943D01*
X139423673Y-98328192D01*
X139767201Y-98470838D01*
X140139167Y-98471162D01*
X140482943Y-98329117D01*
X140746192Y-98066327D01*
X140888838Y-97722799D01*
X140888916Y-97632680D01*
X154294285Y-97632680D01*
X155448000Y-98786395D01*
X156601715Y-97632680D01*
X156472467Y-97339877D01*
X155772194Y-97071612D01*
X155022565Y-97091750D01*
X154423533Y-97339877D01*
X154294285Y-97632680D01*
X140888916Y-97632680D01*
X140889162Y-97350833D01*
X140747117Y-97007057D01*
X140484327Y-96743808D01*
X140206000Y-96628236D01*
X140206000Y-90970633D01*
X140529201Y-91104838D01*
X140901167Y-91105162D01*
X141244943Y-90963117D01*
X141508192Y-90700327D01*
X141650838Y-90356799D01*
X141651162Y-89984833D01*
X141509117Y-89641057D01*
X141246327Y-89377808D01*
X141222000Y-89367706D01*
X141222000Y-87989026D01*
X154755042Y-87989026D01*
X154927312Y-88404947D01*
X155321510Y-88836821D01*
X155850973Y-89084968D01*
X156083000Y-88964469D01*
X156083000Y-87757000D01*
X156337000Y-87757000D01*
X156337000Y-88964469D01*
X156569027Y-89084968D01*
X157098490Y-88836821D01*
X157480000Y-88418848D01*
X157861510Y-88836821D01*
X158390973Y-89084968D01*
X158623000Y-88964469D01*
X158623000Y-87757000D01*
X156337000Y-87757000D01*
X156083000Y-87757000D01*
X154876183Y-87757000D01*
X154755042Y-87989026D01*
X141222000Y-87989026D01*
X141222000Y-86166802D01*
X151921401Y-75467401D01*
X152086148Y-75220839D01*
X152144000Y-74930000D01*
X152144000Y-68126463D01*
X152176192Y-68094327D01*
X152318838Y-67750799D01*
X152319162Y-67378833D01*
X152177117Y-67035057D01*
X151914327Y-66771808D01*
X151570799Y-66629162D01*
X151198833Y-66628838D01*
X150855057Y-66770883D01*
X150687417Y-66938230D01*
X150554799Y-66883162D01*
X150182833Y-66882838D01*
X149839057Y-67024883D01*
X149575808Y-67287673D01*
X149433162Y-67631201D01*
X149432838Y-68003167D01*
X149574883Y-68346943D01*
X149608000Y-68380118D01*
X149608000Y-73091198D01*
X138908599Y-83790599D01*
X138743852Y-84037161D01*
X138686000Y-84328000D01*
X131062000Y-84328000D01*
X131062000Y-80070802D01*
X138967401Y-72165401D01*
X139132148Y-71918839D01*
X139190000Y-71628000D01*
X139190000Y-69987000D01*
X142132560Y-69987000D01*
X142132560Y-71237000D01*
X142176838Y-71472317D01*
X142315910Y-71688441D01*
X142528110Y-71833431D01*
X142780000Y-71884440D01*
X144280000Y-71884440D01*
X144515317Y-71840162D01*
X144731441Y-71701090D01*
X144777969Y-71632994D01*
X144920302Y-71775327D01*
X145153691Y-71872000D01*
X145744250Y-71872000D01*
X145903000Y-71713250D01*
X145903000Y-70739000D01*
X146157000Y-70739000D01*
X146157000Y-71713250D01*
X146315750Y-71872000D01*
X146906309Y-71872000D01*
X147139698Y-71775327D01*
X147318327Y-71596699D01*
X147415000Y-71363310D01*
X147415000Y-70897750D01*
X147256250Y-70739000D01*
X146157000Y-70739000D01*
X145903000Y-70739000D01*
X145883000Y-70739000D01*
X145883000Y-70485000D01*
X145903000Y-70485000D01*
X145903000Y-69510750D01*
X146157000Y-69510750D01*
X146157000Y-70485000D01*
X147256250Y-70485000D01*
X147415000Y-70326250D01*
X147415000Y-69860690D01*
X147318327Y-69627301D01*
X147139698Y-69448673D01*
X146906309Y-69352000D01*
X146315750Y-69352000D01*
X146157000Y-69510750D01*
X145903000Y-69510750D01*
X145744250Y-69352000D01*
X145336802Y-69352000D01*
X146110802Y-68578000D01*
X146249537Y-68578000D01*
X146281673Y-68610192D01*
X146625201Y-68752838D01*
X146997167Y-68753162D01*
X147340943Y-68611117D01*
X147604192Y-68348327D01*
X147746838Y-68004799D01*
X147747162Y-67632833D01*
X147678598Y-67466895D01*
X147805673Y-67594192D01*
X148149201Y-67736838D01*
X148521167Y-67737162D01*
X148864943Y-67595117D01*
X149128192Y-67332327D01*
X149270838Y-66988799D01*
X149271162Y-66616833D01*
X149129117Y-66273057D01*
X148866327Y-66009808D01*
X148522799Y-65867162D01*
X148475923Y-65867121D01*
X145903440Y-63294638D01*
X145903440Y-62113000D01*
X145859162Y-61877683D01*
X145720090Y-61661559D01*
X145623155Y-61595326D01*
X145707441Y-61541090D01*
X145852431Y-61328890D01*
X145903440Y-61077000D01*
X145903440Y-59827000D01*
X145859162Y-59591683D01*
X145720090Y-59375559D01*
X145623155Y-59309326D01*
X145707441Y-59255090D01*
X145852431Y-59042890D01*
X145903440Y-58791000D01*
X145903440Y-57541000D01*
X145859162Y-57305683D01*
X145720090Y-57089559D01*
X145623155Y-57023326D01*
X145707441Y-56969090D01*
X145852431Y-56756890D01*
X145903440Y-56505000D01*
X145903440Y-55624000D01*
X146771403Y-55624000D01*
X146780883Y-55646943D01*
X147043673Y-55910192D01*
X147387201Y-56052838D01*
X147759167Y-56053162D01*
X148102943Y-55911117D01*
X148366192Y-55648327D01*
X148508838Y-55304799D01*
X148509162Y-54932833D01*
X148367117Y-54589057D01*
X148334000Y-54555882D01*
X148334000Y-46990000D01*
X148276148Y-46699161D01*
X148276148Y-46699160D01*
X148255060Y-46667600D01*
X148255162Y-46550833D01*
X148113117Y-46207057D01*
X147850327Y-45943808D01*
X147506799Y-45801162D01*
X147134833Y-45800838D01*
X146791057Y-45942883D01*
X146527808Y-46205673D01*
X146385162Y-46549201D01*
X146384838Y-46921167D01*
X146526883Y-47264943D01*
X146789673Y-47528192D01*
X146814000Y-47538294D01*
X146814000Y-54104000D01*
X145522000Y-54104000D01*
X145231161Y-54161852D01*
X144984599Y-54326599D01*
X144703638Y-54607560D01*
X143756000Y-54607560D01*
X143520683Y-54651838D01*
X143304559Y-54790910D01*
X143258031Y-54859006D01*
X143115698Y-54716673D01*
X142882309Y-54620000D01*
X142291750Y-54620000D01*
X142133000Y-54778750D01*
X142133000Y-55753000D01*
X142153000Y-55753000D01*
X142153000Y-56007000D01*
X142133000Y-56007000D01*
X142133000Y-56981250D01*
X142174750Y-57023000D01*
X142133000Y-57064750D01*
X142133000Y-58039000D01*
X142153000Y-58039000D01*
X142153000Y-58293000D01*
X142133000Y-58293000D01*
X142133000Y-59267250D01*
X142174750Y-59309000D01*
X142133000Y-59350750D01*
X142133000Y-60325000D01*
X142153000Y-60325000D01*
X142153000Y-60579000D01*
X142133000Y-60579000D01*
X142133000Y-61553250D01*
X142174750Y-61595000D01*
X142133000Y-61636750D01*
X142133000Y-62611000D01*
X142153000Y-62611000D01*
X142153000Y-62865000D01*
X142133000Y-62865000D01*
X142133000Y-63839250D01*
X142291750Y-63998000D01*
X142882309Y-63998000D01*
X143115698Y-63901327D01*
X143256936Y-63760090D01*
X143291910Y-63814441D01*
X143504110Y-63959431D01*
X143756000Y-64010440D01*
X144469638Y-64010440D01*
X147400878Y-66941680D01*
X147400838Y-66987167D01*
X147469402Y-67153105D01*
X147342327Y-67025808D01*
X146998799Y-66883162D01*
X146626833Y-66882838D01*
X146283057Y-67024883D01*
X146249882Y-67058000D01*
X145796000Y-67058000D01*
X145505161Y-67115852D01*
X145258599Y-67280599D01*
X143199638Y-69339560D01*
X142780000Y-69339560D01*
X142544683Y-69383838D01*
X142328559Y-69522910D01*
X142183569Y-69735110D01*
X142132560Y-69987000D01*
X139190000Y-69987000D01*
X139190000Y-67564000D01*
X139132148Y-67273161D01*
X138967401Y-67026599D01*
X138205401Y-66264599D01*
X137958839Y-66099852D01*
X137668000Y-66042000D01*
X136960463Y-66042000D01*
X136928327Y-66009808D01*
X136584799Y-65867162D01*
X136212833Y-65866838D01*
X135888000Y-66001056D01*
X135888000Y-64850802D01*
X136728362Y-64010440D01*
X137676000Y-64010440D01*
X137911317Y-63966162D01*
X138127441Y-63827090D01*
X138173969Y-63758994D01*
X138316302Y-63901327D01*
X138549691Y-63998000D01*
X139140250Y-63998000D01*
X139299000Y-63839250D01*
X139299000Y-62865000D01*
X139553000Y-62865000D01*
X139553000Y-63839250D01*
X139711750Y-63998000D01*
X140302309Y-63998000D01*
X140535698Y-63901327D01*
X140714327Y-63722699D01*
X140716000Y-63718660D01*
X140717673Y-63722699D01*
X140896302Y-63901327D01*
X141129691Y-63998000D01*
X141720250Y-63998000D01*
X141879000Y-63839250D01*
X141879000Y-62865000D01*
X140779750Y-62865000D01*
X140716000Y-62928750D01*
X140652250Y-62865000D01*
X139553000Y-62865000D01*
X139299000Y-62865000D01*
X139279000Y-62865000D01*
X139279000Y-62611000D01*
X139299000Y-62611000D01*
X139299000Y-61636750D01*
X139257250Y-61595000D01*
X139299000Y-61553250D01*
X139299000Y-60579000D01*
X139553000Y-60579000D01*
X139553000Y-61553250D01*
X139594750Y-61595000D01*
X139553000Y-61636750D01*
X139553000Y-62611000D01*
X140652250Y-62611000D01*
X140716000Y-62547250D01*
X140779750Y-62611000D01*
X141879000Y-62611000D01*
X141879000Y-61636750D01*
X141837250Y-61595000D01*
X141879000Y-61553250D01*
X141879000Y-60579000D01*
X140779750Y-60579000D01*
X140716000Y-60642750D01*
X140652250Y-60579000D01*
X139553000Y-60579000D01*
X139299000Y-60579000D01*
X139279000Y-60579000D01*
X139279000Y-60325000D01*
X139299000Y-60325000D01*
X139299000Y-59350750D01*
X139257250Y-59309000D01*
X139299000Y-59267250D01*
X139299000Y-58293000D01*
X139553000Y-58293000D01*
X139553000Y-59267250D01*
X139594750Y-59309000D01*
X139553000Y-59350750D01*
X139553000Y-60325000D01*
X140652250Y-60325000D01*
X140716000Y-60261250D01*
X140779750Y-60325000D01*
X141879000Y-60325000D01*
X141879000Y-59350750D01*
X141837250Y-59309000D01*
X141879000Y-59267250D01*
X141879000Y-58293000D01*
X140779750Y-58293000D01*
X140716000Y-58356750D01*
X140652250Y-58293000D01*
X139553000Y-58293000D01*
X139299000Y-58293000D01*
X139279000Y-58293000D01*
X139279000Y-58039000D01*
X139299000Y-58039000D01*
X139299000Y-57064750D01*
X139257250Y-57023000D01*
X139299000Y-56981250D01*
X139299000Y-56007000D01*
X139553000Y-56007000D01*
X139553000Y-56981250D01*
X139594750Y-57023000D01*
X139553000Y-57064750D01*
X139553000Y-58039000D01*
X140652250Y-58039000D01*
X140716000Y-57975250D01*
X140779750Y-58039000D01*
X141879000Y-58039000D01*
X141879000Y-57064750D01*
X141837250Y-57023000D01*
X141879000Y-56981250D01*
X141879000Y-56007000D01*
X140779750Y-56007000D01*
X140716000Y-56070750D01*
X140652250Y-56007000D01*
X139553000Y-56007000D01*
X139299000Y-56007000D01*
X139279000Y-56007000D01*
X139279000Y-55753000D01*
X139299000Y-55753000D01*
X139299000Y-54778750D01*
X139553000Y-54778750D01*
X139553000Y-55753000D01*
X140652250Y-55753000D01*
X140716000Y-55689250D01*
X140779750Y-55753000D01*
X141879000Y-55753000D01*
X141879000Y-54778750D01*
X141720250Y-54620000D01*
X141129691Y-54620000D01*
X140896302Y-54716673D01*
X140717673Y-54895301D01*
X140716000Y-54899340D01*
X140714327Y-54895301D01*
X140535698Y-54716673D01*
X140302309Y-54620000D01*
X139711750Y-54620000D01*
X139553000Y-54778750D01*
X139299000Y-54778750D01*
X139140250Y-54620000D01*
X138549691Y-54620000D01*
X138316302Y-54716673D01*
X138175064Y-54857910D01*
X138140090Y-54803559D01*
X137927890Y-54658569D01*
X137676000Y-54607560D01*
X136342362Y-54607560D01*
X135697122Y-53962320D01*
X135697162Y-53916833D01*
X135555117Y-53573057D01*
X135292327Y-53309808D01*
X134948799Y-53167162D01*
X134576833Y-53166838D01*
X134233057Y-53308883D01*
X133969808Y-53571673D01*
X133827162Y-53915201D01*
X133826838Y-54287167D01*
X133968883Y-54630943D01*
X134231673Y-54894192D01*
X134575201Y-55036838D01*
X134622077Y-55036879D01*
X135528560Y-55943362D01*
X135528560Y-56505000D01*
X135572838Y-56740317D01*
X135711910Y-56956441D01*
X135808845Y-57022674D01*
X135724559Y-57076910D01*
X135579569Y-57289110D01*
X135528560Y-57541000D01*
X135528560Y-58791000D01*
X135572838Y-59026317D01*
X135711910Y-59242441D01*
X135808845Y-59308674D01*
X135724559Y-59362910D01*
X135579569Y-59575110D01*
X135528560Y-59827000D01*
X135528560Y-61077000D01*
X135572838Y-61312317D01*
X135711910Y-61528441D01*
X135808845Y-61594674D01*
X135724559Y-61648910D01*
X135579569Y-61861110D01*
X135555898Y-61978000D01*
X132987547Y-61978000D01*
X132873117Y-61701057D01*
X132610327Y-61437808D01*
X132266799Y-61295162D01*
X131894833Y-61294838D01*
X131551057Y-61436883D01*
X131287808Y-61699673D01*
X131145162Y-62043201D01*
X131144838Y-62415167D01*
X131286883Y-62758943D01*
X131549673Y-63022192D01*
X131893201Y-63164838D01*
X131940077Y-63164879D01*
X132050599Y-63275401D01*
X132297161Y-63440148D01*
X132588000Y-63498000D01*
X135091198Y-63498000D01*
X134590599Y-63998599D01*
X134425852Y-64245161D01*
X134368000Y-64536000D01*
X134368000Y-65481889D01*
X134134327Y-65247808D01*
X133790799Y-65105162D01*
X133677265Y-65105063D01*
X133635117Y-65003057D01*
X133372327Y-64739808D01*
X133028799Y-64597162D01*
X132656833Y-64596838D01*
X132313057Y-64738883D01*
X132049808Y-65001673D01*
X131907162Y-65345201D01*
X131907121Y-65392077D01*
X131288599Y-66010599D01*
X131123852Y-66257161D01*
X131066000Y-66548000D01*
X131066000Y-76393198D01*
X128748599Y-78710599D01*
X128583852Y-78957161D01*
X128526000Y-79248000D01*
X115689000Y-79248000D01*
X115689000Y-76708000D01*
X122563000Y-76708000D01*
X122649397Y-77142346D01*
X122895434Y-77510566D01*
X123263654Y-77756603D01*
X123698000Y-77843000D01*
X128524000Y-77843000D01*
X128958346Y-77756603D01*
X129326566Y-77510566D01*
X130063798Y-76773334D01*
X130228346Y-76740603D01*
X130596566Y-76494566D01*
X130842603Y-76126346D01*
X130929000Y-75692000D01*
X130842603Y-75257654D01*
X130596566Y-74889434D01*
X130228346Y-74643397D01*
X129794000Y-74557000D01*
X129540000Y-74557000D01*
X129105654Y-74643397D01*
X128935878Y-74756838D01*
X128737434Y-74889434D01*
X128053868Y-75573000D01*
X123698000Y-75573000D01*
X123263654Y-75659397D01*
X122895434Y-75905434D01*
X122649397Y-76273654D01*
X122563000Y-76708000D01*
X115689000Y-76708000D01*
X115689000Y-61468000D01*
X115602603Y-61033654D01*
X115356566Y-60665434D01*
X113157000Y-58465868D01*
X113157000Y-58420000D01*
X113146994Y-58370590D01*
X113115817Y-58326381D01*
X111936169Y-57245037D01*
X106720566Y-52029434D01*
X106352346Y-51783397D01*
X105918000Y-51697000D01*
X105883765Y-51697000D01*
X105495817Y-51341381D01*
X105452633Y-51315370D01*
X105410000Y-51308000D01*
X96518000Y-51308000D01*
X96518000Y-47244000D01*
X96474804Y-47026839D01*
X96460148Y-46953160D01*
X96439060Y-46921600D01*
X96439162Y-46804833D01*
X96297117Y-46461057D01*
X96034327Y-46197808D01*
X95690799Y-46055162D01*
X95318833Y-46054838D01*
X94975057Y-46196883D01*
X94711808Y-46459673D01*
X94569162Y-46803201D01*
X94568838Y-47175167D01*
X94710883Y-47518943D01*
X94973673Y-47782192D01*
X94998000Y-47792294D01*
X94998000Y-51308000D01*
X83901132Y-51308000D01*
X79621000Y-47027868D01*
X79621000Y-44324430D01*
X81046132Y-44324430D01*
X81210902Y-44723203D01*
X81515733Y-45028566D01*
X81914217Y-45194031D01*
X82345690Y-45194408D01*
X82744463Y-45029638D01*
X83049826Y-44724807D01*
X83215291Y-44326323D01*
X83215668Y-43894850D01*
X83050898Y-43496077D01*
X82746067Y-43190714D01*
X82347583Y-43025249D01*
X81916110Y-43024872D01*
X81517337Y-43189642D01*
X81211974Y-43494473D01*
X81046509Y-43892957D01*
X81046132Y-44324430D01*
X79621000Y-44324430D01*
X79621000Y-39925150D01*
X81046132Y-39925150D01*
X81210902Y-40323923D01*
X81515733Y-40629286D01*
X81914217Y-40794751D01*
X82345690Y-40795128D01*
X82744463Y-40630358D01*
X83049826Y-40325527D01*
X83215291Y-39927043D01*
X83215615Y-39555167D01*
X86694838Y-39555167D01*
X86836883Y-39898943D01*
X86870000Y-39932118D01*
X86870000Y-46681537D01*
X86837808Y-46713673D01*
X86695162Y-47057201D01*
X86694838Y-47429167D01*
X86836883Y-47772943D01*
X87099673Y-48036192D01*
X87443201Y-48178838D01*
X87815167Y-48179162D01*
X88158943Y-48037117D01*
X88422192Y-47774327D01*
X88564838Y-47430799D01*
X88565162Y-47058833D01*
X88423117Y-46715057D01*
X88390000Y-46681882D01*
X88390000Y-40317167D01*
X88472838Y-40317167D01*
X88614883Y-40660943D01*
X88877673Y-40924192D01*
X89221201Y-41066838D01*
X89268077Y-41066879D01*
X91156599Y-42955401D01*
X91339011Y-43077285D01*
X91376838Y-43278317D01*
X91515910Y-43494441D01*
X91728110Y-43639431D01*
X91980000Y-43690440D01*
X93480000Y-43690440D01*
X93715317Y-43646162D01*
X93931441Y-43507090D01*
X93977969Y-43438994D01*
X94120302Y-43581327D01*
X94353691Y-43678000D01*
X94944250Y-43678000D01*
X95103000Y-43519250D01*
X95103000Y-42545000D01*
X95357000Y-42545000D01*
X95357000Y-43519250D01*
X95515750Y-43678000D01*
X96106309Y-43678000D01*
X96339698Y-43581327D01*
X96518327Y-43402699D01*
X96615000Y-43169310D01*
X96615000Y-42703750D01*
X96456250Y-42545000D01*
X95357000Y-42545000D01*
X95103000Y-42545000D01*
X95083000Y-42545000D01*
X95083000Y-42291000D01*
X95103000Y-42291000D01*
X95103000Y-41316750D01*
X95357000Y-41316750D01*
X95357000Y-42291000D01*
X96456250Y-42291000D01*
X96615000Y-42132250D01*
X96615000Y-41666690D01*
X96518327Y-41433301D01*
X96339698Y-41254673D01*
X96106309Y-41158000D01*
X95515750Y-41158000D01*
X95357000Y-41316750D01*
X95103000Y-41316750D01*
X94944250Y-41158000D01*
X94353691Y-41158000D01*
X94120302Y-41254673D01*
X93979064Y-41395910D01*
X93944090Y-41341559D01*
X93731890Y-41196569D01*
X93480000Y-41145560D01*
X91980000Y-41145560D01*
X91744683Y-41189838D01*
X91620530Y-41269728D01*
X90343122Y-39992320D01*
X90343162Y-39946833D01*
X90327840Y-39909750D01*
X93885000Y-39909750D01*
X93885000Y-40375310D01*
X93981673Y-40608699D01*
X94160302Y-40787327D01*
X94393691Y-40884000D01*
X94984250Y-40884000D01*
X95143000Y-40725250D01*
X95143000Y-39751000D01*
X94043750Y-39751000D01*
X93885000Y-39909750D01*
X90327840Y-39909750D01*
X90201117Y-39603057D01*
X89938327Y-39339808D01*
X89594799Y-39197162D01*
X89222833Y-39196838D01*
X88879057Y-39338883D01*
X88615808Y-39601673D01*
X88473162Y-39945201D01*
X88472838Y-40317167D01*
X88390000Y-40317167D01*
X88390000Y-39932463D01*
X88422192Y-39900327D01*
X88564838Y-39556799D01*
X88565162Y-39184833D01*
X88436188Y-38872690D01*
X93885000Y-38872690D01*
X93885000Y-39338250D01*
X94043750Y-39497000D01*
X95143000Y-39497000D01*
X95143000Y-38522750D01*
X94984250Y-38364000D01*
X94393691Y-38364000D01*
X94160302Y-38460673D01*
X93981673Y-38639301D01*
X93885000Y-38872690D01*
X88436188Y-38872690D01*
X88423117Y-38841057D01*
X88160327Y-38577808D01*
X87816799Y-38435162D01*
X87444833Y-38434838D01*
X87101057Y-38576883D01*
X86837808Y-38839673D01*
X86695162Y-39183201D01*
X86694838Y-39555167D01*
X83215615Y-39555167D01*
X83215668Y-39495570D01*
X83050898Y-39096797D01*
X82746067Y-38791434D01*
X82347583Y-38625969D01*
X81916110Y-38625592D01*
X81517337Y-38790362D01*
X81211974Y-39095193D01*
X81046509Y-39493677D01*
X81046132Y-39925150D01*
X79621000Y-39925150D01*
X79621000Y-38062132D01*
X81075382Y-36607750D01*
X93885000Y-36607750D01*
X93885000Y-37073310D01*
X93981673Y-37306699D01*
X94160302Y-37485327D01*
X94393691Y-37582000D01*
X94984250Y-37582000D01*
X95143000Y-37423250D01*
X95143000Y-36449000D01*
X94043750Y-36449000D01*
X93885000Y-36607750D01*
X81075382Y-36607750D01*
X82112442Y-35570690D01*
X93885000Y-35570690D01*
X93885000Y-36036250D01*
X94043750Y-36195000D01*
X95143000Y-36195000D01*
X95143000Y-35220750D01*
X95397000Y-35220750D01*
X95397000Y-36195000D01*
X95417000Y-36195000D01*
X95417000Y-36449000D01*
X95397000Y-36449000D01*
X95397000Y-37423250D01*
X95555750Y-37582000D01*
X96146309Y-37582000D01*
X96379698Y-37485327D01*
X96520936Y-37344090D01*
X96555910Y-37398441D01*
X96635000Y-37452481D01*
X96635000Y-38492156D01*
X96568559Y-38534910D01*
X96522031Y-38603006D01*
X96379698Y-38460673D01*
X96146309Y-38364000D01*
X95555750Y-38364000D01*
X95397000Y-38522750D01*
X95397000Y-39497000D01*
X95417000Y-39497000D01*
X95417000Y-39751000D01*
X95397000Y-39751000D01*
X95397000Y-40725250D01*
X95555750Y-40884000D01*
X96146309Y-40884000D01*
X96379698Y-40787327D01*
X96520936Y-40646090D01*
X96555910Y-40700441D01*
X96768110Y-40845431D01*
X97020000Y-40896440D01*
X98520000Y-40896440D01*
X98755317Y-40852162D01*
X98900095Y-40759000D01*
X102907868Y-40759000D01*
X105037000Y-42888132D01*
X105037000Y-46482000D01*
X105123397Y-46916346D01*
X105342329Y-47244000D01*
X105369434Y-47284566D01*
X112456666Y-54371798D01*
X112489397Y-54536346D01*
X112735434Y-54904566D01*
X113103654Y-55150603D01*
X113268202Y-55183334D01*
X115705000Y-57620132D01*
X115705000Y-62230000D01*
X115791397Y-62664346D01*
X116037434Y-63032566D01*
X116405654Y-63278603D01*
X116840000Y-63365000D01*
X117274346Y-63278603D01*
X117642566Y-63032566D01*
X117888603Y-62664346D01*
X117975000Y-62230000D01*
X117975000Y-57150000D01*
X117888603Y-56715654D01*
X117642566Y-56347434D01*
X115143132Y-53848000D01*
X126532566Y-42458566D01*
X126644530Y-42291000D01*
X126778603Y-42090346D01*
X126865000Y-41656000D01*
X126865000Y-40457943D01*
X127045041Y-40342090D01*
X127190031Y-40129890D01*
X127241040Y-39878000D01*
X127241040Y-37846000D01*
X127196762Y-37610683D01*
X127057690Y-37394559D01*
X126845490Y-37249569D01*
X126593600Y-37198560D01*
X124866400Y-37198560D01*
X124631083Y-37242838D01*
X124414959Y-37381910D01*
X124269969Y-37594110D01*
X124261600Y-37635439D01*
X124249670Y-37617585D01*
X123763489Y-37292729D01*
X123190000Y-37178655D01*
X122616511Y-37292729D01*
X122130330Y-37617585D01*
X121920000Y-37932366D01*
X121709670Y-37617585D01*
X121223489Y-37292729D01*
X120650000Y-37178655D01*
X120076511Y-37292729D01*
X119590330Y-37617585D01*
X119383539Y-37927069D01*
X119012036Y-37511268D01*
X118484791Y-37257291D01*
X118469026Y-37254642D01*
X118237000Y-37375783D01*
X118237000Y-38735000D01*
X118257000Y-38735000D01*
X118257000Y-38989000D01*
X118237000Y-38989000D01*
X118237000Y-40348217D01*
X118469026Y-40469358D01*
X118484791Y-40466709D01*
X119012036Y-40212732D01*
X119383539Y-39796931D01*
X119590330Y-40106415D01*
X119596596Y-40110602D01*
X117033198Y-42674000D01*
X116132463Y-42674000D01*
X116100327Y-42641808D01*
X115756799Y-42499162D01*
X115384833Y-42498838D01*
X115041057Y-42640883D01*
X114777808Y-42903673D01*
X114635162Y-43247201D01*
X114634838Y-43619167D01*
X114776883Y-43962943D01*
X115039673Y-44226192D01*
X115383201Y-44368838D01*
X115755167Y-44369162D01*
X116098943Y-44227117D01*
X116132118Y-44194000D01*
X117348000Y-44194000D01*
X117638839Y-44136148D01*
X117885401Y-43971401D01*
X121187401Y-40669401D01*
X121352148Y-40422840D01*
X121369935Y-40333419D01*
X121709670Y-40106415D01*
X121920000Y-39791634D01*
X122130330Y-40106415D01*
X122136596Y-40110602D01*
X117287198Y-44960000D01*
X115824000Y-44960000D01*
X115533161Y-45017852D01*
X115515522Y-45029638D01*
X115286599Y-45182599D01*
X115176320Y-45292878D01*
X115130833Y-45292838D01*
X114787057Y-45434883D01*
X114523808Y-45697673D01*
X114381162Y-46041201D01*
X114380838Y-46413167D01*
X114522883Y-46756943D01*
X114785673Y-47020192D01*
X115129201Y-47162838D01*
X115501167Y-47163162D01*
X115844943Y-47021117D01*
X116108192Y-46758327D01*
X116223764Y-46480000D01*
X117602000Y-46480000D01*
X117892839Y-46422148D01*
X118139401Y-46257401D01*
X123727401Y-40669401D01*
X123892148Y-40422840D01*
X123909935Y-40333419D01*
X124249670Y-40106415D01*
X124259243Y-40092087D01*
X124263238Y-40113317D01*
X124402310Y-40329441D01*
X124595000Y-40461100D01*
X124595000Y-41185868D01*
X113538000Y-52242868D01*
X107307000Y-46011868D01*
X107307000Y-42418000D01*
X107220603Y-41983654D01*
X106974566Y-41615434D01*
X104583045Y-39223913D01*
X116624816Y-39223913D01*
X116818046Y-39776320D01*
X117207964Y-40212732D01*
X117735209Y-40466709D01*
X117750974Y-40469358D01*
X117983000Y-40348217D01*
X117983000Y-38989000D01*
X116769076Y-38989000D01*
X116624816Y-39223913D01*
X104583045Y-39223913D01*
X104180566Y-38821434D01*
X104135668Y-38791434D01*
X103812346Y-38575397D01*
X103433738Y-38500087D01*
X116624816Y-38500087D01*
X116769076Y-38735000D01*
X117983000Y-38735000D01*
X117983000Y-37375783D01*
X117750974Y-37254642D01*
X117735209Y-37257291D01*
X117207964Y-37511268D01*
X116818046Y-37947680D01*
X116624816Y-38500087D01*
X103433738Y-38500087D01*
X103378000Y-38489000D01*
X98905000Y-38489000D01*
X98905000Y-37453844D01*
X98971441Y-37411090D01*
X99116431Y-37198890D01*
X99167440Y-36947000D01*
X99167440Y-35697000D01*
X99123162Y-35461683D01*
X98984090Y-35245559D01*
X98771890Y-35100569D01*
X98520000Y-35049560D01*
X97020000Y-35049560D01*
X96784683Y-35093838D01*
X96568559Y-35232910D01*
X96522031Y-35301006D01*
X96379698Y-35158673D01*
X96146309Y-35062000D01*
X95555750Y-35062000D01*
X95397000Y-35220750D01*
X95143000Y-35220750D01*
X94984250Y-35062000D01*
X94393691Y-35062000D01*
X94160302Y-35158673D01*
X93981673Y-35337301D01*
X93885000Y-35570690D01*
X82112442Y-35570690D01*
X83860566Y-33822566D01*
X84106603Y-33454346D01*
X84148324Y-33244599D01*
X84193000Y-33020000D01*
X84193000Y-32191606D01*
X84544803Y-31839803D01*
X84572666Y-31797789D01*
X84582000Y-31750000D01*
X84582000Y-30556611D01*
X84666990Y-30762303D01*
X85059630Y-31155629D01*
X85572900Y-31368757D01*
X86128661Y-31369242D01*
X86642303Y-31157010D01*
X87035629Y-30764370D01*
X87101900Y-30604772D01*
X87166990Y-30762303D01*
X87559630Y-31155629D01*
X88072900Y-31368757D01*
X88628661Y-31369242D01*
X89142303Y-31157010D01*
X89535629Y-30764370D01*
X89601900Y-30604772D01*
X89666990Y-30762303D01*
X90059630Y-31155629D01*
X90572900Y-31368757D01*
X91128661Y-31369242D01*
X91642303Y-31157010D01*
X91847457Y-30952213D01*
X92551392Y-30952213D01*
X92620857Y-31194397D01*
X93144302Y-31381144D01*
X93699368Y-31353362D01*
X94083143Y-31194397D01*
X94152608Y-30952213D01*
X93352000Y-30151605D01*
X92551392Y-30952213D01*
X91847457Y-30952213D01*
X92035629Y-30764370D01*
X92095370Y-30620497D01*
X92129603Y-30703143D01*
X92371787Y-30772608D01*
X93172395Y-29972000D01*
X93531605Y-29972000D01*
X94332213Y-30772608D01*
X94574397Y-30703143D01*
X94692071Y-30373305D01*
X98114674Y-30373305D01*
X98401043Y-31066372D01*
X98930839Y-31597093D01*
X99623405Y-31884672D01*
X100373305Y-31885326D01*
X100993596Y-31629027D01*
X103415032Y-31629027D01*
X103663179Y-32158490D01*
X104095053Y-32552688D01*
X104510974Y-32724958D01*
X104743000Y-32603817D01*
X104743000Y-31397000D01*
X103535531Y-31397000D01*
X103415032Y-31629027D01*
X100993596Y-31629027D01*
X101066372Y-31598957D01*
X101597093Y-31069161D01*
X101884672Y-30376595D01*
X101885326Y-29626695D01*
X101598957Y-28933628D01*
X101069161Y-28402907D01*
X100376595Y-28115328D01*
X99626695Y-28114674D01*
X98933628Y-28401043D01*
X98402907Y-28930839D01*
X98115328Y-29623405D01*
X98114674Y-30373305D01*
X94692071Y-30373305D01*
X94761144Y-30179698D01*
X94733362Y-29624632D01*
X94574397Y-29240857D01*
X94332213Y-29171392D01*
X93531605Y-29972000D01*
X93172395Y-29972000D01*
X92371787Y-29171392D01*
X92129603Y-29240857D01*
X92098026Y-29329367D01*
X92037010Y-29181697D01*
X91847432Y-28991787D01*
X92551392Y-28991787D01*
X93352000Y-29792395D01*
X94152608Y-28991787D01*
X94083143Y-28749603D01*
X93559698Y-28562856D01*
X93004632Y-28590638D01*
X92620857Y-28749603D01*
X92551392Y-28991787D01*
X91847432Y-28991787D01*
X91644370Y-28788371D01*
X91131100Y-28575243D01*
X90575339Y-28574758D01*
X90061697Y-28786990D01*
X89668371Y-29179630D01*
X89602100Y-29339228D01*
X89537010Y-29181697D01*
X89144370Y-28788371D01*
X88631100Y-28575243D01*
X88075339Y-28574758D01*
X87561697Y-28786990D01*
X87168371Y-29179630D01*
X87102100Y-29339228D01*
X87037010Y-29181697D01*
X86644370Y-28788371D01*
X86131100Y-28575243D01*
X85575339Y-28574758D01*
X85061697Y-28786990D01*
X84668371Y-29179630D01*
X84582000Y-29387635D01*
X84582000Y-28627606D01*
X86166606Y-27043000D01*
X149455000Y-27043000D01*
X149455000Y-27753710D01*
G36*
X134368000Y-67310000D02*
X134425852Y-67600839D01*
X134590599Y-67847401D01*
X136085198Y-69342000D01*
X134336599Y-71090599D01*
X134171852Y-71337161D01*
X134114000Y-71628000D01*
X134114000Y-72095403D01*
X134091057Y-72104883D01*
X133827808Y-72367673D01*
X133685162Y-72711201D01*
X133684838Y-73083167D01*
X133826883Y-73426943D01*
X134089673Y-73690192D01*
X134433201Y-73832838D01*
X134805167Y-73833162D01*
X135148943Y-73691117D01*
X135412192Y-73428327D01*
X135554838Y-73084799D01*
X135554941Y-72966579D01*
X135576148Y-72934840D01*
X135634000Y-72644000D01*
X135634000Y-71942802D01*
X137299680Y-70277122D01*
X137345167Y-70277162D01*
X137670000Y-70142944D01*
X137670000Y-71313198D01*
X133348000Y-75635198D01*
X133348000Y-67370802D01*
X133743680Y-66975122D01*
X133789167Y-66975162D01*
X134132943Y-66833117D01*
X134368000Y-66598470D01*
X134368000Y-67310000D01*
X134368000Y-67310000D01*
G37*
X134368000Y-67310000D02*
X134425852Y-67600839D01*
X134590599Y-67847401D01*
X136085198Y-69342000D01*
X134336599Y-71090599D01*
X134171852Y-71337161D01*
X134114000Y-71628000D01*
X134114000Y-72095403D01*
X134091057Y-72104883D01*
X133827808Y-72367673D01*
X133685162Y-72711201D01*
X133684838Y-73083167D01*
X133826883Y-73426943D01*
X134089673Y-73690192D01*
X134433201Y-73832838D01*
X134805167Y-73833162D01*
X135148943Y-73691117D01*
X135412192Y-73428327D01*
X135554838Y-73084799D01*
X135554941Y-72966579D01*
X135576148Y-72934840D01*
X135634000Y-72644000D01*
X135634000Y-71942802D01*
X137299680Y-70277122D01*
X137345167Y-70277162D01*
X137670000Y-70142944D01*
X137670000Y-71313198D01*
X133348000Y-75635198D01*
X133348000Y-67370802D01*
X133743680Y-66975122D01*
X133789167Y-66975162D01*
X134132943Y-66833117D01*
X134368000Y-66598470D01*
X134368000Y-67310000D01*
G36*
X144450330Y-32359029D02*
X144936511Y-32683885D01*
X145510000Y-32797959D01*
X146052000Y-32690149D01*
X146052000Y-33782000D01*
X146109852Y-34072839D01*
X146274599Y-34319401D01*
X147830000Y-35874802D01*
X147830000Y-43123198D01*
X146841401Y-42134599D01*
X146594839Y-41969852D01*
X146304000Y-41912000D01*
X142808802Y-41912000D01*
X141222000Y-40325198D01*
X141222000Y-40306648D01*
X141521670Y-40106415D01*
X141531243Y-40092087D01*
X141535238Y-40113317D01*
X141674310Y-40329441D01*
X141886510Y-40474431D01*
X142138400Y-40525440D01*
X143865600Y-40525440D01*
X144100917Y-40481162D01*
X144317041Y-40342090D01*
X144462031Y-40129890D01*
X144513040Y-39878000D01*
X144513040Y-37846000D01*
X144468762Y-37610683D01*
X144329690Y-37394559D01*
X144117490Y-37249569D01*
X143865600Y-37198560D01*
X142138400Y-37198560D01*
X141903083Y-37242838D01*
X141686959Y-37381910D01*
X141541969Y-37594110D01*
X141533600Y-37635439D01*
X141521670Y-37617585D01*
X141035489Y-37292729D01*
X140462000Y-37178655D01*
X139888511Y-37292729D01*
X139402330Y-37617585D01*
X139195539Y-37927069D01*
X138824036Y-37511268D01*
X138296791Y-37257291D01*
X138281026Y-37254642D01*
X138049000Y-37375783D01*
X138049000Y-38735000D01*
X138069000Y-38735000D01*
X138069000Y-38989000D01*
X138049000Y-38989000D01*
X138049000Y-40348217D01*
X138281026Y-40469358D01*
X138296791Y-40466709D01*
X138824036Y-40212732D01*
X139195539Y-39796931D01*
X139402330Y-40106415D01*
X139702000Y-40306648D01*
X139702000Y-40640000D01*
X139759852Y-40930839D01*
X139806192Y-41000192D01*
X139736839Y-40953852D01*
X139446000Y-40896000D01*
X137220802Y-40896000D01*
X136435404Y-40110602D01*
X136441670Y-40106415D01*
X136648461Y-39796931D01*
X137019964Y-40212732D01*
X137547209Y-40466709D01*
X137562974Y-40469358D01*
X137795000Y-40348217D01*
X137795000Y-38989000D01*
X137775000Y-38989000D01*
X137775000Y-38735000D01*
X137795000Y-38735000D01*
X137795000Y-37375783D01*
X137562974Y-37254642D01*
X137547209Y-37257291D01*
X137019964Y-37511268D01*
X136648461Y-37927069D01*
X136441670Y-37617585D01*
X135955489Y-37292729D01*
X135382000Y-37178655D01*
X134808511Y-37292729D01*
X134322330Y-37617585D01*
X134112000Y-37932366D01*
X133901670Y-37617585D01*
X133415489Y-37292729D01*
X132842000Y-37178655D01*
X132268511Y-37292729D01*
X131782330Y-37617585D01*
X131458654Y-38102000D01*
X130810000Y-38102000D01*
X130519161Y-38159852D01*
X130272599Y-38324599D01*
X130046000Y-38551198D01*
X130046000Y-35814000D01*
X129988148Y-35523161D01*
X129988148Y-35523160D01*
X129823401Y-35276599D01*
X129792000Y-35245198D01*
X129792000Y-32702879D01*
X130270000Y-32797959D01*
X130843489Y-32683885D01*
X131329670Y-32359029D01*
X131540000Y-32044248D01*
X131750330Y-32359029D01*
X132236511Y-32683885D01*
X132810000Y-32797959D01*
X133383489Y-32683885D01*
X133869670Y-32359029D01*
X134080000Y-32044248D01*
X134290330Y-32359029D01*
X134776511Y-32683885D01*
X135350000Y-32797959D01*
X135923489Y-32683885D01*
X136409670Y-32359029D01*
X136620000Y-32044248D01*
X136830330Y-32359029D01*
X137316511Y-32683885D01*
X137890000Y-32797959D01*
X138463489Y-32683885D01*
X138949670Y-32359029D01*
X139160000Y-32044248D01*
X139370330Y-32359029D01*
X139856511Y-32683885D01*
X140430000Y-32797959D01*
X141003489Y-32683885D01*
X141489670Y-32359029D01*
X141700000Y-32044248D01*
X141910330Y-32359029D01*
X142396511Y-32683885D01*
X142970000Y-32797959D01*
X143543489Y-32683885D01*
X144029670Y-32359029D01*
X144240000Y-32044248D01*
X144450330Y-32359029D01*
X144450330Y-32359029D01*
G37*
X144450330Y-32359029D02*
X144936511Y-32683885D01*
X145510000Y-32797959D01*
X146052000Y-32690149D01*
X146052000Y-33782000D01*
X146109852Y-34072839D01*
X146274599Y-34319401D01*
X147830000Y-35874802D01*
X147830000Y-43123198D01*
X146841401Y-42134599D01*
X146594839Y-41969852D01*
X146304000Y-41912000D01*
X142808802Y-41912000D01*
X141222000Y-40325198D01*
X141222000Y-40306648D01*
X141521670Y-40106415D01*
X141531243Y-40092087D01*
X141535238Y-40113317D01*
X141674310Y-40329441D01*
X141886510Y-40474431D01*
X142138400Y-40525440D01*
X143865600Y-40525440D01*
X144100917Y-40481162D01*
X144317041Y-40342090D01*
X144462031Y-40129890D01*
X144513040Y-39878000D01*
X144513040Y-37846000D01*
X144468762Y-37610683D01*
X144329690Y-37394559D01*
X144117490Y-37249569D01*
X143865600Y-37198560D01*
X142138400Y-37198560D01*
X141903083Y-37242838D01*
X141686959Y-37381910D01*
X141541969Y-37594110D01*
X141533600Y-37635439D01*
X141521670Y-37617585D01*
X141035489Y-37292729D01*
X140462000Y-37178655D01*
X139888511Y-37292729D01*
X139402330Y-37617585D01*
X139195539Y-37927069D01*
X138824036Y-37511268D01*
X138296791Y-37257291D01*
X138281026Y-37254642D01*
X138049000Y-37375783D01*
X138049000Y-38735000D01*
X138069000Y-38735000D01*
X138069000Y-38989000D01*
X138049000Y-38989000D01*
X138049000Y-40348217D01*
X138281026Y-40469358D01*
X138296791Y-40466709D01*
X138824036Y-40212732D01*
X139195539Y-39796931D01*
X139402330Y-40106415D01*
X139702000Y-40306648D01*
X139702000Y-40640000D01*
X139759852Y-40930839D01*
X139806192Y-41000192D01*
X139736839Y-40953852D01*
X139446000Y-40896000D01*
X137220802Y-40896000D01*
X136435404Y-40110602D01*
X136441670Y-40106415D01*
X136648461Y-39796931D01*
X137019964Y-40212732D01*
X137547209Y-40466709D01*
X137562974Y-40469358D01*
X137795000Y-40348217D01*
X137795000Y-38989000D01*
X137775000Y-38989000D01*
X137775000Y-38735000D01*
X137795000Y-38735000D01*
X137795000Y-37375783D01*
X137562974Y-37254642D01*
X137547209Y-37257291D01*
X137019964Y-37511268D01*
X136648461Y-37927069D01*
X136441670Y-37617585D01*
X135955489Y-37292729D01*
X135382000Y-37178655D01*
X134808511Y-37292729D01*
X134322330Y-37617585D01*
X134112000Y-37932366D01*
X133901670Y-37617585D01*
X133415489Y-37292729D01*
X132842000Y-37178655D01*
X132268511Y-37292729D01*
X131782330Y-37617585D01*
X131458654Y-38102000D01*
X130810000Y-38102000D01*
X130519161Y-38159852D01*
X130272599Y-38324599D01*
X130046000Y-38551198D01*
X130046000Y-35814000D01*
X129988148Y-35523161D01*
X129988148Y-35523160D01*
X129823401Y-35276599D01*
X129792000Y-35245198D01*
X129792000Y-32702879D01*
X130270000Y-32797959D01*
X130843489Y-32683885D01*
X131329670Y-32359029D01*
X131540000Y-32044248D01*
X131750330Y-32359029D01*
X132236511Y-32683885D01*
X132810000Y-32797959D01*
X133383489Y-32683885D01*
X133869670Y-32359029D01*
X134080000Y-32044248D01*
X134290330Y-32359029D01*
X134776511Y-32683885D01*
X135350000Y-32797959D01*
X135923489Y-32683885D01*
X136409670Y-32359029D01*
X136620000Y-32044248D01*
X136830330Y-32359029D01*
X137316511Y-32683885D01*
X137890000Y-32797959D01*
X138463489Y-32683885D01*
X138949670Y-32359029D01*
X139160000Y-32044248D01*
X139370330Y-32359029D01*
X139856511Y-32683885D01*
X140430000Y-32797959D01*
X141003489Y-32683885D01*
X141489670Y-32359029D01*
X141700000Y-32044248D01*
X141910330Y-32359029D01*
X142396511Y-32683885D01*
X142970000Y-32797959D01*
X143543489Y-32683885D01*
X144029670Y-32359029D01*
X144240000Y-32044248D01*
X144450330Y-32359029D01*
G36*
X111283179Y-29618490D02*
X111701161Y-30000008D01*
X111430330Y-30180971D01*
X111220000Y-30495752D01*
X111009670Y-30180971D01*
X110738828Y-30000000D01*
X111009670Y-29819029D01*
X111225664Y-29495772D01*
X111283179Y-29618490D01*
X111283179Y-29618490D01*
G37*
X111283179Y-29618490D02*
X111701161Y-30000008D01*
X111430330Y-30180971D01*
X111220000Y-30495752D01*
X111009670Y-30180971D01*
X110738828Y-30000000D01*
X111009670Y-29819029D01*
X111225664Y-29495772D01*
X111283179Y-29618490D01*
G36*
X100838000Y-57407417D02*
X100667746Y-57152614D01*
X100624566Y-57109434D01*
X100256345Y-56863397D01*
X99822000Y-56777000D01*
X99387655Y-56863397D01*
X99019434Y-57109434D01*
X98773397Y-57477655D01*
X98687000Y-57912000D01*
X98730180Y-58129079D01*
X98730180Y-59766460D01*
X98065590Y-59766460D01*
X97830273Y-59810738D01*
X97614149Y-59949810D01*
X97469159Y-60162010D01*
X97418150Y-60413900D01*
X97418150Y-62014100D01*
X97462428Y-62249417D01*
X97601500Y-62465541D01*
X97813700Y-62610531D01*
X98065590Y-62661540D01*
X99664408Y-62661540D01*
X100838000Y-63835132D01*
X100838000Y-72263000D01*
X76962000Y-72263000D01*
X76962000Y-64889305D01*
X77870674Y-64889305D01*
X78157043Y-65582372D01*
X78686839Y-66113093D01*
X79379405Y-66400672D01*
X80129305Y-66401326D01*
X80822372Y-66114957D01*
X81353093Y-65585161D01*
X81640672Y-64892595D01*
X81641326Y-64142695D01*
X81354957Y-63449628D01*
X80825161Y-62918907D01*
X80132595Y-62631328D01*
X79382695Y-62630674D01*
X78689628Y-62917043D01*
X78158907Y-63446839D01*
X77871328Y-64139405D01*
X77870674Y-64889305D01*
X76962000Y-64889305D01*
X76962000Y-58197750D01*
X77749400Y-58197750D01*
X77749400Y-59155910D01*
X77846073Y-59389299D01*
X78024702Y-59567927D01*
X78258091Y-59664600D01*
X79216250Y-59664600D01*
X79375000Y-59505850D01*
X79375000Y-58039000D01*
X79629000Y-58039000D01*
X79629000Y-59505850D01*
X79787750Y-59664600D01*
X80745909Y-59664600D01*
X80979298Y-59567927D01*
X81157927Y-59389299D01*
X81254600Y-59155910D01*
X81254600Y-58197750D01*
X81095850Y-58039000D01*
X79629000Y-58039000D01*
X79375000Y-58039000D01*
X77908150Y-58039000D01*
X77749400Y-58197750D01*
X76962000Y-58197750D01*
X76962000Y-56668090D01*
X77749400Y-56668090D01*
X77749400Y-57626250D01*
X77908150Y-57785000D01*
X79375000Y-57785000D01*
X79375000Y-56318150D01*
X79629000Y-56318150D01*
X79629000Y-57785000D01*
X81095850Y-57785000D01*
X81254600Y-57626250D01*
X81254600Y-56668090D01*
X81157927Y-56434701D01*
X80979298Y-56256073D01*
X80745909Y-56159400D01*
X79787750Y-56159400D01*
X79629000Y-56318150D01*
X79375000Y-56318150D01*
X79216250Y-56159400D01*
X78258091Y-56159400D01*
X78024702Y-56256073D01*
X77846073Y-56434701D01*
X77749400Y-56668090D01*
X76962000Y-56668090D01*
X76962000Y-54737000D01*
X100838000Y-54737000D01*
X100838000Y-57407417D01*
X100838000Y-57407417D01*
G37*
X100838000Y-57407417D02*
X100667746Y-57152614D01*
X100624566Y-57109434D01*
X100256345Y-56863397D01*
X99822000Y-56777000D01*
X99387655Y-56863397D01*
X99019434Y-57109434D01*
X98773397Y-57477655D01*
X98687000Y-57912000D01*
X98730180Y-58129079D01*
X98730180Y-59766460D01*
X98065590Y-59766460D01*
X97830273Y-59810738D01*
X97614149Y-59949810D01*
X97469159Y-60162010D01*
X97418150Y-60413900D01*
X97418150Y-62014100D01*
X97462428Y-62249417D01*
X97601500Y-62465541D01*
X97813700Y-62610531D01*
X98065590Y-62661540D01*
X99664408Y-62661540D01*
X100838000Y-63835132D01*
X100838000Y-72263000D01*
X76962000Y-72263000D01*
X76962000Y-64889305D01*
X77870674Y-64889305D01*
X78157043Y-65582372D01*
X78686839Y-66113093D01*
X79379405Y-66400672D01*
X80129305Y-66401326D01*
X80822372Y-66114957D01*
X81353093Y-65585161D01*
X81640672Y-64892595D01*
X81641326Y-64142695D01*
X81354957Y-63449628D01*
X80825161Y-62918907D01*
X80132595Y-62631328D01*
X79382695Y-62630674D01*
X78689628Y-62917043D01*
X78158907Y-63446839D01*
X77871328Y-64139405D01*
X77870674Y-64889305D01*
X76962000Y-64889305D01*
X76962000Y-58197750D01*
X77749400Y-58197750D01*
X77749400Y-59155910D01*
X77846073Y-59389299D01*
X78024702Y-59567927D01*
X78258091Y-59664600D01*
X79216250Y-59664600D01*
X79375000Y-59505850D01*
X79375000Y-58039000D01*
X79629000Y-58039000D01*
X79629000Y-59505850D01*
X79787750Y-59664600D01*
X80745909Y-59664600D01*
X80979298Y-59567927D01*
X81157927Y-59389299D01*
X81254600Y-59155910D01*
X81254600Y-58197750D01*
X81095850Y-58039000D01*
X79629000Y-58039000D01*
X79375000Y-58039000D01*
X77908150Y-58039000D01*
X77749400Y-58197750D01*
X76962000Y-58197750D01*
X76962000Y-56668090D01*
X77749400Y-56668090D01*
X77749400Y-57626250D01*
X77908150Y-57785000D01*
X79375000Y-57785000D01*
X79375000Y-56318150D01*
X79629000Y-56318150D01*
X79629000Y-57785000D01*
X81095850Y-57785000D01*
X81254600Y-57626250D01*
X81254600Y-56668090D01*
X81157927Y-56434701D01*
X80979298Y-56256073D01*
X80745909Y-56159400D01*
X79787750Y-56159400D01*
X79629000Y-56318150D01*
X79375000Y-56318150D01*
X79216250Y-56159400D01*
X78258091Y-56159400D01*
X78024702Y-56256073D01*
X77846073Y-56434701D01*
X77749400Y-56668090D01*
X76962000Y-56668090D01*
X76962000Y-54737000D01*
X100838000Y-54737000D01*
X100838000Y-57407417D01*
G36*
X100838000Y-77656329D02*
X100797434Y-77683434D01*
X100551397Y-78051655D01*
X100465000Y-78486000D01*
X100508180Y-78703079D01*
X100508180Y-80721460D01*
X99843590Y-80721460D01*
X99608273Y-80765738D01*
X99392149Y-80904810D01*
X99247159Y-81117010D01*
X99196150Y-81368900D01*
X99196150Y-82969100D01*
X99240428Y-83204417D01*
X99379500Y-83420541D01*
X99591700Y-83565531D01*
X99843590Y-83616540D01*
X100508180Y-83616540D01*
X100508180Y-94488000D01*
X76962000Y-94488000D01*
X76962000Y-85717305D01*
X77870674Y-85717305D01*
X78157043Y-86410372D01*
X78686839Y-86941093D01*
X79379405Y-87228672D01*
X80129305Y-87229326D01*
X80822372Y-86942957D01*
X81353093Y-86413161D01*
X81640672Y-85720595D01*
X81641326Y-84970695D01*
X81354957Y-84277628D01*
X80825161Y-83746907D01*
X80132595Y-83459328D01*
X79382695Y-83458674D01*
X78689628Y-83745043D01*
X78158907Y-84274839D01*
X77871328Y-84967405D01*
X77870674Y-85717305D01*
X76962000Y-85717305D01*
X76962000Y-79025750D01*
X77749400Y-79025750D01*
X77749400Y-79983910D01*
X77846073Y-80217299D01*
X78024702Y-80395927D01*
X78258091Y-80492600D01*
X79216250Y-80492600D01*
X79375000Y-80333850D01*
X79375000Y-78867000D01*
X79629000Y-78867000D01*
X79629000Y-80333850D01*
X79787750Y-80492600D01*
X80745909Y-80492600D01*
X80979298Y-80395927D01*
X81157927Y-80217299D01*
X81254600Y-79983910D01*
X81254600Y-79025750D01*
X81095850Y-78867000D01*
X79629000Y-78867000D01*
X79375000Y-78867000D01*
X77908150Y-78867000D01*
X77749400Y-79025750D01*
X76962000Y-79025750D01*
X76962000Y-77496090D01*
X77749400Y-77496090D01*
X77749400Y-78454250D01*
X77908150Y-78613000D01*
X79375000Y-78613000D01*
X79375000Y-77146150D01*
X79629000Y-77146150D01*
X79629000Y-78613000D01*
X81095850Y-78613000D01*
X81254600Y-78454250D01*
X81254600Y-77496090D01*
X81157927Y-77262701D01*
X80979298Y-77084073D01*
X80745909Y-76987400D01*
X79787750Y-76987400D01*
X79629000Y-77146150D01*
X79375000Y-77146150D01*
X79216250Y-76987400D01*
X78258091Y-76987400D01*
X78024702Y-77084073D01*
X77846073Y-77262701D01*
X77749400Y-77496090D01*
X76962000Y-77496090D01*
X76962000Y-74422000D01*
X100838000Y-74422000D01*
X100838000Y-77656329D01*
X100838000Y-77656329D01*
G37*
X100838000Y-77656329D02*
X100797434Y-77683434D01*
X100551397Y-78051655D01*
X100465000Y-78486000D01*
X100508180Y-78703079D01*
X100508180Y-80721460D01*
X99843590Y-80721460D01*
X99608273Y-80765738D01*
X99392149Y-80904810D01*
X99247159Y-81117010D01*
X99196150Y-81368900D01*
X99196150Y-82969100D01*
X99240428Y-83204417D01*
X99379500Y-83420541D01*
X99591700Y-83565531D01*
X99843590Y-83616540D01*
X100508180Y-83616540D01*
X100508180Y-94488000D01*
X76962000Y-94488000D01*
X76962000Y-85717305D01*
X77870674Y-85717305D01*
X78157043Y-86410372D01*
X78686839Y-86941093D01*
X79379405Y-87228672D01*
X80129305Y-87229326D01*
X80822372Y-86942957D01*
X81353093Y-86413161D01*
X81640672Y-85720595D01*
X81641326Y-84970695D01*
X81354957Y-84277628D01*
X80825161Y-83746907D01*
X80132595Y-83459328D01*
X79382695Y-83458674D01*
X78689628Y-83745043D01*
X78158907Y-84274839D01*
X77871328Y-84967405D01*
X77870674Y-85717305D01*
X76962000Y-85717305D01*
X76962000Y-79025750D01*
X77749400Y-79025750D01*
X77749400Y-79983910D01*
X77846073Y-80217299D01*
X78024702Y-80395927D01*
X78258091Y-80492600D01*
X79216250Y-80492600D01*
X79375000Y-80333850D01*
X79375000Y-78867000D01*
X79629000Y-78867000D01*
X79629000Y-80333850D01*
X79787750Y-80492600D01*
X80745909Y-80492600D01*
X80979298Y-80395927D01*
X81157927Y-80217299D01*
X81254600Y-79983910D01*
X81254600Y-79025750D01*
X81095850Y-78867000D01*
X79629000Y-78867000D01*
X79375000Y-78867000D01*
X77908150Y-78867000D01*
X77749400Y-79025750D01*
X76962000Y-79025750D01*
X76962000Y-77496090D01*
X77749400Y-77496090D01*
X77749400Y-78454250D01*
X77908150Y-78613000D01*
X79375000Y-78613000D01*
X79375000Y-77146150D01*
X79629000Y-77146150D01*
X79629000Y-78613000D01*
X81095850Y-78613000D01*
X81254600Y-78454250D01*
X81254600Y-77496090D01*
X81157927Y-77262701D01*
X80979298Y-77084073D01*
X80745909Y-76987400D01*
X79787750Y-76987400D01*
X79629000Y-77146150D01*
X79375000Y-77146150D01*
X79216250Y-76987400D01*
X78258091Y-76987400D01*
X78024702Y-77084073D01*
X77846073Y-77262701D01*
X77749400Y-77496090D01*
X76962000Y-77496090D01*
X76962000Y-74422000D01*
X100838000Y-74422000D01*
X100838000Y-77656329D01*
G36*
X102829434Y-65826566D02*
X103197654Y-66072603D01*
X103632000Y-66159000D01*
X106971868Y-66159000D01*
X110846804Y-70033936D01*
X110998000Y-73662647D01*
X110998000Y-91866868D01*
X108244566Y-89113434D01*
X108046122Y-88980838D01*
X107876346Y-88867397D01*
X107442000Y-88781000D01*
X104902000Y-88781000D01*
X104467654Y-88867397D01*
X104099434Y-89113434D01*
X103853397Y-89481654D01*
X103767000Y-89916000D01*
X103853397Y-90350346D01*
X104099434Y-90718566D01*
X104467654Y-90964603D01*
X104902000Y-91051000D01*
X106971868Y-91051000D01*
X110195434Y-94274566D01*
X110563654Y-94520603D01*
X110998000Y-94606999D01*
X110998000Y-95250000D01*
X111008006Y-95299410D01*
X111035197Y-95339803D01*
X111641000Y-95945606D01*
X111641000Y-98843868D01*
X109166280Y-101318588D01*
X109166280Y-100411280D01*
X109079883Y-99976934D01*
X108833846Y-99608714D01*
X106974566Y-97749434D01*
X106606345Y-97503397D01*
X106172000Y-97417000D01*
X105737655Y-97503397D01*
X105369434Y-97749434D01*
X105123397Y-98117655D01*
X105037000Y-98552000D01*
X105123397Y-98986345D01*
X105369434Y-99354566D01*
X106896280Y-100881412D01*
X106896280Y-102604830D01*
X105780840Y-102604830D01*
X105545523Y-102649108D01*
X105329399Y-102788180D01*
X105184409Y-103000380D01*
X105133400Y-103252270D01*
X105133400Y-106551730D01*
X105177678Y-106787047D01*
X105316750Y-107003171D01*
X105528950Y-107148161D01*
X105780840Y-107199170D01*
X110281720Y-107199170D01*
X110517037Y-107154892D01*
X110733161Y-107015820D01*
X110878151Y-106803620D01*
X110929160Y-106551730D01*
X110929160Y-105980921D01*
X117690900Y-105980921D01*
X117690900Y-107621070D01*
X117849650Y-107779820D01*
X118999000Y-107779820D01*
X118999000Y-105630980D01*
X119253000Y-105630980D01*
X119253000Y-107779820D01*
X120402350Y-107779820D01*
X120561100Y-107621070D01*
X120561100Y-105980921D01*
X120464427Y-105747532D01*
X120285799Y-105568903D01*
X120052410Y-105472230D01*
X119411750Y-105472230D01*
X119253000Y-105630980D01*
X118999000Y-105630980D01*
X118840250Y-105472230D01*
X118199590Y-105472230D01*
X117966201Y-105568903D01*
X117787573Y-105747532D01*
X117690900Y-105980921D01*
X110929160Y-105980921D01*
X110929160Y-103252270D01*
X110884882Y-103016953D01*
X110803950Y-102891182D01*
X113578566Y-100116566D01*
X113824603Y-99748346D01*
X113911000Y-99314000D01*
X113911000Y-97282000D01*
X126312394Y-97282000D01*
X127508000Y-98477606D01*
X127508000Y-102026868D01*
X125770566Y-100289434D01*
X125402345Y-100043397D01*
X124968000Y-99957000D01*
X124533655Y-100043397D01*
X124165434Y-100289434D01*
X123184688Y-101270180D01*
X120573540Y-101270180D01*
X120573540Y-100605590D01*
X120529262Y-100370273D01*
X120390190Y-100154149D01*
X120177990Y-100009159D01*
X119926100Y-99958150D01*
X118325900Y-99958150D01*
X118090583Y-100002428D01*
X117874459Y-100141500D01*
X117729469Y-100353700D01*
X117678460Y-100605590D01*
X117678460Y-104204770D01*
X117722738Y-104440087D01*
X117861810Y-104656211D01*
X118074010Y-104801201D01*
X118325900Y-104852210D01*
X119926100Y-104852210D01*
X120161417Y-104807932D01*
X120377541Y-104668860D01*
X120522531Y-104456660D01*
X120573540Y-104204770D01*
X120573540Y-103540180D01*
X123654820Y-103540180D01*
X124089166Y-103453783D01*
X124457386Y-103207746D01*
X124968000Y-102697132D01*
X125611000Y-103340132D01*
X125611000Y-113575868D01*
X124009038Y-115177830D01*
X121528840Y-115177830D01*
X121293523Y-115222108D01*
X121077399Y-115361180D01*
X120932409Y-115573380D01*
X120881400Y-115825270D01*
X120881400Y-119124730D01*
X120925678Y-119360047D01*
X121064750Y-119576171D01*
X121276950Y-119721161D01*
X121528840Y-119772170D01*
X126029720Y-119772170D01*
X126265037Y-119727892D01*
X126481161Y-119588820D01*
X126626151Y-119376620D01*
X126677160Y-119124730D01*
X126677160Y-115825270D01*
X126660485Y-115736647D01*
X127508000Y-114889132D01*
X127508000Y-118700452D01*
X125033961Y-121793000D01*
X85777606Y-121793000D01*
X84158356Y-120173750D01*
X91211400Y-120173750D01*
X91211400Y-121131910D01*
X91308073Y-121365299D01*
X91486702Y-121543927D01*
X91720091Y-121640600D01*
X92678250Y-121640600D01*
X92837000Y-121481850D01*
X92837000Y-120015000D01*
X93091000Y-120015000D01*
X93091000Y-121481850D01*
X93249750Y-121640600D01*
X94207909Y-121640600D01*
X94441298Y-121543927D01*
X94619927Y-121365299D01*
X94716600Y-121131910D01*
X94716600Y-120173750D01*
X94557850Y-120015000D01*
X93091000Y-120015000D01*
X92837000Y-120015000D01*
X91370150Y-120015000D01*
X91211400Y-120173750D01*
X84158356Y-120173750D01*
X82628696Y-118644090D01*
X91211400Y-118644090D01*
X91211400Y-119602250D01*
X91370150Y-119761000D01*
X92837000Y-119761000D01*
X92837000Y-118294150D01*
X93091000Y-118294150D01*
X93091000Y-119761000D01*
X94557850Y-119761000D01*
X94716600Y-119602250D01*
X94716600Y-118644090D01*
X94619927Y-118410701D01*
X94441298Y-118232073D01*
X94207909Y-118135400D01*
X93249750Y-118135400D01*
X93091000Y-118294150D01*
X92837000Y-118294150D01*
X92678250Y-118135400D01*
X91720091Y-118135400D01*
X91486702Y-118232073D01*
X91308073Y-118410701D01*
X91211400Y-118644090D01*
X82628696Y-118644090D01*
X78824356Y-114839750D01*
X84635340Y-114839750D01*
X84635340Y-116430370D01*
X84732013Y-116663759D01*
X84910642Y-116842387D01*
X85144031Y-116939060D01*
X86734650Y-116939060D01*
X86893400Y-116780310D01*
X86893400Y-114681000D01*
X87147400Y-114681000D01*
X87147400Y-116780310D01*
X87306150Y-116939060D01*
X88896769Y-116939060D01*
X89130158Y-116842387D01*
X89308787Y-116663759D01*
X89405460Y-116430370D01*
X89405460Y-114839750D01*
X89246710Y-114681000D01*
X87147400Y-114681000D01*
X86893400Y-114681000D01*
X84794090Y-114681000D01*
X84635340Y-114839750D01*
X78824356Y-114839750D01*
X76962000Y-112977394D01*
X76962000Y-110140750D01*
X81635600Y-110140750D01*
X81635600Y-111731370D01*
X81732273Y-111964759D01*
X81910902Y-112143387D01*
X82144291Y-112240060D01*
X83734910Y-112240060D01*
X83893660Y-112081310D01*
X83893660Y-109982000D01*
X84147660Y-109982000D01*
X84147660Y-112081310D01*
X84306410Y-112240060D01*
X84972332Y-112240060D01*
X84910642Y-112265613D01*
X84732013Y-112444241D01*
X84635340Y-112677630D01*
X84635340Y-114268250D01*
X84794090Y-114427000D01*
X86893400Y-114427000D01*
X86893400Y-112327690D01*
X86734650Y-112168940D01*
X86068728Y-112168940D01*
X86130418Y-112143387D01*
X86309047Y-111964759D01*
X86405720Y-111731370D01*
X86405720Y-110140750D01*
X86246970Y-109982000D01*
X84147660Y-109982000D01*
X83893660Y-109982000D01*
X81794350Y-109982000D01*
X81635600Y-110140750D01*
X76962000Y-110140750D01*
X76962000Y-107978630D01*
X81635600Y-107978630D01*
X81635600Y-109569250D01*
X81794350Y-109728000D01*
X83893660Y-109728000D01*
X83893660Y-107628690D01*
X84147660Y-107628690D01*
X84147660Y-109728000D01*
X86246970Y-109728000D01*
X86405720Y-109569250D01*
X86405720Y-107978630D01*
X86309047Y-107745241D01*
X86130418Y-107566613D01*
X85897029Y-107469940D01*
X84306410Y-107469940D01*
X84147660Y-107628690D01*
X83893660Y-107628690D01*
X83734910Y-107469940D01*
X82144291Y-107469940D01*
X81910902Y-107566613D01*
X81732273Y-107745241D01*
X81635600Y-107978630D01*
X76962000Y-107978630D01*
X76962000Y-97918270D01*
X78302110Y-97918270D01*
X78302110Y-101217730D01*
X78346388Y-101453047D01*
X78485460Y-101669171D01*
X78697660Y-101814161D01*
X78949550Y-101865170D01*
X80082109Y-101865170D01*
X80150117Y-102207066D01*
X80396154Y-102575286D01*
X83017434Y-105196566D01*
X83385654Y-105442603D01*
X83820000Y-105529000D01*
X86397868Y-105529000D01*
X88326368Y-107457500D01*
X88270080Y-107457500D01*
X88034763Y-107501778D01*
X87818639Y-107640850D01*
X87673649Y-107853050D01*
X87622640Y-108104940D01*
X87622640Y-111605060D01*
X87666918Y-111840377D01*
X87805990Y-112056501D01*
X87970550Y-112168940D01*
X87306150Y-112168940D01*
X87147400Y-112327690D01*
X87147400Y-114427000D01*
X89246710Y-114427000D01*
X89405460Y-114268250D01*
X89405460Y-112677630D01*
X89308787Y-112444241D01*
X89130158Y-112265613D01*
X89098500Y-112252500D01*
X91770200Y-112252500D01*
X92005517Y-112208222D01*
X92221641Y-112069150D01*
X92366631Y-111856950D01*
X92417640Y-111605060D01*
X92417640Y-110990000D01*
X93480000Y-110990000D01*
X93480000Y-111760000D01*
X93566397Y-112194346D01*
X93664826Y-112341655D01*
X93812434Y-112562566D01*
X99067560Y-117817692D01*
X99067560Y-119360000D01*
X99111838Y-119595317D01*
X99250910Y-119811441D01*
X99463110Y-119956431D01*
X99715000Y-120007440D01*
X102215000Y-120007440D01*
X102450317Y-119963162D01*
X102666441Y-119824090D01*
X102811431Y-119611890D01*
X102845567Y-119443320D01*
X104811285Y-119443320D01*
X104940533Y-119736123D01*
X105640806Y-120004388D01*
X106390435Y-119984250D01*
X106989467Y-119736123D01*
X107118715Y-119443320D01*
X105965000Y-118289605D01*
X104811285Y-119443320D01*
X102845567Y-119443320D01*
X102862440Y-119360000D01*
X102862440Y-117785806D01*
X104070612Y-117785806D01*
X104090750Y-118535435D01*
X104338877Y-119134467D01*
X104631680Y-119263715D01*
X105785395Y-118110000D01*
X106144605Y-118110000D01*
X107298320Y-119263715D01*
X107591123Y-119134467D01*
X107859388Y-118434194D01*
X107839250Y-117684565D01*
X107591123Y-117085533D01*
X107298320Y-116956285D01*
X106144605Y-118110000D01*
X105785395Y-118110000D01*
X104631680Y-116956285D01*
X104338877Y-117085533D01*
X104070612Y-117785806D01*
X102862440Y-117785806D01*
X102862440Y-116860000D01*
X102846763Y-116776680D01*
X104811285Y-116776680D01*
X105965000Y-117930395D01*
X107118715Y-116776680D01*
X106989467Y-116483877D01*
X106289194Y-116215612D01*
X105539565Y-116235750D01*
X104940533Y-116483877D01*
X104811285Y-116776680D01*
X102846763Y-116776680D01*
X102818162Y-116624683D01*
X102679090Y-116408559D01*
X102466890Y-116263569D01*
X102215000Y-116212560D01*
X102100000Y-116212560D01*
X102100000Y-115405132D01*
X103594132Y-113911000D01*
X109765868Y-113911000D01*
X112084110Y-116229243D01*
X112084110Y-119124730D01*
X112128388Y-119360047D01*
X112267460Y-119576171D01*
X112479660Y-119721161D01*
X112731550Y-119772170D01*
X117229890Y-119772170D01*
X117465207Y-119727892D01*
X117681331Y-119588820D01*
X117826321Y-119376620D01*
X117877330Y-119124730D01*
X117877330Y-115825270D01*
X117833052Y-115589953D01*
X117693980Y-115373829D01*
X117481780Y-115228839D01*
X117229890Y-115177830D01*
X114242963Y-115177830D01*
X111038566Y-111973434D01*
X111025583Y-111964759D01*
X110670346Y-111727397D01*
X110236000Y-111641000D01*
X103124000Y-111641000D01*
X102689654Y-111727397D01*
X102334417Y-111964759D01*
X102321434Y-111973434D01*
X100162434Y-114132434D01*
X99916397Y-114500654D01*
X99830000Y-114935000D01*
X99830000Y-115369868D01*
X95750000Y-111289868D01*
X95750000Y-110325132D01*
X97882562Y-108192570D01*
X117690900Y-108192570D01*
X117690900Y-109832719D01*
X117787573Y-110066108D01*
X117966201Y-110244737D01*
X118199590Y-110341410D01*
X118840250Y-110341410D01*
X118999000Y-110182660D01*
X118999000Y-108033820D01*
X119253000Y-108033820D01*
X119253000Y-110182660D01*
X119411750Y-110341410D01*
X120052410Y-110341410D01*
X120285799Y-110244737D01*
X120464427Y-110066108D01*
X120561100Y-109832719D01*
X120561100Y-108192570D01*
X120402350Y-108033820D01*
X119253000Y-108033820D01*
X118999000Y-108033820D01*
X117849650Y-108033820D01*
X117690900Y-108192570D01*
X97882562Y-108192570D01*
X98875962Y-107199170D01*
X101481890Y-107199170D01*
X101717207Y-107154892D01*
X101933331Y-107015820D01*
X102078321Y-106803620D01*
X102129330Y-106551730D01*
X102129330Y-103252270D01*
X102085052Y-103016953D01*
X101945980Y-102800829D01*
X101733780Y-102655839D01*
X101481890Y-102604830D01*
X96983550Y-102604830D01*
X96748233Y-102649108D01*
X96532109Y-102788180D01*
X96387119Y-103000380D01*
X96336110Y-103252270D01*
X96336110Y-106528758D01*
X94144868Y-108720000D01*
X92417640Y-108720000D01*
X92417640Y-108104940D01*
X92373362Y-107869623D01*
X92234290Y-107653499D01*
X92022090Y-107508509D01*
X91770200Y-107457500D01*
X91137508Y-107457500D01*
X91068743Y-107111794D01*
X90822706Y-106743574D01*
X87670566Y-103591434D01*
X87593859Y-103540180D01*
X87302346Y-103345397D01*
X86868000Y-103259000D01*
X84290132Y-103259000D01*
X82896302Y-101865170D01*
X83447890Y-101865170D01*
X83683207Y-101820892D01*
X83899331Y-101681820D01*
X84044321Y-101469620D01*
X84095330Y-101217730D01*
X84095330Y-97918270D01*
X84051052Y-97682953D01*
X83911980Y-97466829D01*
X83699780Y-97321839D01*
X83447890Y-97270830D01*
X78949550Y-97270830D01*
X78714233Y-97315108D01*
X78498109Y-97454180D01*
X78353119Y-97666380D01*
X78302110Y-97918270D01*
X76962000Y-97918270D01*
X76962000Y-96012000D01*
X99232868Y-96012000D01*
X96811868Y-98433000D01*
X92895160Y-98433000D01*
X92895160Y-97918270D01*
X92850882Y-97682953D01*
X92711810Y-97466829D01*
X92499610Y-97321839D01*
X92247720Y-97270830D01*
X87746840Y-97270830D01*
X87511523Y-97315108D01*
X87295399Y-97454180D01*
X87150409Y-97666380D01*
X87099400Y-97918270D01*
X87099400Y-101217730D01*
X87143678Y-101453047D01*
X87282750Y-101669171D01*
X87494950Y-101814161D01*
X87746840Y-101865170D01*
X92247720Y-101865170D01*
X92483037Y-101820892D01*
X92699161Y-101681820D01*
X92844151Y-101469620D01*
X92895160Y-101217730D01*
X92895160Y-100703000D01*
X97282000Y-100703000D01*
X97716346Y-100616603D01*
X98084566Y-100370566D01*
X102445746Y-96009386D01*
X102691784Y-95641165D01*
X102778180Y-95206820D01*
X102778180Y-83616540D01*
X103442770Y-83616540D01*
X103678087Y-83572262D01*
X103894211Y-83433190D01*
X104039201Y-83220990D01*
X104090210Y-82969100D01*
X104090210Y-82454750D01*
X104710230Y-82454750D01*
X104710230Y-83095410D01*
X104806903Y-83328799D01*
X104985532Y-83507427D01*
X105218921Y-83604100D01*
X106859070Y-83604100D01*
X107017820Y-83445350D01*
X107017820Y-82296000D01*
X107271820Y-82296000D01*
X107271820Y-83445350D01*
X107430570Y-83604100D01*
X109070719Y-83604100D01*
X109304108Y-83507427D01*
X109482737Y-83328799D01*
X109579410Y-83095410D01*
X109579410Y-82454750D01*
X109420660Y-82296000D01*
X107271820Y-82296000D01*
X107017820Y-82296000D01*
X104868980Y-82296000D01*
X104710230Y-82454750D01*
X104090210Y-82454750D01*
X104090210Y-81368900D01*
X104066444Y-81242590D01*
X104710230Y-81242590D01*
X104710230Y-81883250D01*
X104868980Y-82042000D01*
X107017820Y-82042000D01*
X107017820Y-80892650D01*
X107271820Y-80892650D01*
X107271820Y-82042000D01*
X109420660Y-82042000D01*
X109579410Y-81883250D01*
X109579410Y-81242590D01*
X109482737Y-81009201D01*
X109304108Y-80830573D01*
X109070719Y-80733900D01*
X107430570Y-80733900D01*
X107271820Y-80892650D01*
X107017820Y-80892650D01*
X106859070Y-80733900D01*
X105218921Y-80733900D01*
X104985532Y-80830573D01*
X104806903Y-81009201D01*
X104710230Y-81242590D01*
X104066444Y-81242590D01*
X104045932Y-81133583D01*
X103906860Y-80917459D01*
X103694660Y-80772469D01*
X103442770Y-80721460D01*
X102778180Y-80721460D01*
X102778180Y-78529180D01*
X102691783Y-78094834D01*
X102445746Y-77726614D01*
X102402566Y-77683434D01*
X102034345Y-77437397D01*
X101727000Y-77376262D01*
X101727000Y-67310000D01*
X101735000Y-67310000D01*
X101735000Y-69342000D01*
X101821397Y-69776346D01*
X101919826Y-69923655D01*
X102067434Y-70144566D01*
X105623434Y-73700566D01*
X105991654Y-73946603D01*
X106426000Y-74032999D01*
X106860345Y-73946603D01*
X107228566Y-73700566D01*
X107474603Y-73332345D01*
X107560999Y-72898000D01*
X107474603Y-72463654D01*
X107228566Y-72095434D01*
X104005000Y-68871868D01*
X104005000Y-67310000D01*
X103918603Y-66875654D01*
X103672566Y-66507434D01*
X103304346Y-66261397D01*
X102870000Y-66175000D01*
X102435654Y-66261397D01*
X102067434Y-66507434D01*
X101821397Y-66875654D01*
X101735000Y-67310000D01*
X101727000Y-67310000D01*
X101727000Y-64724132D01*
X102829434Y-65826566D01*
X102829434Y-65826566D01*
G37*
X102829434Y-65826566D02*
X103197654Y-66072603D01*
X103632000Y-66159000D01*
X106971868Y-66159000D01*
X110846804Y-70033936D01*
X110998000Y-73662647D01*
X110998000Y-91866868D01*
X108244566Y-89113434D01*
X108046122Y-88980838D01*
X107876346Y-88867397D01*
X107442000Y-88781000D01*
X104902000Y-88781000D01*
X104467654Y-88867397D01*
X104099434Y-89113434D01*
X103853397Y-89481654D01*
X103767000Y-89916000D01*
X103853397Y-90350346D01*
X104099434Y-90718566D01*
X104467654Y-90964603D01*
X104902000Y-91051000D01*
X106971868Y-91051000D01*
X110195434Y-94274566D01*
X110563654Y-94520603D01*
X110998000Y-94606999D01*
X110998000Y-95250000D01*
X111008006Y-95299410D01*
X111035197Y-95339803D01*
X111641000Y-95945606D01*
X111641000Y-98843868D01*
X109166280Y-101318588D01*
X109166280Y-100411280D01*
X109079883Y-99976934D01*
X108833846Y-99608714D01*
X106974566Y-97749434D01*
X106606345Y-97503397D01*
X106172000Y-97417000D01*
X105737655Y-97503397D01*
X105369434Y-97749434D01*
X105123397Y-98117655D01*
X105037000Y-98552000D01*
X105123397Y-98986345D01*
X105369434Y-99354566D01*
X106896280Y-100881412D01*
X106896280Y-102604830D01*
X105780840Y-102604830D01*
X105545523Y-102649108D01*
X105329399Y-102788180D01*
X105184409Y-103000380D01*
X105133400Y-103252270D01*
X105133400Y-106551730D01*
X105177678Y-106787047D01*
X105316750Y-107003171D01*
X105528950Y-107148161D01*
X105780840Y-107199170D01*
X110281720Y-107199170D01*
X110517037Y-107154892D01*
X110733161Y-107015820D01*
X110878151Y-106803620D01*
X110929160Y-106551730D01*
X110929160Y-105980921D01*
X117690900Y-105980921D01*
X117690900Y-107621070D01*
X117849650Y-107779820D01*
X118999000Y-107779820D01*
X118999000Y-105630980D01*
X119253000Y-105630980D01*
X119253000Y-107779820D01*
X120402350Y-107779820D01*
X120561100Y-107621070D01*
X120561100Y-105980921D01*
X120464427Y-105747532D01*
X120285799Y-105568903D01*
X120052410Y-105472230D01*
X119411750Y-105472230D01*
X119253000Y-105630980D01*
X118999000Y-105630980D01*
X118840250Y-105472230D01*
X118199590Y-105472230D01*
X117966201Y-105568903D01*
X117787573Y-105747532D01*
X117690900Y-105980921D01*
X110929160Y-105980921D01*
X110929160Y-103252270D01*
X110884882Y-103016953D01*
X110803950Y-102891182D01*
X113578566Y-100116566D01*
X113824603Y-99748346D01*
X113911000Y-99314000D01*
X113911000Y-97282000D01*
X126312394Y-97282000D01*
X127508000Y-98477606D01*
X127508000Y-102026868D01*
X125770566Y-100289434D01*
X125402345Y-100043397D01*
X124968000Y-99957000D01*
X124533655Y-100043397D01*
X124165434Y-100289434D01*
X123184688Y-101270180D01*
X120573540Y-101270180D01*
X120573540Y-100605590D01*
X120529262Y-100370273D01*
X120390190Y-100154149D01*
X120177990Y-100009159D01*
X119926100Y-99958150D01*
X118325900Y-99958150D01*
X118090583Y-100002428D01*
X117874459Y-100141500D01*
X117729469Y-100353700D01*
X117678460Y-100605590D01*
X117678460Y-104204770D01*
X117722738Y-104440087D01*
X117861810Y-104656211D01*
X118074010Y-104801201D01*
X118325900Y-104852210D01*
X119926100Y-104852210D01*
X120161417Y-104807932D01*
X120377541Y-104668860D01*
X120522531Y-104456660D01*
X120573540Y-104204770D01*
X120573540Y-103540180D01*
X123654820Y-103540180D01*
X124089166Y-103453783D01*
X124457386Y-103207746D01*
X124968000Y-102697132D01*
X125611000Y-103340132D01*
X125611000Y-113575868D01*
X124009038Y-115177830D01*
X121528840Y-115177830D01*
X121293523Y-115222108D01*
X121077399Y-115361180D01*
X120932409Y-115573380D01*
X120881400Y-115825270D01*
X120881400Y-119124730D01*
X120925678Y-119360047D01*
X121064750Y-119576171D01*
X121276950Y-119721161D01*
X121528840Y-119772170D01*
X126029720Y-119772170D01*
X126265037Y-119727892D01*
X126481161Y-119588820D01*
X126626151Y-119376620D01*
X126677160Y-119124730D01*
X126677160Y-115825270D01*
X126660485Y-115736647D01*
X127508000Y-114889132D01*
X127508000Y-118700452D01*
X125033961Y-121793000D01*
X85777606Y-121793000D01*
X84158356Y-120173750D01*
X91211400Y-120173750D01*
X91211400Y-121131910D01*
X91308073Y-121365299D01*
X91486702Y-121543927D01*
X91720091Y-121640600D01*
X92678250Y-121640600D01*
X92837000Y-121481850D01*
X92837000Y-120015000D01*
X93091000Y-120015000D01*
X93091000Y-121481850D01*
X93249750Y-121640600D01*
X94207909Y-121640600D01*
X94441298Y-121543927D01*
X94619927Y-121365299D01*
X94716600Y-121131910D01*
X94716600Y-120173750D01*
X94557850Y-120015000D01*
X93091000Y-120015000D01*
X92837000Y-120015000D01*
X91370150Y-120015000D01*
X91211400Y-120173750D01*
X84158356Y-120173750D01*
X82628696Y-118644090D01*
X91211400Y-118644090D01*
X91211400Y-119602250D01*
X91370150Y-119761000D01*
X92837000Y-119761000D01*
X92837000Y-118294150D01*
X93091000Y-118294150D01*
X93091000Y-119761000D01*
X94557850Y-119761000D01*
X94716600Y-119602250D01*
X94716600Y-118644090D01*
X94619927Y-118410701D01*
X94441298Y-118232073D01*
X94207909Y-118135400D01*
X93249750Y-118135400D01*
X93091000Y-118294150D01*
X92837000Y-118294150D01*
X92678250Y-118135400D01*
X91720091Y-118135400D01*
X91486702Y-118232073D01*
X91308073Y-118410701D01*
X91211400Y-118644090D01*
X82628696Y-118644090D01*
X78824356Y-114839750D01*
X84635340Y-114839750D01*
X84635340Y-116430370D01*
X84732013Y-116663759D01*
X84910642Y-116842387D01*
X85144031Y-116939060D01*
X86734650Y-116939060D01*
X86893400Y-116780310D01*
X86893400Y-114681000D01*
X87147400Y-114681000D01*
X87147400Y-116780310D01*
X87306150Y-116939060D01*
X88896769Y-116939060D01*
X89130158Y-116842387D01*
X89308787Y-116663759D01*
X89405460Y-116430370D01*
X89405460Y-114839750D01*
X89246710Y-114681000D01*
X87147400Y-114681000D01*
X86893400Y-114681000D01*
X84794090Y-114681000D01*
X84635340Y-114839750D01*
X78824356Y-114839750D01*
X76962000Y-112977394D01*
X76962000Y-110140750D01*
X81635600Y-110140750D01*
X81635600Y-111731370D01*
X81732273Y-111964759D01*
X81910902Y-112143387D01*
X82144291Y-112240060D01*
X83734910Y-112240060D01*
X83893660Y-112081310D01*
X83893660Y-109982000D01*
X84147660Y-109982000D01*
X84147660Y-112081310D01*
X84306410Y-112240060D01*
X84972332Y-112240060D01*
X84910642Y-112265613D01*
X84732013Y-112444241D01*
X84635340Y-112677630D01*
X84635340Y-114268250D01*
X84794090Y-114427000D01*
X86893400Y-114427000D01*
X86893400Y-112327690D01*
X86734650Y-112168940D01*
X86068728Y-112168940D01*
X86130418Y-112143387D01*
X86309047Y-111964759D01*
X86405720Y-111731370D01*
X86405720Y-110140750D01*
X86246970Y-109982000D01*
X84147660Y-109982000D01*
X83893660Y-109982000D01*
X81794350Y-109982000D01*
X81635600Y-110140750D01*
X76962000Y-110140750D01*
X76962000Y-107978630D01*
X81635600Y-107978630D01*
X81635600Y-109569250D01*
X81794350Y-109728000D01*
X83893660Y-109728000D01*
X83893660Y-107628690D01*
X84147660Y-107628690D01*
X84147660Y-109728000D01*
X86246970Y-109728000D01*
X86405720Y-109569250D01*
X86405720Y-107978630D01*
X86309047Y-107745241D01*
X86130418Y-107566613D01*
X85897029Y-107469940D01*
X84306410Y-107469940D01*
X84147660Y-107628690D01*
X83893660Y-107628690D01*
X83734910Y-107469940D01*
X82144291Y-107469940D01*
X81910902Y-107566613D01*
X81732273Y-107745241D01*
X81635600Y-107978630D01*
X76962000Y-107978630D01*
X76962000Y-97918270D01*
X78302110Y-97918270D01*
X78302110Y-101217730D01*
X78346388Y-101453047D01*
X78485460Y-101669171D01*
X78697660Y-101814161D01*
X78949550Y-101865170D01*
X80082109Y-101865170D01*
X80150117Y-102207066D01*
X80396154Y-102575286D01*
X83017434Y-105196566D01*
X83385654Y-105442603D01*
X83820000Y-105529000D01*
X86397868Y-105529000D01*
X88326368Y-107457500D01*
X88270080Y-107457500D01*
X88034763Y-107501778D01*
X87818639Y-107640850D01*
X87673649Y-107853050D01*
X87622640Y-108104940D01*
X87622640Y-111605060D01*
X87666918Y-111840377D01*
X87805990Y-112056501D01*
X87970550Y-112168940D01*
X87306150Y-112168940D01*
X87147400Y-112327690D01*
X87147400Y-114427000D01*
X89246710Y-114427000D01*
X89405460Y-114268250D01*
X89405460Y-112677630D01*
X89308787Y-112444241D01*
X89130158Y-112265613D01*
X89098500Y-112252500D01*
X91770200Y-112252500D01*
X92005517Y-112208222D01*
X92221641Y-112069150D01*
X92366631Y-111856950D01*
X92417640Y-111605060D01*
X92417640Y-110990000D01*
X93480000Y-110990000D01*
X93480000Y-111760000D01*
X93566397Y-112194346D01*
X93664826Y-112341655D01*
X93812434Y-112562566D01*
X99067560Y-117817692D01*
X99067560Y-119360000D01*
X99111838Y-119595317D01*
X99250910Y-119811441D01*
X99463110Y-119956431D01*
X99715000Y-120007440D01*
X102215000Y-120007440D01*
X102450317Y-119963162D01*
X102666441Y-119824090D01*
X102811431Y-119611890D01*
X102845567Y-119443320D01*
X104811285Y-119443320D01*
X104940533Y-119736123D01*
X105640806Y-120004388D01*
X106390435Y-119984250D01*
X106989467Y-119736123D01*
X107118715Y-119443320D01*
X105965000Y-118289605D01*
X104811285Y-119443320D01*
X102845567Y-119443320D01*
X102862440Y-119360000D01*
X102862440Y-117785806D01*
X104070612Y-117785806D01*
X104090750Y-118535435D01*
X104338877Y-119134467D01*
X104631680Y-119263715D01*
X105785395Y-118110000D01*
X106144605Y-118110000D01*
X107298320Y-119263715D01*
X107591123Y-119134467D01*
X107859388Y-118434194D01*
X107839250Y-117684565D01*
X107591123Y-117085533D01*
X107298320Y-116956285D01*
X106144605Y-118110000D01*
X105785395Y-118110000D01*
X104631680Y-116956285D01*
X104338877Y-117085533D01*
X104070612Y-117785806D01*
X102862440Y-117785806D01*
X102862440Y-116860000D01*
X102846763Y-116776680D01*
X104811285Y-116776680D01*
X105965000Y-117930395D01*
X107118715Y-116776680D01*
X106989467Y-116483877D01*
X106289194Y-116215612D01*
X105539565Y-116235750D01*
X104940533Y-116483877D01*
X104811285Y-116776680D01*
X102846763Y-116776680D01*
X102818162Y-116624683D01*
X102679090Y-116408559D01*
X102466890Y-116263569D01*
X102215000Y-116212560D01*
X102100000Y-116212560D01*
X102100000Y-115405132D01*
X103594132Y-113911000D01*
X109765868Y-113911000D01*
X112084110Y-116229243D01*
X112084110Y-119124730D01*
X112128388Y-119360047D01*
X112267460Y-119576171D01*
X112479660Y-119721161D01*
X112731550Y-119772170D01*
X117229890Y-119772170D01*
X117465207Y-119727892D01*
X117681331Y-119588820D01*
X117826321Y-119376620D01*
X117877330Y-119124730D01*
X117877330Y-115825270D01*
X117833052Y-115589953D01*
X117693980Y-115373829D01*
X117481780Y-115228839D01*
X117229890Y-115177830D01*
X114242963Y-115177830D01*
X111038566Y-111973434D01*
X111025583Y-111964759D01*
X110670346Y-111727397D01*
X110236000Y-111641000D01*
X103124000Y-111641000D01*
X102689654Y-111727397D01*
X102334417Y-111964759D01*
X102321434Y-111973434D01*
X100162434Y-114132434D01*
X99916397Y-114500654D01*
X99830000Y-114935000D01*
X99830000Y-115369868D01*
X95750000Y-111289868D01*
X95750000Y-110325132D01*
X97882562Y-108192570D01*
X117690900Y-108192570D01*
X117690900Y-109832719D01*
X117787573Y-110066108D01*
X117966201Y-110244737D01*
X118199590Y-110341410D01*
X118840250Y-110341410D01*
X118999000Y-110182660D01*
X118999000Y-108033820D01*
X119253000Y-108033820D01*
X119253000Y-110182660D01*
X119411750Y-110341410D01*
X120052410Y-110341410D01*
X120285799Y-110244737D01*
X120464427Y-110066108D01*
X120561100Y-109832719D01*
X120561100Y-108192570D01*
X120402350Y-108033820D01*
X119253000Y-108033820D01*
X118999000Y-108033820D01*
X117849650Y-108033820D01*
X117690900Y-108192570D01*
X97882562Y-108192570D01*
X98875962Y-107199170D01*
X101481890Y-107199170D01*
X101717207Y-107154892D01*
X101933331Y-107015820D01*
X102078321Y-106803620D01*
X102129330Y-106551730D01*
X102129330Y-103252270D01*
X102085052Y-103016953D01*
X101945980Y-102800829D01*
X101733780Y-102655839D01*
X101481890Y-102604830D01*
X96983550Y-102604830D01*
X96748233Y-102649108D01*
X96532109Y-102788180D01*
X96387119Y-103000380D01*
X96336110Y-103252270D01*
X96336110Y-106528758D01*
X94144868Y-108720000D01*
X92417640Y-108720000D01*
X92417640Y-108104940D01*
X92373362Y-107869623D01*
X92234290Y-107653499D01*
X92022090Y-107508509D01*
X91770200Y-107457500D01*
X91137508Y-107457500D01*
X91068743Y-107111794D01*
X90822706Y-106743574D01*
X87670566Y-103591434D01*
X87593859Y-103540180D01*
X87302346Y-103345397D01*
X86868000Y-103259000D01*
X84290132Y-103259000D01*
X82896302Y-101865170D01*
X83447890Y-101865170D01*
X83683207Y-101820892D01*
X83899331Y-101681820D01*
X84044321Y-101469620D01*
X84095330Y-101217730D01*
X84095330Y-97918270D01*
X84051052Y-97682953D01*
X83911980Y-97466829D01*
X83699780Y-97321839D01*
X83447890Y-97270830D01*
X78949550Y-97270830D01*
X78714233Y-97315108D01*
X78498109Y-97454180D01*
X78353119Y-97666380D01*
X78302110Y-97918270D01*
X76962000Y-97918270D01*
X76962000Y-96012000D01*
X99232868Y-96012000D01*
X96811868Y-98433000D01*
X92895160Y-98433000D01*
X92895160Y-97918270D01*
X92850882Y-97682953D01*
X92711810Y-97466829D01*
X92499610Y-97321839D01*
X92247720Y-97270830D01*
X87746840Y-97270830D01*
X87511523Y-97315108D01*
X87295399Y-97454180D01*
X87150409Y-97666380D01*
X87099400Y-97918270D01*
X87099400Y-101217730D01*
X87143678Y-101453047D01*
X87282750Y-101669171D01*
X87494950Y-101814161D01*
X87746840Y-101865170D01*
X92247720Y-101865170D01*
X92483037Y-101820892D01*
X92699161Y-101681820D01*
X92844151Y-101469620D01*
X92895160Y-101217730D01*
X92895160Y-100703000D01*
X97282000Y-100703000D01*
X97716346Y-100616603D01*
X98084566Y-100370566D01*
X102445746Y-96009386D01*
X102691784Y-95641165D01*
X102778180Y-95206820D01*
X102778180Y-83616540D01*
X103442770Y-83616540D01*
X103678087Y-83572262D01*
X103894211Y-83433190D01*
X104039201Y-83220990D01*
X104090210Y-82969100D01*
X104090210Y-82454750D01*
X104710230Y-82454750D01*
X104710230Y-83095410D01*
X104806903Y-83328799D01*
X104985532Y-83507427D01*
X105218921Y-83604100D01*
X106859070Y-83604100D01*
X107017820Y-83445350D01*
X107017820Y-82296000D01*
X107271820Y-82296000D01*
X107271820Y-83445350D01*
X107430570Y-83604100D01*
X109070719Y-83604100D01*
X109304108Y-83507427D01*
X109482737Y-83328799D01*
X109579410Y-83095410D01*
X109579410Y-82454750D01*
X109420660Y-82296000D01*
X107271820Y-82296000D01*
X107017820Y-82296000D01*
X104868980Y-82296000D01*
X104710230Y-82454750D01*
X104090210Y-82454750D01*
X104090210Y-81368900D01*
X104066444Y-81242590D01*
X104710230Y-81242590D01*
X104710230Y-81883250D01*
X104868980Y-82042000D01*
X107017820Y-82042000D01*
X107017820Y-80892650D01*
X107271820Y-80892650D01*
X107271820Y-82042000D01*
X109420660Y-82042000D01*
X109579410Y-81883250D01*
X109579410Y-81242590D01*
X109482737Y-81009201D01*
X109304108Y-80830573D01*
X109070719Y-80733900D01*
X107430570Y-80733900D01*
X107271820Y-80892650D01*
X107017820Y-80892650D01*
X106859070Y-80733900D01*
X105218921Y-80733900D01*
X104985532Y-80830573D01*
X104806903Y-81009201D01*
X104710230Y-81242590D01*
X104066444Y-81242590D01*
X104045932Y-81133583D01*
X103906860Y-80917459D01*
X103694660Y-80772469D01*
X103442770Y-80721460D01*
X102778180Y-80721460D01*
X102778180Y-78529180D01*
X102691783Y-78094834D01*
X102445746Y-77726614D01*
X102402566Y-77683434D01*
X102034345Y-77437397D01*
X101727000Y-77376262D01*
X101727000Y-67310000D01*
X101735000Y-67310000D01*
X101735000Y-69342000D01*
X101821397Y-69776346D01*
X101919826Y-69923655D01*
X102067434Y-70144566D01*
X105623434Y-73700566D01*
X105991654Y-73946603D01*
X106426000Y-74032999D01*
X106860345Y-73946603D01*
X107228566Y-73700566D01*
X107474603Y-73332345D01*
X107560999Y-72898000D01*
X107474603Y-72463654D01*
X107228566Y-72095434D01*
X104005000Y-68871868D01*
X104005000Y-67310000D01*
X103918603Y-66875654D01*
X103672566Y-66507434D01*
X103304346Y-66261397D01*
X102870000Y-66175000D01*
X102435654Y-66261397D01*
X102067434Y-66507434D01*
X101821397Y-66875654D01*
X101735000Y-67310000D01*
X101727000Y-67310000D01*
X101727000Y-64724132D01*
X102829434Y-65826566D01*
G36*
X110382977Y-58902109D02*
X110707227Y-66684095D01*
X108244566Y-64221434D01*
X108121801Y-64139405D01*
X107876346Y-63975397D01*
X107442000Y-63889000D01*
X104102132Y-63889000D01*
X102297899Y-62084767D01*
X102312210Y-62014100D01*
X102312210Y-61499750D01*
X102932230Y-61499750D01*
X102932230Y-62140410D01*
X103028903Y-62373799D01*
X103207532Y-62552427D01*
X103440921Y-62649100D01*
X105081070Y-62649100D01*
X105239820Y-62490350D01*
X105239820Y-61341000D01*
X105493820Y-61341000D01*
X105493820Y-62490350D01*
X105652570Y-62649100D01*
X107292719Y-62649100D01*
X107526108Y-62552427D01*
X107704737Y-62373799D01*
X107801410Y-62140410D01*
X107801410Y-61499750D01*
X107642660Y-61341000D01*
X105493820Y-61341000D01*
X105239820Y-61341000D01*
X103090980Y-61341000D01*
X102932230Y-61499750D01*
X102312210Y-61499750D01*
X102312210Y-60413900D01*
X102288444Y-60287590D01*
X102932230Y-60287590D01*
X102932230Y-60928250D01*
X103090980Y-61087000D01*
X105239820Y-61087000D01*
X105239820Y-59937650D01*
X105493820Y-59937650D01*
X105493820Y-61087000D01*
X107642660Y-61087000D01*
X107801410Y-60928250D01*
X107801410Y-60287590D01*
X107704737Y-60054201D01*
X107526108Y-59875573D01*
X107292719Y-59778900D01*
X105652570Y-59778900D01*
X105493820Y-59937650D01*
X105239820Y-59937650D01*
X105081070Y-59778900D01*
X103440921Y-59778900D01*
X103207532Y-59875573D01*
X103028903Y-60054201D01*
X102932230Y-60287590D01*
X102288444Y-60287590D01*
X102267932Y-60178583D01*
X102128860Y-59962459D01*
X101916660Y-59817469D01*
X101727000Y-59779062D01*
X101727000Y-54662606D01*
X102422606Y-53967000D01*
X105447868Y-53967000D01*
X110382977Y-58902109D01*
X110382977Y-58902109D01*
G37*
X110382977Y-58902109D02*
X110707227Y-66684095D01*
X108244566Y-64221434D01*
X108121801Y-64139405D01*
X107876346Y-63975397D01*
X107442000Y-63889000D01*
X104102132Y-63889000D01*
X102297899Y-62084767D01*
X102312210Y-62014100D01*
X102312210Y-61499750D01*
X102932230Y-61499750D01*
X102932230Y-62140410D01*
X103028903Y-62373799D01*
X103207532Y-62552427D01*
X103440921Y-62649100D01*
X105081070Y-62649100D01*
X105239820Y-62490350D01*
X105239820Y-61341000D01*
X105493820Y-61341000D01*
X105493820Y-62490350D01*
X105652570Y-62649100D01*
X107292719Y-62649100D01*
X107526108Y-62552427D01*
X107704737Y-62373799D01*
X107801410Y-62140410D01*
X107801410Y-61499750D01*
X107642660Y-61341000D01*
X105493820Y-61341000D01*
X105239820Y-61341000D01*
X103090980Y-61341000D01*
X102932230Y-61499750D01*
X102312210Y-61499750D01*
X102312210Y-60413900D01*
X102288444Y-60287590D01*
X102932230Y-60287590D01*
X102932230Y-60928250D01*
X103090980Y-61087000D01*
X105239820Y-61087000D01*
X105239820Y-59937650D01*
X105493820Y-59937650D01*
X105493820Y-61087000D01*
X107642660Y-61087000D01*
X107801410Y-60928250D01*
X107801410Y-60287590D01*
X107704737Y-60054201D01*
X107526108Y-59875573D01*
X107292719Y-59778900D01*
X105652570Y-59778900D01*
X105493820Y-59937650D01*
X105239820Y-59937650D01*
X105081070Y-59778900D01*
X103440921Y-59778900D01*
X103207532Y-59875573D01*
X103028903Y-60054201D01*
X102932230Y-60287590D01*
X102288444Y-60287590D01*
X102267932Y-60178583D01*
X102128860Y-59962459D01*
X101916660Y-59817469D01*
X101727000Y-59779062D01*
X101727000Y-54662606D01*
X102422606Y-53967000D01*
X105447868Y-53967000D01*
X110382977Y-58902109D01*
M02*
